<svg xmlns="http://www.w3.org/2000/svg" xmlns:xlink="http://www.w3.org/1999/xlink" viewBox="0 0 318.46 359.11"><defs><style>.cls-1{fill:none;}.cls-2{isolation:isolate;}.cls-3,.cls-4{fill:#d5d5d5;}.cls-10,.cls-11,.cls-12,.cls-13,.cls-14,.cls-155,.cls-156,.cls-16,.cls-17,.cls-18,.cls-20,.cls-21,.cls-22,.cls-23,.cls-4,.cls-5,.cls-6,.cls-7,.cls-8{fill-rule:evenodd;}.cls-5{fill:url(#Áĺçűě_ííűé_ăđŕäčĺíň_7);}.cls-6{fill:#717171;}.cls-15,.cls-17,.cls-7{fill:#868686;}.cls-8,.cls-9{fill:#ce4d2a;}.cls-10,.cls-155,.cls-156,.cls-16,.cls-17,.cls-20,.cls-22,.cls-23{mix-blend-mode:multiply;}.cls-10{fill:url(#Áĺçűě_ííűé_ăđŕäčĺíň_2);}.cls-11{fill:#414141;}.cls-12{fill:url(#Áĺçűě_ííűé_ăđŕäčĺíň_6);}.cls-13{fill:url(#Áĺçűě_ííűé_ăđŕäčĺíň_7-2);}.cls-14{fill:url(#Áĺçűě_ííűé_ăđŕäčĺíň_6-2);}.cls-16{fill:url(#Áĺçűě_ííűé_ăđŕäčĺíň_3);}.cls-17{opacity:0.5;}.cls-18{fill:url(#Áĺçűě_ííűé_ăđŕäčĺíň_5);}.cls-19{fill:url(#Áĺçűě_ííűé_ăđŕäčĺíň_93);}.cls-20{fill:url(#Áĺçűě_ííűé_ăđŕäčĺíň_3-2);}.cls-21{fill:url(#Áĺçűě_ííűé_ăđŕäčĺíň_4);}.cls-22{fill:url(#Áĺçűě_ííűé_ăđŕäčĺíň_3-3);}.cls-23{fill:url(#Áĺçűě_ííűé_ăđŕäčĺíň_3-4);}.cls-24{fill:#fff;}.cls-154,.cls-25{mix-blend-mode:screen;}.cls-26{clip-path:url(#clip-path);}.cls-27{fill:#000002;}.cls-28{fill:#010305;}.cls-29{fill:#030305;}.cls-30{fill:#030307;}.cls-31{fill:#03050a;}.cls-32{fill:#05050a;}.cls-33{fill:#05050c;}.cls-34{fill:#05050e;}.cls-35{fill:#05050f;}.cls-36{fill:#060710;}.cls-37{fill:#070711;}.cls-38{fill:#070712;}.cls-39{fill:#070713;}.cls-40{fill:#070714;}.cls-41{fill:#070715;}.cls-42{fill:#0a0a16;}.cls-43{fill:#0a0a17;}.cls-44{fill:#080a18;}.cls-45{fill:#0a0a19;}.cls-46{fill:#0a0a1a;}.cls-47{fill:#0a0a1b;}.cls-48{fill:#0a0a1c;}.cls-49{fill:#0b0c1d;}.cls-50{fill:#0b0c1e;}.cls-51{fill:#0c0c1f;}.cls-52{fill:#0c0c20;}.cls-53{fill:#0c0c21;}.cls-54{fill:#0d0e22;}.cls-55{fill:#0e0e23;}.cls-56{fill:#0d0e24;}.cls-57{fill:#0e0e25;}.cls-58{fill:#0e0e26;}.cls-59{fill:#0f1027;}.cls-60{fill:#101028;}.cls-61{fill:#101129;}.cls-62{fill:#10112a;}.cls-63{fill:#11112b;}.cls-64{fill:#11122c;}.cls-65{fill:#12122d;}.cls-66{fill:#12132e;}.cls-67{fill:#12132f;}.cls-68{fill:#131330;}.cls-69{fill:#131431;}.cls-70{fill:#141432;}.cls-71{fill:#141533;}.cls-72{fill:#141534;}.cls-73{fill:#151635;}.cls-74{fill:#151636;}.cls-75{fill:#161637;}.cls-76{fill:#161738;}.cls-77{fill:#161739;}.cls-78{fill:#17183a;}.cls-79{fill:#17183b;}.cls-80{fill:#18183d;}.cls-81{fill:#18193e;}.cls-82{fill:#18193f;}.cls-83{fill:#191a40;}.cls-84{fill:#191a41;}.cls-85{fill:#1a1a42;}.cls-86{fill:#1a1b43;}.cls-87{fill:#1a1b44;}.cls-88{fill:#1b1c45;}.cls-89{fill:#1b1c46;}.cls-90{fill:#1c1d47;}.cls-91{fill:#1c1d48;}.cls-92{fill:#1c1d49;}.cls-93{fill:#1d1e4a;}.cls-94{fill:#1d1e4b;}.cls-95{fill:#1e1f4c;}.cls-96{fill:#1e1f4d;}.cls-97{fill:#1e1f4e;}.cls-98{fill:#1f204f;}.cls-99{fill:#1f2050;}.cls-100{fill:#202151;}.cls-101{fill:#202152;}.cls-102{fill:#202253;}.cls-103{fill:#212254;}.cls-104{fill:#212255;}.cls-105{fill:#222356;}.cls-106{fill:#222358;}.cls-107{fill:#222459;}.cls-108{fill:#23245a;}.cls-109{fill:#23255b;}.cls-110{fill:#24255c;}.cls-111{fill:#24255d;}.cls-112{fill:#24265e;}.cls-113{fill:#25265f;}.cls-114{fill:#252760;}.cls-115{fill:#262761;}.cls-116{fill:#262862;}.cls-117{fill:#272863;}.cls-118{fill:#272864;}.cls-119{fill:#272965;}.cls-120{fill:#282966;}.cls-121{fill:#282a67;}.cls-122{fill:#292a68;}.cls-123{fill:#292b6a;}.cls-124{fill:#292b6b;}.cls-125{fill:#2a2b6c;}.cls-126{fill:#2a2c6d;}.cls-127{fill:#2b2c6e;}.cls-128{fill:#2b2d6f;}.cls-129{fill:#2b2d70;}.cls-130{fill:#2c2e71;}.cls-131{fill:#2c2e72;}.cls-132{fill:#2d2e73;}.cls-133{fill:#2d2f74;}.cls-134{fill:#2e2f75;}.cls-135{fill:#2e3076;}.cls-136{fill:#2e3077;}.cls-137{fill:#2f3179;}.cls-138{fill:#2f317a;}.cls-139{fill:#30317b;}.cls-140{fill:#30327c;}.cls-141{fill:#31327d;}.cls-142{fill:#31337d;}.cls-143{fill:#31337e;}.cls-144{fill:#32347f;}.cls-145{fill:#323480;}.cls-146{fill:#333480;}.cls-147{fill:#333580;}.cls-148{fill:#333581;}.cls-149{fill:#343683;}.cls-150{fill:#343684;}.cls-151{fill:#353786;}.cls-152{fill:#363887;}.cls-153{fill:#363888;}.cls-154{fill:url(#Áĺçűě_ííűé_ăđŕäčĺíň_217);}.cls-155{fill:url(#Áĺçűě_ííűé_ăđŕäčĺíň_3-5);}.cls-156{fill:url(#Áĺçűě_ííűé_ăđŕäčĺíň_2-2);}</style><radialGradient id="Áĺçűě_ííűé_ăđŕäčĺíň_7" cx="2189.81" cy="-1306.18" r="37.47" gradientTransform="translate(-2254.8 630.93) rotate(20.3)" gradientUnits="userSpaceOnUse"><stop offset="0" stop-color="#f7f7f7"/><stop offset="1" stop-color="#dfdfdf"/></radialGradient><linearGradient id="Áĺçűě_ííűé_ăđŕäčĺíň_2" x1="2146.73" y1="-1295.96" x2="2191.18" y2="-1295.96" gradientTransform="translate(-2254.8 630.93) rotate(20.3)" gradientUnits="userSpaceOnUse"><stop offset="0" stop-color="#a9a9a9"/><stop offset="1" stop-color="#fff"/></linearGradient><radialGradient id="Áĺçűě_ííűé_ăđŕäčĺíň_6" cx="2206.53" cy="-1175.92" r="39.95" gradientTransform="translate(-2254.8 630.93) rotate(20.3)" gradientUnits="userSpaceOnUse"><stop offset="0" stop-color="#f0eefc"/><stop offset="1" stop-color="#dfdfdf"/></radialGradient><radialGradient id="Áĺçűě_ííűé_ăđŕäčĺíň_7-2" cx="2078.93" cy="-1270.18" r="40.9" xlink:href="#Áĺçűě_ííűé_ăđŕäčĺíň_7"/><radialGradient id="Áĺçűě_ííűé_ăđŕäčĺíň_6-2" cx="2106.88" cy="-1168.69" r="48.16" xlink:href="#Áĺçűě_ííűé_ăđŕäčĺíň_6"/><linearGradient id="Áĺçűě_ííűé_ăđŕäčĺíň_3" x1="2046.19" y1="-1211.36" x2="2187.53" y2="-1211.36" gradientTransform="translate(-2254.8 630.93) rotate(20.3)" gradientUnits="userSpaceOnUse"><stop offset="0" stop-color="#fff"/><stop offset="1" stop-color="#a9a9a9"/></linearGradient><linearGradient id="Áĺçűě_ííűé_ăđŕäčĺíň_5" x1="2119.87" y1="-1312.01" x2="2119.87" y2="-1454.93" gradientTransform="translate(-2254.8 630.93) rotate(20.3)" gradientUnits="userSpaceOnUse"><stop offset="0" stop-color="#dfdfdf"/><stop offset="1" stop-color="#fff"/></linearGradient><linearGradient id="Áĺçűě_ííűé_ăđŕäčĺíň_93" x1="2134.14" y1="-1337" x2="2134.14" y2="-1451.15" gradientTransform="translate(-2254.8 630.93) rotate(20.3)" gradientUnits="userSpaceOnUse"><stop offset="0" stop-color="#467c7e"/><stop offset="1" stop-color="#0f183b"/></linearGradient><linearGradient id="Áĺçűě_ííűé_ăđŕäčĺíň_3-2" x1="2043.06" y1="-1354.22" x2="2188.77" y2="-1354.22" xlink:href="#Áĺçűě_ííűé_ăđŕäčĺíň_3"/><linearGradient id="Áĺçűě_ííűé_ăđŕäčĺíň_4" x1="2077.73" y1="-1319.44" x2="2077.73" y2="-1395.28" gradientTransform="translate(-2254.8 630.93) rotate(20.3)" gradientUnits="userSpaceOnUse"><stop offset="0" stop-color="#dfdfdf"/><stop offset="1" stop-color="#f7f7f7"/></linearGradient><linearGradient id="Áĺçűě_ííűé_ăđŕäčĺíň_3-3" x1="2171.97" y1="-1125.81" x2="2205.22" y2="-1125.81" xlink:href="#Áĺçűě_ííűé_ăđŕäčĺíň_3"/><linearGradient id="Áĺçűě_ííűé_ăđŕäčĺíň_3-4" x1="2075.5" y1="-1116.79" x2="2106.81" y2="-1116.79" xlink:href="#Áĺçűě_ííűé_ăđŕäčĺíň_3"/><clipPath id="clip-path"><path class="cls-1" d="M277.35,115.1c-.14.23-.27.46-.42.68-5,4.9-22.24,17.64-50.91,10.76-35.26-8.47-39.69-38.93-39.69-38.93l-6.88-1.21c.19-4.48.17-8.6,0-12.37h0S238,18.59,288.85,63.22C289.06,84.68,282.79,105.57,277.35,115.1Z"/></clipPath><radialGradient id="Áĺçűě_ííűé_ăđŕäčĺíň_217" cx="-475.75" cy="2692.46" r="12.14" gradientTransform="matrix(1.47, -0.02, 0.01, 0.66, 908.96, -1741.47)" gradientUnits="userSpaceOnUse"><stop offset="0" stop-color="#223ceb"/><stop offset="0.05" stop-color="#1f37d6"/><stop offset="0.19" stop-color="#17289e"/><stop offset="0.34" stop-color="#101c6d"/><stop offset="0.48" stop-color="#0a1246"/><stop offset="0.62" stop-color="#060a27"/><stop offset="0.75" stop-color="#030412"/><stop offset="0.88" stop-color="#010104"/><stop offset="1"/></radialGradient><linearGradient id="Áĺçűě_ííűé_ăđŕäčĺíň_3-5" x1="2023.19" y1="-1254.34" x2="2044.78" y2="-1254.34" xlink:href="#Áĺçűě_ííűé_ăđŕäčĺíň_3"/><linearGradient id="Áĺçűě_ííűé_ăđŕäčĺíň_2-2" x1="2223.79" y1="-1327.03" x2="2236.92" y2="-1327.03" xlink:href="#Áĺçűě_ííűé_ăđŕäčĺíň_2"/></defs><title>astronaut</title><g class="cls-2"><g id="Warstwa_2" data-name="Warstwa 2"><g id="Warstwa_1-2" data-name="Warstwa 1"><path class="cls-3" d="M40.62,267.56c-7.77,0-15.9-2.17-24.57-7.87-19.33-12.68-19.73-39.12-9-56.35,10.94-17.6,36.38-30.69,72-9.68,60.4,35.57,80.74,16.6,80.94,16.4l4.66,4.53c-.93,1-23.45,23.22-88.89-15.33-31.59-18.61-53.37-8.32-63.23,7.51-9.1,14.64-9,36.95,7.06,47.49,19.92,13.07,36.71,4.59,54.5-4.38,7.16-3.61,14.56-7.35,22.22-9.64,27.39-8.21,47.16,6,48,6.61l-3.84,5.24a51.24,51.24,0,0,0-42.29-5.62c-7.11,2.12-14.25,5.73-21.15,9.21C65.41,261.56,53.52,267.56,40.62,267.56Z"/><path class="cls-4" d="M89.11,322S75.12,338.6,62,333.31Z"/><path class="cls-5" d="M293.82,171.68c-4.69,12.68-33.62,28.17-49.78,25.87a21.32,21.32,0,0,1-2.14-.43c-9.71-2.57-16.84-12.59-20.59-19.23a59.39,59.39,0,0,1-3.06-6.06l-.5-32.23,1.14.27a56,56,0,0,1,12.38,4.74c6.52,3.55,28.88,8.07,40.46,5.49s15.73-6.28,18.52-5.9,5,5.1,5,5.1S298.77,158.29,293.82,171.68Z"/><path class="cls-6" d="M295.23,149.31s-4.89-1.81-6.83,1.23-4.53,21.53,5.42,21.13,1.41-22.36,1.41-22.36Z"/><path class="cls-7" d="M292.7,150.41s-1.56,9.9,4.11,18.27C296.81,168.68,301.64,156.5,292.7,150.41Z"/><path class="cls-8" d="M315.94,149.61a32.61,32.61,0,0,1-12.71,13.55,35.92,35.92,0,0,1-7.59,3.59,19.29,19.29,0,0,1-3.13-12.44s.52-1.2,1.38-3c1.9-3.9,5.46-10.54,8.63-12.82l.23,4.57s3.7-6.46,13.69-6C316.44,137.05,321.31,138.29,315.94,149.61Z"/><path class="cls-9" d="M259,150.71s-5.76,8.21-6.39,25.4,11.1,18.34,11.1,18.34-6.9,2.73-11.89,3c0,0-27.88-6.91-3.57-48Z"/><path class="cls-10" d="M221.31,177.89c-.42,2.52-.94,5.14-1.59,7.88l-9.86-17.55,6-28.82,2.9.17c.05.1.08.2.13.3a56,56,0,0,1,12.38,4.74s-21.63,21.25,10.61,52.48l0,0C232.19,194.55,225.06,184.53,221.31,177.89Z"/><path class="cls-11" d="M206.87,332.31s-5.64-10.47-32.56-7.79C174.31,324.52,184.86,337.68,206.87,332.31Z"/><path class="cls-11" d="M82.8,293.83s17.32,0,26.23,19.51c0,0-7.52,3.1-16.91-2.42S82.8,293.83,82.8,293.83Z"/><path class="cls-12" d="M187.76,338.69l-12.52-4.63s.19-3.24.32-8.39c.35-13,.32-38.18-4.06-53.75v0l45.82-28s.21,3.08.46,7.94c.7,14.11,5.9,42.54,2.81,53.82C216.46,320.78,187.76,338.69,187.76,338.69Z"/><path class="cls-4" d="M217.32,243.88a86.09,86.09,0,0,1-43.71,28.3l-2.11-.26-11.31-1.45a.82.82,0,0,1,0-.1v-.19a1.09,1.09,0,0,0,0-.17,1.61,1.61,0,0,0,0-.22c-.09-5-1.64-36.55-24.68-64.29a82.65,82.65,0,0,0,6.5-8.67l1.27-1.89c2-3.07,4.47-6.91,7.32-11.68,6.26-10.44,16.76-27.43,24-39.11v0c2.17-3.5,4.05-6.54,5.45-8.76l1.35-2.18c.74-1.2,1.16-1.86,1.16-1.86s23,11.13,35.67,7c0,0,.2.42.53,1.25l.13.31c1.69,4.35,5.75,17.62,2.42,38-.42,2.52-.94,5.14-1.59,7.88-.24,1-.48,1.95-.75,2.95a168.59,168.59,0,0,1-.19,47.53C218.38,238.79,217.9,241.34,217.32,243.88Z"/><path class="cls-13" d="M175.05,164.25l0,0c-.43.75-.9,1.51-1.38,2.3-7.57,12.29-19.29,24.33-31.64,30.25-7.57,3.64-15.36,5-22.58,2.67-16.13-5.13-23-18.49-24.7-22.41,0-.14-.11-.27-.15-.37a1.74,1.74,0,0,0-.13-.32c-.1-.27-.16-.41-.16-.41s-5.22-3.57-3.18-9.51,7.46-14.4,7.46-14.4l3.16-.15s2-4,6.29-3.88,13.64,3.91,27,1c11.71-2.56,29.3-9.64,35.22-12.73a11.81,11.81,0,0,0,1.75-1.05,19.24,19.24,0,0,1,6.45-3l1.8.57,1.19.37,3.67,1.15S187.32,143.43,175.05,164.25Z"/><path class="cls-14" d="M160.2,270.48s-25.63,22.41-31.78,28.46S104.21,314,94.9,315.3c-.24,0-.47.07-.68.08-8.81.91-12.43-4.93-12.43-4.93s.23-1.78.61-4.59c.51-3.72,1.3-9.24,2.21-14.76,1.2-7.33,2.62-14.62,3.85-17.57,2.1-5,26.78-39.76,39.52-57.56l7.53-10.46c24.89,18.85,24.85,58.65,24.68,64.28,0,.09,0,.16,0,.22v.37A.24.24,0,0,0,160.2,270.48Z"/><path class="cls-7" d="M187.1,134.89s11.65,8.8,16.36,10.22,14.77-6.79,14.77-6.79S207.17,139.77,187.1,134.89Z"/><path class="cls-7" d="M178.41,132.27s.19,38-29.95,61.65c0,0,27.36-16.55,38.64-59Z"/><path class="cls-7" d="M215.87,139.4S221.2,168,219,188.73c0,0,8.07-23,2.79-48l-3.54-2.36Z"/><path class="cls-7" d="M130.9,211.92s17.24,12.43,25.16,62.18l4.13-3.62s2.52-48.34-24.67-65Z"/><path class="cls-7" d="M218.77,236.3s-22,30.78-47.26,35.61l.77,3s25.84-1.34,45.37-25.39Z"/><path class="cls-6" d="M94.29,176s-5.22-3.57-3.18-9.51,7.46-14.4,7.46-14.4l3.16-.15S112.26,166.78,94.29,176Z"/><path class="cls-7" d="M92.75,170.68s10.38-9.72,5.82-18.6C98.57,152.08,88.84,166.71,92.75,170.68Z"/><path class="cls-8" d="M99.45,158.61S100,150,93.2,145.72l-1.38,3.74S83.44,140,74.26,144c0,0-1.23,17.12,20,25.26A18.14,18.14,0,0,0,99.45,158.61Z"/><path class="cls-9" d="M95.65,262.05S91.51,273.68,106,285.4,134,293.7,134,293.7s-6.77,6.9-11.48,9.73-28.5-6.56-36.29-21.54c0,0,.89-6.4,2.82-9.61S95.65,262.05,95.65,262.05Z"/><path class="cls-9" d="M174.71,291.29s9.45,10.5,21.49,16.26a32.53,32.53,0,0,0,23.09,1.86s-4.28,7.77-9.48,12c0,0-14.62-1-22.1-5.7s-12.28-13.19-12.28-13.19Z"/><path class="cls-9" d="M138.46,148.19s19.9,27.13-8.31,52.25a31.37,31.37,0,0,0,11.07-3.23c8.13-3.88,29.46-40.12,6.52-52Z"/><path class="cls-15" d="M171.72,272.09l-.41-.35c.18-.22,18.42-21.84,24.82-39.12,5.53-15,6-23.15,6.71-34.46.26-4.28.55-9.13,1.18-14.89a257.25,257.25,0,0,0,1.27-37.35l.54,0a256.8,256.8,0,0,1-1.27,37.44c-.63,5.74-.92,10.59-1.18,14.86-.68,11.36-1.18,19.57-6.74,34.61C190.21,250.18,171.9,271.87,171.72,272.09Z"/><path class="cls-16" d="M176.58,326.05l-1-.38c.35-13,.32-38.18-4.06-53.75l-11.31-1.45s-25.62,22.41-31.77,28.47S104.21,314,94.9,315.3c-.24,0-.47.06-.68.07L82.4,305.86c.51-3.72,1.29-9.25,2.21-14.76l1.09-.29s12.18,14.67,26.54,13.84,38.67-34.3,38.35-40.49c-1.17-23.12-15-40.34-22.61-48.2l7.53-10.46a82.65,82.65,0,0,0,6.5-8.67c-7.57,3.63-15.36,5-22.59,2.67-16.12-5.14-23-18.49-24.69-22.42,1.93,4.15,10.54,19.31,34.48,21a25.85,25.85,0,0,0,14.07-3.11c19.17-10.07,30.21-41.1,31.17-47.75a15.39,15.39,0,0,0,.14-3v0c-.37-5.77-4.39-7.83-4.39-7.83a11.14,11.14,0,0,0,1.75-1,19.23,19.23,0,0,1,6.44-3l1.81.56c0,.64-.09,1.51-.16,2.55a153,153,0,0,1-5,28.87l0,0a84.78,84.78,0,0,1-8.85,21.14c-13.17,21.44-17.44,25-17.44,25s9.81,35.72,19.47,44.59,36.8-4.92,43.68-11.79c3.27-3.26,5.46-5.5,6.89-6.94-.4,2.54-.88,5.09-1.46,7.63,0,0,.21,3.08.46,7.94-6.81,7.26-30,32.44-34.44,42.66C178.14,306.49,176.58,326.05,176.58,326.05Z"/><path class="cls-17" d="M178.41,132.26s4.92,20.71,23.9,33.17,25-22.79,25-22.79l-5.54-2-3-1.11Z"/><path class="cls-18" d="M277.35,115.1c-.14.23-.27.46-.42.68-2,3-5.62,6.39-10.4,9.51,0,0-.27.19-.82.51a83,83,0,0,1-34.64,11.88c-21.38,2.19-52.83-1-72.64-16.06S132.19,64,138.17,50.7a120.38,120.38,0,0,1,7-13.41c8.43-14,23-31,46.8-35.74,18-3.59,41.94-.59,60,5.39a84.83,84.83,0,0,1,14.87,6.35,37.78,37.78,0,0,1,7.07,5l.77.75a15.55,15.55,0,0,1,1.4,1.58C298.37,49.36,286.64,98.81,277.35,115.1Z"/><path class="cls-19" d="M274.43,111.91c-.13.22-.24.43-.39.64-4.7,4.59-20.86,16.54-47.75,10.09-33.07-8-37.22-36.51-37.22-36.51L182.62,85q.25-6.31,0-11.6c-.9-19.83-6.33-29.43-6.1-32.29.25-3.38,8.28-22.31,32.39-30,16-5.07,31.06-3.4,41.75-.67a80.29,80.29,0,0,1,13.95,6,36,36,0,0,1,6.63,4.65l.71.71a13.88,13.88,0,0,1,1.33,1.48c8.66,11.21,11.83,25.74,12,40C285.42,83.38,279.54,103,274.43,111.91Z"/><path class="cls-20" d="M265.71,125.8a83,83,0,0,1-34.64,11.88c-21.38,2.19-52.83-1-72.64-16.06S132.19,64,138.17,50.7a120.38,120.38,0,0,1,7-13.41c2.9-2.8,6.46-4.4,10.8-3.5,15.92,3.3,18.51,55.35,18.51,55.35l7.8-.41s4.07,29.94,35.39,40.82C245,139.07,261.88,128,265.71,125.8Z"/><path class="cls-21" d="M149.81,112.22c7.51,7,21.49,4.52,23.77-22s-12-52.81-12-52.81c22,2.92,17.89,49,17.89,49-.46,1.95-.92,3.77-1.42,5.46l-.05.19C167.63,128.12,151.23,113.56,149.81,112.22Z"/><path class="cls-7" d="M137,54.49c2.5-9,8.3-15,13.48-14.74s18.45,23.79,14.86,50S145.21,107.09,142.11,97l-1.84-5.48s12.34,16.89,19.34,1c8-18.12-6.53-41.87-14.43-38.93s-8.83,17.81-8.83,17.81S135.3,60.47,137,54.49Z"/><path class="cls-6" d="M172.19,337l2-3.35.11-9.16s18.9,9.16,32.57,7.79a36.53,36.53,0,0,1-17.69,8.27s10.68,5.26,9.94,16.75Z"/><path class="cls-6" d="M109,313.34l-18.5,5L89.11,322S78,333.89,62,333.32c0,0,2.8-13.44,18.27-19.92l2.54-19.57a33,33,0,0,0,8.79,14.26C98.11,314.28,108.08,313.43,109,313.34Z"/><polygon class="cls-4" points="172.19 337.03 170.29 338.61 198.01 359.11 199.11 357.33 172.19 337.03"/><path class="cls-22" d="M206.87,332.31a36.53,36.53,0,0,1-17.69,8.27s-11.75-3.58-17-3.55l2-3.35.11-9.16S193.2,333.68,206.87,332.31Z"/><path class="cls-23" d="M109,313.34l-18.5,5a24.07,24.07,0,0,1-10.21-5l2.54-19.57a33,33,0,0,0,8.79,14.26C98.11,314.28,108.08,313.43,109,313.34Z"/><path class="cls-24" d="M187.81,41.11S188.09,33.28,189,31a33,33,0,0,1,11.43-5.91L204.7,39S191.49,40.05,187.81,41.11Z"/><path class="cls-24" d="M194.6,91.49s1.56,6.7,4.53,10.72l3.91-2.1s-2.85-6.06-4.07-9.72Z"/><g class="cls-25"><g class="cls-26"><rect x="179.44" y="18.59" width="109.62" height="114.83"/><path d="M302.07,45c.56,23.35-25.83,42.91-58.95,43.7s-60.4-17.49-61-40.84S208,4.93,241.11,4.15,301.52,21.64,302.07,45Z"/><path d="M301.64,45c.55,23.18-25.65,42.6-58.52,43.39s-60-17.37-60.53-40.54S208.24,5.23,241.12,4.45,301.09,21.82,301.64,45Z"/><path d="M301.21,45c.55,23-25.46,42.29-58.1,43.06S183.57,70.83,183,47.82s25.47-42.29,58.1-43.07S300.66,22,301.21,45Z"/><path class="cls-27" d="M300.78,45c.54,22.84-25.28,42-57.68,42.76s-59.1-17.12-59.65-40,25.28-42,57.68-42.75S300.23,22.17,300.78,45Z"/><path class="cls-27" d="M300.35,45c.54,22.68-25.09,41.68-57.25,42.45s-58.67-17-59.21-39.67S209,6.13,241.14,5.36,299.81,22.35,300.35,45Z"/><path class="cls-28" d="M299.92,45c.53,22.5-24.91,41.36-56.83,42.12S184.85,70.3,184.32,47.79s24.9-41.36,56.82-42.12S299.38,22.53,299.92,45Z"/><path class="cls-29" d="M299.48,45.05c.54,22.33-24.71,41.05-56.4,41.81s-57.8-16.74-58.33-39.08,24.72-41,56.4-41.81S299,22.71,299.48,45.05Z"/><path class="cls-29" d="M299.05,45.05c.53,22.17-24.53,40.75-56,41.5s-57.36-16.61-57.89-38.78,24.54-40.75,56-41.5S298.52,22.89,299.05,45.05Z"/><path class="cls-29" d="M298.62,45.07c.52,22-24.34,40.44-55.55,41.18s-56.94-16.49-57.46-38.49S210,7.32,241.17,6.58,298.1,23.06,298.62,45.07Z"/><path class="cls-30" d="M298.19,45.08C298.71,66.91,274,85.21,243.06,86s-56.5-16.36-57-38.2S210.2,7.62,241.17,6.88,297.67,23.24,298.19,45.08Z"/><path class="cls-30" d="M297.76,45.09c.51,21.66-24,39.82-54.71,40.55S187,69.41,186.47,47.74s24-39.82,54.71-40.56S297.24,23.42,297.76,45.09Z"/><path class="cls-31" d="M297.33,45.1c.51,21.49-23.79,39.51-54.28,40.24S187.42,69.23,186.9,47.73,210.7,8.22,241.19,7.49,296.81,23.6,297.33,45.1Z"/><path class="cls-32" d="M296.9,45.11C297.41,66.44,273.29,84.31,243,85s-55.19-16-55.7-37.31,23.6-39.2,53.85-39.93S296.39,23.78,296.9,45.11Z"/><path class="cls-33" d="M296.47,45.12C297,66.28,273.05,84,243,84.73s-54.76-15.86-55.26-37S211.19,8.81,241.2,8.1,296,24,296.47,45.12Z"/><path class="cls-33" d="M296,45.13c.49,21-23.24,38.59-53,39.3S188.7,68.69,188.2,47.7s23.23-38.59,53-39.3S295.53,24.13,296,45.13Z"/><path class="cls-33" d="M295.6,45.14c.5,20.82-23,38.28-52.58,39s-53.89-15.61-54.39-36.43,23.05-38.28,52.59-39S295.1,24.31,295.6,45.14Z"/><path class="cls-34" d="M295.17,45.15c.49,20.66-22.86,38-52.16,38.67s-53.46-15.48-53.95-36.14S211.92,9.71,241.23,9,294.68,24.49,295.17,45.15Z"/><path class="cls-34" d="M294.74,45.16c.49,20.49-22.68,37.66-51.74,38.35s-53-15.35-53.51-35.84S212.17,10,241.23,9.31,294.25,24.67,294.74,45.16Z"/><path class="cls-35" d="M294.31,45.17c.48,20.32-22.49,37.35-51.32,38S190.41,68,189.92,47.66s22.49-37.35,51.32-38S293.82,24.85,294.31,45.17Z"/><path class="cls-36" d="M293.88,45.18c.48,20.15-22.3,37-50.89,37.73S190.84,67.8,190.36,47.65s22.3-37,50.89-37.73S293.4,25,293.88,45.18Z"/><path class="cls-37" d="M293.45,45.19c.47,20-22.12,36.74-50.47,37.41s-51.71-15-52.2-35,22.13-36.74,50.47-37.41S293,25.21,293.45,45.19Z"/><path class="cls-38" d="M293,45.2c.48,19.82-21.93,36.43-50,37.1s-51.28-14.85-51.75-34.67,21.93-36.43,50-37.1S292.54,25.38,293,45.2Z"/><path class="cls-39" d="M292.58,45.21C293.05,64.86,270.84,81.33,243,82s-50.85-14.72-51.32-34.37S213.4,11.5,241.27,10.84,292.11,25.56,292.58,45.21Z"/><path class="cls-40" d="M292.15,45.22C292.61,64.7,270.59,81,243,81.69s-50.41-14.6-50.88-34.08,21.56-35.81,49.2-36.47S291.69,25.74,292.15,45.22Z"/><path class="cls-41" d="M291.72,45.23c.46,19.32-21.37,35.5-48.77,36.15S193,66.91,192.51,47.6s21.38-35.5,48.77-36.16S291.26,25.92,291.72,45.23Z"/><path class="cls-42" d="M291.29,45.24c.45,19.15-21.19,35.19-48.35,35.84s-49.54-14.35-50-33.49,21.19-35.19,48.35-35.84S290.83,26.09,291.29,45.24Z"/><path class="cls-43" d="M290.86,45.25c.45,19-21,34.88-47.92,35.53s-49.11-14.23-49.56-33.2,21-34.89,47.92-35.53S290.41,26.27,290.86,45.25Z"/><path class="cls-44" d="M290.43,45.26c.45,18.81-20.82,34.58-47.5,35.21s-48.68-14.09-49.12-32.9S214.63,13,241.3,12.36,290,26.45,290.43,45.26Z"/><path class="cls-45" d="M290,45.27c.44,18.64-20.63,34.27-47.08,34.9s-48.24-14-48.68-32.62,20.63-34.26,47.07-34.89S289.55,26.63,290,45.27Z"/><path class="cls-46" d="M289.56,45.28c.45,18.48-20.44,34-46.65,34.58S195.11,66,194.67,47.55s20.44-34,46.65-34.58S289.12,26.81,289.56,45.28Z"/><path class="cls-47" d="M289.13,45.29c.44,18.31-20.25,33.65-46.22,34.27s-47.37-13.72-47.81-32,20.26-33.65,46.23-34.27S288.7,27,289.13,45.29Z"/><path class="cls-48" d="M288.7,45.3c.43,18.14-20.07,33.34-45.8,34S196,65.66,195.53,47.53s20.07-33.35,45.8-34S288.27,27.16,288.7,45.3Z"/><path class="cls-49" d="M288.27,45.31c.43,18-19.89,33-45.38,33.64S196.39,65.49,196,47.51s19.89-33,45.38-33.63S287.84,27.34,288.27,45.31Z"/><path class="cls-50" d="M287.84,45.32c.42,17.81-19.7,32.73-44.95,33.33s-46.07-13.34-46.5-31.14,19.71-32.73,45-33.33S287.41,27.52,287.84,45.32Z"/><path class="cls-51" d="M287.41,45.33c.42,17.64-19.52,32.42-44.53,33s-45.63-13.21-46-30.85,19.51-32.41,44.52-33S287,27.7,287.41,45.33Z"/><path class="cls-51" d="M287,45.34c.41,17.47-19.33,32.11-44.11,32.7S197.67,65,197.26,47.48s19.33-32.1,44.1-32.69S286.56,27.88,287,45.34Z"/><path class="cls-52" d="M286.55,45.35c.41,17.3-19.15,31.8-43.69,32.39s-44.76-13-45.17-30.27,19.14-31.79,43.68-32.38S286.13,28.06,286.55,45.35Z"/><path class="cls-53" d="M286.11,45.37c.41,17.12-18.95,31.48-43.25,32.06s-44.33-12.84-44.74-30,19-31.48,43.26-32.06S285.7,28.23,286.11,45.37Z"/><path class="cls-54" d="M285.68,45.38c.41,17-18.77,31.17-42.83,31.75S199,64.42,198.55,47.46s18.77-31.19,42.83-31.76S285.28,28.41,285.68,45.38Z"/><path class="cls-55" d="M285.25,45.38c.4,16.8-18.59,30.88-42.41,31.44S199.38,64.24,199,47.44,217.57,16.57,241.39,16,284.85,28.59,285.25,45.38Z"/><path class="cls-56" d="M284.82,45.4c.4,16.62-18.4,30.56-42,31.12s-43-12.46-43.43-29.09,18.41-30.56,42-31.12S284.42,28.77,284.82,45.4Z"/><path class="cls-57" d="M284.39,45.41c.39,16.45-18.22,30.25-41.56,30.81s-42.59-12.34-43-28.8,18.22-30.25,41.56-30.81S284,29,284.39,45.41Z"/><path class="cls-58" d="M284,45.42c.39,16.29-18,29.94-41.14,30.49s-42.16-12.21-42.54-28.5,18-29.94,41.13-30.49S283.57,29.12,284,45.42Z"/><path class="cls-59" d="M283.52,45.43c.39,16.12-17.84,29.63-40.71,30.18s-41.72-12.09-42.1-28.21,17.84-29.63,40.71-30.18S283.14,29.3,283.52,45.43Z"/><path class="cls-60" d="M283.09,45.44c.38,16-17.65,29.32-40.28,29.86s-41.29-11.95-41.67-27.91,17.66-29.32,40.29-29.86S282.71,29.48,283.09,45.44Z"/><path class="cls-61" d="M282.66,45.45c.38,15.78-17.47,29-39.86,29.55S202,63.17,201.57,47.38s17.47-29,39.86-29.55S282.29,29.66,282.66,45.45Z"/><path class="cls-62" d="M282.23,45.46c.37,15.62-17.28,28.71-39.44,29.23S202.37,63,202,47.37s17.29-28.71,39.44-29.24S281.86,29.84,282.23,45.46Z"/><path class="cls-63" d="M281.8,45.47c.37,15.45-17.1,28.4-39,28.92s-40-11.58-40.35-27,17.1-28.4,39-28.92S281.43,30,281.8,45.47Z"/><path class="cls-64" d="M281.37,45.48c.36,15.28-16.91,28.09-38.6,28.61s-39.54-11.46-39.9-26.74,16.91-28.09,38.59-28.61S281,30.2,281.37,45.48Z"/><path class="cls-65" d="M280.94,45.49c.36,15.11-16.73,27.78-38.17,28.29S203.66,62.46,203.3,47.34,220,19.56,241.46,19.05,280.58,30.37,280.94,45.49Z"/><path class="cls-66" d="M280.5,45.5c.36,15-16.53,27.47-37.74,28s-38.67-11.2-39-26.15,16.54-27.48,37.74-28S280.15,30.55,280.5,45.5Z"/><path class="cls-67" d="M280.07,45.51c.36,14.78-16.35,27.16-37.31,27.67s-38.25-11.08-38.6-25.86,16.35-27.17,37.32-27.67S279.72,30.73,280.07,45.51Z"/><path class="cls-68" d="M279.64,45.52c.35,14.61-16.16,26.86-36.89,27.35s-37.81-11-38.16-25.56S220.76,20.45,241.48,20,279.3,30.91,279.64,45.52Z"/><path class="cls-69" d="M279.21,45.53c.35,14.44-16,26.55-36.47,27S205.37,61.74,205,47.3s16-26.55,36.47-27S278.87,31.09,279.21,45.53Z"/><path class="cls-70" d="M278.78,45.54c.34,14.28-15.8,26.24-36,26.72s-36.94-10.7-37.28-25,15.8-26.24,36.05-26.72S278.44,31.26,278.78,45.54Z"/><path class="cls-71" d="M278.35,45.55c.34,14.11-15.61,25.93-35.62,26.41s-36.51-10.57-36.85-24.68,15.62-25.93,35.63-26.41S278,31.44,278.35,45.55Z"/><path class="cls-72" d="M277.92,45.56c.33,13.94-15.43,25.62-35.2,26.09s-36.07-10.44-36.41-24.38,15.43-25.62,35.2-26.09S277.59,31.62,277.92,45.56Z"/><path class="cls-73" d="M277.48,45.57c.33,13.77-15.23,25.31-34.77,25.78s-35.63-10.32-36-24.09S222,21.94,241.52,21.48,277.16,31.8,277.48,45.57Z"/><path class="cls-74" d="M277.06,45.58c.32,13.6-15.06,25-34.36,25.47s-35.2-10.2-35.52-23.8,15-25,34.35-25.47S276.73,32,277.06,45.58Z"/><path class="cls-75" d="M276.63,45.59c.31,13.44-14.87,24.7-33.94,25.15s-34.76-10.07-35.08-23.5,14.87-24.7,33.93-25.15S276.3,32.16,276.63,45.59Z"/><path class="cls-76" d="M276.19,45.6c.32,13.27-14.68,24.39-33.5,24.84S208.36,60.5,208,47.23s14.68-24.39,33.5-24.84S275.88,32.33,276.19,45.6Z"/><path class="cls-77" d="M275.76,45.61c.31,13.1-14.5,24.08-33.08,24.52s-33.9-9.81-34.21-22.91S223,23.14,241.55,22.7,275.45,32.51,275.76,45.61Z"/><path class="cls-78" d="M275.33,45.62c.31,12.93-14.31,23.77-32.66,24.21s-33.46-9.69-33.77-22.62S223.21,23.44,241.56,23,275,32.69,275.33,45.62Z"/><path class="cls-79" d="M274.9,45.63c.3,12.77-14.13,23.46-32.23,23.9s-33-9.57-33.34-22.33,14.13-23.46,32.24-23.9S274.59,32.87,274.9,45.63Z"/><path class="cls-80" d="M274.47,45.64c.3,12.6-13.94,23.15-31.81,23.58s-32.6-9.44-32.89-22S223.71,24,241.57,23.61,274.17,33.05,274.47,45.64Z"/><path class="cls-81" d="M274,45.65c.29,12.43-13.76,22.85-31.39,23.27S210.49,59.6,210.2,47.18,224,24.33,241.58,23.91,273.74,33.22,274,45.65Z"/><path class="cls-82" d="M273.6,45.66c.3,12.26-13.56,22.54-31,23s-31.72-9.18-32-21.44,13.57-22.54,31-23S273.31,33.4,273.6,45.66Z"/><path class="cls-83" d="M273.17,45.67c.29,12.09-13.38,22.23-30.53,22.64s-31.29-9.06-31.58-21.15,13.38-22.23,30.54-22.64S272.88,33.58,273.17,45.67Z"/><path class="cls-84" d="M272.74,45.68C273,57.61,259.55,67.6,242.63,68s-30.85-8.94-31.14-20.87,13.2-21.91,30.11-22.32S272.46,33.76,272.74,45.68Z"/><path class="cls-85" d="M272.31,45.69c.28,11.76-13,21.61-29.69,22s-30.42-8.81-30.7-20.57,13-21.6,29.69-22S272,33.94,272.31,45.69Z"/><path class="cls-86" d="M271.88,45.71c.27,11.58-12.82,21.3-29.26,21.69s-30-8.69-30.26-20.28,12.82-21.29,29.26-21.69S271.6,34.11,271.88,45.71Z"/><path class="cls-87" d="M271.45,45.72c.27,11.41-12.64,21-28.84,21.37s-29.55-8.56-29.82-20,12.63-21,28.84-21.37S271.18,34.29,271.45,45.72Z"/><path class="cls-88" d="M271,45.72c.27,11.26-12.46,20.69-28.42,21.07s-29.12-8.43-29.38-19.69S225.67,26.42,241.63,26,270.75,34.47,271,45.72Z"/><path class="cls-89" d="M270.59,45.74c.26,11.08-12.27,20.37-28,20.74s-28.68-8.3-28.94-19.39,12.26-20.37,28-20.75S270.32,34.65,270.59,45.74Z"/><path class="cls-90" d="M270.15,45.75c.26,10.91-12.08,20.06-27.56,20.43S214.34,58,214.08,47.08,226.16,27,241.65,26.65,269.89,34.83,270.15,45.75Z"/><path class="cls-91" d="M269.72,45.76c.26,10.74-11.89,19.75-27.14,20.12s-27.81-8.06-28.07-18.81S226.41,27.32,241.65,27,269.47,35,269.72,45.76Z"/><path class="cls-92" d="M269.29,45.77c.25,10.58-11.71,19.44-26.72,19.8s-27.37-7.93-27.63-18.51,11.71-19.45,26.72-19.8S269,35.18,269.29,45.77Z"/><path class="cls-93" d="M268.86,45.78c.25,10.41-11.53,19.14-26.29,19.49s-26.95-7.81-27.2-18.22,11.53-19.14,26.3-19.49S268.61,35.36,268.86,45.78Z"/><path class="cls-94" d="M268.43,45.79C268.67,56,257.09,64.62,242.56,65S216.05,57.29,215.8,47s11.34-18.83,25.88-19.18S268.18,35.54,268.43,45.79Z"/><path class="cls-95" d="M268,45.8c.24,10.07-11.16,18.52-25.45,18.86S216.48,57.11,216.24,47s11.15-18.52,25.44-18.86S267.76,35.72,268,45.8Z"/><path class="cls-96" d="M267.57,45.81c.23,9.91-11,18.21-25,18.55S216.9,56.93,216.67,47s11-18.21,25-18.55S267.33,35.9,267.57,45.81Z"/><path class="cls-97" d="M267.13,45.82c.24,9.74-10.78,17.9-24.59,18.23s-25.21-7.3-25.44-17,10.78-17.9,24.6-18.23S266.9,36.08,267.13,45.82Z"/><path class="cls-98" d="M266.7,45.83c.23,9.57-10.59,17.59-24.17,17.92s-24.77-7.18-25-16.75,10.59-17.59,24.17-17.92S266.48,36.26,266.7,45.83Z"/><path class="cls-99" d="M266.27,45.84c.22,9.4-10.41,17.28-23.75,17.6S218.19,56.4,218,47s10.41-17.29,23.75-17.61S266.05,36.43,266.27,45.84Z"/><path class="cls-100" d="M265.84,45.85c.22,9.23-10.22,17-23.33,17.29S218.61,56.22,218.39,47s10.22-17,23.33-17.29S265.62,36.61,265.84,45.85Z"/><path class="cls-101" d="M265.41,45.86c.21,9.07-10,16.67-22.9,17S219,56,218.82,47s10-16.67,22.91-17S265.19,36.79,265.41,45.86Z"/><path class="cls-102" d="M265,45.87c.21,8.9-9.85,16.36-22.48,16.66s-23-6.67-23.25-15.57,9.86-16.36,22.48-16.66S264.76,37,265,45.87Z"/><path class="cls-103" d="M264.55,45.88c.21,8.73-9.67,16-22.06,16.35s-22.6-6.55-22.8-15.28,9.66-16.05,22.05-16.35S264.34,37.15,264.55,45.88Z"/><path class="cls-104" d="M264.12,45.89c.2,8.56-9.48,15.74-21.63,16s-22.17-6.42-22.37-15,9.48-15.74,21.63-16S263.91,37.32,264.12,45.89Z"/><path class="cls-105" d="M263.68,45.9c.2,8.4-9.29,15.43-21.2,15.72s-21.73-6.29-21.93-14.69,9.29-15.44,21.2-15.72S263.48,37.5,263.68,45.9Z"/><path class="cls-106" d="M263.25,45.91c.2,8.23-9.11,15.13-20.78,15.4S221.18,55.15,221,46.92s9.11-15.13,20.78-15.41S263.06,37.68,263.25,45.91Z"/><path class="cls-107" d="M262.82,45.92C263,54,253.9,60.74,242.46,61s-20.86-6-21.05-14.1,8.92-14.82,20.36-15.09S262.63,37.86,262.82,45.92Z"/><path class="cls-108" d="M262.39,45.93c.19,7.89-8.74,14.51-19.93,14.78S222,54.79,221.84,46.9s8.74-14.51,19.94-14.78S262.2,38,262.39,45.93Z"/><path class="cls-109" d="M262,45.94c.18,7.73-8.55,14.2-19.51,14.46s-20-5.79-20.18-13.51,8.55-14.2,19.51-14.46S261.77,38.22,262,45.94Z"/><path class="cls-110" d="M261.53,46c.18,7.56-8.37,13.89-19.09,14.15s-19.55-5.67-19.73-13.22S231.07,33,241.79,32.73,261.35,38.39,261.53,46Z"/><path class="cls-111" d="M261.09,46c.18,7.39-8.17,13.58-18.65,13.83s-19.13-5.53-19.3-12.92S231.32,33.28,241.8,33,260.92,38.57,261.09,46Z"/><path class="cls-112" d="M260.66,46c.18,7.22-8,13.28-18.23,13.52s-18.69-5.41-18.86-12.63,8-13.28,18.23-13.52S260.49,38.75,260.66,46Z"/><path class="cls-113" d="M260.23,46c.17,7.06-7.8,13-17.81,13.21S224.17,53.9,224,46.85s7.81-13,17.81-13.21S260.06,38.93,260.23,46Z"/><path class="cls-114" d="M259.8,46c.17,6.89-7.62,12.66-17.39,12.89s-17.81-5.16-18-12S232.05,34.18,241.82,34,259.64,39.11,259.8,46Z"/><path class="cls-115" d="M259.37,46c.16,6.72-7.44,12.35-17,12.58s-17.39-5-17.55-11.75,7.44-12.35,17-12.58S259.21,39.28,259.37,46Z"/><path class="cls-116" d="M258.94,46c.15,6.55-7.25,12-16.54,12.26s-17-4.9-17.11-11.45,7.25-12,16.54-12.27S258.78,39.46,258.94,46Z"/><path class="cls-117" d="M258.51,46c.15,6.39-7.06,11.73-16.12,11.95s-16.51-4.78-16.66-11.16,7.06-11.73,16.11-12S258.35,39.64,258.51,46Z"/><path class="cls-118" d="M258.08,46c.15,6.22-6.88,11.43-15.69,11.64S226.31,53,226.16,46.8,233,35.37,241.85,35.16,257.93,39.82,258.08,46Z"/><path class="cls-119" d="M257.64,46c.15,6.05-6.69,11.12-15.26,11.32s-15.65-4.53-15.79-10.58,6.69-11.11,15.26-11.31S257.5,40,257.64,46Z"/><path class="cls-120" d="M257.21,46.05c.14,5.88-6.5,10.81-14.84,11S227.16,52.65,227,46.77s6.5-10.8,14.84-11S257.07,40.18,257.21,46.05Z"/><path class="cls-121" d="M256.78,46.06c.14,5.71-6.32,10.5-14.42,10.69s-14.77-4.28-14.91-10,6.32-10.49,14.42-10.68S256.65,40.35,256.78,46.06Z"/><path class="cls-122" d="M256.35,46.07c.13,5.55-6.13,10.19-14,10.38S228,52.3,227.88,46.75s6.14-10.18,14-10.37S256.22,40.53,256.35,46.07Z"/><path class="cls-123" d="M255.92,46.09c.13,5.37-5.95,9.87-13.57,10s-13.91-4-14-9.4,5.95-9.87,13.57-10.06S255.79,40.71,255.92,46.09Z"/><path class="cls-124" d="M255.49,46.09c.12,5.21-5.76,9.58-13.15,9.75s-13.47-3.9-13.6-9.11,5.76-9.56,13.15-9.74S255.36,40.89,255.49,46.09Z"/><path class="cls-125" d="M255.06,46.1c.12,5-5.58,9.27-12.72,9.44s-13-3.78-13.16-8.82,5.57-9.26,12.72-9.43S254.93,41.07,255.06,46.1Z"/><path class="cls-126" d="M254.63,46.12c.11,4.87-5.4,9-12.3,9.11s-12.61-3.65-12.72-8.52,5.39-9,12.29-9.12S254.51,41.25,254.63,46.12Z"/><path class="cls-127" d="M254.19,46.13c.12,4.7-5.2,8.64-11.87,8.8S230.15,51.41,230,46.7s5.2-8.64,11.87-8.8S254.08,41.42,254.19,46.13Z"/><path class="cls-128" d="M253.77,46.14c.1,4.53-5,8.33-11.46,8.49s-11.73-3.4-11.84-7.94,5-8.33,11.45-8.48S253.65,41.6,253.77,46.14Z"/><path class="cls-129" d="M253.33,46.15c.11,4.36-4.83,8-11,8.17S231,51.05,230.9,46.68s4.83-8,11-8.17S253.23,41.78,253.33,46.15Z"/><path class="cls-130" d="M252.9,46.16c.1,4.2-4.65,7.71-10.6,7.86s-10.87-3.15-11-7.35S236,39,241.94,38.81,252.8,42,252.9,46.16Z"/><path class="cls-131" d="M252.47,46.17c.1,4-4.46,7.41-10.18,7.54s-10.43-3-10.53-7.05,4.47-7.41,10.18-7.55S252.37,42.14,252.47,46.17Z"/><path class="cls-132" d="M252,46.18c.09,3.86-4.28,7.1-9.76,7.23s-10-2.9-10.09-6.76,4.28-7.1,9.76-7.23S251.94,42.32,252,46.18Z"/><path class="cls-133" d="M251.6,46.19c.09,3.69-4.09,6.79-9.32,6.91s-9.57-2.76-9.65-6.46,4.08-6.79,9.33-6.92S251.52,42.49,251.6,46.19Z"/><path class="cls-134" d="M251.17,46.2c.09,3.53-3.9,6.48-8.9,6.6s-9.13-2.64-9.21-6.17S237,40.15,242,40,251.09,42.67,251.17,46.2Z"/><path class="cls-135" d="M250.74,46.21c.08,3.36-3.72,6.17-8.48,6.29s-8.69-2.52-8.77-5.88,3.71-6.17,8.48-6.29S250.66,42.85,250.74,46.21Z"/><path class="cls-136" d="M250.31,46.22c.08,3.19-3.53,5.86-8.06,6s-8.25-2.39-8.33-5.58,3.53-5.87,8.06-6S250.24,43,250.31,46.22Z"/><path class="cls-137" d="M249.88,46.23c.07,3-3.35,5.56-7.63,5.66s-7.83-2.27-7.9-5.29S237.7,41,242,40.94,249.81,43.21,249.88,46.23Z"/><path class="cls-138" d="M249.45,46.24c.07,2.85-3.16,5.25-7.21,5.34s-7.39-2.14-7.46-5,3.16-5.25,7.21-5.34S249.38,43.38,249.45,46.24Z"/><path class="cls-139" d="M249,46.25c.06,2.69-3,4.94-6.79,5s-6.95-2-7-4.7,3-4.94,6.78-5S249,43.56,249,46.25Z"/><path class="cls-140" d="M248.59,46.26c.06,2.52-2.79,4.63-6.36,4.71s-6.52-1.88-6.58-4.4,2.78-4.63,6.36-4.72S248.53,43.74,248.59,46.26Z"/><path class="cls-141" d="M248.16,46.27c.05,2.35-2.61,4.32-5.94,4.4s-6.08-1.76-6.14-4.11,2.6-4.32,5.93-4.4S248.1,43.92,248.16,46.27Z"/><path class="cls-142" d="M247.72,46.28c.05,2.18-2.41,4-5.51,4.09s-5.65-1.64-5.7-3.82,2.41-4,5.51-4.09S247.67,44.1,247.72,46.28Z"/><path class="cls-143" d="M247.29,46.29c.05,2-2.23,3.71-5.09,3.77s-5.21-1.51-5.26-3.52,2.23-3.71,5.09-3.78S247.25,44.28,247.29,46.29Z"/><path class="cls-144" d="M246.86,46.3c0,1.85-2,3.4-4.66,3.46s-4.78-1.38-4.83-3.23,2-3.4,4.67-3.46S246.82,44.46,246.86,46.3Z"/><path class="cls-145" d="M246.43,46.31c0,1.68-1.86,3.09-4.24,3.15s-4.35-1.26-4.39-2.94,1.86-3.09,4.24-3.15S246.39,44.63,246.43,46.31Z"/><path class="cls-146" d="M246,46.32c0,1.51-1.68,2.78-3.82,2.83s-3.91-1.13-4-2.64,1.68-2.78,3.82-2.83S246,44.81,246,46.32Z"/><path class="cls-147" d="M245.57,46.33c0,1.35-1.49,2.47-3.39,2.52s-3.48-1-3.51-2.35S240.15,44,242.06,44,245.54,45,245.57,46.33Z"/><path class="cls-148" d="M245.14,46.34c0,1.18-1.31,2.16-3,2.2s-3-.88-3.07-2,1.3-2.16,3-2.21S245.11,45.17,245.14,46.34Z"/><path class="cls-149" d="M244.71,46.35c0,1-1.12,1.86-2.55,1.89s-2.61-.76-2.63-1.76,1.11-1.86,2.54-1.89S244.68,45.34,244.71,46.35Z"/><path class="cls-150" d="M244.27,46.36c0,.84-.93,1.55-2.12,1.58S240,47.31,240,46.47s.93-1.55,2.12-1.58S244.25,45.52,244.27,46.36Z"/><path class="cls-151" d="M243.84,46.37c0,.67-.74,1.24-1.7,1.26s-1.73-.5-1.75-1.17.74-1.24,1.7-1.26S243.83,45.7,243.84,46.37Z"/><path class="cls-151" d="M243.41,46.38c0,.51-.56.93-1.27.95s-1.31-.38-1.32-.88.56-.93,1.27-1S243.4,45.88,243.41,46.38Z"/><path class="cls-152" d="M243,46.39c0,.34-.38.62-.85.63s-.87-.25-.88-.59.38-.61.85-.62S243,46.06,243,46.39Z"/><path class="cls-153" d="M242.55,46.4c0,.17-.19.31-.43.32s-.43-.13-.44-.29.19-.31.43-.32A.39.39,0,0,1,242.55,46.4Z"/></g></g><path class="cls-154" d="M254.33,47.1c.07,4.43-7.87,8.14-17.74,8.3s-17.91-3.32-18-7.75,7.87-8.14,17.74-8.29S254.26,42.67,254.33,47.1Z"/><path class="cls-155" d="M77.82,156.49S84.29,163.63,91,164s8.44-6.57,8.44-6.57.77,5.66-5.22,11.85C94.22,169.26,82.21,164.91,77.82,156.49Z"/><path class="cls-156" d="M303.23,163.16a35.92,35.92,0,0,1-7.59,3.59,19.29,19.29,0,0,1-3.13-12.44s.52-1.2,1.38-3C293.89,151.34,293.6,158.56,303.23,163.16Z"/><path class="cls-6" d="M196.66,175.08a10.62,10.62,0,1,1-6.28-13.64A10.63,10.63,0,0,1,196.66,175.08Z"/><path class="cls-8" d="M193,173.72a6.67,6.67,0,1,1-4-8.58A6.68,6.68,0,0,1,193,173.72Z"/><path class="cls-6" d="M151.93,143.92s9.92,11.17,16.55-6.75C168.48,137.17,156.53,142.21,151.93,143.92Z"/><path class="cls-15" d="M195.42,285a157.88,157.88,0,0,1-21.7-1.64l.09-.53c.36,0,36.1,5.45,46.54-4l.36.41C215.68,283.79,205.2,285,195.42,285Z"/><path class="cls-15" d="M147.2,283l-.54-.05a62.46,62.46,0,0,0-1.78-19.2c-4.11-16-25.15-35.77-25.36-36l.36-.4c.22.2,21.37,20.09,25.52,36.23A63,63,0,0,1,147.2,283Z"/><path class="cls-15" d="M105.11,191.23l-.47-.27c18.48-31.91,3.39-42.58,3.23-42.68l.31-.45c.16.1,4,2.76,5.6,9.48C115.23,163.47,114.89,174.35,105.11,191.23Z"/><path class="cls-15" d="M275.53,189c-13.21-19.16,6.74-42.23,6.94-42.46l.41.35c-.2.23-19.87,23-6.9,41.8Z"/><path class="cls-24" d="M178.65,202a28.74,28.74,0,0,1-3.49,6.32l-4.53-2.23a12.75,12.75,0,0,1,4.52-5.77Z"/><path class="cls-24" d="M117.77,151.65A11,11,0,0,0,123,152l1.88,2.3s-3.84,2.23-6.57.12Z"/><path class="cls-24" d="M105.53,264.61a15.09,15.09,0,0,0-4.37,5.79l3.08,2.74,3.85-5.87Z"/><path class="cls-24" d="M289.5,144.53a8.64,8.64,0,0,0-3.77,3.79l-3.43.65a13.36,13.36,0,0,1,2.13-2.44C285.69,145.44,289.5,144.53,289.5,144.53Z"/><path class="cls-24" d="M215.7,289.21s1.91,8.47,1.06,12.51l3.62-.07a25.64,25.64,0,0,0-.5-12.18Z"/><path class="cls-24" d="M195.73,10.59S216,3.14,229,3.62C229,3.62,183.12-2.57,195.73,10.59Z"/><polygon class="cls-24" points="169.1 55.96 176.79 53.92 178.64 62.31 171.22 63.62 169.1 55.96"/></g></g></g></svg>