<svg xmlns="http://www.w3.org/2000/svg" viewBox="0 0 429.74 257.04"><defs><style>.cls-1{isolation:isolate;}.cls-2{fill:#64627b;}.cls-3{fill:#bebac6;}.cls-4,.cls-7{fill:#737483;}.cls-5{fill:#2e2e2e;}.cls-6{fill:#4b4b5c;}.cls-7{opacity:0.75;mix-blend-mode:screen;}</style></defs><title>Zasób 4</title><g class="cls-1"><g id="Warstwa_2" data-name="Warstwa 2"><g id="Warstwa_1-2" data-name="Warstwa 1"><path class="cls-2" d="M394.7,216.38c10.15,1,25.68-29,30.85-26.59s4.5,41.72,3.53,67H112.46C176.91,209.63,328.21,209.72,394.7,216.38Z"/><path class="cls-3" d="M395.11,179.23c78,6.83-4,71-11.69,76.82a2.08,2.08,0,0,1-1.27.42H100.35a2.11,2.11,0,0,1-1.74-3.28C141.07,189.75,162.88,167.57,395.11,179.23Z"/><path class="cls-4" d="M31,10.16C118.27,1.45,229-5.42,273,6c29.76,7.73,50.68,21.39,57.51,43.38C348,105.79,384.1,225,396.93,256.83H94.62a907.88,907.88,0,0,1-52.77-79.15L10.46,111l-3.41-8.82C-17.76,31.48,30.89,10.18,31,10.16Z"/><path class="cls-5" d="M68.49,42.69c58.29-7.46,121.42-13.19,166-5.29,28.53,5.06,49,15.66,55.27,34.69,13.78,42.05,48.23,154.56,60.06,185H113.14C89,220.41-16,53.49,68.49,42.69Z"/><path class="cls-6" d="M95.33,92c49.81-6.47,103.8-11.46,141.94-4.59,24.39,4.4,41.89,13.61,47.17,30.11C295.8,153,319.17,232.13,328.53,257H128.73C106.85,225.79,24.48,101.17,95.33,92Z"/><path class="cls-7" d="M305.06,68.75c.9-4.79,8.93-9.57,13.76-9,8.28,1.38,18.35,52.64,29.65,86.87,2.66,8,22.9,76.24,34.35,108.6H365.94c-19.7-54.58-39.65-114.84-57.56-169.46C306.86,81.13,304.17,73.53,305.06,68.75Z"/><path class="cls-7" d="M15.25,31c.9-9.22,10.83-13.55,19.06-15.57V15.2c1.12-.18,2.34-.36,3.63-.54a75,75,0,0,1,7.51-1C56.17,12.36,69,11,76.54,9.78,94,7,161.12,1.88,191.17,3.8,210.35,5,234.07,5.16,253.1,8.47c13.8,2.29,49.18,11.86,21.5,28.44-5.66,3.39-48.92-8.16-65.8-9.11-34.14-1.92-67.45-.59-105.31,3.12-18,1.76-38.56,5.65-58,8.42h0S32.21,42.42,22.65,45.2,15.25,31,15.25,31Z"/></g></g></g></svg>