<svg xmlns="http://www.w3.org/2000/svg" viewBox="0 0 570.57 363.03"><defs><style>.cls-1{isolation:isolate;}.cls-2{fill:#6273a1;}.cls-3{fill:#4a567a;}.cls-4{fill:#8199d7;}.cls-5{fill:#fff7ec;}.cls-6{fill:#d1c5a5;}.cls-7{fill:#58544c;}.cls-10,.cls-13,.cls-7{opacity:0.75;}.cls-10,.cls-13,.cls-19,.cls-20,.cls-24,.cls-7{mix-blend-mode:multiply;}.cls-8{fill:#efedd0;}.cls-9{fill:#aa9d7b;}.cls-10{fill:#cbcaad;}.cls-11{fill:#d9cf9b;}.cls-12{fill:#fffff9;}.cls-13{fill:#a99f88;}.cls-14{fill:#fff;}.cls-15{fill:#3a3a3a;}.cls-16{fill:#43887c;}.cls-17{fill:#78d242;}.cls-18,.cls-19,.cls-20{fill:#ff9ed3;}.cls-20,.cls-24{opacity:0.35;}.cls-21{fill:#ffdc4d;}.cls-22{fill:#fdc536;}.cls-23,.cls-24{fill:#a2da33;}.cls-25{fill:#d4dbdf;}.cls-26{fill:#7a909d;}.cls-27{fill:#071d29;}.cls-28{fill:#93ac2b;}.cls-29{fill:#4dc1e1;}.cls-30{fill:#727da0;}.cls-31{fill:#f7fcff;}.cls-32{fill:#996fbb;}.cls-33{fill:#afd86f;}.cls-34{fill:#e5c6de;}.cls-35{fill:#f6b94f;}</style></defs><title>Zasób 2</title><g class="cls-1"><g id="Warstwa_2" data-name="Warstwa 2"><g id="Warstwa_1-2" data-name="Warstwa 1"><polygon class="cls-2" points="0 201.94 71.44 363.03 499.13 363.03 570.57 201.94 0 201.94"/><polygon class="cls-3" points="63.88 238.02 119.33 363.03 451.24 363.03 506.68 238.02 63.88 238.02"/><polygon class="cls-4" points="71.44 88.79 0 201.94 570.57 201.94 499.13 88.79 71.44 88.79"/><path class="cls-5" d="M495.05,130.81c-17.72-5.35-35.34,1-39.33,14.25s7.13,28.29,24.86,33.65,35.33-1,39.33-14.25S512.78,136.17,495.05,130.81Z"/><path class="cls-6" d="M493,137.7c-12.63-3.82-25.18.72-28,10.15s5.08,20.16,17.71,24,25.17-.72,28-10.15S505.6,141.52,493,137.7Z"/><path class="cls-7" d="M489.38,142.29c-8.79-2.66-17.53.51-19.51,7.07s3.53,14,12.33,16.69,17.53-.5,19.51-7.06S498.18,145,489.38,142.29Z"/><path class="cls-8" d="M500.09,71.78c-16.92,7.81-28.88,2.51-34.86-1.76l11.93,84.74h0a11.54,11.54,0,0,0,23-1.31c0-.1,0-.19,0-.29h0Z"/><polygon class="cls-8" points="477.16 154.76 477.16 154.76 477 154.78 477.16 154.76"/><polygon class="cls-9" points="487.81 45.17 487.81 45.13 461.99 46.97 487.81 45.17"/><path class="cls-9" d="M484.46,45.41,462,47l15,107.81.16,0h0A11.53,11.53,0,0,0,488.62,165l-.73-23Zm-4.7,104.3L465.89,50.56l11.69-.86,7.48,105.37Z"/><polygon class="cls-8" points="461.99 46.97 462.89 53.39 500.08 54.04 500.07 44.32 461.99 46.97"/><path class="cls-10" d="M462.89,53.39,465.23,70c6,4.27,17.94,9.57,34.86,1.76V54Z"/><path class="cls-11" d="M451,17.68s-2.71,5.78-.24,20.43c2.7,16,21.25,35.36,39.56,32.26s26.35-37,21-52.5C506.3,3.64,466.55,15,451,17.68Z"/><path class="cls-12" d="M475.49.8c-15.6,2.64-27.25,10.67-24.78,25.31,2.7,16,21.25,35.36,39.56,32.26S516,31.47,510.66,16C505.72,1.75,491.09-1.84,475.49.8Z"/><path class="cls-13" d="M477.65,9.22C467,11,459.19,16.55,461.16,26.5c2.09,10.52,14.45,22.88,26.29,20.88s17.09-17.33,13.82-27.66C498.18,10,488.29,7.42,477.65,9.22Z"/><path class="cls-5" d="M75.51,130.81c-17.72,5.36-28.85,20.42-24.86,33.65S72.26,184.07,90,178.71s28.85-20.42,24.86-33.65S93.24,125.46,75.51,130.81Z"/><path class="cls-6" d="M77.59,137.7C65,141.52,57,152.25,59.88,161.67s15.4,14,28,10.15,20.56-14.55,17.71-24S90.22,133.88,77.59,137.7Z"/><path class="cls-7" d="M81.18,142.29C72.39,145,66.86,152.42,68.85,159s10.72,9.72,19.51,7.06,14.32-10.13,12.34-16.69S90,139.63,81.18,142.29Z"/><path class="cls-8" d="M70.47,71.78l-.06,81.38h0c0,.1,0,.19,0,.29a11.54,11.54,0,0,0,23,1.31h0L105.33,70C99.35,74.29,87.4,79.59,70.47,71.78Z"/><polygon class="cls-8" points="93.41 154.76 93.57 154.78 93.41 154.76 93.41 154.76"/><polygon class="cls-9" points="82.75 45.17 108.57 46.97 82.75 45.13 82.75 45.17"/><path class="cls-9" d="M82.68,142,82,165a11.54,11.54,0,0,0,11.46-10.23h0l.16,0L108.57,47,86.1,45.41Zm22-91.39L90.8,149.71l-5.3,5.36L93,49.7Z"/><polygon class="cls-8" points="70.49 54.04 107.67 53.39 108.57 46.97 70.49 44.32 70.49 54.04"/><path class="cls-10" d="M70.47,71.78C87.4,79.59,99.35,74.29,105.33,70l2.34-16.63L70.49,54Z"/><path class="cls-11" d="M59.33,17.87C54,33.36,62,67.28,80.3,70.37s36.86-16.31,39.55-32.26c2.48-14.65-.24-20.43-.24-20.43C104,15,64.26,3.64,59.33,17.87Z"/><path class="cls-12" d="M95.08.8C79.48-1.84,64.84,1.75,59.91,16,54.53,31.47,62,55.28,80.3,58.37s36.86-16.31,39.55-32.26C122.33,11.47,110.68,3.44,95.08.8Z"/><path class="cls-13" d="M92.91,9.22C82.27,7.42,72.38,10,69.3,19.72c-3.27,10.33,2,25.66,13.82,27.66S107.32,37,109.4,26.5C111.37,16.55,103.56,11,92.91,9.22Z"/><polygon class="cls-2" points="425.57 103.5 146.03 103.5 134.43 123.14 119.12 182.55 451.44 182.55 436.14 123.14 425.57 103.5"/><polygon class="cls-14" points="148.24 106.77 119.12 182.55 451.44 182.55 422.32 106.77 148.24 106.77"/><polygon points="155.04 112.91 127.36 178.88 443.2 178.88 415.52 112.91 155.04 112.91"/><polygon class="cls-14" points="188.08 163.64 280.97 163.64 281.46 122.4 199.18 122.4 188.08 163.64"/><polygon class="cls-15" points="209.47 146.82 219.49 146.82 221.71 135.21 212.02 135.21 209.47 146.82"/><polygon class="cls-15" points="221.81 146.82 231.84 146.82 233.64 135.21 223.95 135.21 221.81 146.82"/><polygon class="cls-15" points="212.36 133.65 222.01 133.65 223.5 125.83 214.09 125.83 212.36 133.65"/><polygon class="cls-15" points="206.79 158.97 217.17 158.97 219.17 148.5 209.1 148.5 206.79 158.97"/><polygon class="cls-15" points="193.61 158.97 204.4 158.97 206.77 148.5 196.3 148.5 193.61 158.97"/><polygon class="cls-15" points="196.74 146.82 207.15 146.82 209.78 135.21 199.72 135.21 196.74 146.82"/><polygon class="cls-15" points="200.12 133.65 210.14 133.65 211.91 125.83 202.13 125.83 200.12 133.65"/><polygon class="cls-15" points="245.13 158.97 255.51 158.97 256.39 148.5 246.31 148.5 245.13 158.97"/><polygon class="cls-15" points="219.57 158.97 229.96 158.97 231.58 148.5 221.5 148.5 219.57 158.97"/><polygon class="cls-15" points="257.91 158.97 268.29 158.97 268.79 148.5 258.71 148.5 257.91 158.97"/><polygon class="cls-15" points="270.69 158.97 277.89 158.97 278.11 148.5 271.12 148.5 270.69 158.97"/><polygon class="cls-15" points="232.35 158.97 242.73 158.97 243.98 148.5 233.9 148.5 232.35 158.97"/><polygon class="cls-15" points="234.16 146.82 244.18 146.82 245.57 135.21 235.88 135.21 234.16 146.82"/><polygon class="cls-15" points="258.84 146.82 268.87 146.82 269.42 135.21 259.74 135.21 258.84 146.82"/><polygon class="cls-15" points="271.73 133.65 278.41 133.65 278.57 125.83 272.05 125.83 271.73 133.65"/><polygon class="cls-15" points="246.5 146.82 256.53 146.82 257.5 135.21 247.81 135.21 246.5 146.82"/><polygon class="cls-15" points="259.86 133.65 269.5 133.65 269.87 125.83 260.45 125.83 259.86 133.65"/><polygon class="cls-15" points="271.19 146.82 278.14 146.82 278.38 135.21 271.66 135.21 271.19 146.82"/><polygon class="cls-15" points="247.98 133.65 257.63 133.65 258.28 125.83 248.86 125.83 247.98 133.65"/><polygon class="cls-15" points="224.23 133.65 233.88 133.65 235.1 125.83 225.68 125.83 224.23 133.65"/><polygon class="cls-15" points="236.11 133.65 245.75 133.65 246.69 125.83 237.27 125.83 236.11 133.65"/><polygon class="cls-16" points="207.15 146.82 209.47 146.82 212.02 135.21 209.78 135.21 207.15 146.82"/><polygon class="cls-16" points="210.14 133.65 212.36 133.65 214.09 125.83 211.91 125.83 210.14 133.65"/><polygon class="cls-16" points="204.4 158.97 206.79 158.97 209.1 148.5 206.77 148.5 204.4 158.97"/><polygon class="cls-16" points="217.17 158.97 219.57 158.97 221.5 148.5 219.17 148.5 217.17 158.97"/><polygon class="cls-16" points="219.49 146.82 221.81 146.82 223.95 135.21 221.71 135.21 219.49 146.82"/><polygon class="cls-16" points="222.01 133.65 224.23 133.65 225.68 125.83 223.5 125.83 222.01 133.65"/><polygon class="cls-16" points="229.96 158.97 232.35 158.97 233.9 148.5 231.58 148.5 229.96 158.97"/><polygon class="cls-16" points="233.88 133.65 236.11 133.65 237.27 125.83 235.1 125.83 233.88 133.65"/><polygon class="cls-16" points="231.84 146.82 234.16 146.82 235.88 135.21 233.64 135.21 231.84 146.82"/><polygon class="cls-16" points="245.75 133.65 247.98 133.65 248.86 125.83 246.69 125.83 245.75 133.65"/><polygon class="cls-16" points="242.73 158.97 245.13 158.97 246.31 148.5 243.98 148.5 242.73 158.97"/><polygon class="cls-16" points="244.18 146.82 246.5 146.82 247.81 135.21 245.57 135.21 244.18 146.82"/><polygon class="cls-16" points="255.51 158.97 257.91 158.97 258.71 148.5 256.39 148.5 255.51 158.97"/><polygon class="cls-16" points="256.53 146.82 258.84 146.82 259.74 135.21 257.5 135.21 256.53 146.82"/><polygon class="cls-16" points="257.63 133.65 259.86 133.65 260.45 125.83 258.28 125.83 257.63 133.65"/><polygon class="cls-16" points="269.5 133.65 271.73 133.65 272.05 125.83 269.87 125.83 269.5 133.65"/><polygon class="cls-16" points="268.87 146.82 271.19 146.82 271.66 135.21 269.42 135.21 268.87 146.82"/><polygon class="cls-16" points="268.29 158.97 270.69 158.97 271.12 148.5 268.79 148.5 268.29 158.97"/><polygon class="cls-16" points="269.5 133.65 259.86 133.65 257.63 133.65 247.98 133.65 245.75 133.65 236.11 133.65 233.88 133.65 224.23 133.65 222.01 133.65 212.36 133.65 210.14 133.65 200.12 133.65 199.72 135.21 209.78 135.21 212.02 135.21 221.71 135.21 223.95 135.21 233.64 135.21 235.88 135.21 245.57 135.21 247.81 135.21 257.5 135.21 259.74 135.21 269.42 135.21 271.66 135.21 278.38 135.21 278.41 133.65 271.73 133.65 269.5 133.65"/><polygon class="cls-16" points="268.87 146.82 258.84 146.82 256.53 146.82 246.5 146.82 244.18 146.82 234.16 146.82 231.84 146.82 221.81 146.82 219.49 146.82 209.47 146.82 207.15 146.82 196.74 146.82 196.3 148.5 206.77 148.5 209.1 148.5 219.17 148.5 221.5 148.5 231.58 148.5 233.9 148.5 243.98 148.5 246.31 148.5 256.39 148.5 258.71 148.5 268.79 148.5 271.12 148.5 278.11 148.5 278.14 146.82 271.19 146.82 268.87 146.82"/><path class="cls-17" d="M267,142.84c-1.73,0-3.56-1.91-5.73-5.83-2.28-4.11-4.8-5.95-7.53-5.56-3.7.55-6.55,5.24-7.75,9.76s-3.48,7.93-5.5,8.16-3.86-2.34-5.39-6.92c-1.76-5.26-3.95-7.76-6.62-7.51-4.14.37-7.28,7.29-8.48,10.33-2.3,5.88-4.51,8.08-5.68,8.14-.64,0-2.87-.6-3.94-9.76-.64-5.5-2.36-8.41-5.11-8.78a5.76,5.76,0,0,0-2.79.39l-.35,1.42a4.57,4.57,0,0,1,2.63-.61c1.49.2,3.42,1.71,4.12,7.93.8,7.16,2.48,10.76,5.11,10.76h.14c3.13-.15,5.72-5.18,7.3-9.27,2.15-5.55,4.88-9.16,7-9.35,1.08-.1,3.21.64,5.23,6.79,1.79,5.41,4.11,8.06,6.86,7.75,3.41-.39,5.82-5.12,6.92-9.31,1.24-4.74,3.94-8.38,6.45-8.75,2-.3,4.09,1.4,6.05,5,2.47,4.5,4.57,6.47,7,6.52H267c2.75,0,5.21-2.58,8.49-6.94l.07-2.37C272.07,139.56,269.36,142.88,267,142.84Z"/><path class="cls-14" d="M351.55,122.7c-4,0-6.7,2.77-6.06,6.25s4.56,6.5,8.7,6.5,6.82-2.95,6-6.5S355.53,122.7,351.55,122.7Z"/><path class="cls-14" d="M370.61,122.7c-4,0-6.53,2.77-5.68,6.25s4.94,6.5,9.08,6.5,6.64-2.95,5.61-6.5S374.59,122.7,370.61,122.7Z"/><path class="cls-14" d="M389.67,122.7c-4,0-6.36,2.77-5.31,6.25s5.33,6.5,9.47,6.5,6.46-2.95,5.23-6.5S393.65,122.7,389.67,122.7Z"/><path class="cls-18" d="M347.19,129a5.31,5.31,0,0,0,1.1,2.31,7.31,7.31,0,0,0,5.58,2.67l-2-9.82C348.77,124.11,346.68,126.26,347.19,129Z"/><path class="cls-19" d="M355.91,125.4a7.28,7.28,0,0,0-4.07-1.29l2,9.82c3.17,0,5.24-2.25,4.63-5A6.08,6.08,0,0,0,355.91,125.4Z"/><path class="cls-20" d="M355.91,125.4a7.28,7.28,0,0,0-4.07-1.29l2,9.82c3.17,0,5.24-2.25,4.63-5A6.08,6.08,0,0,0,355.91,125.4Z"/><path class="cls-21" d="M366.62,129a5.73,5.73,0,0,0,1.24,2.31,7.81,7.81,0,0,0,5.74,2.67L371,124.11C367.91,124.11,366,126.26,366.62,129Z"/><path class="cls-22" d="M375.13,125.4a7.61,7.61,0,0,0-4.14-1.29h0l2.61,9.82h0c3.17,0,5.11-2.25,4.34-5A6.56,6.56,0,0,0,375.13,125.4Z"/><path class="cls-23" d="M386.05,129a6.21,6.21,0,0,0,1.38,2.31,8.32,8.32,0,0,0,5.9,2.67l-3.2-9.82C387.05,124.11,385.22,126.26,386.05,129Z"/><path class="cls-23" d="M394.36,125.4a8,8,0,0,0-4.22-1.29h0l3.2,9.82h0c3.16,0,5-2.25,4-5A7.08,7.08,0,0,0,394.36,125.4Z"/><path class="cls-24" d="M394.36,125.4a8,8,0,0,0-4.22-1.29h0l3.2,9.82h0c3.16,0,5-2.25,4-5A7.08,7.08,0,0,0,394.36,125.4Z"/><path class="cls-15" d="M311.2,126.12c-9.08,0-16.26,6.46-16,14.8.25,8.76,8.54,16.21,18.5,16.21s17.06-7.45,15.91-16.21C328.51,132.58,320.29,126.12,311.2,126.12Z"/><path class="cls-14" d="M322.64,132.76a16.61,16.61,0,0,0-11.25-4.4c-7.77,0-13.86,5.54-13.6,12.65.2,5.27,3.82,10,9,12.24a30.33,30.33,0,0,0,3.7.59c9.3,0,16-6.89,15-15C325.25,136.74,323.7,134.48,322.64,132.76Z"/><path class="cls-25" d="M322.64,132.76a14,14,0,0,1,2,5.7c.95,8.13-5.78,15-15.06,15a17.65,17.65,0,0,1-2.84-.23,16.66,16.66,0,0,0,6.73,1.42c8.4,0,14.43-6.25,13.52-13.66A13.67,13.67,0,0,0,322.64,132.76Z"/><path class="cls-26" d="M311.49,129.63c-.16,0-.28.05-.28.12l.28,3.47c0,.07.14.13.3.13s.28-.06.27-.13l-.28-3.47C311.78,129.68,311.65,129.63,311.49,129.63Z"/><path class="cls-26" d="M313.06,149.29c-.16,0-.29.06-.29.14l.31,3.9c0,.08.15.15.32.15s.3-.07.29-.15l-.32-3.9C313.37,149.35,313.23,149.29,313.06,149.29Z"/><path class="cls-26" d="M325.6,140.87h-4.09c-.08,0-.13.12-.11.26s.09.27.17.27h4.1c.08,0,.13-.12.11-.27S325.68,140.87,325.6,140.87Z"/><path class="cls-26" d="M303.32,140.87h-4.09c-.08,0-.14.12-.13.26s.07.27.15.27h4.1c.08,0,.14-.12.13-.27S303.4,140.87,303.32,140.87Z"/><path class="cls-27" d="M311.94,140.41a1.22,1.22,0,0,0-1.31,1.27,1.48,1.48,0,0,0,1.51,1.27,1.22,1.22,0,0,0,1.31-1.27A1.47,1.47,0,0,0,311.94,140.41Z"/><polygon class="cls-27" points="311.97 140.82 312.72 141.74 321.74 136.1 322.08 135.19 320.98 135.22 311.97 140.82"/><path class="cls-15" d="M187.05,123.48H162a2.41,2.41,0,0,0-2.17,1.16l-2.07,5.3c-.26.67.32,1.21,1.29,1.21H184.7a2.22,2.22,0,0,0,2.12-1.21l1.59-5.3C188.61,124,188,123.48,187.05,123.48Z"/><path class="cls-28" d="M162.46,125a.83.83,0,0,0-.56.45l-.34.89c-.06.16,0,.45.22.45a.55.55,0,0,0,.5-.29l.46-1.22C162.8,125.14,162.68,125,162.46,125Z"/><path class="cls-28" d="M161.69,127a.81.81,0,0,0-.56.45l-.35.9c-.06.16,0,.45.23.45a.58.58,0,0,0,.5-.28l.46-1.24C162,127.17,161.91,127,161.69,127Z"/><path class="cls-28" d="M164.42,125.25a.7.7,0,0,0-.49.39l-.3.78c0,.13,0,.39.2.39a.49.49,0,0,0,.44-.25l.39-1.07C164.72,125.36,164.6,125.25,164.42,125.25Z"/><path class="cls-28" d="M166,125h-1a.34.34,0,0,0-.31.18c0,.1.18.18.32.18h.76c.13,0,.41-.08.45-.18S166.17,125,166,125Z"/><path class="cls-28" d="M164.62,128.48h-.77c-.14,0-.42.08-.46.19s.05.17.18.17h1.05a.37.37,0,0,0,.32-.17C165,128.56,164.75,128.48,164.62,128.48Z"/><path class="cls-28" d="M166.47,125.25a.48.48,0,0,0-.43.24l-.4,1.07c0,.14.07.25.25.25a.73.73,0,0,0,.49-.39l.29-.78C166.71,125.5,166.66,125.25,166.47,125.25Z"/><path class="cls-28" d="M165.82,127a.48.48,0,0,0-.44.25l-.39,1.08c-.06.14.06.25.25.25s.43-.26.48-.4l.29-.79C166.06,127.28,166,127,165.82,127Z"/><path class="cls-28" d="M163.75,127a.73.73,0,0,0-.49.39l-.3.79c-.05.14,0,.4.2.4a.48.48,0,0,0,.44-.25l.4-1.08C164.05,127.13,163.94,127,163.75,127Z"/><path class="cls-28" d="M174.05,125.25c-.18,0-.42.25-.47.39l-.27.78c-.05.13,0,.39.21.39a.44.44,0,0,0,.42-.25l.37-1.07C174.36,125.36,174.24,125.25,174.05,125.25Z"/><path class="cls-28" d="M175.67,125h-1a.34.34,0,0,0-.3.18c0,.1.19.18.32.18h.76c.14,0,.41-.08.44-.18S175.8,125,175.67,125Z"/><path class="cls-28" d="M174.35,128.48h-.77c-.13,0-.41.08-.44.19s0,.17.18.17h1.05a.36.36,0,0,0,.31-.17C174.71,128.56,174.49,128.48,174.35,128.48Z"/><path class="cls-28" d="M176.1,125.25a.47.47,0,0,0-.42.24l-.36,1.07c0,.14.07.25.26.25s.42-.26.47-.39l.26-.78C176.36,125.5,176.29,125.25,176.1,125.25Z"/><path class="cls-28" d="M175.5,127a.45.45,0,0,0-.42.25l-.37,1.08c0,.14.07.25.26.25s.43-.26.48-.4l.26-.79C175.76,127.28,175.69,127,175.5,127Z"/><path class="cls-28" d="M173.44,127a.67.67,0,0,0-.47.39l-.28.79c-.05.14,0,.4.21.4a.46.46,0,0,0,.43-.25l.37-1.08C173.75,127.13,173.63,127,173.44,127Z"/><path class="cls-28" d="M179.73,125.25c-.19,0-.42.25-.47.39l-.25.78c0,.13,0,.39.21.39a.44.44,0,0,0,.42-.25l.35-1.07C180,125.36,179.92,125.25,179.73,125.25Z"/><path class="cls-28" d="M181.35,125h-1a.35.35,0,0,0-.3.18c0,.1.19.18.33.18h.76c.14,0,.41-.08.44-.18S181.48,125,181.35,125Z"/><path class="cls-28" d="M180.09,128.48h-.78c-.13,0-.41.08-.44.19s0,.17.19.17h1.05a.33.33,0,0,0,.3-.17C180.45,128.56,180.22,128.48,180.09,128.48Z"/><path class="cls-28" d="M181.78,125.25a.46.46,0,0,0-.42.24l-.34,1.07c0,.14.07.25.26.25a.67.67,0,0,0,.47-.39l.25-.78C182.05,125.5,182,125.25,181.78,125.25Z"/><path class="cls-28" d="M181.21,127a.45.45,0,0,0-.42.25l-.34,1.08c0,.14.07.25.26.25s.42-.26.47-.4l.25-.79C181.48,127.28,181.4,127,181.21,127Z"/><path class="cls-28" d="M179.15,127c-.19,0-.42.26-.47.39l-.26.79c0,.14,0,.4.22.4a.44.44,0,0,0,.42-.25l.35-1.08C179.46,127.13,179.34,127,179.15,127Z"/><path class="cls-28" d="M170.18,125.25a.68.68,0,0,0-.48.39l-.28.78c0,.13,0,.39.2.39a.46.46,0,0,0,.43-.25l.38-1.07C170.48,125.36,170.37,125.25,170.18,125.25Z"/><path class="cls-28" d="M171.8,125h-1.05a.35.35,0,0,0-.3.18c0,.1.19.18.32.18h.77c.13,0,.41-.08.44-.18S171.93,125,171.8,125Z"/><path class="cls-28" d="M170.44,128.48h-.77c-.14,0-.42.08-.45.19s0,.17.18.17h1a.34.34,0,0,0,.31-.17C170.8,128.56,170.57,128.48,170.44,128.48Z"/><path class="cls-28" d="M172.23,125.25a.49.49,0,0,0-.43.24l-.37,1.07c-.05.14.06.25.26.25s.42-.26.47-.39l.27-.78C172.48,125.5,172.42,125.25,172.23,125.25Z"/><path class="cls-28" d="M171.61,127a.46.46,0,0,0-.43.25l-.38,1.08c-.05.14.07.25.26.25s.43-.26.48-.4l.27-.79C171.86,127.28,171.8,127,171.61,127Z"/><path class="cls-28" d="M169.55,127a.73.73,0,0,0-.49.39l-.28.79c-.05.14,0,.4.21.4a.48.48,0,0,0,.43-.25l.38-1.08C169.85,127.13,169.73,127,169.55,127Z"/><path class="cls-28" d="M185,126.78h-1.07c-.18,0-.56.09-.6.21s.09.21.27.21H185a.42.42,0,0,0,.4-.21C185.45,126.87,185.13,126.78,185,126.78Z"/><path class="cls-28" d="M184.3,125c-.2,0-.6.1-.63.21s.09.21.29.21h1.57c.2,0,.39-.09.42-.21s-.3-.21-.51-.21Z"/><path class="cls-28" d="M183.39,128.41c-.19,0-.58.1-.62.22s.09.21.29.21h1.52a.44.44,0,0,0,.42-.21c0-.12-.29-.22-.49-.22Z"/><path class="cls-28" d="M182.94,127.06c-.19,0-.42.25-.47.39l-.24.79c0,.13,0,.39.21.39a.44.44,0,0,0,.42-.25l.34-1.07C183.24,127.17,183.12,127.06,182.94,127.06Z"/><path class="cls-28" d="M186.14,125.32a.44.44,0,0,0-.41.24l-.32,1.06c0,.14.07.25.26.25s.41-.25.46-.39l.23-.78C186.4,125.57,186.33,125.32,186.14,125.32Z"/><path class="cls-28" d="M168.3,125.93a.52.52,0,0,0-.47.29l-.16.45c-.06.16.05.3.26.3a.53.53,0,0,0,.47-.3l.16-.45C168.62,126.06,168.5,125.93,168.3,125.93Z"/><path class="cls-28" d="M167.69,127.61a.53.53,0,0,0-.47.3l-.17.46c-.05.16.06.3.26.3a.55.55,0,0,0,.48-.3l.16-.46C168,127.75,167.9,127.61,167.69,127.61Z"/><path class="cls-28" d="M178,125.93a.5.5,0,0,0-.46.29l-.15.45c-.06.16.07.3.26.3a.51.51,0,0,0,.47-.3l.15-.45C178.31,126.06,178.19,125.93,178,125.93Z"/><path class="cls-28" d="M177.43,127.61a.5.5,0,0,0-.46.3l-.16.46c-.05.16.07.3.27.3a.52.52,0,0,0,.47-.3l.15-.46C177.75,127.75,177.63,127.61,177.43,127.61Z"/><path class="cls-29" d="M178,143H177a2.78,2.78,0,0,0-2.5,1.76l-.11.34a1.31,1.31,0,0,0,1.38,1.78h1.06a2.77,2.77,0,0,0,2.5-1.78l.1-.34A1.31,1.31,0,0,0,178,143Z"/><path class="cls-29" d="M171.45,143h-1a2.84,2.84,0,0,0-2.53,1.76l-.12.34a1.29,1.29,0,0,0,1.34,1.78h1.06a2.83,2.83,0,0,0,2.54-1.78l.11-.34A1.29,1.29,0,0,0,171.45,143Z"/><path class="cls-29" d="M164.87,143h-1.05a2.92,2.92,0,0,0-2.57,1.76l-.12.34a1.26,1.26,0,0,0,1.3,1.78h1.07a2.88,2.88,0,0,0,2.56-1.78l.12-.34A1.26,1.26,0,0,0,164.87,143Z"/><path class="cls-29" d="M158.29,143h-1a3,3,0,0,0-2.6,1.76l-.13.34a1.24,1.24,0,0,0,1.27,1.78h1.07a3,3,0,0,0,2.59-1.78l.13-.34A1.24,1.24,0,0,0,158.29,143Z"/><path class="cls-29" d="M176.23,148.7h-1.06a2.83,2.83,0,0,0-2.55,1.81l-.12.35a1.35,1.35,0,0,0,1.39,1.84H175a2.82,2.82,0,0,0,2.55-1.84l.11-.35A1.34,1.34,0,0,0,176.23,148.7Z"/><path class="cls-29" d="M169.54,148.7h-1.07a2.9,2.9,0,0,0-2.58,1.81l-.12.35a1.32,1.32,0,0,0,1.35,1.84h1.08a2.9,2.9,0,0,0,2.59-1.84l.12-.35A1.32,1.32,0,0,0,169.54,148.7Z"/><path class="cls-29" d="M162.85,148.7h-1.07a3,3,0,0,0-2.61,1.81l-.13.35a1.29,1.29,0,0,0,1.31,1.84h1.08a3,3,0,0,0,2.62-1.84l.13-.35A1.29,1.29,0,0,0,162.85,148.7Z"/><path class="cls-29" d="M156.16,148.7h-1.07a3,3,0,0,0-2.65,1.81l-.13.35a1.27,1.27,0,0,0,1.28,1.84h1.08a3,3,0,0,0,2.66-1.84l.13-.35A1.27,1.27,0,0,0,156.16,148.7Z"/><path class="cls-29" d="M174.38,154.6h-1.09a2.9,2.9,0,0,0-2.6,1.87l-.12.37a1.38,1.38,0,0,0,1.41,1.9h1.09a2.89,2.89,0,0,0,2.6-1.9l.12-.37A1.37,1.37,0,0,0,174.38,154.6Z"/><path class="cls-29" d="M167.57,154.6h-1.09a3,3,0,0,0-2.63,1.87l-.13.37a1.35,1.35,0,0,0,1.37,1.9h1.1a3,3,0,0,0,2.64-1.9l.12-.37A1.35,1.35,0,0,0,167.57,154.6Z"/><path class="cls-29" d="M160.76,154.6h-1.08a3.05,3.05,0,0,0-2.67,1.87l-.14.37a1.33,1.33,0,0,0,1.33,1.9h1.1a3,3,0,0,0,2.68-1.9l.13-.37A1.33,1.33,0,0,0,160.76,154.6Z"/><path class="cls-29" d="M154,154.6h-1.08a3.15,3.15,0,0,0-2.72,1.87l-.13.37a1.3,1.3,0,0,0,1.29,1.9h1.1a3.12,3.12,0,0,0,2.71-1.9l.14-.37A1.3,1.3,0,0,0,154,154.6Z"/><path class="cls-30" d="M179.86,139.73H158.27a7.43,7.43,0,0,0-6.54,4.21l-5.39,13.78c-1,2.56.52,4.68,3.4,4.68h23a7.24,7.24,0,0,0,6.63-4.68l4.1-13.78C184.2,141.61,182.56,139.73,179.86,139.73Zm2.54,4.21-4.15,13.78a5.63,5.63,0,0,1-5.15,3.63h-23c-2.23,0-3.42-1.64-2.64-3.63l5.34-13.78a5.78,5.78,0,0,1,5.1-3.29h21.63C181.67,140.65,183,142.12,182.4,143.94Z"/><path class="cls-31" d="M405.47,148.6c-.77-2.24-3.61-4-6.34-4H353.85c-2.73,0-4.62,1.79-4.2,4l1.83,9.88c.45,2.41,3.15,4.38,6,4.38h47.7c2.88,0,4.53-2,3.69-4.38Z"/><polygon class="cls-32" points="353.8 147.6 354.75 152.41 402.5 152.41 400.89 147.6 353.8 147.6"/><path class="cls-32" d="M359.69,155a2.41,2.41,0,0,0-2.54,3,4,4,0,0,0,3.8,3,2.41,2.41,0,0,0,2.52-3A4,4,0,0,0,359.69,155Z"/><path class="cls-33" d="M369.5,155a2.34,2.34,0,0,0-2.45,3,4.13,4.13,0,0,0,3.88,3,2.34,2.34,0,0,0,2.44-3A4.14,4.14,0,0,0,369.5,155Z"/><path class="cls-34" d="M379.32,155a2.27,2.27,0,0,0-2.37,3,4.27,4.27,0,0,0,4,3,2.28,2.28,0,0,0,2.36-3A4.29,4.29,0,0,0,379.32,155Z"/><path class="cls-35" d="M389.13,155a2.21,2.21,0,0,0-2.29,3,4.43,4.43,0,0,0,4.05,3,2.22,2.22,0,0,0,2.28-3A4.45,4.45,0,0,0,389.13,155Z"/><path class="cls-32" d="M399,155a2.15,2.15,0,0,0-2.21,3,4.59,4.59,0,0,0,4.13,3,2.16,2.16,0,0,0,2.19-3A4.59,4.59,0,0,0,399,155Z"/></g></g></g></svg>