<svg xmlns="http://www.w3.org/2000/svg" xmlns:xlink="http://www.w3.org/1999/xlink" viewBox="0 0 851.19 1084.96"><defs><style>.cls-1{isolation:isolate;}.cls-2{fill:#0f0e15;}.cls-10,.cls-11,.cls-12,.cls-16,.cls-3,.cls-4,.cls-5,.cls-6,.cls-7,.cls-8,.cls-9{fill-rule:evenodd;}.cls-3{fill:url(#radial-gradient);}.cls-4{fill:url(#radial-gradient-2);}.cls-5{fill:url(#radial-gradient-3);}.cls-6{fill:url(#radial-gradient-4);}.cls-7{fill:url(#radial-gradient-5);}.cls-8{fill:url(#radial-gradient-6);}.cls-9{fill:url(#radial-gradient-7);}.cls-10{fill:url(#radial-gradient-8);}.cls-11{fill:url(#radial-gradient-9);}.cls-12{mix-blend-mode:screen;fill:url(#radial-gradient-10);}.cls-13{fill:#ffec00;}.cls-14{fill:#fff;}.cls-15,.cls-16{fill:#ee4c23;}.cls-17{fill:#f8f8f8;}.cls-18{opacity:0.4;}.cls-19{opacity:0.09;}.cls-20{opacity:0.73;}</style><radialGradient id="radial-gradient" cx="-453.6" cy="-2210.58" r="166.3" gradientTransform="matrix(1, 0, 0, -1, 1004.32, -1318.2)" gradientUnits="userSpaceOnUse"><stop offset="0" stop-color="#ff4215"/><stop offset="0.56" stop-color="#ff8115"/><stop offset="1" stop-color="#ffb315"/></radialGradient><radialGradient id="radial-gradient-2" cx="-460.88" cy="-2249.51" r="230.92" gradientTransform="matrix(1, 0, 0, -1, 1004.32, -1318.2)" gradientUnits="userSpaceOnUse"><stop offset="0" stop-color="#ca0024"/><stop offset="0.99" stop-color="red"/></radialGradient><radialGradient id="radial-gradient-3" cx="-460.87" cy="-2249.49" r="230.91" xlink:href="#radial-gradient-2"/><radialGradient id="radial-gradient-4" cx="-460.87" cy="-2249.49" r="230.9" xlink:href="#radial-gradient-2"/><radialGradient id="radial-gradient-5" cx="-460.87" cy="-2248" r="229.75" xlink:href="#radial-gradient-2"/><radialGradient id="radial-gradient-6" cx="-432.4" cy="-2229.48" r="80.51" gradientTransform="matrix(1, 0, 0, -1, 1004.32, -1318.2)" gradientUnits="userSpaceOnUse"><stop offset="0" stop-color="#ffec00"/><stop offset="1" stop-color="#ffec00"/></radialGradient><radialGradient id="radial-gradient-7" cx="-464.36" cy="-2253.63" r="39.19" xlink:href="#radial-gradient-6"/><radialGradient id="radial-gradient-8" cx="-422.33" cy="-2148.37" r="85.21" xlink:href="#radial-gradient-6"/><radialGradient id="radial-gradient-9" cx="-399.89" cy="-2092.3" r="57.63" xlink:href="#radial-gradient-6"/><radialGradient id="radial-gradient-10" cx="-403.24" cy="-2085.92" r="132.87" gradientTransform="matrix(1, 0, 0, -1, 1004.32, -1318.2)" gradientUnits="userSpaceOnUse"><stop offset="0" stop-color="#ca4f24"/><stop offset="0.13" stop-color="#9d3d1c"/><stop offset="0.28" stop-color="#6d2b14"/><stop offset="0.43" stop-color="#461b0c"/><stop offset="0.58" stop-color="#270f07"/><stop offset="0.73" stop-color="#120703"/><stop offset="0.87" stop-color="#040201"/><stop offset="1"/></radialGradient></defs><title>Zasób 5</title><g class="cls-1"><g id="Warstwa_2" data-name="Warstwa 2"><g id="Warstwa_1-2" data-name="Warstwa 1"><path class="cls-2" d="M851.19,1085H0c14.23-65,52.87-126.87,112.18-157.21,37.36-19.11,83.48-26.9,108.85-60.28,21.25-28,25.44-67.16,15.66-100.92s-12.35-40.4-26.21-72.7c-21.66-50.38-22.08-113.23-8.93-166.48s52.67-91.74,105.72-106.14c57.4-15.55,127.42,6.88,172.42-32,50.33-43.44.81-160,46.62-208.2,29.28-30.81,77.12-35.42,119.2-29.08s100.61,1,125.43-18.73C798.79,111.12,829,16,851.19,0Z"/><path class="cls-3" d="M697.48,852.81A121,121,0,0,0,525.1,743.33c-3.08,1.44-6.08,3-9,4.71a121,121,0,0,0-49.75,154.68,118.3,118.3,0,0,0,7.56,14.09A120.61,120.61,0,0,0,496,943.05l0,0a120.84,120.84,0,0,0,144.82,12.17h0c2.12-1.33,4.18-2.72,6.2-4.18,1.69-1.2,3.34-2.47,5-3.77a120.85,120.85,0,0,0,45.44-94.48Z"/><path class="cls-4" d="M684.88,920.37l-4.38-5.74-1.59,2.56s-150.8,21.06-215.34-20.13L459,898.5l0,0,5.46,9.26s34.78,24,116.27,21.92c0,0-26.3,8.45-95.89,1.93l.29,9.52s54.94,37.26,154.64,21.25C639.75,962.41,671.12,945.14,684.88,920.37Z"/><path class="cls-5" d="M457.48,830.81l-3.78-7.68,12.65-26.88s100.56,51.13,230.62,63l2.61,5-1.06,13.93S590.8,880.4,457.48,830.81Z"/><path class="cls-6" d="M488.1,762.51s87.71,35.15,206.13,44.41l-3.61-10.67s-99.86-4.31-190.54-44.46Z"/><path class="cls-7" d="M500.08,751.79s8.11,4.27,25.9,10.4c0,0,67.51-6.53,158.9,23.46l-9-17.94s-52.13-23.43-127.82-32.92C548.11,734.79,526.1,733.47,500.08,751.79Z"/><path class="cls-8" d="M684.88,920.37l-4.38-5.74-1.59,2.56s-150.8,21.06-215.34-20.13L459,898.5l0,0C460.77,899.63,528.56,939.34,684.88,920.37Z"/><path class="cls-9" d="M485.11,941.16s70.64-.46,110-11.44H580.71s-31.57,8.28-95.89,1.93Z"/><path class="cls-10" d="M466.35,796.25s128.08,65.67,231.27,67.85l-.65-4.81S608.2,857.48,466.35,796.25Z"/><path class="cls-11" d="M684.88,785.65l-6.83,1.4S626.55,763.25,524,761.5C524,761.5,630.88,756.38,684.88,785.65Z"/><path class="cls-12" d="M734,767.72A132.88,132.88,0,1,0,601.08,900.6,132.87,132.87,0,0,0,734,767.72Z"/><path class="cls-13" d="M676.8,931.18c-65.67,28.69-190.34,9.57-191.59,9.37l-.2,1.21c1.26.2,126.28,19.38,192.28-9.47Z"/><path class="cls-13" d="M668,940.58c-37.79,13.84-146.9,15.12-148,15.13v1.22c1.1,0,110.43-1.29,148.41-15.2Z"/><path class="cls-13" d="M660.65,948.22c-20.4,12.38-62.75,17.35-63.17,17.4l.15,1.21c.42,0,43-5,63.65-17.57Z"/><path class="cls-13" d="M466.68,795.73l-.67,1c.93.6,94,60.68,194.83,80.42l.24-1.2C560.48,856.28,467.61,796.33,466.68,795.73Z"/><path class="cls-13" d="M453.92,822.56l-.43,1.15c.62.22,62,22.94,143.9,45.36l.32-1.18C515.91,845.48,454.53,822.79,453.92,822.56Z"/><path class="cls-14" d="M790.12,345.79c3.22,0,3.23-5,0-5s-3.22,5,0,5Z"/><rect class="cls-2" x="435.01" y="536.81" width="271.47" height="105.14"/><path class="cls-15" d="M707,642.38l-272.41.1,0-106.09,272.4-.09Zm-271.46-.84,270.52-.1,0-104.2-270.52.09Z"/><polygon class="cls-16" points="501.14 536.37 509.62 541.22 572.99 541.19 582.66 536.82 501.14 536.37"/><polygon class="cls-16" points="435.13 630.11 446.42 642 435.02 642.01 435.13 630.11"/><path class="cls-15" d="M459.92,572a.79.79,0,0,1-.89-.89V558.67c0-.61.29-.92.89-.92s.83.31.83.92v1.78a4.62,4.62,0,0,1,2-2.07,6,6,0,0,1,2.87-.69q5,0,5,5.39v8.07a.88.88,0,1,1-1.75,0v-7.92a4.64,4.64,0,0,0-.83-3,3.3,3.3,0,0,0-2.64-1,4.45,4.45,0,0,0-3.32,1.28,4.71,4.71,0,0,0-1.24,3.43v7.23A.78.78,0,0,1,459.92,572Z"/><path class="cls-15" d="M480.64,572.09a6.43,6.43,0,0,1-3.39-.87,5.82,5.82,0,0,1-2.22-2.5,9.66,9.66,0,0,1,0-7.63,5.93,5.93,0,0,1,2.23-2.51,6.2,6.2,0,0,1,3.38-.89,6.32,6.32,0,0,1,3.42.89,5.88,5.88,0,0,1,2.22,2.5,9.63,9.63,0,0,1,0,7.64,5.73,5.73,0,0,1-2.22,2.49A6.37,6.37,0,0,1,480.64,572.09Zm0-1.46a4.2,4.2,0,0,0,3.38-1.51,7.71,7.71,0,0,0,0-8.45,4.24,4.24,0,0,0-3.39-1.49,4.18,4.18,0,0,0-3.37,1.49,7.77,7.77,0,0,0,0,8.45A4.16,4.16,0,0,0,480.64,570.63Z"/><path class="cls-15" d="M495.64,572a1.32,1.32,0,0,1-1.23-.92l-5.17-12.05a1.07,1.07,0,0,1,0-.92.81.81,0,0,1,.8-.4.94.94,0,0,1,.89.72l4.74,11.47,4.79-11.48a1.43,1.43,0,0,1,.34-.54.85.85,0,0,1,.58-.17.66.66,0,0,1,.7.4,1.16,1.16,0,0,1,0,.89l-5.16,12.08A1.27,1.27,0,0,1,495.64,572Z"/><path class="cls-15" d="M509.24,572.08a5.67,5.67,0,0,1-2.51-.54A4.5,4.5,0,0,1,505,570a3.63,3.63,0,0,1-.64-2.12,3.5,3.5,0,0,1,.77-2.42,4.63,4.63,0,0,1,2.61-1.25,26.44,26.44,0,0,1,5-.38h.89v-1a4.16,4.16,0,0,0-.78-2.8,3.13,3.13,0,0,0-2.46-.87,7.6,7.6,0,0,0-2.13.29,9.27,9.27,0,0,0-2.15.92.67.67,0,0,1-.82,0,.91.91,0,0,1-.29-.72.76.76,0,0,1,.48-.67,10.25,10.25,0,0,1,2.44-1,9.6,9.6,0,0,1,2.44-.33,4.92,4.92,0,0,1,3.74,1.29,5.6,5.6,0,0,1,1.22,4v8.2c0,.6-.26.89-.8.89s-.86-.29-.86-.89v-1.78a4.42,4.42,0,0,1-1.73,2A5.07,5.07,0,0,1,509.24,572.08Zm.23-1.41a4,4,0,0,0,2.17-.58,4.32,4.32,0,0,0,1.48-1.63,5,5,0,0,0,.54-2.35v-1h-.86a26.27,26.27,0,0,0-4,.23,3.64,3.64,0,0,0-2,.8,2.11,2.11,0,0,0-.58,1.58,2.68,2.68,0,0,0,.89,2.09A3.46,3.46,0,0,0,509.47,570.67Z"/><path class="cls-17" d="M535.93,572.07a9.47,9.47,0,0,1-5-1.24,8.26,8.26,0,0,1-3.17-3.58,13,13,0,0,1-1.11-5.53,12.66,12.66,0,0,1,1.11-5.51,8.14,8.14,0,0,1,3.17-3.58,9.44,9.44,0,0,1,5-1.25,10.93,10.93,0,0,1,3.53.56,8.13,8.13,0,0,1,2.81,1.59,1,1,0,0,1,.43.88.8.8,0,0,1-.45.67.83.83,0,0,1-.92-.2A8,8,0,0,0,536,553a6.71,6.71,0,0,0-5.46,2.28,11.78,11.78,0,0,0,0,12.86,6.74,6.74,0,0,0,5.47,2.28,8.08,8.08,0,0,0,5.39-1.9.83.83,0,0,1,.91-.2.82.82,0,0,1,.45.66.87.87,0,0,1-.36.83A9.25,9.25,0,0,1,535.93,572.07Z"/><path class="cls-17" d="M550.91,572.07a6.34,6.34,0,0,1-3.39-.88,5.73,5.73,0,0,1-2.22-2.49,8.62,8.62,0,0,1-.79-3.83,8.73,8.73,0,0,1,.78-3.81,6,6,0,0,1,2.23-2.51,6.29,6.29,0,0,1,3.38-.89,6.4,6.4,0,0,1,3.42.89,6,6,0,0,1,2.22,2.51,9.61,9.61,0,0,1,0,7.63,5.76,5.76,0,0,1-2.22,2.5A6.46,6.46,0,0,1,550.91,572.07Zm0-1.47a4.19,4.19,0,0,0,3.38-1.5,6.44,6.44,0,0,0,1.26-4.24,6.32,6.32,0,0,0-1.26-4.21,4.56,4.56,0,0,0-6.76,0,6.4,6.4,0,0,0-1.25,4.22,6.54,6.54,0,0,0,1.25,4.23A4.18,4.18,0,0,0,550.91,570.6Z"/><path class="cls-17" d="M562,572a.78.78,0,0,1-.88-.88V558.63a.8.8,0,0,1,.89-.91c.55,0,.83.3.83.91v1.78a4.6,4.6,0,0,1,2-2.06,6,6,0,0,1,2.87-.69c3.31,0,5,1.79,5,5.39v8.06c0,.6-.29.89-.86.89a.79.79,0,0,1-.89-.89v-7.92a4.66,4.66,0,0,0-.84-3,3.27,3.27,0,0,0-2.64-1,4.39,4.39,0,0,0-3.31,1.28,4.69,4.69,0,0,0-1.25,3.42v7.24A.77.77,0,0,1,562,572Z"/><path class="cls-17" d="M581.67,572.06a9.82,9.82,0,0,1-2.57-.35,7.56,7.56,0,0,1-2.43-1.17.66.66,0,0,1-.34-.65.83.83,0,0,1,.33-.64c.2-.16.45-.14.76,0a7.39,7.39,0,0,0,2.18,1,7.74,7.74,0,0,0,2.12.29,4.57,4.57,0,0,0,2.69-.65,2.07,2.07,0,0,0,.9-1.79,1.74,1.74,0,0,0-.6-1.4,4.62,4.62,0,0,0-1.9-.84l-2.49-.57c-2.36-.53-3.53-1.75-3.54-3.64a3.57,3.57,0,0,1,1.44-3,6,6,0,0,1,3.79-1.12,8,8,0,0,1,2.39.37,5.38,5.38,0,0,1,2,1.15.7.7,0,0,1,.32.69.79.79,0,0,1-.39.6.64.64,0,0,1-.76-.11,5.93,5.93,0,0,0-1.75-.93,5.66,5.66,0,0,0-1.86-.3,4.23,4.23,0,0,0-2.57.68,2.24,2.24,0,0,0-.9,1.87,1.94,1.94,0,0,0,.54,1.43,3.65,3.65,0,0,0,1.78.84l2.5.57a6.05,6.05,0,0,1,2.78,1.27,3,3,0,0,1,.92,2.29,3.42,3.42,0,0,1-1.46,2.92A6.58,6.58,0,0,1,581.67,572.06Z"/><path class="cls-17" d="M596,572.05a4.53,4.53,0,0,1-3.49-1.26,5.13,5.13,0,0,1-1.16-3.62v-7.86h-2.12c-.56,0-.83-.23-.83-.71s.27-.69.83-.69h2.12v-3.59a.79.79,0,0,1,.89-.89.78.78,0,0,1,.86.89v3.59h3.88c.53,0,.8.23.8.69s-.27.72-.8.72h-3.88v7.63a4.31,4.31,0,0,0,.71,2.67,2.87,2.87,0,0,0,2.39.92,2.8,2.8,0,0,0,.94-.13,2,2,0,0,1,.66-.13c.35,0,.52.24.52.72a1,1,0,0,1-.1.44.55.55,0,0,1-.36.3,5.53,5.53,0,0,1-.86.22A5.29,5.29,0,0,1,596,572.05Z"/><path class="cls-17" d="M606.23,572.05a6.76,6.76,0,0,1-5.07-1.91,7.21,7.21,0,0,1-1.85-5.23,8.3,8.3,0,0,1,.83-3.79,6.17,6.17,0,0,1,5.71-3.48,5.37,5.37,0,0,1,4.33,1.81,7.39,7.39,0,0,1,1.56,5,.72.72,0,0,1-.81.81H601a5.85,5.85,0,0,0,1.42,4,4.9,4.9,0,0,0,3.72,1.39,7.74,7.74,0,0,0,2.05-.27,5.67,5.67,0,0,0,1.94-1,.88.88,0,0,1,.89-.16.72.72,0,0,1,.41.6.84.84,0,0,1-.44.76,6.3,6.3,0,0,1-2.22,1.14A9,9,0,0,1,606.23,572.05Zm-.35-13a4.31,4.31,0,0,0-3.4,1.36,5.94,5.94,0,0,0-1.42,3.52h9.1a5.62,5.62,0,0,0-1.15-3.59A3.87,3.87,0,0,0,605.88,559.05Z"/><path class="cls-17" d="M619.31,572a3.73,3.73,0,0,1-3-1.19,5,5,0,0,1-1.05-3.43V552.3a.79.79,0,0,1,.89-.89.78.78,0,0,1,.86.89v14.92c0,2.2.87,3.3,2.59,3.3a3.38,3.38,0,0,0,.47,0l.42,0a.48.48,0,0,1,.38.1.77.77,0,0,1,.13.53c0,.5-.28.8-.86.89a1.44,1.44,0,0,1-.43.06Z"/><path class="cls-17" d="M627.49,572a3.76,3.76,0,0,1-3-1.19,5,5,0,0,1-1-3.43V552.3a.88.88,0,1,1,1.75,0v14.92q0,3.3,2.58,3.3a3.53,3.53,0,0,0,.48,0l.41,0a.46.46,0,0,1,.39.1.75.75,0,0,1,.13.53c0,.5-.29.8-.86.89a1.49,1.49,0,0,1-.43.06Z"/><path class="cls-17" d="M636,572a5.54,5.54,0,0,1-2.51-.55,4.48,4.48,0,0,1-1.75-1.49,3.68,3.68,0,0,1-.64-2.12,3.53,3.53,0,0,1,.77-2.43,4.69,4.69,0,0,1,2.61-1.25,27.52,27.52,0,0,1,5.05-.37h.89v-1a4.13,4.13,0,0,0-.78-2.8,3.12,3.12,0,0,0-2.46-.88,8,8,0,0,0-2.13.29,9.72,9.72,0,0,0-2.15.92c-.34.19-.61.2-.82,0a.9.9,0,0,1-.28-.72.76.76,0,0,1,.47-.68,10.25,10.25,0,0,1,2.44-1,9.6,9.6,0,0,1,2.44-.33,4.92,4.92,0,0,1,3.74,1.29,5.56,5.56,0,0,1,1.22,4v8.21c0,.59-.27.89-.81.89a.78.78,0,0,1-.86-.89v-1.78a4.42,4.42,0,0,1-1.73,2A5.07,5.07,0,0,1,636,572Zm.23-1.41a4,4,0,0,0,2.17-.59,4.22,4.22,0,0,0,1.48-1.62,5,5,0,0,0,.54-2.35v-1h-.86a27.62,27.62,0,0,0-4,.23,3.57,3.57,0,0,0-2,.81,2.08,2.08,0,0,0-.58,1.57,2.72,2.72,0,0,0,.89,2.1A3.5,3.5,0,0,0,636.18,570.63Z"/><path class="cls-17" d="M651.88,572a4.53,4.53,0,0,1-3.49-1.26,5.18,5.18,0,0,1-1.16-3.62v-7.86H645.1c-.55,0-.83-.24-.83-.71s.28-.69.83-.69h2.13V554.3a.78.78,0,0,1,.88-.89c.58,0,.86.3.87.89v3.59h3.87c.54,0,.8.23.8.69s-.26.72-.8.72H649v7.63a4.25,4.25,0,0,0,.72,2.67,2.81,2.81,0,0,0,2.38.92,2.87,2.87,0,0,0,.95-.13,1.92,1.92,0,0,1,.66-.13q.51,0,.51.72a1,1,0,0,1-.1.44.5.5,0,0,1-.36.3,6.28,6.28,0,0,1-1.86.32Z"/><path class="cls-17" d="M657.21,554.3c-.84,0-1.26-.41-1.26-1.21s.42-1.17,1.26-1.17,1.26.39,1.26,1.17S658.05,554.3,657.21,554.3Zm0,17.62c-.59,0-.88-.32-.88-.95V558.69a.8.8,0,0,1,.89-.92c.57,0,.86.31.86.92V571C658.08,571.6,657.79,571.92,657.21,571.92Z"/><path class="cls-17" d="M668.23,572a6.28,6.28,0,0,1-3.38-.88,5.82,5.82,0,0,1-2.23-2.49,9.63,9.63,0,0,1,0-7.64,6,6,0,0,1,2.22-2.51,6.94,6.94,0,0,1,6.8,0,5.93,5.93,0,0,1,2.23,2.51,9.61,9.61,0,0,1,0,7.63,5.89,5.89,0,0,1-2.22,2.5A6.59,6.59,0,0,1,668.23,572Zm0-1.47a4.18,4.18,0,0,0,3.39-1.51,6.39,6.39,0,0,0,1.26-4.23,6.31,6.31,0,0,0-1.27-4.22,4.22,4.22,0,0,0-3.38-1.49,4.15,4.15,0,0,0-3.37,1.5,6.4,6.4,0,0,0-1.25,4.22,6.48,6.48,0,0,0,1.25,4.23A4.16,4.16,0,0,0,668.23,570.56Z"/><path class="cls-17" d="M679.28,572a.79.79,0,0,1-.89-.89V558.59c0-.61.29-.92.88-.92s.84.31.84.92v1.78a4.62,4.62,0,0,1,2-2.07,6.11,6.11,0,0,1,2.87-.68q5,0,5,5.39v8.06c0,.59-.28.89-.85.89a.79.79,0,0,1-.9-.89v-7.92a4.66,4.66,0,0,0-.83-3,3.3,3.3,0,0,0-2.64-1,4.41,4.41,0,0,0-3.31,1.27,4.69,4.69,0,0,0-1.25,3.43v7.23C680.14,571.67,679.85,572,679.28,572Z"/><path class="cls-14" d="M459,584.68a1.8,1.8,0,0,1-1-.26,1.66,1.66,0,0,1-.64-.72,2.5,2.5,0,0,1-.22-1.09,2.1,2.1,0,0,1,.49-1.48,1.76,1.76,0,0,1,1.37-.55,2,2,0,0,1,.62.11,1.68,1.68,0,0,1,.58.33.2.2,0,0,1,.08.2.25.25,0,0,1-.13.17.19.19,0,0,1-.22,0,1.35,1.35,0,0,0-.47-.25A1.5,1.5,0,0,0,459,581a1.26,1.26,0,0,0-1,.41,1.78,1.78,0,0,0-.36,1.19,1.83,1.83,0,0,0,.36,1.2,1.22,1.22,0,0,0,1,.44,1.83,1.83,0,0,0,.45-.07,1.38,1.38,0,0,0,.47-.26.22.22,0,0,1,.22,0,.3.3,0,0,1,.12.17.23.23,0,0,1-.08.2,1.64,1.64,0,0,1-.57.33A2,2,0,0,1,459,584.68Z"/><path class="cls-14" d="M462.63,584.68a1.76,1.76,0,0,1-1-.25,1.56,1.56,0,0,1-.63-.71,2.73,2.73,0,0,1,0-2.17,1.64,1.64,0,0,1,.64-.71,1.77,1.77,0,0,1,1-.26,1.86,1.86,0,0,1,1,.25,1.64,1.64,0,0,1,.63.72,2.45,2.45,0,0,1,.23,1.08,2.61,2.61,0,0,1-.22,1.09,1.7,1.7,0,0,1-.64.71A1.77,1.77,0,0,1,462.63,584.68Zm0-.42a1.18,1.18,0,0,0,1-.43,2.18,2.18,0,0,0,0-2.4,1.31,1.31,0,0,0-1.92,0,1.81,1.81,0,0,0-.35,1.2,1.84,1.84,0,0,0,.35,1.21A1.2,1.2,0,0,0,462.63,584.26Z"/><path class="cls-14" d="M467.09,584.68a1.79,1.79,0,0,1-1-.25,1.68,1.68,0,0,1-.63-.71,2.67,2.67,0,0,1,0-2.17,1.71,1.71,0,0,1,.63-.72,1.85,1.85,0,0,1,1-.25,1.93,1.93,0,0,1,1,.25,1.71,1.71,0,0,1,.63.72,2.79,2.79,0,0,1,0,2.17,1.68,1.68,0,0,1-.63.71A1.83,1.83,0,0,1,467.09,584.68Zm0-.42a1.19,1.19,0,0,0,1-.43,2.18,2.18,0,0,0,0-2.4,1.21,1.21,0,0,0-1-.42,1.17,1.17,0,0,0-.95.42,2.18,2.18,0,0,0,0,2.4A1.15,1.15,0,0,0,467.09,584.26Z"/><path class="cls-14" d="M470.24,584.66a.22.22,0,0,1-.25-.25v-3.55a.23.23,0,0,1,.26-.26c.15,0,.23.08.23.26v.51a1.34,1.34,0,0,1,.54-.59,1.81,1.81,0,0,1,.82-.21.27.27,0,0,1,.16,0,.2.2,0,0,1,.07.16c0,.15-.08.23-.24.25h-.11a1.34,1.34,0,0,0-.9.38,1.18,1.18,0,0,0-.32.88v2.12A.22.22,0,0,1,470.24,584.66Z"/><path class="cls-14" d="M474.24,584.68a1.74,1.74,0,0,1-.93-.25,1.64,1.64,0,0,1-.61-.71,2.47,2.47,0,0,1-.22-1.09,2.26,2.26,0,0,1,.47-1.5,1.77,1.77,0,0,1,2.12-.34,1.36,1.36,0,0,1,.54.6v-2.33a.22.22,0,0,1,.25-.25.22.22,0,0,1,.25.25v5.35c0,.17-.08.25-.24.25a.22.22,0,0,1-.25-.25v-.54a1.31,1.31,0,0,1-.55.59A1.63,1.63,0,0,1,474.24,584.68Zm.06-.42a1.17,1.17,0,0,0,1-.43,2.18,2.18,0,0,0,0-2.4,1.18,1.18,0,0,0-1-.43,1.21,1.21,0,0,0-1,.43,1.79,1.79,0,0,0-.35,1.2,1.85,1.85,0,0,0,.35,1.2A1.18,1.18,0,0,0,474.3,584.26Z"/><path class="cls-14" d="M477.67,579.63c-.24,0-.36-.11-.36-.34s.12-.34.36-.34.36.11.36.34S477.91,579.63,477.67,579.63Zm0,5c-.17,0-.25-.09-.25-.27v-3.49c0-.17.08-.26.25-.26s.25.09.25.26v3.49C477.92,584.55,477.84,584.64,477.67,584.64Z"/><path class="cls-14" d="M479.49,584.66a.23.23,0,0,1-.26-.25v-3.55c0-.18.09-.27.25-.27s.24.09.24.26v.51a1.33,1.33,0,0,1,.56-.59,1.74,1.74,0,0,1,.82-.19q1.41,0,1.41,1.53v2.29c0,.17-.08.26-.24.26a.23.23,0,0,1-.26-.26v-2.25a1.34,1.34,0,0,0-.23-.86A.92.92,0,0,0,481,581a1.27,1.27,0,0,0-.95.36,1.37,1.37,0,0,0-.35,1v2C479.73,584.57,479.65,584.66,479.49,584.66Z"/><path class="cls-14" d="M485,584.67a1.66,1.66,0,0,1-.72-.15,1.4,1.4,0,0,1-.5-.43,1.06,1.06,0,0,1-.18-.6,1,1,0,0,1,.22-.69,1.39,1.39,0,0,1,.74-.36,7.79,7.79,0,0,1,1.44-.1h.25V582a1.15,1.15,0,0,0-.22-.79.87.87,0,0,0-.7-.25,2.35,2.35,0,0,0-.6.08,3.17,3.17,0,0,0-.62.26.18.18,0,0,1-.23,0,.26.26,0,0,1-.08-.21A.22.22,0,0,1,484,581a3.2,3.2,0,0,1,.7-.28,3.48,3.48,0,0,1,.69-.1,1.44,1.44,0,0,1,1.07.37,1.61,1.61,0,0,1,.34,1.13v2.33c0,.17-.07.26-.22.26s-.25-.09-.25-.26v-.5a1.3,1.3,0,0,1-.49.57A1.5,1.5,0,0,1,485,584.67Zm.06-.4a1.07,1.07,0,0,0,.62-.17,1.25,1.25,0,0,0,.42-.46,1.44,1.44,0,0,0,.15-.67v-.26H486a8.54,8.54,0,0,0-1.15.06,1,1,0,0,0-.57.23.61.61,0,0,0-.17.45.76.76,0,0,0,.26.59A.94.94,0,0,0,485.09,584.27Z"/><path class="cls-14" d="M489.56,584.67a1.29,1.29,0,0,1-1-.36,1.47,1.47,0,0,1-.33-1v-2.23h-.6q-.24,0-.24-.21c0-.13.08-.19.24-.19h.6v-1a.23.23,0,0,1,.26-.26c.16,0,.24.09.24.26v1h1.1c.15,0,.23.06.23.19s-.08.21-.23.21h-1.1v2.17a1.27,1.27,0,0,0,.2.76.84.84,0,0,0,.68.26.7.7,0,0,0,.27,0l.19,0c.1,0,.15.06.15.2a.35.35,0,0,1,0,.13.2.2,0,0,1-.1.08l-.25.06Z"/><path class="cls-14" d="M492.48,584.67a1.92,1.92,0,0,1-1.44-.54,2.05,2.05,0,0,1-.53-1.49,2.32,2.32,0,0,1,.24-1.08,1.77,1.77,0,0,1,.65-.73,1.85,1.85,0,0,1,1-.26,1.5,1.5,0,0,1,1.23.52,2.05,2.05,0,0,1,.44,1.41c0,.15-.07.23-.22.23H491a1.69,1.69,0,0,0,.4,1.13,1.43,1.43,0,0,0,1.06.39,2.2,2.2,0,0,0,.58-.07,1.62,1.62,0,0,0,.55-.29.26.26,0,0,1,.26,0,.2.2,0,0,1,.12.17c0,.08,0,.15-.13.22a1.7,1.7,0,0,1-.63.32A2.69,2.69,0,0,1,492.48,584.67Zm-.1-3.7a1.22,1.22,0,0,0-1,.39,1.71,1.71,0,0,0-.4,1h2.58a1.61,1.61,0,0,0-.32-1A1.1,1.1,0,0,0,492.38,581Z"/><path class="cls-14" d="M496.35,584.67a2.57,2.57,0,0,1-.73-.1,2,2,0,0,1-.69-.33.18.18,0,0,1-.1-.19.2.2,0,0,1,.09-.18.18.18,0,0,1,.22,0,2,2,0,0,0,.62.29,2.47,2.47,0,0,0,.6.08,1.37,1.37,0,0,0,.77-.18.61.61,0,0,0,.25-.51.47.47,0,0,0-.17-.4,1.24,1.24,0,0,0-.54-.24l-.71-.16c-.67-.15-1-.5-1-1a1,1,0,0,1,.41-.84,1.7,1.7,0,0,1,1.07-.32,2.15,2.15,0,0,1,.68.11,1.64,1.64,0,0,1,.58.32.21.21,0,0,1,.09.2.23.23,0,0,1-.11.17c-.06,0-.13,0-.22,0a1.69,1.69,0,0,0-.49-.27,2,2,0,0,0-.54-.08,1.22,1.22,0,0,0-.73.19.63.63,0,0,0-.25.53.56.56,0,0,0,.15.41,1.1,1.1,0,0,0,.51.24l.71.16a1.71,1.71,0,0,1,.79.36.82.82,0,0,1,.26.65,1,1,0,0,1-.41.84A1.87,1.87,0,0,1,496.35,584.67Z"/><path class="cls-14" d="M499.2,581.37a.37.37,0,0,1-.27-.11.35.35,0,0,1-.1-.26.36.36,0,0,1,.37-.39.38.38,0,0,1,.28.11.41.41,0,0,1,0,.54A.38.38,0,0,1,499.2,581.37Zm0,3.26a.39.39,0,0,1-.27-.11.41.41,0,0,1,0-.54.38.38,0,0,1,.27-.1.37.37,0,0,1,.28.1.41.41,0,0,1,0,.54A.38.38,0,0,1,499.2,584.63Z"/><path class="cls-14" d="M504,584.67a1.66,1.66,0,0,1-.72-.16,1.28,1.28,0,0,1-.5-.42,1.07,1.07,0,0,1-.18-.61,1,1,0,0,1,.22-.69,1.38,1.38,0,0,1,.74-.35,7.64,7.64,0,0,1,1.44-.11h.25V582a1.18,1.18,0,0,0-.22-.8.9.9,0,0,0-.7-.25,2,2,0,0,0-.6.09,2.66,2.66,0,0,0-.62.26.19.19,0,0,1-.23,0,.24.24,0,0,1-.08-.2.23.23,0,0,1,.13-.2,3.79,3.79,0,0,1,.7-.28,2.84,2.84,0,0,1,.69-.09,1.44,1.44,0,0,1,1.07.36,1.62,1.62,0,0,1,.34,1.13v2.34c0,.16-.07.25-.22.25a.22.22,0,0,1-.25-.25v-.51a1.24,1.24,0,0,1-.49.57A1.41,1.41,0,0,1,504,584.67Zm.06-.4a1.15,1.15,0,0,0,.62-.17,1.33,1.33,0,0,0,.42-.46,1.47,1.47,0,0,0,.15-.67v-.27H505a8.54,8.54,0,0,0-1.15.06,1.05,1.05,0,0,0-.57.23.61.61,0,0,0-.17.45.78.78,0,0,0,.26.6A1,1,0,0,0,504.09,584.27Z"/><path class="cls-14" d="M508.21,584.66a1.09,1.09,0,0,1-.85-.33,1.44,1.44,0,0,1-.3-1v-4.3a.22.22,0,0,1,.25-.25.22.22,0,0,1,.25.25v4.24c0,.63.25.94.74.94h.25a.18.18,0,0,1,.11,0,.28.28,0,0,1,0,.15c0,.15-.08.23-.24.26h-.24Z"/><path class="cls-14" d="M509.64,586.12c-.17,0-.25-.09-.25-.26v-5c0-.17.08-.26.25-.26s.24.09.24.26v.54a1.36,1.36,0,0,1,.55-.59,1.55,1.55,0,0,1,.84-.22,1.68,1.68,0,0,1,.93.25,1.64,1.64,0,0,1,.61.71,2.57,2.57,0,0,1,.22,1.08,2.44,2.44,0,0,1-.22,1.09,1.58,1.58,0,0,1-.61.71,1.68,1.68,0,0,1-.93.25,1.64,1.64,0,0,1-.84-.21,1.34,1.34,0,0,1-.54-.59v2C509.89,586,509.81,586.12,509.64,586.12Zm1.56-1.87a1.21,1.21,0,0,0,1-.43,1.84,1.84,0,0,0,.36-1.21,1.78,1.78,0,0,0-.36-1.19,1.29,1.29,0,0,0-1.92,0,1.79,1.79,0,0,0-.36,1.2,1.83,1.83,0,0,0,.36,1.2A1.21,1.21,0,0,0,511.2,584.25Z"/><path class="cls-14" d="M514.34,584.65a.23.23,0,0,1-.26-.26v-5.34c0-.17.08-.26.25-.26s.25.09.25.26v2.27a1.24,1.24,0,0,1,.57-.56,1.67,1.67,0,0,1,.8-.2c.94,0,1.41.52,1.41,1.54v2.29c0,.17-.08.25-.24.25s-.26-.08-.26-.25v-2.25a1.39,1.39,0,0,0-.23-.87,1,1,0,0,0-.75-.27,1.27,1.27,0,0,0-1,.36,1.37,1.37,0,0,0-.35,1v2C514.58,584.56,514.5,584.65,514.34,584.65Z"/><path class="cls-14" d="M519.88,584.66a1.53,1.53,0,0,1-.72-.16,1.28,1.28,0,0,1-.5-.42,1.06,1.06,0,0,1-.18-.6,1,1,0,0,1,.22-.69,1.29,1.29,0,0,1,.74-.36,7.79,7.79,0,0,1,1.44-.1h.25V582a1.15,1.15,0,0,0-.22-.79.88.88,0,0,0-.7-.25,2.09,2.09,0,0,0-.61.08,2.78,2.78,0,0,0-.61.26c-.09,0-.17.06-.23,0a.23.23,0,0,1-.08-.2.22.22,0,0,1,.13-.19,2.77,2.77,0,0,1,.7-.28,2.45,2.45,0,0,1,.69-.1,1.44,1.44,0,0,1,1.07.37,1.59,1.59,0,0,1,.34,1.13v2.33c0,.17-.07.25-.22.25a.22.22,0,0,1-.25-.25v-.51a1.27,1.27,0,0,1-.49.58A1.5,1.5,0,0,1,519.88,584.66Zm.06-.4a1.18,1.18,0,0,0,.62-.17,1.25,1.25,0,0,0,.42-.46,1.44,1.44,0,0,0,.15-.67v-.27h-.24a7,7,0,0,0-1.15.07,1,1,0,0,0-.57.23.61.61,0,0,0-.17.45.76.76,0,0,0,.26.59A1,1,0,0,0,519.94,584.26Z"/><path class="cls-15" d="M526.72,584.66a3.22,3.22,0,0,1-1-.15,2.23,2.23,0,0,1-.82-.44.24.24,0,0,1-.12-.22.29.29,0,0,1,.11-.2.21.21,0,0,1,.25.05,3,3,0,0,0,.75.38,2.63,2.63,0,0,0,.8.12,1.52,1.52,0,0,0,1-.3,1.1,1.1,0,0,0,.35-.88,1,1,0,0,0-.36-.84,1.7,1.7,0,0,0-1.05-.29h-.62c-.16,0-.24-.07-.24-.22s.08-.22.24-.22h.57a1.36,1.36,0,0,0,1-.32,1.13,1.13,0,0,0,.35-.88.91.91,0,0,0-.32-.75,1.39,1.39,0,0,0-.91-.27,2,2,0,0,0-.75.13,2.13,2.13,0,0,0-.67.4q-.13.12-.24.06a.23.23,0,0,1-.12-.19.25.25,0,0,1,.11-.24,2.15,2.15,0,0,1,.76-.46,2.93,2.93,0,0,1,.93-.16,1.88,1.88,0,0,1,1.26.39,1.3,1.3,0,0,1,.46,1.07,1.5,1.5,0,0,1-.26.86,1.39,1.39,0,0,1-.68.53,1.42,1.42,0,0,1,.81.51,1.61,1.61,0,0,1-.21,2.09A2,2,0,0,1,526.72,584.66Z"/><path class="cls-15" d="M532.65,584.64a.22.22,0,0,1-.25-.25v-1.1h-2.49c-.18,0-.26-.08-.26-.23a.58.58,0,0,1,.12-.3l2.6-3.81a.33.33,0,0,1,.29-.16.25.25,0,0,1,.17.06.25.25,0,0,1,.07.19v3.81h.69c.16,0,.24.07.24.22s-.08.22-.24.22h-.69v1.1A.22.22,0,0,1,532.65,584.64Zm-.25-1.79v-3.17l-2.17,3.17Z"/><path class="cls-15" d="M535.15,584.59a.29.29,0,0,1-.22-.07.24.24,0,0,1-.07-.18.39.39,0,0,1,.12-.26l1.91-2.06a3.85,3.85,0,0,0,.63-.88,1.78,1.78,0,0,0,.2-.83,1,1,0,0,0-.31-.81,1.43,1.43,0,0,0-.93-.27,2.11,2.11,0,0,0-1.42.53c-.1.07-.18.08-.24,0a.26.26,0,0,1-.12-.19.24.24,0,0,1,.1-.22,2.61,2.61,0,0,1,.77-.45,2.69,2.69,0,0,1,.93-.17,1.85,1.85,0,0,1,1.28.4,1.37,1.37,0,0,1,.46,1.12,2.32,2.32,0,0,1-.25,1,4.54,4.54,0,0,1-.78,1.06l-1.69,1.79h2.77c.16,0,.23.07.23.21a.2.2,0,0,1-.23.23Z"/><path class="cls-15" d="M541.41,584.65a3.55,3.55,0,0,1-1-.14,2.39,2.39,0,0,1-.82-.44.25.25,0,0,1-.12-.23.27.27,0,0,1,.11-.19.22.22,0,0,1,.25,0,3,3,0,0,0,.75.38,2.36,2.36,0,0,0,.8.13,1.52,1.52,0,0,0,1-.31,1.09,1.09,0,0,0,.35-.87,1,1,0,0,0-.36-.85,1.7,1.7,0,0,0-1-.28h-.62c-.16,0-.24-.08-.24-.22s.08-.22.24-.22h.58a1.35,1.35,0,0,0,.94-.31,1.15,1.15,0,0,0,.34-.88.94.94,0,0,0-.31-.76,1.39,1.39,0,0,0-.91-.27,2.27,2.27,0,0,0-.75.13,2.16,2.16,0,0,0-.67.41c-.09.07-.17.09-.24,0a.22.22,0,0,1-.12-.18.23.23,0,0,1,.12-.24,1.9,1.9,0,0,1,.75-.46,2.68,2.68,0,0,1,.93-.16,1.93,1.93,0,0,1,1.26.38,1.31,1.31,0,0,1,.46,1.07,1.55,1.55,0,0,1-.25.86,1.42,1.42,0,0,1-.69.54,1.36,1.36,0,0,1,.81.5,1.66,1.66,0,0,1-.21,2.1A2,2,0,0,1,541.41,584.65Z"/><path class="cls-15" d="M544.22,584.89a.18.18,0,0,1-.16.15.25.25,0,0,1-.2-.06.18.18,0,0,1-.05-.21l2-6.1a.2.2,0,0,1,.17-.16.22.22,0,0,1,.2.06.18.18,0,0,1,0,.21Z"/><path class="cls-15" d="M547.14,584.58a.34.34,0,0,1-.22-.06.25.25,0,0,1-.07-.19.37.37,0,0,1,.12-.25l1.91-2.07a3.62,3.62,0,0,0,.63-.87,1.78,1.78,0,0,0,.2-.83,1,1,0,0,0-.31-.81,1.44,1.44,0,0,0-.94-.28,2.2,2.2,0,0,0-1.42.53c-.09.07-.17.09-.23,0a.25.25,0,0,1-.12-.19.24.24,0,0,1,.1-.22,2.29,2.29,0,0,1,.76-.45,2.56,2.56,0,0,1,.94-.17,1.9,1.9,0,0,1,1.28.39,1.39,1.39,0,0,1,.46,1.12,2.36,2.36,0,0,1-.25,1,4.75,4.75,0,0,1-.78,1.06l-1.69,1.78h2.77c.16,0,.23.07.23.22s-.07.22-.23.22Z"/><path class="cls-15" d="M553.4,584.65a3.22,3.22,0,0,1-1-.15,2.23,2.23,0,0,1-.82-.44.23.23,0,0,1-.12-.22.25.25,0,0,1,.11-.19c.07,0,.16,0,.25,0a3,3,0,0,0,.75.38,2.63,2.63,0,0,0,.8.12,1.52,1.52,0,0,0,1-.3,1.09,1.09,0,0,0,.35-.87,1,1,0,0,0-.36-.85,1.71,1.71,0,0,0-1.06-.29h-.61c-.16,0-.24-.07-.24-.22s.08-.22.24-.22h.57a1.36,1.36,0,0,0,1-.32,1.12,1.12,0,0,0,.34-.88.91.91,0,0,0-.31-.75,1.39,1.39,0,0,0-.91-.27,2,2,0,0,0-.75.13,2.13,2.13,0,0,0-.67.4q-.13.12-.24.06a.23.23,0,0,1-.12-.18.26.26,0,0,1,.11-.25,2.15,2.15,0,0,1,.76-.46,2.93,2.93,0,0,1,.93-.16,1.9,1.9,0,0,1,1.26.39,1.3,1.3,0,0,1,.46,1.07,1.5,1.5,0,0,1-.26.86,1.34,1.34,0,0,1-.68.53,1.42,1.42,0,0,1,.81.51,1.46,1.46,0,0,1,.28.92,1.5,1.5,0,0,1-.49,1.18A2.08,2.08,0,0,1,553.4,584.65Z"/><path class="cls-14" d="M560.22,584.65a1.88,1.88,0,0,1-1-.26,1.7,1.7,0,0,1-.64-.73,2.47,2.47,0,0,1-.22-1.09,2.12,2.12,0,0,1,.49-1.48,1.77,1.77,0,0,1,1.37-.54,2,2,0,0,1,.62.1,1.62,1.62,0,0,1,.58.34.19.19,0,0,1,.08.19.23.23,0,0,1-.13.17.19.19,0,0,1-.22,0,1.3,1.3,0,0,0-.47-.26,1.45,1.45,0,0,0-.45-.07,1.24,1.24,0,0,0-1,.42,1.75,1.75,0,0,0-.36,1.18,1.88,1.88,0,0,0,.36,1.21,1.23,1.23,0,0,0,1,.43,1.39,1.39,0,0,0,.44-.07,1.16,1.16,0,0,0,.47-.26c.09-.06.16-.08.22,0a.22.22,0,0,1,.12.17.19.19,0,0,1-.08.19,1.38,1.38,0,0,1-.57.33A2,2,0,0,1,560.22,584.65Z"/><path class="cls-14" d="M564,584.64a1.92,1.92,0,0,1-1.44-.54,2.05,2.05,0,0,1-.53-1.49,2.31,2.31,0,0,1,.24-1.07,1.76,1.76,0,0,1,1.62-1,1.53,1.53,0,0,1,1.23.51,2.08,2.08,0,0,1,.45,1.41.2.2,0,0,1-.23.23h-2.82a1.63,1.63,0,0,0,.41,1.13,1.36,1.36,0,0,0,1.05.4,2.33,2.33,0,0,0,.59-.08,1.69,1.69,0,0,0,.55-.28.25.25,0,0,1,.25,0,.23.23,0,0,1,.12.18.24.24,0,0,1-.13.21,1.7,1.7,0,0,1-.63.32A2.35,2.35,0,0,1,564,584.64Zm-.1-3.69a1.25,1.25,0,0,0-1,.39,1.68,1.68,0,0,0-.4,1h2.59a1.6,1.6,0,0,0-.33-1A1.11,1.11,0,0,0,563.89,581Z"/><path class="cls-14" d="M566.82,584.63c-.17,0-.25-.09-.25-.26v-3.55c0-.17.08-.26.25-.26s.24.09.24.26v.51a1.33,1.33,0,0,1,.56-.59,1.71,1.71,0,0,1,.82-.19c.94,0,1.41.51,1.41,1.53v2.29c0,.17-.08.26-.25.26a.23.23,0,0,1-.25-.26v-2.25a1.33,1.33,0,0,0-.24-.87.93.93,0,0,0-.75-.27,1.27,1.27,0,0,0-.94.36,1.32,1.32,0,0,0-.35,1v2C567.07,584.54,567,584.63,566.82,584.63Z"/><path class="cls-14" d="M572.63,584.64a1.28,1.28,0,0,1-1-.36,1.47,1.47,0,0,1-.33-1V581h-.6q-.24,0-.24-.21c0-.13.08-.19.24-.19h.6v-1a.22.22,0,0,1,.25-.25c.17,0,.25.08.25.25v1h1.1c.15,0,.23.06.23.19s-.08.21-.23.21h-1.1v2.17a1.27,1.27,0,0,0,.2.76.83.83,0,0,0,.68.26.7.7,0,0,0,.27,0l.19,0c.1,0,.14.06.14.2a.35.35,0,0,1,0,.13.12.12,0,0,1-.1.08l-.24.06Z"/><path class="cls-14" d="M574.22,584.6a.33.33,0,0,1-.27-.11.36.36,0,0,1-.11-.26A.37.37,0,0,1,574,584a.39.39,0,0,1,.54,0,.35.35,0,0,1,.1.26.36.36,0,0,1-.1.27A.33.33,0,0,1,574.22,584.6Z"/><path class="cls-14" d="M578.42,584.57c-.16,0-.24-.07-.24-.22s.08-.22.24-.22h1.13v-4.71l-.9.61a.2.2,0,0,1-.23,0,.25.25,0,0,1-.12-.19.22.22,0,0,1,.12-.22l1.12-.78.15-.07.15,0a.2.2,0,0,1,.15.06.22.22,0,0,1,.06.17v5.13h1.05q.24,0,.24.21c0,.16-.08.23-.24.23Z"/><path class="cls-14" d="M584.46,584.64a3.22,3.22,0,0,1-1-.15,2.23,2.23,0,0,1-.82-.44.25.25,0,0,1-.12-.22.27.27,0,0,1,.12-.2.22.22,0,0,1,.25,0,2.52,2.52,0,0,0,.74.39,2.67,2.67,0,0,0,.8.12,1.5,1.5,0,0,0,1-.3,1.12,1.12,0,0,0,.35-.88,1,1,0,0,0-.36-.84,1.66,1.66,0,0,0-1.05-.29h-.61c-.17,0-.25-.07-.25-.22s.08-.22.25-.22h.57a1.35,1.35,0,0,0,.94-.32,1.14,1.14,0,0,0,.35-.88.91.91,0,0,0-.32-.75,1.37,1.37,0,0,0-.91-.27,2.11,2.11,0,0,0-.75.13,2.24,2.24,0,0,0-.67.4c-.08.08-.16.1-.23.06a.24.24,0,0,1-.13-.18.26.26,0,0,1,.12-.25,2.06,2.06,0,0,1,.76-.46,2.87,2.87,0,0,1,.92-.16,1.86,1.86,0,0,1,1.26.39,1.3,1.3,0,0,1,.46,1.07,1.5,1.5,0,0,1-.25.86,1.46,1.46,0,0,1-.69.53,1.42,1.42,0,0,1,.81.51,1.61,1.61,0,0,1-.21,2.09A2,2,0,0,1,584.46,584.64Z"/><path class="cls-14" d="M587.85,584.6a.36.36,0,0,1-.26-.11.39.39,0,0,1,0-.54.36.36,0,0,1,.26-.11.38.38,0,0,1,.28.11.41.41,0,0,1,0,.54A.38.38,0,0,1,587.85,584.6Z"/><path class="cls-14" d="M589.64,584.59a.38.38,0,0,1-.27-.64.37.37,0,0,1,.27-.11.38.38,0,0,1,.28.11.41.41,0,0,1,0,.54A.37.37,0,0,1,589.64,584.59Z"/><path class="cls-14" d="M591.43,584.59a.36.36,0,0,1-.27-.1.38.38,0,0,1,.54-.54.37.37,0,0,1-.27.64Z"/><path class="cls-14" d="M458,626.17c-.25,0-.42-.07-.49-.23a.65.65,0,0,1,0-.57l5.27-12.15a.72.72,0,0,1,1.39,0l5.29,12.14a.73.73,0,0,1,.07.58.47.47,0,0,1-.47.23.64.64,0,0,1-.42-.14,1.28,1.28,0,0,1-.27-.38l-1.33-3.12H460l-1.33,3.12C458.5,626,458.28,626.17,458,626.17Zm5.5-11.93-3.1,7.29h6.24l-3.1-7.29Z"/><path class="cls-14" d="M480.28,626.21a4.22,4.22,0,0,1-2.29-.6,3.83,3.83,0,0,1-1.48-1.67,5.8,5.8,0,0,1-.52-2.51,4.88,4.88,0,0,1,1.14-3.41,4,4,0,0,1,3.15-1.25,4.61,4.61,0,0,1,1.43.24,3.77,3.77,0,0,1,1.33.77.45.45,0,0,1,.19.45.56.56,0,0,1-.29.39.46.46,0,0,1-.52-.1,2.93,2.93,0,0,0-1.07-.59,3.61,3.61,0,0,0-1-.16,2.88,2.88,0,0,0-2.33,1,4,4,0,0,0-.82,2.72,4.24,4.24,0,0,0,.82,2.77,2.83,2.83,0,0,0,2.34,1,3.92,3.92,0,0,0,1-.16,3.26,3.26,0,0,0,1.07-.59.46.46,0,0,1,.52-.11.53.53,0,0,1,.26.39.46.46,0,0,1-.18.45,3.52,3.52,0,0,1-1.31.76A4.61,4.61,0,0,1,480.28,626.21Z"/><path class="cls-14" d="M485.77,626.17a.52.52,0,0,1-.59-.59V613.27a.58.58,0,1,1,1.15,0v5.25a3.1,3.1,0,0,1,1.3-1.31,3.87,3.87,0,0,1,1.86-.44c2.16,0,3.25,1.17,3.25,3.53v5.28a.5.5,0,0,1-.56.58.52.52,0,0,1-.59-.58v-5.19a3.05,3.05,0,0,0-.54-2,2.18,2.18,0,0,0-1.73-.64,2.88,2.88,0,0,0-2.17.84,3.07,3.07,0,0,0-.82,2.25v4.73C486.33,626,486.14,626.17,485.77,626.17Z"/><path class="cls-14" d="M498.53,626.2a3.63,3.63,0,0,1-1.64-.36,2.89,2.89,0,0,1-1.15-1,2.45,2.45,0,0,1-.42-1.4,2.29,2.29,0,0,1,.5-1.58,3,3,0,0,1,1.71-.82,17.66,17.66,0,0,1,3.31-.25h.58v-.67a2.75,2.75,0,0,0-.51-1.84,2,2,0,0,0-1.61-.57,5,5,0,0,0-1.39.19,6,6,0,0,0-1.41.6c-.23.13-.41.13-.54,0a.6.6,0,0,1-.19-.47.5.5,0,0,1,.31-.44,6.64,6.64,0,0,1,1.6-.65,6.48,6.48,0,0,1,1.6-.22,3.2,3.2,0,0,1,2.45.85,3.67,3.67,0,0,1,.8,2.59v5.38c0,.39-.17.58-.52.58a.51.51,0,0,1-.57-.58v-1.17a2.87,2.87,0,0,1-1.13,1.32A3.35,3.35,0,0,1,498.53,626.2Zm.15-.92a2.59,2.59,0,0,0,1.42-.39,2.69,2.69,0,0,0,1-1.06,3.33,3.33,0,0,0,.35-1.54v-.62h-.56a17.85,17.85,0,0,0-2.64.15,2.44,2.44,0,0,0-1.33.53,1.38,1.38,0,0,0-.37,1,1.75,1.75,0,0,0,.58,1.37A2.27,2.27,0,0,0,498.68,625.28Z"/><path class="cls-14" d="M506.1,626.16a.52.52,0,0,1-.58-.58V617.4c0-.4.19-.6.58-.6s.55.2.55.6v1.17a3,3,0,0,1,1.29-1.36,4,4,0,0,1,1.88-.45c2.17,0,3.25,1.18,3.26,3.53v5.28a.58.58,0,1,1-1.15,0v-5.18a3,3,0,0,0-.55-2,2.13,2.13,0,0,0-1.73-.63,2.93,2.93,0,0,0-2.17.83,3.1,3.1,0,0,0-.81,2.25v4.74A.51.51,0,0,1,506.1,626.16Z"/><path class="cls-14" d="M519.77,626.19a4.26,4.26,0,0,1-2.3-.59,3.87,3.87,0,0,1-1.47-1.67,5.69,5.69,0,0,1-.52-2.51,4.86,4.86,0,0,1,1.14-3.41,4,4,0,0,1,3.14-1.25,4.62,4.62,0,0,1,1.44.24,3.63,3.63,0,0,1,1.33.77.45.45,0,0,1,.19.45.55.55,0,0,1-.3.39.45.45,0,0,1-.51-.11,3.09,3.09,0,0,0-1.07-.59,4,4,0,0,0-1-.16,2.92,2.92,0,0,0-2.34,1,4.12,4.12,0,0,0-.81,2.73,4.24,4.24,0,0,0,.82,2.77,2.83,2.83,0,0,0,2.34,1,3.54,3.54,0,0,0,1-.16,2.93,2.93,0,0,0,1.07-.59.47.47,0,0,1,.52-.1.53.53,0,0,1,.26.38.45.45,0,0,1-.18.45,3.71,3.71,0,0,1-1.31.77A4.9,4.9,0,0,1,519.77,626.19Z"/><path class="cls-14" d="M528.45,626.19a4.43,4.43,0,0,1-3.32-1.25,4.75,4.75,0,0,1-1.21-3.43,5.42,5.42,0,0,1,.54-2.48,4.1,4.1,0,0,1,3.74-2.28,3.53,3.53,0,0,1,2.84,1.19,4.81,4.81,0,0,1,1,3.25.46.46,0,0,1-.53.52h-6.48a3.84,3.84,0,0,0,.93,2.6,3.19,3.19,0,0,0,2.43.91,5,5,0,0,0,1.35-.18,3.93,3.93,0,0,0,1.27-.65.57.57,0,0,1,.58-.1.47.47,0,0,1,.27.39.54.54,0,0,1-.29.5,4.1,4.1,0,0,1-1.46.74A5.87,5.87,0,0,1,528.45,626.19Zm-.23-8.52a2.81,2.81,0,0,0-2.22.9,3.78,3.78,0,0,0-.93,2.3H531a3.63,3.63,0,0,0-.75-2.35A2.54,2.54,0,0,0,528.22,617.67Z"/><path class="cls-14" d="M542.57,626.18a3,3,0,0,1-2.29-.82,3.41,3.41,0,0,1-.76-2.37v-5.15h-1.39c-.37,0-.55-.16-.55-.47s.18-.45.55-.45h1.39v-2.35a.58.58,0,1,1,1.15,0v2.35h2.53c.35,0,.53.15.53.45s-.18.47-.53.47h-2.53v5a2.83,2.83,0,0,0,.47,1.75,1.86,1.86,0,0,0,1.56.6,1.81,1.81,0,0,0,.62-.09,1.52,1.52,0,0,1,.43-.08c.23,0,.34.15.34.47a.62.62,0,0,1-.07.29.38.38,0,0,1-.23.2,4.74,4.74,0,0,1-.57.14A3.83,3.83,0,0,1,542.57,626.18Z"/><path class="cls-14" d="M549,626.18a4.19,4.19,0,0,1-2.22-.57,3.83,3.83,0,0,1-1.46-1.64,6.27,6.27,0,0,1,0-5,3.88,3.88,0,0,1,1.46-1.64,4.07,4.07,0,0,1,2.21-.58,4.15,4.15,0,0,1,2.24.58,3.89,3.89,0,0,1,1.46,1.64,6.27,6.27,0,0,1,0,5,3.77,3.77,0,0,1-1.46,1.64A4.2,4.2,0,0,1,549,626.18Zm0-1a2.76,2.76,0,0,0,2.21-1,5,5,0,0,0,0-5.54,2.76,2.76,0,0,0-2.22-1,2.72,2.72,0,0,0-2.2,1,4.15,4.15,0,0,0-.82,2.76,4.21,4.21,0,0,0,.82,2.78A2.73,2.73,0,0,0,549,625.22Z"/><path class="cls-14" d="M564.32,629.56a7.55,7.55,0,0,1-2-.25,5.26,5.26,0,0,1-1.72-.82.42.42,0,0,1-.23-.43.66.66,0,0,1,.25-.43.37.37,0,0,1,.45,0,5.24,5.24,0,0,0,1.59.77,5.77,5.77,0,0,0,1.59.21,2.73,2.73,0,0,0,2.08-.75,3,3,0,0,0,.72-2.18V623.9a3.06,3.06,0,0,1-1.25,1.41,3.73,3.73,0,0,1-2,.51,4.06,4.06,0,0,1-2.19-.57,3.85,3.85,0,0,1-1.41-1.6,5.89,5.89,0,0,1,0-4.75,3.88,3.88,0,0,1,1.41-1.59,4,4,0,0,1,2.19-.57,3.69,3.69,0,0,1,1.92.5,3.12,3.12,0,0,1,1.26,1.38v-1.24q0-.6.57-.6c.37,0,.56.2.56.6v8.12Q568.2,629.57,564.32,629.56Zm-.31-4.72a2.78,2.78,0,0,0,2.24-1,4.47,4.47,0,0,0,0-5.19,3.11,3.11,0,0,0-4.49,0,4.56,4.56,0,0,0,0,5.19A2.79,2.79,0,0,0,564,624.84Z"/><path class="cls-14" d="M575.18,626.17a4.38,4.38,0,0,1-3.32-1.25,4.69,4.69,0,0,1-1.21-3.43,5.45,5.45,0,0,1,.54-2.48,4,4,0,0,1,3.74-2.27,3.53,3.53,0,0,1,2.84,1.18,4.81,4.81,0,0,1,1,3.25.46.46,0,0,1-.52.53h-6.49a3.76,3.76,0,0,0,.94,2.6,3.19,3.19,0,0,0,2.43.91,5.41,5.41,0,0,0,1.34-.17,3.74,3.74,0,0,0,1.27-.65.59.59,0,0,1,.59-.11.48.48,0,0,1,.27.4.54.54,0,0,1-.29.49,4.12,4.12,0,0,1-1.46.75A5.85,5.85,0,0,1,575.18,626.17Zm-.23-8.51a2.86,2.86,0,0,0-2.23.89,3.93,3.93,0,0,0-.93,2.3h6a3.71,3.71,0,0,0-.75-2.35A2.55,2.55,0,0,0,575,617.66Z"/><path class="cls-14" d="M584.56,626.17a3,3,0,0,1-2.29-.83,3.36,3.36,0,0,1-.76-2.37v-5.14h-1.39c-.37,0-.55-.16-.55-.47s.18-.46.55-.46h1.39v-2.35a.51.51,0,0,1,.58-.58.51.51,0,0,1,.56.58v2.35h2.54c.35,0,.53.15.53.45s-.18.47-.53.47h-2.54v5a2.75,2.75,0,0,0,.47,1.75,1.86,1.86,0,0,0,1.56.6,2.17,2.17,0,0,0,.62-.08,1.23,1.23,0,0,1,.43-.09c.22,0,.34.16.34.47a.59.59,0,0,1-.07.29.36.36,0,0,1-.23.2,3.38,3.38,0,0,1-.57.14A3.07,3.07,0,0,1,584.56,626.17Z"/><path class="cls-14" d="M595,626.17a3.67,3.67,0,0,1-1.65-.36,2.87,2.87,0,0,1-1.14-1,2.51,2.51,0,0,1-.43-1.39,2.3,2.3,0,0,1,.51-1.59A3,3,0,0,1,594,621a16.78,16.78,0,0,1,3.31-.25h.58v-.68a2.7,2.7,0,0,0-.51-1.83,2,2,0,0,0-1.61-.57,5.49,5.49,0,0,0-1.4.18,6.2,6.2,0,0,0-1.4.61c-.23.12-.41.13-.54,0a.58.58,0,0,1-.19-.47.49.49,0,0,1,.31-.44,6.64,6.64,0,0,1,1.6-.65,6,6,0,0,1,1.6-.22,3.23,3.23,0,0,1,2.45.84,3.69,3.69,0,0,1,.8,2.6v5.37c0,.39-.17.59-.53.59s-.56-.2-.56-.59v-1.16a3,3,0,0,1-1.13,1.32A3.35,3.35,0,0,1,595,626.17Zm.15-.93a2.58,2.58,0,0,0,1.42-.38,2.84,2.84,0,0,0,1-1.06,3.4,3.4,0,0,0,.35-1.55v-.62h-.56a19.06,19.06,0,0,0-2.64.16,2.41,2.41,0,0,0-1.33.52,1.41,1.41,0,0,0-.37,1,1.75,1.75,0,0,0,.58,1.37A2.26,2.26,0,0,0,595.12,625.24Z"/><path class="cls-14" d="M604.69,629.6a.51.51,0,0,1-.5-.21.49.49,0,0,1-.05-.47.42.42,0,0,1,.42-.26,2.45,2.45,0,0,0,1.66-.57,2.31,2.31,0,0,0,.55-1.72v-9c0-.41.19-.61.56-.61a.53.53,0,0,1,.59.61v8.92a3.25,3.25,0,0,1-.86,2.49A3.36,3.36,0,0,1,604.69,629.6Zm2.64-15.05a.71.71,0,0,1-.82-.79c0-.52.27-.77.82-.77s.83.25.83.76A.72.72,0,0,1,607.33,614.55Z"/><path class="cls-14" d="M614.55,626.16a4.15,4.15,0,0,1-2.21-.57,3.82,3.82,0,0,1-1.46-1.64,6.27,6.27,0,0,1,0-5,3.8,3.8,0,0,1,1.45-1.64,4.13,4.13,0,0,1,2.22-.59,4.24,4.24,0,0,1,2.24.58,3.89,3.89,0,0,1,1.45,1.65,5.57,5.57,0,0,1,.52,2.49,5.77,5.77,0,0,1-.51,2.51,3.8,3.8,0,0,1-1.46,1.63A4.15,4.15,0,0,1,614.55,626.16Zm0-1a2.74,2.74,0,0,0,2.22-1,5,5,0,0,0,0-5.53,3,3,0,0,0-4.43,0,4.15,4.15,0,0,0-.81,2.76,4.23,4.23,0,0,0,.81,2.77A2.73,2.73,0,0,0,614.55,625.2Z"/><path class="cls-14" d="M625.55,626.15a3.77,3.77,0,0,1-1.95-.49,3.18,3.18,0,0,1-1.25-1.37v1.25c0,.38-.18.58-.56.58a.51.51,0,0,1-.58-.58V613.22a.52.52,0,0,1,.58-.58.51.51,0,0,1,.57.58v5.36a3.1,3.1,0,0,1,1.25-1.36,3.77,3.77,0,0,1,1.95-.5,3.68,3.68,0,0,1,2.94,1.28,5.11,5.11,0,0,1,1.1,3.44,5.92,5.92,0,0,1-.5,2.51,3.75,3.75,0,0,1-1.41,1.63A3.94,3.94,0,0,1,625.55,626.15Zm-.17-.95a2.74,2.74,0,0,0,2.22-1,4.2,4.2,0,0,0,.82-2.77,4.13,4.13,0,0,0-.83-2.77,3,3,0,0,0-4.43,0,5,5,0,0,0,0,5.54A2.74,2.74,0,0,0,625.38,625.2Z"/><path class="cls-14" d="M632.58,618.56a.84.84,0,0,1-.87-.87.85.85,0,0,1,.24-.63.92.92,0,0,1,1.25,0,.89.89,0,0,1,.24.64.84.84,0,0,1-.24.62A.79.79,0,0,1,632.58,618.56Zm0,7.5a.85.85,0,0,1-.87-.87.83.83,0,0,1,.25-.62.93.93,0,0,1,1.25,0,.9.9,0,0,1,.23.62.88.88,0,0,1-.23.62A.82.82,0,0,1,632.58,626.06Z"/><path class="cls-15" d="M642.48,626.11a.52.52,0,0,1-.45-.22.49.49,0,0,1,0-.55l5.9-11.56h-6.77c-.37,0-.56-.17-.56-.52s.19-.51.56-.51h7.54c.39,0,.58.16.58.5a1.4,1.4,0,0,1-.19.68l-6,11.79A.65.65,0,0,1,642.48,626.11Z"/><path class="cls-15" d="M656.28,626.14a5.46,5.46,0,0,1-3.42-.94,3.2,3.2,0,0,1-1.23-2.68,3.24,3.24,0,0,1,2.54-3.29,3.26,3.26,0,0,1-1.63-1.2,3.34,3.34,0,0,1-.59-1.94,3.09,3.09,0,0,1,1.18-2.58,5.84,5.84,0,0,1,6.29,0,3.11,3.11,0,0,1,1.18,2.58A3.31,3.31,0,0,1,660,618a3.22,3.22,0,0,1-1.63,1.21,3.39,3.39,0,0,1,1.84,1.16,3.26,3.26,0,0,1,.7,2.12,3.2,3.2,0,0,1-1.22,2.68A5.43,5.43,0,0,1,656.28,626.14Zm0-1q3.48,0,3.48-2.69t-3.48-2.67q-3.48,0-3.48,2.67T656.28,625.15Zm0-6.37a3.62,3.62,0,0,0,2.33-.7,2.35,2.35,0,0,0,.84-1.92,2.29,2.29,0,0,0-.85-1.9,3.63,3.63,0,0,0-2.33-.67,3.59,3.59,0,0,0-2.33.68,2.29,2.29,0,0,0-.84,1.89,2.35,2.35,0,0,0,.84,1.92A3.63,3.63,0,0,0,656.28,618.78Z"/><path class="cls-15" d="M666.18,620.69a2.75,2.75,0,0,1-2.28-1.05,5.76,5.76,0,0,1,0-6,2.72,2.72,0,0,1,2.28-1.06,2.76,2.76,0,0,1,2.29,1.06,4.64,4.64,0,0,1,.85,3,4.74,4.74,0,0,1-.84,3A2.77,2.77,0,0,1,666.18,620.69Zm0-.88a1.76,1.76,0,0,0,1.53-.81,4.19,4.19,0,0,0,.56-2.37,4.08,4.08,0,0,0-.56-2.34,1.77,1.77,0,0,0-1.53-.8,1.75,1.75,0,0,0-1.51.8,4.08,4.08,0,0,0-.56,2.34,4.18,4.18,0,0,0,.56,2.38A1.75,1.75,0,0,0,666.18,619.81Zm1.13,6.27c-.13.23-.28.34-.46.32a.5.5,0,0,1-.42-.25.49.49,0,0,1,0-.55l7.38-12.92a.49.49,0,0,1,.46-.32.51.51,0,0,1,.42.26.52.52,0,0,1,0,.57Zm7.67.06a2.72,2.72,0,0,1-2.28-1.06,4.7,4.7,0,0,1-.84-3,4.76,4.76,0,0,1,.83-3,3,3,0,0,1,4.59,0,4.68,4.68,0,0,1,.84,3,4.74,4.74,0,0,1-.84,3A2.78,2.78,0,0,1,675,626.14Zm0-.89a1.75,1.75,0,0,0,1.53-.8,5.23,5.23,0,0,0,0-4.71,1.85,1.85,0,0,0-3,0,4.09,4.09,0,0,0-.55,2.34,4.2,4.2,0,0,0,.56,2.38A1.74,1.74,0,0,0,675,625.25Z"/><path class="cls-14" d="M461.06,606.39a.31.31,0,0,1-.34-.35v-6.82H458.1a.28.28,0,0,1-.32-.31c0-.2.11-.29.32-.29H464a.31.31,0,1,1,0,.61H461.4V606A.31.31,0,0,1,461.06,606.39Z"/><path class="cls-14" d="M465.66,606.38c-.23,0-.34-.11-.34-.33v-7.16a.3.3,0,0,1,.34-.34c.21,0,.32.11.33.34v3.05a1.74,1.74,0,0,1,.76-.76,2.15,2.15,0,0,1,1.07-.26c1.26,0,1.89.68,1.89,2.05V606c0,.23-.11.34-.32.34a.3.3,0,0,1-.34-.34v-3a1.77,1.77,0,0,0-.32-1.16,1.25,1.25,0,0,0-1-.37,1.67,1.67,0,0,0-1.26.49,1.76,1.76,0,0,0-.47,1.3V606C466,606.27,465.88,606.38,465.66,606.38Z"/><path class="cls-14" d="M473.75,606.4a2.57,2.57,0,0,1-1.93-.72,2.76,2.76,0,0,1-.71-2,3.18,3.18,0,0,1,.32-1.44,2.36,2.36,0,0,1,2.17-1.32,2,2,0,0,1,1.65.69,2.75,2.75,0,0,1,.59,1.89.27.27,0,0,1-.3.3h-3.77a2.22,2.22,0,0,0,.54,1.52,1.88,1.88,0,0,0,1.41.53,3,3,0,0,0,.79-.11,2.05,2.05,0,0,0,.73-.38.37.37,0,0,1,.34-.06.27.27,0,0,1,.16.23.32.32,0,0,1-.17.29,2.2,2.2,0,0,1-.85.43A3.32,3.32,0,0,1,473.75,606.4Zm-.14-4.95a1.66,1.66,0,0,0-1.29.52,2.26,2.26,0,0,0-.54,1.34h3.46a2.17,2.17,0,0,0-.43-1.37A1.52,1.52,0,0,0,473.61,601.45Z"/><path class="cls-14" d="M480.29,608.35A.31.31,0,0,1,480,608v-6.72c0-.24.11-.35.34-.35s.33.11.33.35V602a1.86,1.86,0,0,1,.72-.8,2.25,2.25,0,0,1,1.14-.3,2.18,2.18,0,0,1,2.06,1.29,3.82,3.82,0,0,1,0,2.92,2.15,2.15,0,0,1-2.06,1.28,2.18,2.18,0,0,1-1.13-.28,1.74,1.74,0,0,1-.73-.79V608A.3.3,0,0,1,480.29,608.35Zm2.09-2.51a1.6,1.6,0,0,0,1.29-.57,2.94,2.94,0,0,0,0-3.22,1.74,1.74,0,0,0-2.58,0,2.94,2.94,0,0,0,0,3.22A1.6,1.6,0,0,0,482.38,605.84Z"/><path class="cls-14" d="M486.58,606.38a.3.3,0,0,1-.34-.34v-4.76c0-.23.11-.35.33-.35s.32.12.32.35V602a1.7,1.7,0,0,1,.72-.78,2.16,2.16,0,0,1,1.09-.29.28.28,0,0,1,.22.06.23.23,0,0,1,.09.2c0,.21-.1.32-.32.34h-.15a1.85,1.85,0,0,0-1.2.51,1.67,1.67,0,0,0-.43,1.19V606A.31.31,0,0,1,486.58,606.38Z"/><path class="cls-14" d="M492,606.4a2.34,2.34,0,0,1-1.29-.34,2.13,2.13,0,0,1-.85-.95,3.65,3.65,0,0,1,0-2.9,2.21,2.21,0,0,1,.85-1,2.34,2.34,0,0,1,1.29-.34,2.4,2.4,0,0,1,1.3.34,2.28,2.28,0,0,1,.85,1,3.39,3.39,0,0,1,.3,1.44,3.31,3.31,0,0,1-.3,1.46,2.25,2.25,0,0,1-.85.95A2.4,2.4,0,0,1,492,606.4Zm0-.56a1.6,1.6,0,0,0,1.29-.57,2.48,2.48,0,0,0,.48-1.62,2.41,2.41,0,0,0-.48-1.6,1.74,1.74,0,0,0-2.58,0,2.47,2.47,0,0,0-.47,1.61,2.51,2.51,0,0,0,.47,1.61A1.6,1.6,0,0,0,492,605.84Z"/><path class="cls-14" d="M498.41,606.4a2.18,2.18,0,0,1-1.13-.29,1.88,1.88,0,0,1-.73-.8V606c0,.23-.11.34-.32.34s-.34-.11-.34-.33v-7.16a.29.29,0,0,1,.33-.34c.22,0,.33.11.33.34V602a1.8,1.8,0,0,1,.73-.79,2.35,2.35,0,0,1,2.84.45,3,3,0,0,1,.64,2,3.31,3.31,0,0,1-.29,1.46,2.12,2.12,0,0,1-.82.95A2.28,2.28,0,0,1,498.41,606.4Zm-.1-.56a1.58,1.58,0,0,0,1.29-.58,2.94,2.94,0,0,0,0-3.22,1.77,1.77,0,0,0-2.58,0,2.94,2.94,0,0,0,0,3.22A1.58,1.58,0,0,0,498.31,605.84Z"/><path class="cls-14" d="M503.81,606.39a2.29,2.29,0,0,1-1-.2,1.67,1.67,0,0,1-.66-.57,1.52,1.52,0,0,1,.05-1.74,1.7,1.7,0,0,1,1-.47,9.78,9.78,0,0,1,1.92-.14h.34v-.4a1.54,1.54,0,0,0-.29-1.06,1.17,1.17,0,0,0-.94-.33,3.1,3.1,0,0,0-.81.1,4,4,0,0,0-.82.35c-.13.08-.23.08-.31,0a.33.33,0,0,1-.11-.27.28.28,0,0,1,.18-.26,4.14,4.14,0,0,1,.93-.38,3.83,3.83,0,0,1,.93-.12,1.85,1.85,0,0,1,1.42.49,2.13,2.13,0,0,1,.47,1.51V606c0,.23-.1.34-.31.34s-.32-.11-.32-.34v-.68a1.68,1.68,0,0,1-.67.77A1.93,1.93,0,0,1,503.81,606.39Zm.09-.53a1.49,1.49,0,0,0,.82-.23,1.56,1.56,0,0,0,.57-.62,2,2,0,0,0,.2-.89v-.36h-.32a10.14,10.14,0,0,0-1.54.09,1.47,1.47,0,0,0-.77.3.81.81,0,0,0-.22.6,1,1,0,0,0,.34.8A1.3,1.3,0,0,0,503.9,605.86Z"/><path class="cls-14" d="M510.4,606.39a2.18,2.18,0,0,1-1.13-.29,1.8,1.8,0,0,1-.73-.79V606c0,.23-.11.34-.33.34s-.33-.11-.33-.34v-7.16a.31.31,0,0,1,.34-.34.3.3,0,0,1,.33.34V602a1.82,1.82,0,0,1,.73-.8,2.28,2.28,0,0,1,1.13-.29,2.14,2.14,0,0,1,1.71.75,2.93,2.93,0,0,1,.64,2,3.49,3.49,0,0,1-.29,1.46,2.24,2.24,0,0,1-.82.95A2.3,2.3,0,0,1,510.4,606.39Zm-.1-.56a1.6,1.6,0,0,0,1.29-.57,2.94,2.94,0,0,0,0-3.22,1.74,1.74,0,0,0-2.58,0,2.94,2.94,0,0,0,0,3.22A1.6,1.6,0,0,0,510.3,605.83Z"/><path class="cls-14" d="M514.5,599.63q-.48,0-.48-.45c0-.3.15-.45.48-.45s.48.15.48.45S514.82,599.63,514.5,599.63Zm0,6.72c-.23,0-.34-.12-.34-.37v-4.67c0-.24.11-.35.34-.35s.33.11.33.35V606C514.83,606.23,514.72,606.35,514.5,606.35Z"/><path class="cls-14" d="M518.12,606.39a1.39,1.39,0,0,1-1.13-.46,1.87,1.87,0,0,1-.4-1.3v-5.76a.3.3,0,0,1,.34-.34c.22,0,.33.11.33.34v5.68q0,1.26,1,1.26h.34a.16.16,0,0,1,.14,0s0,.1,0,.21-.11.3-.33.34l-.16,0Z"/><path class="cls-14" d="M520,599.63c-.32,0-.48-.15-.48-.46s.16-.44.48-.44.48.15.48.44S520.36,599.63,520,599.63Zm0,6.71c-.23,0-.34-.12-.34-.36v-4.67c0-.24.11-.35.34-.35s.33.11.33.35V606Q520.37,606.34,520,606.34Z"/><path class="cls-14" d="M524.13,606.39a1.72,1.72,0,0,1-1.33-.48,2,2,0,0,1-.44-1.38v-3h-.8c-.21,0-.32-.09-.32-.27s.11-.26.32-.26h.8v-1.37a.31.31,0,0,1,.34-.34.3.3,0,0,1,.33.34V601h1.48c.2,0,.3.08.3.26s-.1.27-.3.27H523v2.91a1.59,1.59,0,0,0,.28,1,1.08,1.08,0,0,0,.9.35,1.15,1.15,0,0,0,.36,0,.66.66,0,0,1,.26,0c.13,0,.19.09.19.27a.33.33,0,0,1,0,.17.18.18,0,0,1-.13.11l-.33.09A2.9,2.9,0,0,1,524.13,606.39Z"/><path class="cls-14" d="M527,608.33a.26.26,0,0,1-.27-.15.45.45,0,0,1,0-.34l.69-1.56-2.08-4.86a.36.36,0,0,1,0-.35.3.3,0,0,1,.3-.15.36.36,0,0,1,.34.27l1.81,4.37,1.81-4.37a.51.51,0,0,1,.14-.21.34.34,0,0,1,.22-.06.26.26,0,0,1,.27.15.45.45,0,0,1,0,.34l-2.85,6.66A.41.41,0,0,1,527,608.33Z"/><path class="cls-14" d="M536.28,606.38a2.43,2.43,0,0,1-1.29-.33,2.18,2.18,0,0,1-.85-.95,3.68,3.68,0,0,1,0-2.91,2.18,2.18,0,0,1,.85-1,2.34,2.34,0,0,1,1.29-.34,2.49,2.49,0,0,1,1.3.33,2.25,2.25,0,0,1,.84,1,3.13,3.13,0,0,1,.31,1.45,3.34,3.34,0,0,1-.3,1.46,2.25,2.25,0,0,1-.85.95A2.46,2.46,0,0,1,536.28,606.38Zm0-.56a1.6,1.6,0,0,0,1.29-.57,2.94,2.94,0,0,0,0-3.22,1.74,1.74,0,0,0-2.58,0,2.49,2.49,0,0,0-.47,1.61,2.44,2.44,0,0,0,.48,1.61A1.57,1.57,0,0,0,536.28,605.82Z"/><path class="cls-14" d="M540.68,606.36a.3.3,0,0,1-.34-.34v-4.49h-.77c-.21,0-.31-.09-.31-.28s.1-.26.31-.26h.77v-.26a1.91,1.91,0,0,1,1.92-2.16l.29,0c.14,0,.23,0,.27.12a.32.32,0,0,1,0,.27.22.22,0,0,1-.2.15l-.31,0a1.4,1.4,0,0,0-1,.44,1.77,1.77,0,0,0-.31,1.13V601h1.3c.2,0,.31.09.31.26s-.11.28-.31.28H541V606C541,606.25,540.9,606.36,540.68,606.36Z"/><path class="cls-14" d="M548.33,606.38a1.69,1.69,0,0,1-1.32-.48,1.94,1.94,0,0,1-.45-1.38v-3h-.81c-.21,0-.31-.1-.31-.28s.1-.26.31-.26h.81v-1.37c0-.22.11-.33.34-.33a.29.29,0,0,1,.33.33V601h1.47c.21,0,.31.09.31.26s-.1.28-.31.28h-1.47v2.9a1.63,1.63,0,0,0,.27,1,1.1,1.1,0,0,0,.91.35,1.15,1.15,0,0,0,.36,0,.92.92,0,0,1,.25,0c.13,0,.2.09.2.27a.33.33,0,0,1,0,.17.19.19,0,0,1-.14.12l-.32.08A2.87,2.87,0,0,1,548.33,606.38Z"/><path class="cls-14" d="M550.37,606.35c-.23,0-.34-.11-.34-.33v-7.16a.3.3,0,0,1,.34-.34c.22,0,.33.11.33.34v3a1.8,1.8,0,0,1,.76-.76,2.3,2.3,0,0,1,1.08-.26c1.26,0,1.89.68,1.89,2.05V606c0,.23-.11.34-.33.34a.3.3,0,0,1-.34-.34v-3a1.77,1.77,0,0,0-.31-1.16,1.26,1.26,0,0,0-1-.37,1.67,1.67,0,0,0-1.26.49,1.77,1.77,0,0,0-.48,1.3V606C550.69,606.24,550.59,606.35,550.37,606.35Z"/><path class="cls-14" d="M558.45,606.37a2.56,2.56,0,0,1-1.93-.72,2.76,2.76,0,0,1-.7-2,3.05,3.05,0,0,1,.32-1.44,2.33,2.33,0,0,1,2.17-1.32,2,2,0,0,1,1.65.69,2.83,2.83,0,0,1,.59,1.89.27.27,0,0,1-.3.3h-3.78a2.27,2.27,0,0,0,.55,1.52,1.86,1.86,0,0,0,1.41.53,2.88,2.88,0,0,0,.78-.11,2.09,2.09,0,0,0,.74-.38.34.34,0,0,1,.34-.05.27.27,0,0,1,.16.22.32.32,0,0,1-.17.29,2.45,2.45,0,0,1-.85.44A3.74,3.74,0,0,1,558.45,606.37Zm-.13-5a1.66,1.66,0,0,0-1.29.52,2.28,2.28,0,0,0-.54,1.34H560a2.13,2.13,0,0,0-.44-1.36A1.46,1.46,0,0,0,558.32,601.42Z"/><path class="cls-14" d="M567,606.37a2.54,2.54,0,0,1-1.93-.73,2.72,2.72,0,0,1-.71-2,3.12,3.12,0,0,1,.32-1.44,2.3,2.3,0,0,1,.88-1,2.34,2.34,0,0,1,1.29-.36,2,2,0,0,1,1.65.69,2.78,2.78,0,0,1,.59,1.89c0,.21-.1.31-.3.31H565a2.17,2.17,0,0,0,.54,1.51,1.84,1.84,0,0,0,1.41.53,3,3,0,0,0,.79-.1,2.23,2.23,0,0,0,.73-.38.35.35,0,0,1,.34-.06.27.27,0,0,1,.16.23.31.31,0,0,1-.17.29,2.2,2.2,0,0,1-.85.43A3.32,3.32,0,0,1,567,606.37Zm-.14-5a1.63,1.63,0,0,0-1.29.52,2.26,2.26,0,0,0-.54,1.34h3.46a2.17,2.17,0,0,0-.43-1.37A1.48,1.48,0,0,0,566.83,601.42Z"/><path class="cls-14" d="M570.25,606.36a.29.29,0,0,1-.26-.15c-.06-.1,0-.22.08-.35l1.85-2.32-1.72-2.13c-.12-.14-.14-.26-.08-.36a.26.26,0,0,1,.24-.14.46.46,0,0,1,.39.2l1.56,2,1.57-2a.45.45,0,0,1,.37-.21.29.29,0,0,1,.26.15q.07.15-.09.36l-1.72,2.14,1.85,2.3a.33.33,0,0,1,.08.36.27.27,0,0,1-.25.15.49.49,0,0,1-.4-.21L572.31,604l-1.68,2.11A.47.47,0,0,1,570.25,606.36Z"/><path class="cls-14" d="M576.33,599.61c-.32,0-.48-.15-.48-.46s.16-.44.48-.44.48.15.48.44S576.65,599.61,576.33,599.61Zm0,6.71c-.22,0-.34-.12-.34-.36v-4.67c0-.24.11-.35.34-.35s.33.11.33.35V606Q576.66,606.32,576.33,606.32Z"/><path class="cls-14" d="M580.15,606.37a4.06,4.06,0,0,1-1-.13,2.81,2.81,0,0,1-.92-.45.27.27,0,0,1-.14-.25.31.31,0,0,1,.13-.24c.08-.06.17,0,.29,0a2.7,2.7,0,0,0,.83.39,3.22,3.22,0,0,0,.81.11,1.71,1.71,0,0,0,1-.25.78.78,0,0,0,.34-.68.7.7,0,0,0-.22-.54,1.85,1.85,0,0,0-.73-.31l-1-.22c-.89-.2-1.34-.67-1.34-1.39a1.36,1.36,0,0,1,.54-1.12,2.27,2.27,0,0,1,1.45-.43,3.14,3.14,0,0,1,.91.14,2.18,2.18,0,0,1,.77.44.29.29,0,0,1,0,.49.25.25,0,0,1-.29,0,2.37,2.37,0,0,0-.66-.36,2.51,2.51,0,0,0-.72-.11,1.6,1.6,0,0,0-1,.26.85.85,0,0,0-.35.71.74.74,0,0,0,.21.55,1.35,1.35,0,0,0,.68.31l.95.22a2.28,2.28,0,0,1,1.06.49,1.12,1.12,0,0,1,.35.87,1.28,1.28,0,0,1-.56,1.11A2.45,2.45,0,0,1,580.15,606.37Z"/><path class="cls-14" d="M585.59,606.37a1.7,1.7,0,0,1-1.33-.49,2,2,0,0,1-.44-1.37v-3H583c-.21,0-.32-.09-.32-.27s.11-.26.32-.26h.81v-1.37a.3.3,0,0,1,.34-.34c.21,0,.32.11.32.34V601H586c.2,0,.3.08.3.26s-.1.27-.3.27h-1.48v2.91a1.67,1.67,0,0,0,.27,1,1.05,1.05,0,0,0,.91.34,1.28,1.28,0,0,0,.36,0,.62.62,0,0,1,.25,0c.13,0,.2.09.2.27a.53.53,0,0,1,0,.17.23.23,0,0,1-.14.11l-.33.09Z"/><path class="cls-14" d="M589.5,606.36a2.59,2.59,0,0,1-1.93-.72,2.76,2.76,0,0,1-.7-2,3.18,3.18,0,0,1,.31-1.44,2.44,2.44,0,0,1,.88-1,2.37,2.37,0,0,1,1.3-.35,2.06,2.06,0,0,1,1.65.69,2.8,2.8,0,0,1,.59,1.89c0,.2-.1.3-.31.3h-3.77a2.27,2.27,0,0,0,.55,1.52,1.86,1.86,0,0,0,1.41.53,2.88,2.88,0,0,0,.78-.11,2.09,2.09,0,0,0,.74-.38.37.37,0,0,1,.34-.06.3.3,0,0,1,.16.23.32.32,0,0,1-.17.29,2.35,2.35,0,0,1-.85.43A3.38,3.38,0,0,1,589.5,606.36Zm-.13-5a1.65,1.65,0,0,0-1.29.52,2.27,2.27,0,0,0-.55,1.34H591a2.18,2.18,0,0,0-.44-1.37A1.49,1.49,0,0,0,589.37,601.41Z"/><path class="cls-14" d="M593.29,606.34A.3.3,0,0,1,593,606v-4.75a.31.31,0,0,1,.34-.35c.21,0,.32.11.32.35v.67a1.72,1.72,0,0,1,.75-.78,2.26,2.26,0,0,1,1.1-.26c1.26,0,1.89.68,1.89,2V606c0,.23-.11.34-.33.34a.3.3,0,0,1-.34-.34v-3a1.68,1.68,0,0,0-.32-1.15,1.23,1.23,0,0,0-1-.38,1.68,1.68,0,0,0-1.26.49,1.79,1.79,0,0,0-.48,1.31V606C593.62,606.23,593.51,606.34,593.29,606.34Z"/><path class="cls-14" d="M601.24,606.36a2.46,2.46,0,0,1-1.33-.35,2.14,2.14,0,0,1-.86-1,3.34,3.34,0,0,1-.3-1.46,2.84,2.84,0,0,1,.66-2,2.36,2.36,0,0,1,1.83-.73,2.78,2.78,0,0,1,.83.14,2.2,2.2,0,0,1,.77.45.23.23,0,0,1,.11.26.29.29,0,0,1-.17.23.26.26,0,0,1-.3-.06,1.85,1.85,0,0,0-.62-.35,2.18,2.18,0,0,0-.6-.09,1.7,1.7,0,0,0-1.36.56,2.35,2.35,0,0,0-.48,1.58,2.48,2.48,0,0,0,.48,1.62,1.65,1.65,0,0,0,1.36.58,2.18,2.18,0,0,0,.6-.09,1.81,1.81,0,0,0,.63-.35.27.27,0,0,1,.3-.06.32.32,0,0,1,.15.23.27.27,0,0,1-.1.26,2.2,2.2,0,0,1-.77.44A2.73,2.73,0,0,1,601.24,606.36Z"/><path class="cls-14" d="M606.29,606.36a2.54,2.54,0,0,1-1.93-.73,2.78,2.78,0,0,1-.71-2,3.19,3.19,0,0,1,.32-1.45,2.36,2.36,0,0,1,2.17-1.32,2.08,2.08,0,0,1,1.66.69,2.83,2.83,0,0,1,.59,1.89.27.27,0,0,1-.31.3h-3.77a2.19,2.19,0,0,0,.54,1.51,1.89,1.89,0,0,0,1.42.53,3.33,3.33,0,0,0,.78-.1,2.27,2.27,0,0,0,.74-.38.31.31,0,0,1,.33-.06.25.25,0,0,1,.16.23.32.32,0,0,1-.17.29,2.38,2.38,0,0,1-.84.43A3.43,3.43,0,0,1,606.29,606.36Zm-.13-5a1.64,1.64,0,0,0-1.3.52,2.23,2.23,0,0,0-.54,1.33h3.46a2.14,2.14,0,0,0-.43-1.36A1.48,1.48,0,0,0,606.16,601.41Z"/><path class="cls-14" d="M614.6,606.35a2.41,2.41,0,0,1-1.28-.33,2.18,2.18,0,0,1-.85-.95,3.68,3.68,0,0,1,0-2.91,2.23,2.23,0,0,1,.84-.95,2.39,2.39,0,0,1,1.29-.34,2.35,2.35,0,0,1,1.3.34,2.18,2.18,0,0,1,.85.95,3.68,3.68,0,0,1,0,2.91,2.23,2.23,0,0,1-.84.95A2.5,2.5,0,0,1,614.6,606.35Zm0-.55a1.61,1.61,0,0,0,1.3-.58,3,3,0,0,0,0-3.22,1.62,1.62,0,0,0-1.29-.56,1.6,1.6,0,0,0-1.28.56,2.44,2.44,0,0,0-.48,1.61,2.49,2.49,0,0,0,.48,1.61A1.57,1.57,0,0,0,614.6,605.8Z"/><path class="cls-14" d="M619,606.33a.3.3,0,0,1-.34-.34V601.5h-.78q-.3,0-.3-.27t.3-.27h.78v-.26a1.9,1.9,0,0,1,1.91-2.16l.29,0c.14,0,.23,0,.27.11a.36.36,0,0,1,0,.27.24.24,0,0,1-.21.15l-.3,0a1.33,1.33,0,0,0-1,.45,1.74,1.74,0,0,0-.31,1.12V601h1.3q.3,0,.3.27t-.3.27h-1.3V606C619.34,606.22,619.23,606.33,619,606.33Z"/><path class="cls-14" d="M626.19,606.35a1.42,1.42,0,0,1-1.13-.45,1.92,1.92,0,0,1-.4-1.31v-5.76a.3.3,0,0,1,.34-.34.3.3,0,0,1,.32.34v5.68c0,.84.32,1.26,1,1.26h.34a.16.16,0,0,1,.15,0,.31.31,0,0,1,0,.2c0,.19-.1.3-.32.34l-.17,0Z"/><path class="cls-14" d="M628.11,599.59q-.48,0-.48-.45t.48-.45q.48,0,.48.45T628.11,599.59Zm0,6.72c-.22,0-.34-.12-.34-.37v-4.67a.31.31,0,0,1,.34-.35c.22,0,.33.11.33.35v4.67C628.44,606.19,628.33,606.31,628.11,606.31Z"/><path class="cls-14" d="M630.79,606.33a.3.3,0,0,1-.34-.34V601.5h-.78c-.2,0-.3-.09-.3-.28s.1-.26.3-.26h.78v-.26a1.91,1.91,0,0,1,1.91-2.17l.3,0a.23.23,0,0,1,.26.12.3.3,0,0,1,0,.26.23.23,0,0,1-.21.16l-.3,0a1.34,1.34,0,0,0-1,.44,1.76,1.76,0,0,0-.31,1.12V601h1.3c.2,0,.3.09.3.26s-.1.28-.3.28h-1.3V606A.3.3,0,0,1,630.79,606.33Z"/><path class="cls-14" d="M635.83,606.35a2.54,2.54,0,0,1-1.93-.73,2.74,2.74,0,0,1-.71-2,3.19,3.19,0,0,1,.32-1.45,2.36,2.36,0,0,1,.88-1,2.42,2.42,0,0,1,1.29-.35,2.08,2.08,0,0,1,1.66.69,2.83,2.83,0,0,1,.58,1.89.27.27,0,0,1-.3.31h-3.77a2.19,2.19,0,0,0,.54,1.51,1.89,1.89,0,0,0,1.42.53,2.88,2.88,0,0,0,.78-.11,2.06,2.06,0,0,0,.74-.37.32.32,0,0,1,.34-.06.26.26,0,0,1,.15.23.32.32,0,0,1-.17.29,2.38,2.38,0,0,1-.84.43A3.38,3.38,0,0,1,635.83,606.35Zm-.14-5a1.63,1.63,0,0,0-1.29.52,2.23,2.23,0,0,0-.54,1.33h3.47a2.13,2.13,0,0,0-.44-1.36A1.48,1.48,0,0,0,635.69,601.4Z"/><path class="cls-14" d="M639.61,601.93a.5.5,0,0,1-.51-.5.47.47,0,0,1,.15-.37.51.51,0,0,1,.72,0,.5.5,0,0,1,.14.37.48.48,0,0,1-.14.36A.49.49,0,0,1,639.61,601.93Zm0,4.36a.49.49,0,0,1-.36-.14.48.48,0,0,1-.14-.36.48.48,0,0,1,.5-.5.49.49,0,0,1,.37.14.48.48,0,0,1,.13.36.52.52,0,0,1-.13.36A.53.53,0,0,1,639.61,606.29Z"/><path class="cls-15" d="M646.33,606.34a2.94,2.94,0,0,1-1.06-.21,2.78,2.78,0,0,1-.94-.63.3.3,0,0,1-.11-.29.3.3,0,0,1,.16-.25c.09-.06.19,0,.31.07a2.38,2.38,0,0,0,.8.53,2.34,2.34,0,0,0,.85.17,2,2,0,0,0,1.74-.86,4.36,4.36,0,0,0,.61-2.55v-.64a2.17,2.17,0,0,1-.79,1.21,2.21,2.21,0,0,1-1.39.45,2.42,2.42,0,0,1-1.21-.31,2.21,2.21,0,0,1-.83-.86,2.46,2.46,0,0,1-.3-1.25,2.52,2.52,0,0,1,.31-1.27,2.22,2.22,0,0,1,.85-.87,2.62,2.62,0,0,1,3.3.66,4.64,4.64,0,0,1,.73,2.75,5.09,5.09,0,0,1-.8,3.08A2.61,2.61,0,0,1,646.33,606.34Zm.29-3.6a1.73,1.73,0,0,0,1.3-.52,2,2,0,0,0,0-2.65,1.86,1.86,0,0,0-2.58,0,2,2,0,0,0,0,2.65A1.68,1.68,0,0,0,646.62,602.74Z"/><path class="cls-15" d="M653.39,606.34a2.21,2.21,0,0,1-2-1,5.27,5.27,0,0,1-.67-2.93,5.22,5.22,0,0,1,.67-2.95,2.2,2.2,0,0,1,2-1,2.23,2.23,0,0,1,2,1,6.81,6.81,0,0,1,0,5.87A2.23,2.23,0,0,1,653.39,606.34Zm0-.6a1.6,1.6,0,0,0,1.48-.82,6.88,6.88,0,0,0,0-5,1.76,1.76,0,0,0-3,0,5.12,5.12,0,0,0-.48,2.53,5,5,0,0,0,.49,2.52A1.58,1.58,0,0,0,653.39,605.74Z"/><path class="cls-15" d="M659.15,603.17a1.61,1.61,0,0,1-1.33-.61,2.85,2.85,0,0,1-.49-1.75,2.76,2.76,0,0,1,.49-1.73,1.74,1.74,0,0,1,2.66,0,2.7,2.7,0,0,1,.49,1.73,2.77,2.77,0,0,1-.48,1.74A1.62,1.62,0,0,1,659.15,603.17Zm0-.51a1,1,0,0,0,.89-.47,2.51,2.51,0,0,0,.32-1.38,2.42,2.42,0,0,0-.32-1.36,1,1,0,0,0-.89-.47,1,1,0,0,0-.88.47,2.33,2.33,0,0,0-.33,1.36,2.38,2.38,0,0,0,.33,1.38A1,1,0,0,0,659.15,602.66Zm.66,3.65q-.12.2-.27.18a.32.32,0,0,1-.25-.15.29.29,0,0,1,0-.32l4.29-7.51q.12-.19.27-.18a.27.27,0,0,1,.25.15.31.31,0,0,1,0,.33Zm4.45,0a1.61,1.61,0,0,1-1.32-.61,2.74,2.74,0,0,1-.49-1.75,2.79,2.79,0,0,1,.48-1.74,1.77,1.77,0,0,1,2.67,0,3.33,3.33,0,0,1,0,3.48A1.61,1.61,0,0,1,664.26,606.34Zm0-.52a1,1,0,0,0,.9-.46,2.47,2.47,0,0,0,.32-1.38,2.31,2.31,0,0,0-.33-1.36,1.07,1.07,0,0,0-1.77,0,2.42,2.42,0,0,0-.32,1.36,2.47,2.47,0,0,0,.32,1.38A1,1,0,0,0,664.26,605.82Z"/><rect class="cls-14" x="423.7" y="492.85" width="2.58" height="29.93" transform="translate(-84.28 931.05) rotate(-89.8)"/><rect class="cls-14" x="396.17" y="520.17" width="29.93" height="2.58" transform="translate(-111.87 930.62) rotate(-89.78)"/><rect class="cls-14" x="718.09" y="521.28" width="29.93" height="2.58" transform="translate(207.71 1253.65) rotate(-89.78)"/><rect class="cls-14" x="718.11" y="493.75" width="2.58" height="29.93" transform="translate(208.2 1226.36) rotate(-89.8)"/><rect class="cls-14" x="717.55" y="656.69" width="2.58" height="29.93" transform="translate(44.7 1388.17) rotate(-89.8)"/><rect class="cls-14" x="717.73" y="656.71" width="29.93" height="2.58" transform="translate(71.93 1388.21) rotate(-89.78)"/><rect class="cls-14" x="395.82" y="655.6" width="29.93" height="2.58" transform="translate(-247.65 1065.19) rotate(-89.78)"/><rect class="cls-14" x="423.14" y="655.78" width="2.58" height="29.93" transform="translate(-247.78 1092.86) rotate(-89.8)"/><path class="cls-14" d="M652.25,287.58c3.22,0,3.22-5,0-5s-3.22,5,0,5Z"/><path class="cls-14" d="M296.85,713.45c3.22,0,3.22-5,0-5s-3.22,5,0,5Z"/><path class="cls-14" d="M385.7,590.9c3.22,0,3.22-5,0-5s-3.22,5,0,5Z"/><path class="cls-14" d="M391.83,995.33c3.21,0,3.22-5,0-5s-3.23,5,0,5Z"/><path class="cls-14" d="M459.23,799.24c3.22,0,3.22-5,0-5s-3.22,5,0,5Z"/><g class="cls-18"><path class="cls-14" d="M784,554.14c3.21,0,3.22-5,0-5s-3.23,5,0,5Z"/></g><g class="cls-18"><path class="cls-14" d="M636.93,391.75c3.22,0,3.23-5,0-5s-3.22,5,0,5Z"/></g><g class="cls-18"><path class="cls-14" d="M398,502.05c3.22,0,3.23-5,0-5s-3.22,5,0,5Z"/></g><g class="cls-18"><path class="cls-14" d="M214.12,992.26c3.22,0,3.23-5,0-5s-3.22,5,0,5Z"/></g><g class="cls-18"><path class="cls-14" d="M735,1007.58c3.21,0,3.22-5,0-5s-3.23,5,0,5Z"/></g><g class="cls-19"><path class="cls-14" d="M707.4,424.2a1.25,1.25,0,0,0,0-2.5,1.25,1.25,0,0,0,0,2.5Z"/></g><g class="cls-19"><path class="cls-14" d="M581.78,203.61a1.25,1.25,0,0,0,0-2.5,1.25,1.25,0,0,0,0,2.5Z"/></g><g class="cls-19"><path class="cls-14" d="M777.87,228.12a1.25,1.25,0,0,0,0-2.5,1.25,1.25,0,0,0,0,2.5Z"/></g><g class="cls-19"><path class="cls-14" d="M324.42,920.54a1.25,1.25,0,0,0,0-2.5,1.25,1.25,0,0,0,0,2.5Z"/></g><g class="cls-19"><path class="cls-14" d="M557.27,1021.65a1.25,1.25,0,0,0,0-2.5,1.25,1.25,0,0,0,0,2.5Z"/></g><g class="cls-20"><path class="cls-14" d="M725.78,476.29a1.25,1.25,0,0,0,0-2.5,1.25,1.25,0,0,0,0,2.5Z"/></g><g class="cls-20"><path class="cls-14" d="M459.23,641.74a1.25,1.25,0,0,0,0-2.5,1.25,1.25,0,0,0,0,2.5Z"/></g><g class="cls-20"><path class="cls-14" d="M306,886.84a1.25,1.25,0,0,0,0-2.5,1.25,1.25,0,0,0,0,2.5Z"/></g><g class="cls-20"><path class="cls-14" d="M529.7,1040a1.25,1.25,0,0,0,0-2.5,1.25,1.25,0,0,0,0,2.5Z"/></g></g></g></g></svg>