<svg xmlns="http://www.w3.org/2000/svg" viewBox="0 0 82.48 41.53"><defs><style>.cls-1{fill:#ce4d2a;}.cls-2{fill:#fff;}</style></defs><title>creativeWhite</title><g id="Warstwa_2" data-name="Warstwa 2"><g id="Warstwa_1-2" data-name="Warstwa 1"><circle class="cls-1" cx="11.66" cy="13.32" r="11.66"/><path class="cls-2" d="M23.14,37.93a.33.33,0,0,1-.12,0l-6.83-4.75a.36.36,0,0,1-.11-.16c-1.89-6-3.82-9.45-5.74-10.16l-.14-.06a11.92,11.92,0,0,1-8.22-7A10.77,10.77,0,0,1,2.65,7,13,13,0,0,1,9.76.82a13,13,0,0,1,9.39.12,10.87,10.87,0,0,1,6.19,6.31A11.29,11.29,0,0,1,24.15,17l0,0a8.06,8.06,0,0,0-.51,7.27.33.33,0,0,1,0,.24.35.35,0,0,1-.17.15L19,26.2a.31.31,0,0,1-.38-.18l-3.38-9.27a.3.3,0,1,1,.56-.2l3.28,9L23,24.18a8.43,8.43,0,0,1,.68-7.54,10.65,10.65,0,0,0,1.13-9.18,10.24,10.24,0,0,0-5.85-6,12.36,12.36,0,0,0-9-.1A12.35,12.35,0,0,0,3.18,7.23a10.26,10.26,0,0,0-.64,8.34,11.37,11.37,0,0,0,7.8,6.6l.08,0,.06,0,.07,0c.78.29,3.15,1.16,6.07,10.44L23,37.15l2.11-7L24,27a.29.29,0,0,1,.18-.38.29.29,0,0,1,.38.18l1.2,3.28a.31.31,0,0,1,0,.19l-2.26,7.48a.3.3,0,0,1-.19.19A.39.39,0,0,1,23.14,37.93Z"/><path class="cls-2" d="M19.62,34.84a3.84,3.84,0,0,0,4.65-1.69l-1.08,4.48Z"/><path class="cls-2" d="M20.51,12.45a2.5,2.5,0,0,1,.13,1.46,1.28,1.28,0,0,1-.9.79,2.45,2.45,0,0,1-.37.08l-.42.06L17,15l-.37,0-.29.07c-.58.19-.76.74-.49,1.58l-.61.06a2.2,2.2,0,0,0-.75-1.11,1.72,1.72,0,0,0-1.25-.23l-2.3.24a2.39,2.39,0,0,1-1.64-.32,2.68,2.68,0,0,1-.92-1.43l-.05-.16L9,13.68a2.29,2.29,0,0,0,.63,1,1.52,1.52,0,0,0,1.18.24l2.26-.23a3,3,0,0,1,1.26.13,1.62,1.62,0,0,1,.87.83h0a1.2,1.2,0,0,1,.22-.78,1.44,1.44,0,0,1,.68-.44l.36-.09a1.74,1.74,0,0,1,.39,0l1.89-.19.33,0A.9.9,0,0,0,19.4,14c.33-.11.52-.28.56-.52a2,2,0,0,0-.13-1l.64-.21Z"/><path class="cls-2" d="M7.86,11.2a2.41,2.41,0,0,1-.12-1.46A1.28,1.28,0,0,1,8.64,9L9,8.87l.42-.06,1.93-.18.36,0,.3-.07c.58-.19.74-.71.46-1.55l.69-.07A2.1,2.1,0,0,0,13.86,8a1.74,1.74,0,0,0,1.25.23L17.42,8a2.36,2.36,0,0,1,1.63.32A2.75,2.75,0,0,1,20,9.73l.05.16-.68.08a2.29,2.29,0,0,0-.63-1,1.53,1.53,0,0,0-1.18-.24l-2.27.23A2.79,2.79,0,0,1,14,8.81,1.67,1.67,0,0,1,13.14,8h0a1.2,1.2,0,0,1-.22.78,1.42,1.42,0,0,1-.69.44l-.35.09a2.6,2.6,0,0,1-.39,0l-1.89.19-.34,0A1.07,1.07,0,0,0,9,9.64a.73.73,0,0,0-.56.52,2.15,2.15,0,0,0,.14,1l-.64.21Z"/><path class="cls-2" d="M25.69,22.19a4.49,4.49,0,0,1,4.68-4.45A4.91,4.91,0,0,1,33.52,19l-1.3,1.67a2.89,2.89,0,0,0-1.84-.78,2.3,2.3,0,1,0-.05,4.59,2.89,2.89,0,0,0,1.9-.83l1.29,1.72a4.71,4.71,0,0,1-3.19,1.25A4.51,4.51,0,0,1,25.69,22.19Z"/><path class="cls-2" d="M39,26.45l-2.28-3.7v3.7H34.48V17.94H37.7a2.92,2.92,0,0,1,3.16,2.76A2.56,2.56,0,0,1,39.38,23l2.28,3.42Zm-2.29-4.78h.93a.86.86,0,1,0,0-1.71h-.93Z"/><path class="cls-2" d="M44.7,20v1.18h2.71v1.89H44.7v1.22H48v2.12H42.47V17.94H48V20Z"/><path class="cls-2" d="M54.69,25.45H51.51l-.43,1H48.61l4-8.62h1.08l4,8.62H55.12ZM54,23.8l-.87-2-.87,2Z"/><path class="cls-2" d="M63.21,20.05h-2v6.4H58.91v-6.4h-2V17.94h6.35Z"/><path class="cls-2" d="M64.16,17.94h2.26v8.51H64.16Z"/><path class="cls-2" d="M76.12,17.94l-3.92,8.6h-1l-3.91-8.6h2.44l2,4.61,2-4.61Z"/><path class="cls-2" d="M79.2,20v1.18h2.7v1.89H79.2v1.22h3.28v2.12H77V17.94h5.51V20Z"/><path class="cls-2" d="M27.18,34.28a4.51,4.51,0,0,1,4.69-4.46A5,5,0,0,1,35,31.11l-1.3,1.67A2.85,2.85,0,0,0,31.87,32a2.3,2.3,0,1,0-.05,4.59,2.87,2.87,0,0,0,1.9-.83L35,37.47a4.66,4.66,0,0,1-3.19,1.25A4.5,4.5,0,0,1,27.18,34.28Z"/><path class="cls-2" d="M35.23,34.29a4.68,4.68,0,1,1,4.67,4.46A4.5,4.5,0,0,1,35.23,34.29Zm7.06,0a2.39,2.39,0,1,0-2.39,2.32A2.32,2.32,0,0,0,42.29,34.27Z"/><path class="cls-2" d="M53.11,34.29c0,2.64-1.76,4.24-4.66,4.24H45.68V30h2.77C51.35,30,53.11,31.63,53.11,34.29Zm-2.26,0c0-1.34-.93-2.15-2.46-2.15h-.51V36.4h.54C49.93,36.4,50.85,35.6,50.85,34.28Z"/><path class="cls-2" d="M56.45,32.12v1.19h2.7v1.88h-2.7v1.22h3.28v2.12H54.22V30h5.51v2.1Z"/><rect class="cls-2" x="22.58" y="40" width="1.52" height="1.52"/><rect class="cls-2" x="23.31" y="40.55" width="39.24" height="0.42"/><circle class="cls-2" cx="63.2" cy="40.78" r="0.75"/></g></g></svg>