<?xml version="1.0" encoding="utf-8"?>
<!-- Generator: Adobe Illustrator 16.0.0, SVG Export Plug-In . SVG Version: 6.00 Build 0)  -->
<!DOCTYPE svg PUBLIC "-//W3C//DTD SVG 1.1//EN" "http://www.w3.org/Graphics/SVG/1.1/DTD/svg11.dtd">
<svg version="1.1" id="Warstwa_1" xmlns="http://www.w3.org/2000/svg" xmlns:xlink="http://www.w3.org/1999/xlink" x="0px" y="0px"
	 width="508.651px" height="490.193px" viewBox="0 0 508.651 490.193" enable-background="new 0 0 508.651 490.193"
	 xml:space="preserve">
<linearGradient id="SVGID_1_" gradientUnits="userSpaceOnUse" x1="4.882813e-004" y1="245.0967" x2="508.6499" y2="245.0967" gradientTransform="matrix(-1 0 0 1 508.6494 0)">
	<stop  offset="0" style="stop-color:#FFFFFF"/>
	<stop  offset="1" style="stop-color:#CACACA"/>
</linearGradient>
<path opacity="0.91" fill="url(#SVGID_1_)" d="M0,490.193c5.326-21.555,24.783-37.538,47.982-37.538
	c18.223,0,34.129,9.864,42.705,24.539c15.184-22.993,41.238-38.168,70.854-38.168c29.09,0,54.756,14.643,70.045,36.956
	c11.74-48.577,55.469-84.671,107.654-84.671c22.324,0,43.088,6.629,60.482,17.986c-0.746-5.891-1.129-11.893-1.129-17.986
	c0-50.395,26.194-94.67,65.712-119.959c-31.428-18.167-52.592-52.112-52.592-91.021c0-45.119,28.441-83.585,68.367-98.479
	c-7.9-8.763-12.715-20.365-12.715-33.094c0-24.525,17.863-44.869,41.283-48.758v490.193H0z"/>
</svg>
