<?xml version="1.0" encoding="utf-8"?>
<!-- Generator: Adobe Illustrator 16.0.0, SVG Export Plug-In . SVG Version: 6.00 Build 0)  -->
<!DOCTYPE svg PUBLIC "-//W3C//DTD SVG 1.1//EN" "http://www.w3.org/Graphics/SVG/1.1/DTD/svg11.dtd">
<svg version="1.1" id="Warstwa_1" xmlns="http://www.w3.org/2000/svg" xmlns:xlink="http://www.w3.org/1999/xlink" x="0px" y="0px"
	 width="487.449px" height="267.58px" viewBox="0 0 487.449 267.58" enable-background="new 0 0 487.449 267.58"
	 xml:space="preserve">
<linearGradient id="SVGID_1_" gradientUnits="userSpaceOnUse" x1="-764.5854" y1="639.3838" x2="-695.6282" y2="209.8766" gradientTransform="matrix(-0.9317 0.3632 0.3632 0.9317 -602.3774 17.2103)">
	<stop  offset="0" style="stop-color:#FFFFFF"/>
	<stop  offset="1" style="stop-color:#CACACA"/>
</linearGradient>
<path opacity="0.91" fill="url(#SVGID_1_)" d="M18.796,262.71c10.229-3.951,20.85-5.13,31.041-3.947
	c-16.713-44.079,5.4-93.399,49.805-110.552c32.084-12.393,67.08-4.62,90.748,17.115c6.334-16.3,19.301-30.005,37.02-36.85
	c13.311-5.14,27.287-5.621,40.113-2.265c-5.496-49.937,23.043-99.289,72.535-118.405c57.969-22.391,123.104,5.022,147.391,61.286
	V267.58H0C5.433,262.938,11.728,265.44,18.796,262.71z"/>
</svg>
