<?xml version="1.0" encoding="utf-8"?>
<!-- Generator: Adobe Illustrator 16.0.0, SVG Export Plug-In . SVG Version: 6.00 Build 0)  -->
<!DOCTYPE svg PUBLIC "-//W3C//DTD SVG 1.1//EN" "http://www.w3.org/Graphics/SVG/1.1/DTD/svg11.dtd">
<svg version="1.1" id="Warstwa_1" xmlns="http://www.w3.org/2000/svg" xmlns:xlink="http://www.w3.org/1999/xlink" x="0px" y="0px"
	 width="224.865px" height="59.652px" viewBox="0 0 224.865 59.652" enable-background="new 0 0 224.865 59.652"
	 xml:space="preserve">
<linearGradient id="SVGID_1_" gradientUnits="userSpaceOnUse" x1="0" y1="29.8262" x2="224.8652" y2="29.8262">
	<stop  offset="0" style="stop-color:#FFFFFF"/>
	<stop  offset="1" style="stop-color:#CACACA"/>
</linearGradient>
<path opacity="0.66" fill="url(#SVGID_1_)" d="M204.178,49.466c-4.416,0-8.57,1.104-12.215,3.042
	c-0.236-19.111-15.791-34.53-34.957-34.53c-13.85,0-25.816,8.052-31.477,19.727c-4.777-5.238-11.658-8.526-19.303-8.526
	c-5.744,0-11.055,1.858-15.367,5.002C85.557,14.493,67.59,0,46.227,0C20.695,0,0,20.698,0,46.229c0,4.669,0.699,9.172,1.986,13.423
	h78.492h9.992h32.215h9.285h51.52h7.834h33.541C220.09,53.459,212.6,49.466,204.178,49.466z"/>
</svg>
