<?xml version="1.0" encoding="utf-8"?>
<!-- Generator: Adobe Illustrator 16.0.0, SVG Export Plug-In . SVG Version: 6.00 Build 0)  -->
<!DOCTYPE svg PUBLIC "-//W3C//DTD SVG 1.1//EN" "http://www.w3.org/Graphics/SVG/1.1/DTD/svg11.dtd">
<svg version="1.1" id="Warstwa_1" xmlns="http://www.w3.org/2000/svg" xmlns:xlink="http://www.w3.org/1999/xlink" x="0px" y="0px"
	 width="464.175px" height="123.136px" viewBox="0 0 464.175 123.136" enable-background="new 0 0 464.175 123.136"
	 xml:space="preserve">
<linearGradient id="SVGID_1_" gradientUnits="userSpaceOnUse" x1="-897.7085" y1="184.0488" x2="-884.3417" y2="-3.0871" gradientTransform="matrix(1 0 0 1 1124.333 0)">
	<stop  offset="0" style="stop-color:#FFFFFF"/>
	<stop  offset="1" style="stop-color:#CACACA"/>
</linearGradient>
<path opacity="0.91" fill="url(#SVGID_1_)" d="M421.472,102.11c-9.117,0-17.688,2.282-25.211,6.276
	c-0.488-39.447-32.6-71.279-72.162-71.279c-28.586,0-53.291,16.621-64.98,40.725c-9.859-10.813-24.059-17.604-39.846-17.604
	c-11.857,0-22.814,3.838-31.715,10.327C176.613,29.916,139.523,0,95.427,0C42.724,0,0,42.725,0,95.427
	c0,9.639,1.442,18.938,4.099,27.709H166.13h20.621h66.506h19.158h106.352h16.176h69.232
	C454.318,110.352,438.861,102.11,421.472,102.11z"/>
</svg>
