<?xml version="1.0" encoding="utf-8"?>
<!-- Generator: Adobe Illustrator 16.0.0, SVG Export Plug-In . SVG Version: 6.00 Build 0)  -->
<!DOCTYPE svg PUBLIC "-//W3C//DTD SVG 1.1//EN" "http://www.w3.org/Graphics/SVG/1.1/DTD/svg11.dtd">
<svg version="1.1" id="Warstwa_1" xmlns="http://www.w3.org/2000/svg" xmlns:xlink="http://www.w3.org/1999/xlink" x="0px" y="0px"
	 width="508.651px" height="490.193px" viewBox="0 0 508.651 490.193" enable-background="new 0 0 508.651 490.193"
	 xml:space="preserve">
<linearGradient id="SVGID_1_" gradientUnits="userSpaceOnUse" x1="0" y1="245.0967" x2="508.6499" y2="245.0967">
	<stop  offset="0" style="stop-color:#FFFFFF"/>
	<stop  offset="1" style="stop-color:#CACACA"/>
</linearGradient>
<path opacity="0.91" fill="url(#SVGID_1_)" d="M508.65,490.193c-5.326-21.555-24.783-37.538-47.982-37.538
	c-18.223,0-34.129,9.864-42.705,24.539c-15.184-22.993-41.238-38.168-70.854-38.168c-29.09,0-54.756,14.643-70.045,36.956
	c-11.74-48.577-55.469-84.671-107.654-84.671c-22.324,0-43.088,6.629-60.482,17.986c0.746-5.891,1.129-11.893,1.129-17.986
	c0-50.395-26.195-94.67-65.711-119.959c31.427-18.167,52.591-52.112,52.591-91.021c0-45.119-28.44-83.585-68.366-98.479
	c7.9-8.763,12.715-20.365,12.715-33.094C41.284,24.232,23.421,3.889,0,0v490.193H508.65z"/>
</svg>
