<svg xmlns="http://www.w3.org/2000/svg" xmlns:xlink="http://www.w3.org/1999/xlink" viewBox="0 0 165.81 165.64"><defs><style>.cls-1{isolation:isolate;}.cls-10,.cls-12,.cls-2,.cls-3,.cls-4,.cls-5{fill-rule:evenodd;}.cls-12,.cls-2,.cls-3{mix-blend-mode:screen;}.cls-2{fill:url(#Gradient_bez_nazwy_18);}.cls-3{fill:url(#Áĺçűě_ííűé_ăđŕäčĺíň_200);}.cls-10,.cls-4{fill:#5badff;}.cls-4,.cls-6{opacity:0.61;}.cls-5{fill:url(#Áĺçűě_ííűé_ăđŕäčĺíň_198);}.cls-7{fill:#8fcbff;}.cls-8{fill:#4acbff;}.cls-9{fill:url(#Áĺçűě_ííűé_ăđŕäčĺíň_198-2);}.cls-11{fill:url(#Áĺçűě_ííűé_ăđŕäčĺíň_198-3);}.cls-12{fill:url(#Áĺçűě_ííűé_ăđŕäčĺíň_404);}</style><radialGradient id="Gradient_bez_nazwy_18" cx="-3578.43" cy="181.57" r="73.03" gradientTransform="matrix(0.96, -0.61, 0.61, 0.95, 3395.1, -2282.25)" gradientUnits="userSpaceOnUse"><stop offset="0" stop-color="#2c6aff"/><stop offset="0.25" stop-color="#234eb8"/><stop offset="0.52" stop-color="#1a3373"/><stop offset="0.74" stop-color="#142040"/><stop offset="0.91" stop-color="#101421"/><stop offset="1" stop-color="#0e0f15"/></radialGradient><radialGradient id="Áĺçűě_ííűé_ăđŕäčĺíň_200" cx="66.22" cy="56.49" r="41.63" gradientUnits="userSpaceOnUse"><stop offset="0" stop-color="#2c6aff"/><stop offset="0.11" stop-color="#2b68fa"/><stop offset="0.23" stop-color="#2962ec"/><stop offset="0.36" stop-color="#2558d4"/><stop offset="0.5" stop-color="#1f4ab3"/><stop offset="0.65" stop-color="#183989"/><stop offset="0.79" stop-color="#0f2355"/><stop offset="0.94" stop-color="#040a18"/><stop offset="1"/></radialGradient><radialGradient id="Áĺçűě_ííűé_ăđŕäčĺíň_198" cx="77.84" cy="66.18" r="47.55" gradientUnits="userSpaceOnUse"><stop offset="0" stop-color="#5ea3e9"/><stop offset="0.77" stop-color="#75fff5"/><stop offset="1" stop-color="#f1f3ff"/></radialGradient><radialGradient id="Áĺçűě_ííűé_ăđŕäčĺíň_198-2" cx="83.14" cy="74.36" r="46.99" xlink:href="#Áĺçűě_ííűé_ăđŕäčĺíň_198"/><radialGradient id="Áĺçűě_ííűé_ăđŕäčĺíň_198-3" cx="90.02" cy="71.18" r="43.67" xlink:href="#Áĺçűě_ííűé_ăđŕäčĺíň_198"/><radialGradient id="Áĺçűě_ííűé_ăđŕäčĺíň_404" cx="1077.78" cy="-2550.52" r="13.95" gradientTransform="matrix(1.1, 0.3, -0.43, 1.59, -2145.89, 3826.2)" gradientUnits="userSpaceOnUse"><stop offset="0" stop-color="#2c6aff"/><stop offset="0.09" stop-color="#2559d6"/><stop offset="0.23" stop-color="#1b429e"/><stop offset="0.36" stop-color="#132e6e"/><stop offset="0.5" stop-color="#0c1d46"/><stop offset="0.63" stop-color="#071027"/><stop offset="0.76" stop-color="#030712"/><stop offset="0.89" stop-color="#010204"/><stop offset="1"/></radialGradient></defs><title>jobObject</title><g class="cls-1"><g id="Warstwa_2" data-name="Warstwa 2"><g id="Warstwa_1-2" data-name="Warstwa 1"><path class="cls-2" d="M152.76,38.09a82.95,82.95,0,1,1-114.48-25A82.85,82.85,0,0,1,152.76,38.09Z"/><path class="cls-3" d="M91.55,115.59C67,125.15,40.32,102.21,41.28,69s55.59-37,75.77-23.73S129.57,100.78,91.55,115.59Z"/><path class="cls-4" d="M91.55,115.59C67,125.15,40.32,102.21,41.28,69s55.59-37,75.77-23.73S129.57,100.78,91.55,115.59Z"/><path class="cls-5" d="M119.8,77.5a34.59,34.59,0,0,1-49.29,31.3c-.88-.41-1.74-.87-2.58-1.35a34.36,34.36,0,0,1-8.88-7.35,33.54,33.54,0,0,1-2.56-3.34,35,35,0,0,1-2.8-5,34.63,34.63,0,0,1,0-28.51,32.4,32.4,0,0,1,2.16-4,34,34,0,0,1,6.33-7.51h0a34.52,34.52,0,0,1,41.41-3.48h0c.61.38,1.2.78,1.77,1.19s1,.71,1.42,1.08a34.49,34.49,0,0,1,12.78,23.18A32.46,32.46,0,0,1,119.8,77.5Z"/><g class="cls-6"><path class="cls-7" d="M87.39,38.05v.46c11.68,0,22.68,2.65,29.41,7.09,7.75,5.1,11.65,15,10.43,26.42-1.49,14-11.77,33.77-35.85,43.15a31,31,0,0,1-11.31,2.15c-9,0-17.83-4-24.85-11.2-9-9.25-13.9-22.79-13.48-37.15.61-21,23.37-30.46,45.65-30.46v-.46Zm0,0C65.5,38.05,41.91,47.2,41.28,69c-.81,28.1,18.11,48.82,38.79,48.82a31.57,31.57,0,0,0,11.48-2.18c38-14.81,45.69-57.06,25.5-70.37-7-4.61-18.08-7.17-29.66-7.17Z"/></g><path class="cls-8" d="M66.43,40A146.92,146.92,0,0,0,52.82,51.66C48.65,55.89,44.71,60.43,42,65.58a25.71,25.71,0,0,0-2.57,16.47A55.47,55.47,0,0,0,45.8,98.11a48,48,0,0,0,26.58,21.81,45.5,45.5,0,0,0,17.47,2.28A35.2,35.2,0,0,0,106.42,117a37.91,37.91,0,0,0,12-12.35,47.07,47.07,0,0,0,5.94-16.19A68.58,68.58,0,0,0,125.13,71a102.37,102.37,0,0,0-2.82-17.35,30.53,30.53,0,0,0-7.68-14.85,27.75,27.75,0,0,0-14.87-7.62C88.31,29.21,75.89,32.83,66.43,40Zm-.22-.29A56.58,56.58,0,0,1,82,31.2a43.13,43.13,0,0,1,18-2.39,28.43,28.43,0,0,1,17,7.49c4.7,4.39,7.5,10.43,9,16.41,3,11.76,4.07,24.24,1.67,36.36a47.63,47.63,0,0,1-6.87,17.1,38.58,38.58,0,0,1-13.42,12.49,39.51,39.51,0,0,1-17.53,4.82A52.41,52.41,0,0,1,72,121a56.28,56.28,0,0,1-16.27-8A48.09,48.09,0,0,1,43.2,99.66a37.91,37.91,0,0,1-2.27-4,38.53,38.53,0,0,1-2-4.16,39.29,39.29,0,0,1-2.68-8.92A26,26,0,0,1,40,64.46,62.48,62.48,0,0,1,52.18,51C56.74,47.05,61.46,43.37,66.21,39.72Z"/><path class="cls-9" d="M119.06,105.22c1.16-5.92,2.67-11.78,4.28-17.59S126.7,76,127.26,70a21.34,21.34,0,0,0-.08-4.45,24.17,24.17,0,0,0-1.24-4.27c-1-2.83-2.87-5.18-4.48-7.78a34.59,34.59,0,0,1-2.13-4c-.63-1.38-1.12-2.85-1.73-4.18a33.36,33.36,0,0,0-4.85-7.49A35.38,35.38,0,0,0,98.49,27.24a17.2,17.2,0,0,0-8.77-1,22,22,0,0,0-4.27,1.33,19.39,19.39,0,0,0-3.92,2.15c-2.48,1.72-4,4.4-5.9,6.75a38.87,38.87,0,0,1-6.42,6.4,84.63,84.63,0,0,1-7.42,5.22,46.79,46.79,0,0,0-7,5.6A54.62,54.62,0,0,0,44.05,68a42.51,42.51,0,0,0-4.81,17.13,29.21,29.21,0,0,0,4.37,17,38.36,38.36,0,0,0,13,12.11A53.73,53.73,0,0,0,73,121.39a42.31,42.31,0,0,0,17.82.22c5.91-1.11,11.51-3.47,17-6,2.73-1.29,5.58-2.32,8.3-3.59,1.3-.69,2.78-1.33,3.61-2.56a1.45,1.45,0,0,0,.22-1,4.56,4.56,0,0,0-.4-1A3.42,3.42,0,0,1,119.06,105.22Zm.09,0a3.33,3.33,0,0,0,.47,2.14,4.88,4.88,0,0,1,.42,1.06,1.68,1.68,0,0,1-.22,1.14c-.87,1.3-2.34,1.94-3.65,2.66-2.73,1.31-5.55,2.38-8.26,3.7-5.46,2.55-11,5-17,6.22a43,43,0,0,1-18.11.06,52.53,52.53,0,0,1-16.69-7.16,39.37,39.37,0,0,1-13.22-12.42,30,30,0,0,1-4.46-17.51,41.81,41.81,0,0,1,5-17.41,55.28,55.28,0,0,1,11-14.43,48.27,48.27,0,0,1,7.15-5.59A83,83,0,0,0,69,42.56a39.05,39.05,0,0,0,6.43-6.29c1.89-2.31,3.38-5.07,5.92-6.86a20.11,20.11,0,0,1,4-2.23,21.63,21.63,0,0,1,4.35-1.39,17.56,17.56,0,0,1,9,1,35.85,35.85,0,0,1,14.6,10.62,34.06,34.06,0,0,1,5,7.61,65.94,65.94,0,0,0,3.81,8.15c1.53,2.53,3.44,5,4.43,7.94a25.11,25.11,0,0,1,1.23,4.42,21.91,21.91,0,0,1,0,4.58c-.66,6.06-2.54,11.84-4.16,17.64S120.38,99.33,119.15,105.24Z"/><path class="cls-4" d="M92.18,115.94C67.65,125.5,41,102.56,41.92,69.3s55.58-37,75.77-23.73S130.2,101.13,92.18,115.94Z"/><path class="cls-10" d="M108.7,88.47a13.94,13.94,0,0,0-2.25,3.33c-.36.8-1,2-.27,2.7s2.89-.49,3.63-1.22c.36-.34.73-.72,1.09-1.1a4.25,4.25,0,0,0,.87-1.39A9.75,9.75,0,0,0,112.2,87a11.78,11.78,0,0,0,0-2.52,7.45,7.45,0,0,0-1.28-2.38c-1.08-1.33-1.61.09-1.8,1.12a21.93,21.93,0,0,1-.66,3.6c-.11.27-.11.57-.21.83s-.3.33-.35.47a5.43,5.43,0,0,0,0,1.71Z"/><path class="cls-10" d="M113.73,76.88c-.14-.29-.81-1.16-.23-1.33a1.08,1.08,0,0,1,.84.28c.53.54.47,1.64.48,2.33s-.1.93-.6.42a2.88,2.88,0,0,1-.71-1.26Z"/><path class="cls-10" d="M102.8,93.72c-.44-.54-.65-.94-1.29-1.1-.35-.09-.79-.1-1.15-.17-1.4-.27-2.69.53-3.92,1.07s-2.3.84-3.44,1.28a7.46,7.46,0,0,0-3.32,2.82,25,25,0,0,0-2.42,4.85c-.36.94-.92,2.52-.61,3.55a2.51,2.51,0,0,0,2.4,1.71,19.13,19.13,0,0,0,3.3-.07c.58-.08,1.13-.3,1.71-.37s.94,0,1.41,0,.94-.19,1.43-.23a5.72,5.72,0,0,0,2.49-.87,14.06,14.06,0,0,0,2.09-1.78,7.72,7.72,0,0,0,2.29-2.57,6.26,6.26,0,0,0,.34-2.65,12.72,12.72,0,0,0,0-2.31,7.94,7.94,0,0,1-.2-1c0-.32,0-.65,0-1C103.84,94.36,103.4,94,102.8,93.72Z"/><path class="cls-10" d="M101.93,88.69c.41-.53,1.09-1.35,1.81-.73a1.35,1.35,0,0,1,.16,1.52c-.49.64-1.83-.06-2-.79Z"/><path class="cls-10" d="M68.58,65.89a50,50,0,0,0,3.93-3.54c1-1,2.12-1.83,3.14-2.79a6.61,6.61,0,0,0,2-3.31,7.55,7.55,0,0,0,0-3.41,3.7,3.7,0,0,0-1.12-2.29A3.23,3.23,0,0,0,74,50,7,7,0,0,0,70.66,51c-1.73,1-3.14,2.25-4.76,3.35s-2.21,2.38-1.58,3.27a6.94,6.94,0,0,0-1.91,2.42,11.92,11.92,0,0,0-1.16,4.79A4.11,4.11,0,0,0,62,67.91c1.16,1.26,3.73-.19,4.88-.91.48-.29.91-.64,1.36-1,.61-.46,1.34-1,2.16-.84a1.64,1.64,0,0,1,1.23,2.21c-.68,1.37-2.08.48-2.74-.36Z"/><path class="cls-10" d="M82.91,47.58c-.32.64-.6,1-.19,1.52a4.74,4.74,0,0,0,1.69,1.52A7.39,7.39,0,0,0,86.6,51a32,32,0,0,0,3.53,0c1,0,2.07,0,3.1,0a5,5,0,0,0,2.28-.25c1.26-.6,2-1.46,1.4-2.8-1.34-3.15-5.34-4-8.37-3.95a8.92,8.92,0,0,0-3.67.43C83.55,45.1,81.75,46.15,82.91,47.58Z"/><path class="cls-10" d="M100.4,53.92c.45-.82,1.13-1.41,2.07-.88a1.87,1.87,0,0,1,1,1.88,1.35,1.35,0,0,1-1.1.93c-.86.17-1.61-.71-2.18-1.27Z"/><path class="cls-10" d="M105,83.22a2.86,2.86,0,0,0-.66,2.09c0,.52-.16,1.54.43,1.83.39.19.68,0,.93-.2a2.08,2.08,0,0,0,.94-1,4,4,0,0,0,.33-2.2c-.2-1.21-1.25-.76-2-.1Z"/><path class="cls-10" d="M77,102.9c-.76.06-2.48-.17-3.06.63a2.11,2.11,0,0,0-.46,1.06,3.62,3.62,0,0,0,1.77,3.08c1.5,1.1,4,1.75,5.59.57a2.37,2.37,0,0,0,.19-3.71c-.89-.71-3.11-2.18-4.25-1.41Z"/><path class="cls-10" d="M82.47,100.93c.73.92.87,1.08,1.74.6.34-.19.58-.18.68-.59a1.92,1.92,0,0,0,0-.76,1.45,1.45,0,0,0-1.19-.34.91.91,0,0,0-1,.87Z"/><path class="cls-11" d="M89.82,35.66C78.54,37.15,67,38,56.21,41.48a32.44,32.44,0,0,0-7.54,3.58,13.14,13.14,0,0,0-5.16,6.09,12.61,12.61,0,0,0-.86,3.93,36.73,36.73,0,0,0-.2,4.19,28,28,0,0,0,1.22,8.2c1.61,5.35,5,10,8.24,14.68,1.65,2.33,3.27,4.7,4.83,7.09.78,1.19,1.52,2.44,2.38,3.55l1.24,1.7c.46.54,1,1,1.44,1.55a34.38,34.38,0,0,0,14.39,8.68,52.81,52.81,0,0,0,16.75,2.44,72.76,72.76,0,0,0,32.48-8.62c1.28-.61,2.46-1.37,3.7-2s2.32-1.53,3.48-2.31c2.13-1.7,4.06-3.74,4.54-6.22s-.43-5.18-1.38-7.82-2-5.35-2.85-8.13c-1.65-5.62-2-11.38-3.14-16.9a38.08,38.08,0,0,0-2.39-8,15.93,15.93,0,0,0-1-1.83,8.94,8.94,0,0,0-1.11-1.73c-.42-.54-.81-1.11-1.27-1.62l-1.51-1.41a8.84,8.84,0,0,0-1.67-1.22,16.8,16.8,0,0,0-1.77-1.09l-1.92-.84-1-.42-1-.29a39.74,39.74,0,0,0-8.33-1.55c-1.41-.09-2.83-.18-4.26-.23L98.34,35C95.5,35.05,92.66,35.45,89.82,35.66Zm0-.18a99.83,99.83,0,0,1,17.11-.86,39.75,39.75,0,0,1,8.52,1.25l1.06.25,1,.4,2,.79a19.08,19.08,0,0,1,1.92,1.07,9.24,9.24,0,0,1,1.82,1.23L125,41c.51.53,1,1.12,1.44,1.69a9.83,9.83,0,0,1,1.27,1.81,18.32,18.32,0,0,1,1.07,1.94,39.83,39.83,0,0,1,2.72,8.29c1.29,5.64,1.6,11.38,3.24,16.72.82,2.68,1.83,5.31,2.84,8s2.1,5.62,1.45,8.83-3,5.51-5.31,7.3c-1.22.8-2.41,1.68-3.67,2.38s-2.52,1.45-3.82,2.06a72.49,72.49,0,0,1-33.27,8.08A56.63,56.63,0,0,1,76,105.33a37.22,37.22,0,0,1-14.64-8.85c-.49-.52-1-1-1.49-1.57l-1.3-1.73c-.9-1.15-1.62-2.36-2.44-3.53q-2.44-3.5-5-6.91c-3.35-4.57-7-9.18-8.85-14.81a29.56,29.56,0,0,1-1.38-8.64A39.63,39.63,0,0,1,41,54.93a13.31,13.31,0,0,1,1-4.38,13.52,13.52,0,0,1,2.41-3.81,18.28,18.28,0,0,1,3.42-2.87,30.44,30.44,0,0,1,8-3.48,103.08,103.08,0,0,1,16.91-3Z"/><path class="cls-10" d="M138.88,94.48c-.41.18-.71.24-.94.56a1.51,1.51,0,0,0-.28.84,1.1,1.1,0,0,0,.21.86,2.23,2.23,0,0,0,1,.38A3.93,3.93,0,0,0,143.74,94a.84.84,0,0,0-.16-.76,2.46,2.46,0,0,1-.56-1.13c-.09-1.2,1-2.46.56-3.64-.22-.68-.48-1.34-1.26-1.15a3.91,3.91,0,0,0-2,1.7,5.81,5.81,0,0,0-.8,1.64,15.54,15.54,0,0,1-.43,1.52c-.17.46-.35.89-.54,1.34C138.23,94.27,138,94.86,138.88,94.48Z"/><path class="cls-10" d="M141.39,84.86c-.1-.3-.33-1.14.24-1.11s.74.73.83,1.12c.16.69-1,.69-1,.21Z"/><path class="cls-10" d="M141.6,102.27a7.32,7.32,0,0,1,1.55.07,1.11,1.11,0,0,0,.07.43,2.39,2.39,0,0,1-.14,1.18,2.92,2.92,0,0,1-1.25,1.58A2.49,2.49,0,0,1,139,105c-.63-.52-1.23-1.49-.46-2.19a5.33,5.33,0,0,1,1.94-1c.33-.1,1.14-.42,1.45-.1Z"/><path class="cls-10" d="M36.88,53.05c-.5.24-.81.25-1,.75a7.52,7.52,0,0,0-.35,2.31,6.74,6.74,0,0,0,1,3.72c.1.16.33.5.55.54s.69-.36.88-.54a8.32,8.32,0,0,0,1.71-2.07,3.8,3.8,0,0,0,.41-2.54c-.09-.58-.25-1.14-.34-1.71a3.89,3.89,0,0,0-.3-1.11c-.21-.45-.48-1-1.05-.87A4.14,4.14,0,0,0,37,52.3C36.46,52.71,36.21,53.3,36.88,53.05Z"/><path class="cls-10" d="M36.56,64.42a1.17,1.17,0,0,1-.1-.55.89.89,0,0,1,1,0c.33.18.64.59.42,1a.82.82,0,0,1-.93.42c-.4-.16-.84-.54-.76-1Z"/><path class="cls-10" d="M33.5,75.35c-.17.35-.44,1,0,1.33a.64.64,0,0,0,.45.11c.18-.05.21-.18.32-.32A2.48,2.48,0,0,0,35,75c0-.36-.16-1.27-.71-1.14s-.8,1.52-.82,2Z"/><path class="cls-10" d="M39.51,103.23a6.15,6.15,0,0,0,1.29,1.46c.24.22.7.69,1.1.5s.36-.82.33-1.08a3.38,3.38,0,0,0-.64-1.32,1.6,1.6,0,0,0-1.54-.6c-.35.14-.55.3-.54.71Z"/><path class="cls-10" d="M46.5,98.63a9.87,9.87,0,0,0,3.06,3.51c.24.16.61.37.86.11s-.05-.89-.2-1.21a26.89,26.89,0,0,0-1.84-3.21,11.8,11.8,0,0,1-1-1.66c-.27-.61-.66-1.19-1-1.8s-.57-1.05-.85-1.58c-.1-.19-.36-.62-.6-.7s-.54.25-.63.47A2.75,2.75,0,0,0,44.28,94a8.49,8.49,0,0,0,.53,1.64,12.84,12.84,0,0,0,.68,1.68,16.78,16.78,0,0,0,1,1.62c.26.33.5.72.79,1s.73.61,1.08.93Z"/><path class="cls-10" d="M115.15,114.7c.52-.1,1.35-.51,1.69.11a1.43,1.43,0,0,1,0,1.32c-.33.88-.91,1.75-2,1.75-.71,0-1.78-.32-1.78-1.18a1.35,1.35,0,0,1,.76-1.13,4.86,4.86,0,0,1,1.65-.76Z"/><path class="cls-12" d="M152.94,91.44c-3.33,12.26-12.87,20.34-21.31,18S119,95.4,122.37,83.14s12.86-20.34,21.31-18S156.27,79.18,152.94,91.44Z"/></g></g></g></svg>