<svg xmlns="http://www.w3.org/2000/svg" viewBox="0 0 274.1 140.47"><defs><style>.cls-1{fill:#0e0f15;}.cls-2,.cls-3{fill:#ee4c23;}.cls-3{fill-rule:evenodd;}.cls-4{fill:#f8f8f8;}.cls-5{fill:#fff;}</style></defs><title>jobTitle</title><g id="Warstwa_2" data-name="Warstwa 2"><g id="Warstwa_1-2" data-name="Warstwa 1"><rect class="cls-1" x="21.56" y="25.6" width="228.98" height="88.69"/><path class="cls-2" d="M251,114.64l-229.78.08,0-89.48,229.78-.08Zm-229-.71,228.18-.08,0-87.89L22,26Z"/><polygon class="cls-3" points="77.35 25.22 84.5 29.31 137.95 29.29 146.11 25.61 77.35 25.22"/><polygon class="cls-3" points="21.67 104.29 31.19 114.32 21.58 114.33 21.67 104.29"/><path class="cls-2" d="M39.48,67.68a.87.87,0,0,1-.84-.35.85.85,0,0,1-.08-.8.71.71,0,0,1,.7-.44,4.14,4.14,0,0,0,2.81-1A3.91,3.91,0,0,0,43,62.21V47c0-.68.31-1,1-1s1,.34,1,1V62.09a5.51,5.51,0,0,1-1.44,4.2A5.79,5.79,0,0,1,39.48,67.68ZM44,42.24c-.93,0-1.4-.45-1.4-1.34S43,39.6,44,39.6s1.39.43,1.39,1.3S44.88,42.24,44,42.24Z"/><path class="cls-2" d="M56.15,61.86a7,7,0,0,1-3.75-1,6.37,6.37,0,0,1-2.46-2.76,9.64,9.64,0,0,1-.87-4.24,9.42,9.42,0,0,1,.87-4.21A6.59,6.59,0,0,1,52.4,46.9a7.7,7.7,0,0,1,7.52,0,6.62,6.62,0,0,1,2.47,2.78,9.53,9.53,0,0,1,.87,4.21,9.64,9.64,0,0,1-.87,4.24,6.48,6.48,0,0,1-2.46,2.76A7.09,7.09,0,0,1,56.15,61.86Zm0-1.62a4.64,4.64,0,0,0,3.75-1.67,7.08,7.08,0,0,0,1.39-4.68,7,7,0,0,0-1.4-4.67,5.06,5.06,0,0,0-7.48,0A7.09,7.09,0,0,0,51,53.89a7.19,7.19,0,0,0,1.39,4.68A4.59,4.59,0,0,0,56.15,60.24Z"/><path class="cls-2" d="M74.73,61.85A6.31,6.31,0,0,1,71.44,61a5.27,5.27,0,0,1-2.11-2.3v2.1a.86.86,0,0,1-1,1,.87.87,0,0,1-1-1V40a.86.86,0,0,1,1-1,.86.86,0,0,1,.95,1v9.06a5.18,5.18,0,0,1,2.11-2.31,6.82,6.82,0,0,1,8.26,1.32,8.64,8.64,0,0,1,1.85,5.81,9.78,9.78,0,0,1-.84,4.24,6.27,6.27,0,0,1-2.38,2.76A6.55,6.55,0,0,1,74.73,61.85Zm-.29-1.62a4.61,4.61,0,0,0,3.75-1.67,7.08,7.08,0,0,0,1.4-4.68,7.09,7.09,0,0,0-1.4-4.67,5.09,5.09,0,0,0-7.5,0,7,7,0,0,0-1.39,4.67,7.11,7.11,0,0,0,1.39,4.69A4.66,4.66,0,0,0,74.44,60.23Z"/><path class="cls-4" d="M103.15,61.84a9.88,9.88,0,0,1-5.32-1.39,9.27,9.27,0,0,1-3.46-4,14,14,0,0,1-1.22-6.1,14.19,14.19,0,0,1,1.2-6.1,9,9,0,0,1,3.46-4,11,11,0,0,1,10.69,0A9.25,9.25,0,0,1,112,44.26a14.06,14.06,0,0,1,1.23,6.08A14.08,14.08,0,0,1,112,56.47a9.11,9.11,0,0,1-3.47,4A9.84,9.84,0,0,1,103.15,61.84Zm0-1.78A7.19,7.19,0,0,0,109,57.52q2.09-2.54,2.09-7.14T109,43.25a8.06,8.06,0,0,0-11.75,0q-2.08,2.53-2.08,7.11t2.08,7.13A7.11,7.11,0,0,0,103.15,60.06Z"/><path class="cls-4" d="M125.1,61.83a6.22,6.22,0,0,1-3.29-.83,5.29,5.29,0,0,1-2.11-2.31v2.1a.85.85,0,0,1-1,1,.87.87,0,0,1-1-1V40a.88.88,0,0,1,1-1c.63,0,1,.33,1,1v9a5.16,5.16,0,0,1,2.11-2.3,6.78,6.78,0,0,1,8.25,1.31,8.61,8.61,0,0,1,1.86,5.81,9.9,9.9,0,0,1-.84,4.24,6.35,6.35,0,0,1-2.38,2.77A6.66,6.66,0,0,1,125.1,61.83Zm-.29-1.61a4.64,4.64,0,0,0,3.75-1.67,7.11,7.11,0,0,0,1.4-4.69,7.09,7.09,0,0,0-1.4-4.67,5.08,5.08,0,0,0-7.5,0,7,7,0,0,0-1.39,4.67,7.08,7.08,0,0,0,1.39,4.68A4.67,4.67,0,0,0,124.81,60.22Z"/><path class="cls-4" d="M132.63,67.65a.87.87,0,0,1-.84-.35.85.85,0,0,1-.08-.8.7.7,0,0,1,.69-.44,4.15,4.15,0,0,0,2.81-1,3.9,3.9,0,0,0,.94-2.91V47c0-.68.31-1,.95-1s1,.34,1,1V62.05a5.48,5.48,0,0,1-1.45,4.21A5.79,5.79,0,0,1,132.63,67.65ZM137.1,42.2c-.93,0-1.4-.44-1.4-1.33s.46-1.3,1.4-1.3,1.39.43,1.39,1.3S138,42.2,137.1,42.2Z"/><path class="cls-4" d="M149.87,61.83a7.46,7.46,0,0,1-5.61-2.11,8,8,0,0,1-2-5.8,9.17,9.17,0,0,1,.92-4.19,7,7,0,0,1,2.56-2.83,7,7,0,0,1,3.76-1,6,6,0,0,1,4.8,2,8.27,8.27,0,0,1,1.72,5.5.79.79,0,0,1-.89.89h-11a6.44,6.44,0,0,0,1.57,4.4,5.44,5.44,0,0,0,4.12,1.54,8.57,8.57,0,0,0,2.27-.3,6.52,6.52,0,0,0,2.14-1.1,1,1,0,0,1,1-.18.82.82,0,0,1,.46.67.93.93,0,0,1-.5.84,7,7,0,0,1-2.46,1.26A10.15,10.15,0,0,1,149.87,61.83Zm-.39-14.39A4.78,4.78,0,0,0,145.72,49a6.59,6.59,0,0,0-1.57,3.89h10.07a6.27,6.27,0,0,0-1.27-4A4.3,4.3,0,0,0,149.48,47.44Z"/><path class="cls-4" d="M166.2,61.82a7.2,7.2,0,0,1-3.88-1A6.52,6.52,0,0,1,159.83,58a9.62,9.62,0,0,1-.88-4.24A8.26,8.26,0,0,1,160.87,48a6.81,6.81,0,0,1,5.32-2.11,7.94,7.94,0,0,1,2.43.41,6.3,6.3,0,0,1,2.24,1.3.74.74,0,0,1,.32.76.9.9,0,0,1-.5.65.77.77,0,0,1-.87-.17,5.11,5.11,0,0,0-1.81-1,6.22,6.22,0,0,0-1.75-.27,4.91,4.91,0,0,0-3.95,1.62,6.91,6.91,0,0,0-1.38,4.61,7.21,7.21,0,0,0,1.38,4.68,4.82,4.82,0,0,0,4,1.7A6.15,6.15,0,0,0,168,59.9a5,5,0,0,0,1.81-1,.8.8,0,0,1,.88-.18.9.9,0,0,1,.44.65.77.77,0,0,1-.3.77,6.05,6.05,0,0,1-2.22,1.28A7.75,7.75,0,0,1,166.2,61.82Z"/><path class="cls-4" d="M180.3,61.82a5,5,0,0,1-3.86-1.4,5.68,5.68,0,0,1-1.29-4v-8.7H172.8c-.62,0-.92-.27-.93-.8s.31-.76.92-.76h2.36v-4a.87.87,0,0,1,1-1,.85.85,0,0,1,1,1v4h4.29c.59,0,.89.25.89.76s-.3.79-.89.79h-4.29v8.44a4.73,4.73,0,0,0,.79,3,3.17,3.17,0,0,0,2.64,1,3.46,3.46,0,0,0,1-.14,2.08,2.08,0,0,1,.73-.14c.38,0,.57.26.57.79a1.21,1.21,0,0,1-.11.49.68.68,0,0,1-.4.34,6.31,6.31,0,0,1-1,.23A5.85,5.85,0,0,1,180.3,61.82Z"/><path class="cls-5" d="M42.7,77.57a2,2,0,0,1-1-.26,1.75,1.75,0,0,1-.66-.76,2.51,2.51,0,0,1-.24-1.13,2.16,2.16,0,0,1,.52-1.54,1.8,1.8,0,0,1,1.42-.57,2.22,2.22,0,0,1,.65.11,1.82,1.82,0,0,1,.6.35A.19.19,0,0,1,44,74a.27.27,0,0,1-.13.18.21.21,0,0,1-.23-.05,1.4,1.4,0,0,0-.49-.27,2,2,0,0,0-.47-.07,1.3,1.3,0,0,0-1.05.44,1.79,1.79,0,0,0-.37,1.23,1.9,1.9,0,0,0,.37,1.25,1.3,1.3,0,0,0,1.06.45,1.56,1.56,0,0,0,.46-.07,1.4,1.4,0,0,0,.49-.27.19.19,0,0,1,.23,0,.25.25,0,0,1,.12.17.2.2,0,0,1-.08.2,1.58,1.58,0,0,1-.6.35A2.08,2.08,0,0,1,42.7,77.57Z"/><path class="cls-5" d="M46.47,77.57a1.8,1.8,0,0,1-1-.26,1.62,1.62,0,0,1-.66-.73,2.52,2.52,0,0,1-.23-1.14,2.34,2.34,0,0,1,.23-1.12,1.76,1.76,0,0,1,.65-.75,2.09,2.09,0,0,1,2,0,1.86,1.86,0,0,1,.66.75,2.87,2.87,0,0,1,0,2.25,1.76,1.76,0,0,1-.66.74A1.83,1.83,0,0,1,46.47,77.57Zm0-.43a1.23,1.23,0,0,0,1-.45,2.3,2.3,0,0,0,0-2.5,1.36,1.36,0,0,0-2,0,2.3,2.3,0,0,0,0,2.5A1.23,1.23,0,0,0,46.47,77.14Z"/><path class="cls-5" d="M51.11,77.57a1.91,1.91,0,0,1-1-.26,1.76,1.76,0,0,1-.66-.74,2.87,2.87,0,0,1,0-2.25,1.86,1.86,0,0,1,.66-.75,2.07,2.07,0,0,1,2,0,1.76,1.76,0,0,1,.66.74A2.51,2.51,0,0,1,53,75.44a2.48,2.48,0,0,1-.23,1.13,1.64,1.64,0,0,1-.66.74A1.92,1.92,0,0,1,51.11,77.57Zm0-.43a1.22,1.22,0,0,0,1-.45,2.25,2.25,0,0,0,0-2.5,1.36,1.36,0,0,0-2,0,1.94,1.94,0,0,0-.36,1.25,1.88,1.88,0,0,0,.37,1.25A1.2,1.2,0,0,0,51.11,77.14Z"/><path class="cls-5" d="M54.38,77.55a.23.23,0,0,1-.26-.26V73.6c0-.18.08-.27.26-.27s.25.09.25.27v.53a1.36,1.36,0,0,1,.55-.61A1.72,1.72,0,0,1,56,73.3a.25.25,0,0,1,.17,0,.21.21,0,0,1,.06.16.23.23,0,0,1-.24.27h-.12a1.48,1.48,0,0,0-.94.4,1.28,1.28,0,0,0-.33.92v2.2A.23.23,0,0,1,54.38,77.55Z"/><path class="cls-5" d="M58.54,77.57a1.8,1.8,0,0,1-1-.26,1.7,1.7,0,0,1-.63-.74,2.65,2.65,0,0,1-.22-1.13,2.28,2.28,0,0,1,.49-1.56,1.83,1.83,0,0,1,2.2-.35,1.4,1.4,0,0,1,.56.62V71.73a.26.26,0,1,1,.52,0v5.56c0,.17-.08.26-.25.26a.23.23,0,0,1-.26-.26v-.56a1.46,1.46,0,0,1-.57.61A1.66,1.66,0,0,1,58.54,77.57Zm.07-.44a1.22,1.22,0,0,0,1-.44A1.9,1.9,0,0,0,60,75.44a1.87,1.87,0,0,0-.37-1.25,1.22,1.22,0,0,0-1-.44,1.25,1.25,0,0,0-1,.44,1.87,1.87,0,0,0-.37,1.25,1.94,1.94,0,0,0,.37,1.25A1.22,1.22,0,0,0,58.61,77.13Z"/><path class="cls-5" d="M62.11,72.32a.32.32,0,0,1-.37-.36c0-.23.12-.34.37-.34s.38.11.38.34S62.36,72.32,62.11,72.32Zm0,5.21c-.18,0-.27-.09-.27-.28V73.62a.26.26,0,1,1,.52,0v3.63C62.37,77.44,62.29,77.53,62.12,77.53Z"/><path class="cls-5" d="M64,77.55a.23.23,0,0,1-.26-.26v-3.7c0-.18.08-.27.26-.27s.25.09.25.27v.53a1.32,1.32,0,0,1,.58-.61,1.76,1.76,0,0,1,.85-.21c1,0,1.47.53,1.47,1.6v2.39a.26.26,0,0,1-.52,0V74.94a1.33,1.33,0,0,0-.25-.9,1,1,0,0,0-.78-.29,1.33,1.33,0,0,0-1,.38,1.42,1.42,0,0,0-.37,1v2.14C64.25,77.46,64.17,77.55,64,77.55Z"/><path class="cls-5" d="M69.76,77.56A1.64,1.64,0,0,1,69,77.4,1.24,1.24,0,0,1,68.5,77a1.12,1.12,0,0,1-.19-.63,1,1,0,0,1,.23-.71,1.3,1.3,0,0,1,.77-.37,7.46,7.46,0,0,1,1.5-.11h.26v-.31a1.25,1.25,0,0,0-.23-.83.92.92,0,0,0-.73-.26,2.28,2.28,0,0,0-.63.09,2.78,2.78,0,0,0-.63.27c-.11.06-.19.06-.25,0a.29.29,0,0,1-.08-.22.23.23,0,0,1,.14-.2,2.79,2.79,0,0,1,.72-.29,2.66,2.66,0,0,1,.72-.1,1.48,1.48,0,0,1,1.11.38,1.68,1.68,0,0,1,.36,1.18v2.42q0,.27-.24.27c-.16,0-.25-.09-.25-.27v-.52a1.28,1.28,0,0,1-.51.59A1.53,1.53,0,0,1,69.76,77.56Zm.07-.41a1.12,1.12,0,0,0,.64-.18,1.14,1.14,0,0,0,.44-.48,1.41,1.41,0,0,0,.16-.69v-.28h-.25a7.55,7.55,0,0,0-1.2.07,1.05,1.05,0,0,0-.59.23.62.62,0,0,0-.17.47.77.77,0,0,0,.26.62A1,1,0,0,0,69.83,77.15Z"/><path class="cls-5" d="M74.48,77.56a1.35,1.35,0,0,1-1-.37,1.53,1.53,0,0,1-.34-1.07V73.79h-.63q-.24,0-.24-.21c0-.13.08-.2.24-.2h.63V72.32a.26.26,0,1,1,.52,0v1.06h1.14c.16,0,.24.06.24.2s-.08.21-.24.21H73.62v2.26a1.26,1.26,0,0,0,.21.79.85.85,0,0,0,.71.27.79.79,0,0,0,.28,0L75,77q.15,0,.15.21a.31.31,0,0,1,0,.13.18.18,0,0,1-.1.09l-.26.06Z"/><path class="cls-5" d="M77.52,77.56A2,2,0,0,1,76,77a2.13,2.13,0,0,1-.55-1.55,2.46,2.46,0,0,1,.24-1.12,1.89,1.89,0,0,1,.69-.76,1.85,1.85,0,0,1,1-.27,1.64,1.64,0,0,1,1.29.53,2.23,2.23,0,0,1,.45,1.47c0,.16-.07.24-.23.24H76a1.77,1.77,0,0,0,.42,1.18,1.46,1.46,0,0,0,1.1.41,2.49,2.49,0,0,0,.61-.08,1.75,1.75,0,0,0,.57-.3.26.26,0,0,1,.26,0,.18.18,0,0,1,.12.18c0,.08,0,.15-.13.22a1.91,1.91,0,0,1-.65.34A3,3,0,0,1,77.52,77.56Zm-.11-3.84a1.26,1.26,0,0,0-1,.4,1.78,1.78,0,0,0-.42,1h2.69a1.68,1.68,0,0,0-.34-1.06A1.12,1.12,0,0,0,77.41,73.72Z"/><path class="cls-5" d="M81.54,77.56a2.78,2.78,0,0,1-.76-.1,2.4,2.4,0,0,1-.72-.35.19.19,0,0,1-.1-.19.26.26,0,0,1,.1-.19c.06,0,.13,0,.22,0a2.5,2.5,0,0,0,.65.3,2.28,2.28,0,0,0,.63.09,1.33,1.33,0,0,0,.79-.2.6.6,0,0,0,.27-.53.51.51,0,0,0-.18-.41,1.4,1.4,0,0,0-.56-.25l-.74-.17c-.7-.16-1-.51-1-1.08a1.06,1.06,0,0,1,.43-.87,1.78,1.78,0,0,1,1.12-.33,2.15,2.15,0,0,1,.71.11,1.62,1.62,0,0,1,.6.34A.2.2,0,0,1,83,74a.25.25,0,0,1-.11.18.2.2,0,0,1-.23,0,1.65,1.65,0,0,0-.52-.28,1.71,1.71,0,0,0-.55-.09,1.27,1.27,0,0,0-.76.2.67.67,0,0,0-.27.56.57.57,0,0,0,.17.42,1.05,1.05,0,0,0,.52.25l.74.17a1.78,1.78,0,0,1,.83.38.86.86,0,0,1,.27.67,1,1,0,0,1-.44.87A1.89,1.89,0,0,1,81.54,77.56Z"/><path class="cls-5" d="M84.51,74.13a.38.38,0,0,1-.39-.39.4.4,0,0,1,.11-.29.39.39,0,0,1,.28-.11.38.38,0,0,1,.28.11.36.36,0,0,1,.11.29.36.36,0,0,1-.11.28A.38.38,0,0,1,84.51,74.13Zm0,3.39a.39.39,0,0,1-.28-.11.41.41,0,0,1-.11-.28.38.38,0,0,1,.11-.28.36.36,0,0,1,.28-.11.38.38,0,0,1,.29.11.37.37,0,0,1,.1.28.4.4,0,0,1-.1.28A.42.42,0,0,1,84.51,77.52Z"/><path class="cls-5" d="M90.22,77.56a1.67,1.67,0,0,1-.88-.23,1.4,1.4,0,0,1-.57-.61v.56c0,.17-.08.26-.25.26a.24.24,0,0,1-.27-.26V71.72a.24.24,0,0,1,.27-.27c.17,0,.25.09.25.27v2.42a1.42,1.42,0,0,1,.57-.62,1.79,1.79,0,0,1,2.2.35,2.31,2.31,0,0,1,.5,1.55,2.67,2.67,0,0,1-.22,1.14,1.72,1.72,0,0,1-.64.74A1.82,1.82,0,0,1,90.22,77.56Zm-.08-.44a1.22,1.22,0,0,0,1-.44,1.91,1.91,0,0,0,.37-1.26,1.85,1.85,0,0,0-.37-1.24,1.36,1.36,0,0,0-2,0,1.87,1.87,0,0,0-.38,1.25,1.9,1.9,0,0,0,.38,1.25A1.22,1.22,0,0,0,90.14,77.12Z"/><path class="cls-5" d="M94.93,77.56a2,2,0,0,1-1.5-.57,2.1,2.1,0,0,1-.55-1.55,2.37,2.37,0,0,1,.25-1.12,1.83,1.83,0,0,1,.68-.75,1.81,1.81,0,0,1,1-.28,1.59,1.59,0,0,1,1.28.54,2.19,2.19,0,0,1,.46,1.47c0,.16-.08.23-.24.23H93.39a1.74,1.74,0,0,0,.42,1.17,1.43,1.43,0,0,0,1.1.41,2.09,2.09,0,0,0,.61-.08,1.71,1.71,0,0,0,.57-.29.27.27,0,0,1,.26,0,.22.22,0,0,1,.13.18.27.27,0,0,1-.13.23,2.15,2.15,0,0,1-.66.33A2.56,2.56,0,0,1,94.93,77.56Zm-.11-3.85a1.26,1.26,0,0,0-1,.4,1.78,1.78,0,0,0-.42,1h2.69a1.7,1.7,0,0,0-.34-1.06A1.15,1.15,0,0,0,94.82,73.71Z"/><path class="cls-5" d="M99.16,77.55a1.34,1.34,0,0,1-1-.37,1.51,1.51,0,0,1-.34-1.07V73.79h-.63c-.16,0-.25-.08-.25-.22s.09-.2.25-.2h.63V72.31c0-.18.08-.27.26-.27s.25.09.25.27v1.06h1.15c.16,0,.24.07.24.2s-.08.22-.24.22H98.3V76a1.26,1.26,0,0,0,.21.79.83.83,0,0,0,.7.27,1,1,0,0,0,.28,0,.54.54,0,0,1,.2,0q.15,0,.15.21a.31.31,0,0,1,0,.13.17.17,0,0,1-.11.09l-.25.06Z"/><path class="cls-5" d="M101.73,77.55a1.58,1.58,0,0,1-.74-.16,1.25,1.25,0,0,1-.52-.44,1.09,1.09,0,0,1-.19-.63,1,1,0,0,1,.23-.72,1.35,1.35,0,0,1,.77-.36,8,8,0,0,1,1.49-.12H103v-.3a1.25,1.25,0,0,0-.22-.83,1,1,0,0,0-.73-.26,2.18,2.18,0,0,0-.63.09,2.31,2.31,0,0,0-.64.27q-.15.09-.24,0a.26.26,0,0,1-.09-.21.24.24,0,0,1,.14-.2,3.1,3.1,0,0,1,.72-.29,2.67,2.67,0,0,1,.73-.1,1.47,1.47,0,0,1,1.1.38,1.63,1.63,0,0,1,.37,1.17v2.43q0,.27-.24.27a.24.24,0,0,1-.26-.27v-.52a1.28,1.28,0,0,1-.51.59A1.52,1.52,0,0,1,101.73,77.55Zm.07-.41a1.17,1.17,0,0,0,.64-.18,1.12,1.12,0,0,0,.43-.48,1.41,1.41,0,0,0,.17-.69v-.28h-.26a7.33,7.33,0,0,0-1.19.07,1.06,1.06,0,0,0-.6.23.66.66,0,0,0-.17.47.82.82,0,0,0,.26.62A1,1,0,0,0,101.8,77.14Z"/><path class="cls-2" d="M107.65,77.48a.21.21,0,0,1-.24-.23c0-.15.08-.22.24-.22h1.18v-4.9l-.93.63a.2.2,0,0,1-.25,0,.27.27,0,0,1-.13-.19.24.24,0,0,1,.13-.23l1.17-.81.16-.08.15,0a.25.25,0,0,1,.16.06.21.21,0,0,1,.06.17V77h1.1a.23.23,0,1,1,0,.46Z"/><path class="cls-2" d="M113.94,77.55a3.48,3.48,0,0,1-1-.15,2.48,2.48,0,0,1-.85-.46.27.27,0,0,1-.13-.23.28.28,0,0,1,.12-.21.23.23,0,0,1,.26,0,3,3,0,0,0,.78.4,2.82,2.82,0,0,0,.83.12,1.57,1.57,0,0,0,1-.31,1.14,1.14,0,0,0,.36-.91A1,1,0,0,0,115,75a1.71,1.71,0,0,0-1.09-.3h-.63c-.17,0-.26-.08-.26-.23s.09-.23.26-.23h.59a1.4,1.4,0,0,0,1-.33,1.19,1.19,0,0,0,.36-.92,1,1,0,0,0-.33-.78,1.44,1.44,0,0,0-.94-.28,2.21,2.21,0,0,0-.78.14,1.9,1.9,0,0,0-.7.42.21.21,0,0,1-.25.05.25.25,0,0,1-.13-.19.29.29,0,0,1,.13-.25,2,2,0,0,1,.79-.48,2.83,2.83,0,0,1,1-.16,2,2,0,0,1,1.32.4,1.35,1.35,0,0,1,.48,1.11,1.49,1.49,0,0,1-.27.89,1.41,1.41,0,0,1-.71.56,1.48,1.48,0,0,1,.84.53,1.69,1.69,0,0,1-.22,2.18A2.09,2.09,0,0,1,113.94,77.55Z"/><path class="cls-2" d="M117.61,77.48a.28.28,0,0,1-.22-.07.26.26,0,0,1-.08-.19.43.43,0,0,1,.13-.27l2-2.15a3.62,3.62,0,0,0,.65-.91,1.91,1.91,0,0,0,.21-.86,1,1,0,0,0-.33-.84,1.44,1.44,0,0,0-1-.29,2.28,2.28,0,0,0-1.47.55c-.1.08-.18.09-.25,0a.25.25,0,0,1-.12-.2.24.24,0,0,1,.1-.23,2.6,2.6,0,0,1,.8-.47,2.87,2.87,0,0,1,1-.17,2,2,0,0,1,1.34.41,1.46,1.46,0,0,1,.47,1.16,2.29,2.29,0,0,1-.27,1.06,4.53,4.53,0,0,1-.8,1.1L118,77h2.88c.16,0,.25.07.25.22a.22.22,0,0,1-.25.24Z"/><path class="cls-2" d="M124.12,77.55a3.43,3.43,0,0,1-1-.16,2.3,2.3,0,0,1-.86-.46.24.24,0,0,1-.12-.23.27.27,0,0,1,.12-.2.24.24,0,0,1,.26,0,2.7,2.7,0,0,0,.77.4,2.57,2.57,0,0,0,.83.13,1.6,1.6,0,0,0,1.06-.32,1.12,1.12,0,0,0,.36-.9,1.06,1.06,0,0,0-.38-.88,1.71,1.71,0,0,0-1.09-.3h-.64c-.17,0-.25-.08-.25-.23s.08-.23.25-.23h.6a1.4,1.4,0,0,0,1-.33,1.19,1.19,0,0,0,.36-.92,1,1,0,0,0-.33-.79,1.46,1.46,0,0,0-.94-.27,2.11,2.11,0,0,0-1.48.55.21.21,0,0,1-.25.06.24.24,0,0,1-.13-.19.29.29,0,0,1,.12-.25,2.18,2.18,0,0,1,.79-.48,2.85,2.85,0,0,1,1-.17,2,2,0,0,1,1.32.4,1.41,1.41,0,0,1,.48,1.11,1.54,1.54,0,0,1-.27.9,1.47,1.47,0,0,1-.71.56,1.46,1.46,0,0,1,.84.52,1.69,1.69,0,0,1-.22,2.18A2.12,2.12,0,0,1,124.12,77.55Z"/><path class="cls-2" d="M127.05,77.79c0,.1-.08.15-.16.16a.28.28,0,0,1-.22-.06.19.19,0,0,1,0-.23l2-6.34c0-.1.09-.16.18-.17a.26.26,0,0,1,.21.06.21.21,0,0,1,0,.23Z"/><path class="cls-2" d="M130.08,77.48a.29.29,0,0,1-.22-.08.24.24,0,0,1-.07-.19.37.37,0,0,1,.12-.26l2-2.15a4.19,4.19,0,0,0,.66-.91,1.9,1.9,0,0,0,.2-.86,1,1,0,0,0-.33-.84,1.39,1.39,0,0,0-1-.29,2.22,2.22,0,0,0-1.47.55c-.1.07-.18.09-.25,0a.27.27,0,0,1-.12-.2.26.26,0,0,1,.1-.23,2.6,2.6,0,0,1,.8-.47,2.69,2.69,0,0,1,1-.18,2,2,0,0,1,1.34.41A1.5,1.5,0,0,1,133.3,73a2.4,2.4,0,0,1-.26,1.06,5.12,5.12,0,0,1-.81,1.1L130.47,77h2.88c.17,0,.25.07.25.22s-.08.23-.25.23Z"/><path class="cls-2" d="M136.59,77.54a3.41,3.41,0,0,1-1-.15,2.32,2.32,0,0,1-.85-.46.25.25,0,0,1,0-.43c.07,0,.16,0,.26,0a3,3,0,0,0,.78.4,2.81,2.81,0,0,0,.82.13,1.6,1.6,0,0,0,1.06-.32,1.14,1.14,0,0,0,.36-.91,1.06,1.06,0,0,0-.38-.88,1.71,1.71,0,0,0-1.09-.3h-.63c-.17,0-.26-.07-.26-.23s.09-.22.26-.22h.59a1.4,1.4,0,0,0,1-.33,1.17,1.17,0,0,0,.36-.91,1,1,0,0,0-.33-.79,1.46,1.46,0,0,0-.94-.28,2.21,2.21,0,0,0-.78.14,2,2,0,0,0-.7.42.21.21,0,0,1-.25.06.29.29,0,0,1-.13-.19.28.28,0,0,1,.12-.25,2.14,2.14,0,0,1,.8-.48,2.84,2.84,0,0,1,1-.17,2,2,0,0,1,1.32.4,1.36,1.36,0,0,1,.48,1.11,1.54,1.54,0,0,1-.27.9,1.45,1.45,0,0,1-.71.55,1.48,1.48,0,0,1,.84.53,1.69,1.69,0,0,1-.22,2.18A2.1,2.1,0,0,1,136.59,77.54Z"/><path class="cls-5" d="M143.69,77.54a1.91,1.91,0,0,1-1-.27,1.81,1.81,0,0,1-.67-.75,2.58,2.58,0,0,1-.23-1.14,2.22,2.22,0,0,1,.51-1.54,1.81,1.81,0,0,1,1.42-.56,1.89,1.89,0,0,1,.65.11,1.79,1.79,0,0,1,.6.34.2.2,0,0,1,.08.21.21.21,0,0,1-.13.17.2.2,0,0,1-.23,0,1.4,1.4,0,0,0-.49-.27,1.51,1.51,0,0,0-.46-.07,1.32,1.32,0,0,0-1.06.43,1.88,1.88,0,0,0-.37,1.23,2,2,0,0,0,.37,1.25,1.28,1.28,0,0,0,1.06.46,2.06,2.06,0,0,0,.47-.07,1.46,1.46,0,0,0,.48-.27c.09-.07.17-.09.23-.05a.21.21,0,0,1,.12.17.2.2,0,0,1-.08.21,1.52,1.52,0,0,1-.59.34A2.16,2.16,0,0,1,143.69,77.54Z"/><path class="cls-5" d="M147.61,77.54a2,2,0,0,1-1.49-.57,2.1,2.1,0,0,1-.55-1.55,2.52,2.52,0,0,1,.24-1.12,1.92,1.92,0,0,1,.69-.75,2,2,0,0,1,1-.28,1.61,1.61,0,0,1,1.29.54,2.23,2.23,0,0,1,.45,1.47c0,.16-.07.24-.23.24h-2.93a1.63,1.63,0,0,0,.42,1.17,1.43,1.43,0,0,0,1.1.41,2,2,0,0,0,.6-.08,1.66,1.66,0,0,0,.58-.29.27.27,0,0,1,.26,0,.21.21,0,0,1,.12.18.25.25,0,0,1-.13.23,1.86,1.86,0,0,1-.66.33A2.51,2.51,0,0,1,147.61,77.54Zm-.1-3.85a1.33,1.33,0,0,0-1,.4,1.78,1.78,0,0,0-.42,1h2.7a1.76,1.76,0,0,0-.34-1.06A1.18,1.18,0,0,0,147.51,73.69Z"/><path class="cls-5" d="M150.56,77.52a.23.23,0,0,1-.26-.26v-3.7a.24.24,0,0,1,.27-.27q.24,0,.24.27v.53a1.39,1.39,0,0,1,.59-.61,1.76,1.76,0,0,1,.85-.21c1,0,1.47.53,1.47,1.6v2.38a.26.26,0,1,1-.52,0V74.91a1.33,1.33,0,0,0-.25-.9,1,1,0,0,0-.78-.29,1.33,1.33,0,0,0-1,.38,1.42,1.42,0,0,0-.37,1v2.14C150.81,77.43,150.73,77.52,150.56,77.52Z"/><path class="cls-5" d="M156.6,77.53a1.34,1.34,0,0,1-1-.37,1.51,1.51,0,0,1-.34-1.07V73.77h-.63c-.16,0-.25-.08-.25-.22s.09-.2.25-.2h.63V72.29a.26.26,0,1,1,.52,0v1.06h1.14c.16,0,.24.07.24.2s-.08.21-.24.21h-1.14V76a1.26,1.26,0,0,0,.21.79.84.84,0,0,0,.7.27,1,1,0,0,0,.28,0,.54.54,0,0,1,.2,0q.15,0,.15.21a.31.31,0,0,1,0,.13.18.18,0,0,1-.1.09l-.26.06A1.6,1.6,0,0,1,156.6,77.53Z"/><path class="cls-5" d="M158.25,77.49a.39.39,0,1,1,0-.78.42.42,0,0,1,.29.11.44.44,0,0,1,0,.56A.42.42,0,0,1,158.25,77.49Z"/><path class="cls-5" d="M163.86,77.53a1.73,1.73,0,0,1-1.53-.78,5.26,5.26,0,0,1,0-4.56,1.73,1.73,0,0,1,1.53-.78,1.75,1.75,0,0,1,1.54.77,4.19,4.19,0,0,1,.52,2.29,4.13,4.13,0,0,1-.53,2.28A1.73,1.73,0,0,1,163.86,77.53Zm0-.47a1.24,1.24,0,0,0,1.15-.63,5.4,5.4,0,0,0,0-3.93,1.23,1.23,0,0,0-1.15-.62,1.25,1.25,0,0,0-1.15.63,4,4,0,0,0-.37,2,4,4,0,0,0,.38,2A1.24,1.24,0,0,0,163.86,77.06Z"/><path class="cls-5" d="M168.91,77.53a3.48,3.48,0,0,1-1-.15,2.32,2.32,0,0,1-.85-.46.29.29,0,0,1-.13-.23.25.25,0,0,1,.12-.2c.07,0,.16,0,.26,0a3.21,3.21,0,0,0,.78.4,2.82,2.82,0,0,0,.83.12,1.57,1.57,0,0,0,1.05-.31,1.14,1.14,0,0,0,.36-.91A1.07,1.07,0,0,0,170,75a1.76,1.76,0,0,0-1.1-.3h-.63c-.17,0-.26-.07-.26-.23s.09-.23.26-.23h.59a1.4,1.4,0,0,0,1-.33,1.19,1.19,0,0,0,.36-.92,1,1,0,0,0-.33-.78,1.44,1.44,0,0,0-.94-.28,2.21,2.21,0,0,0-.78.14,1.9,1.9,0,0,0-.7.42q-.14.12-.24.06a.27.27,0,0,1-.14-.2.29.29,0,0,1,.13-.25,2.1,2.1,0,0,1,.79-.48,2.85,2.85,0,0,1,1-.16,2,2,0,0,1,1.31.4,1.35,1.35,0,0,1,.48,1.11,1.49,1.49,0,0,1-.27.89,1.41,1.41,0,0,1-.71.56,1.48,1.48,0,0,1,.84.53,1.69,1.69,0,0,1-.22,2.18A2.09,2.09,0,0,1,168.91,77.53Z"/><path class="cls-5" d="M172.44,77.49a.38.38,0,0,1-.28-.11.37.37,0,0,1-.11-.28.34.34,0,0,1,.11-.28.35.35,0,0,1,.28-.12.38.38,0,0,1,.28.11.41.41,0,0,1,.11.28.42.42,0,0,1-.11.29A.38.38,0,0,1,172.44,77.49Z"/><path class="cls-5" d="M174.3,77.49a.38.38,0,0,1-.39-.4.37.37,0,0,1,.11-.28.41.41,0,0,1,.56,0,.41.41,0,0,1,.11.28.42.42,0,0,1-.11.29A.38.38,0,0,1,174.3,77.49Z"/><path class="cls-5" d="M176.16,77.48a.38.38,0,0,1-.39-.39.37.37,0,0,1,.11-.28.41.41,0,0,1,.56,0,.41.41,0,0,1,.11.28.38.38,0,0,1-.11.28A.34.34,0,0,1,176.16,77.48Z"/><path class="cls-5" d="M41,101c-.21,0-.35-.06-.41-.19a.54.54,0,0,1,0-.49L45,90.05a.61.61,0,0,1,1.17,0l4.46,10.24a.61.61,0,0,1,.06.48c-.06.14-.19.2-.39.2a.52.52,0,0,1-.36-.12.88.88,0,0,1-.23-.32L48.62,97.9h-6l-1.12,2.63C41.38,100.83,41.2,101,41,101Zm4.64-10.06L43,97.06h5.26l-2.62-6.15Z"/><path class="cls-5" d="M59.75,101a3.62,3.62,0,0,1-1.93-.5,3.31,3.31,0,0,1-1.25-1.41A4.86,4.86,0,0,1,56.14,97a4.1,4.1,0,0,1,1-2.87A3.38,3.38,0,0,1,59.75,93a3.76,3.76,0,0,1,1.21.21,2.94,2.94,0,0,1,1.12.65.35.35,0,0,1,.16.38.45.45,0,0,1-.25.32.37.37,0,0,1-.43-.09,2.62,2.62,0,0,0-.91-.49,3,3,0,0,0-.87-.14,2.45,2.45,0,0,0-2,.81,3.45,3.45,0,0,0-.69,2.3,3.62,3.62,0,0,0,.69,2.34,2.42,2.42,0,0,0,2,.85,3.15,3.15,0,0,0,.87-.14,2.71,2.71,0,0,0,.9-.5c.17-.13.32-.16.44-.09a.46.46,0,0,1,.22.33.41.41,0,0,1-.15.38,3,3,0,0,1-1.11.64A4,4,0,0,1,59.75,101Z"/><path class="cls-5" d="M64.38,101a.44.44,0,0,1-.49-.5V90.09a.49.49,0,1,1,1,0v4.42a2.65,2.65,0,0,1,1.1-1.1A3.27,3.27,0,0,1,67.52,93c1.83,0,2.74,1,2.74,3v4.45a.42.42,0,0,1-.47.49.43.43,0,0,1-.49-.49V96.1a2.59,2.59,0,0,0-.46-1.68,1.83,1.83,0,0,0-1.46-.54,2.48,2.48,0,0,0-1.83.7,2.63,2.63,0,0,0-.69,1.9v4C64.86,100.8,64.7,101,64.38,101Z"/><path class="cls-5" d="M75.15,101a3,3,0,0,1-1.39-.3,2.44,2.44,0,0,1-1-.82,2.09,2.09,0,0,1-.35-1.17,2,2,0,0,1,.42-1.34,2.5,2.5,0,0,1,1.45-.69,14.37,14.37,0,0,1,2.79-.21h.49v-.57a2.35,2.35,0,0,0-.43-1.55,1.74,1.74,0,0,0-1.36-.48,4.2,4.2,0,0,0-1.18.16,5.39,5.39,0,0,0-1.19.51q-.29.15-.45,0a.5.5,0,0,1-.16-.39.42.42,0,0,1,.26-.37,5.56,5.56,0,0,1,1.35-.55A5.46,5.46,0,0,1,75.78,93a2.71,2.71,0,0,1,2.07.71,3.07,3.07,0,0,1,.67,2.19v4.53c0,.33-.14.49-.44.49s-.47-.16-.48-.49v-1a2.51,2.51,0,0,1-.95,1.11A2.84,2.84,0,0,1,75.15,101Zm.12-.77a2.16,2.16,0,0,0,1.2-.33,2.28,2.28,0,0,0,.82-.89,2.77,2.77,0,0,0,.3-1.3v-.53h-.48a15.76,15.76,0,0,0-2.23.13,2,2,0,0,0-1.11.45,1.18,1.18,0,0,0-.32.87,1.46,1.46,0,0,0,.49,1.15A1.9,1.9,0,0,0,75.27,100.22Z"/><path class="cls-5" d="M81.54,101a.44.44,0,0,1-.5-.49v-6.9a.44.44,0,0,1,.49-.5c.31,0,.46.16.46.5v1a2.61,2.61,0,0,1,1.1-1.15A3.32,3.32,0,0,1,84.67,93c1.83,0,2.75,1,2.75,3v4.46a.43.43,0,0,1-.48.49.44.44,0,0,1-.49-.49V96.09A2.54,2.54,0,0,0,86,94.41a1.82,1.82,0,0,0-1.46-.54,2.45,2.45,0,0,0-1.83.71A2.59,2.59,0,0,0,82,96.47v4C82,100.8,81.85,101,81.54,101Z"/><path class="cls-5" d="M93.06,101a3.62,3.62,0,0,1-1.93-.5,3.24,3.24,0,0,1-1.25-1.41A4.86,4.86,0,0,1,89.45,97a4.14,4.14,0,0,1,1-2.88,3.43,3.43,0,0,1,2.66-1,4.08,4.08,0,0,1,1.21.2,3.23,3.23,0,0,1,1.12.65.38.38,0,0,1,.16.39.47.47,0,0,1-.25.32.37.37,0,0,1-.43-.09A2.66,2.66,0,0,0,94,94a3.4,3.4,0,0,0-.87-.13,2.45,2.45,0,0,0-2,.81,3.43,3.43,0,0,0-.69,2.3,3.62,3.62,0,0,0,.69,2.34,2.41,2.41,0,0,0,2,.84A3,3,0,0,0,94,100a2.66,2.66,0,0,0,.91-.5c.17-.13.31-.16.43-.09a.45.45,0,0,1,.23.33.41.41,0,0,1-.15.38,3.1,3.1,0,0,1-1.11.64A4,4,0,0,1,93.06,101Z"/><path class="cls-5" d="M100.39,101a3.72,3.72,0,0,1-2.8-1.06,4,4,0,0,1-1-2.89A4.63,4.63,0,0,1,97,95a3.37,3.37,0,0,1,1.28-1.41,3.46,3.46,0,0,1,1.88-.51,3,3,0,0,1,2.39,1,4.1,4.1,0,0,1,.86,2.75.39.39,0,0,1-.44.44H97.52a3.22,3.22,0,0,0,.78,2.2,2.72,2.72,0,0,0,2,.77,4.3,4.3,0,0,0,1.14-.15,3.31,3.31,0,0,0,1.07-.55.47.47,0,0,1,.49-.09.4.4,0,0,1,.23.33.46.46,0,0,1-.25.42,3.28,3.28,0,0,1-1.22.63A5.11,5.11,0,0,1,100.39,101Zm-.2-7.19a2.37,2.37,0,0,0-1.87.76,3.31,3.31,0,0,0-.79,1.94h5a3.08,3.08,0,0,0-.64-2A2.13,2.13,0,0,0,100.19,93.8Z"/><path class="cls-5" d="M112.29,101a2.49,2.49,0,0,1-1.92-.69,2.86,2.86,0,0,1-.65-2V93.94h-1.17c-.31,0-.46-.13-.46-.39s.15-.38.46-.38h1.17v-2a.49.49,0,1,1,1,0v2h2.14c.3,0,.44.12.44.38s-.14.39-.44.39h-2.14v4.22a2.3,2.3,0,0,0,.4,1.47,1.55,1.55,0,0,0,1.31.51,1.58,1.58,0,0,0,.53-.07,1,1,0,0,1,.36-.07c.19,0,.29.13.29.39a.54.54,0,0,1-.06.25.29.29,0,0,1-.2.17,3.46,3.46,0,0,1-.47.12A3.87,3.87,0,0,1,112.29,101Z"/><path class="cls-5" d="M117.68,101a3.54,3.54,0,0,1-1.87-.48,3.3,3.3,0,0,1-1.23-1.38,5.39,5.39,0,0,1,0-4.22,3.27,3.27,0,0,1,1.23-1.39,3.54,3.54,0,0,1,1.87-.49,3.5,3.5,0,0,1,1.89.49,3.33,3.33,0,0,1,1.23,1.39,4.77,4.77,0,0,1,.43,2.1,4.83,4.83,0,0,1-.43,2.12,3.3,3.3,0,0,1-1.23,1.38A3.59,3.59,0,0,1,117.68,101Zm0-.81a2.32,2.32,0,0,0,1.87-.83,3.53,3.53,0,0,0,.7-2.34,3.49,3.49,0,0,0-.7-2.33,2.51,2.51,0,0,0-3.73,0,3.54,3.54,0,0,0-.69,2.33,3.59,3.59,0,0,0,.69,2.34A2.3,2.3,0,0,0,117.68,100.17Z"/><path class="cls-5" d="M130.64,103.83a6.51,6.51,0,0,1-1.66-.21,4.62,4.62,0,0,1-1.45-.69.36.36,0,0,1-.19-.37.5.5,0,0,1,.2-.35.29.29,0,0,1,.38,0,4.38,4.38,0,0,0,2.68.82,2.31,2.31,0,0,0,1.76-.63,2.56,2.56,0,0,0,.61-1.84V99.06a2.66,2.66,0,0,1-1.06,1.19,3.2,3.2,0,0,1-1.64.42,3.44,3.44,0,0,1-1.85-.48,3.2,3.2,0,0,1-1.19-1.35,5,5,0,0,1,0-4,3.23,3.23,0,0,1,1.19-1.34,3.42,3.42,0,0,1,1.85-.48,3.1,3.1,0,0,1,1.62.42A2.65,2.65,0,0,1,133,94.6v-1c0-.33.16-.5.47-.5s.48.17.48.5v6.85Q133.9,103.84,130.64,103.83Zm-.26-4a2.36,2.36,0,0,0,1.89-.82,3.21,3.21,0,0,0,.69-2.19,3.27,3.27,0,0,0-.69-2.19,2.62,2.62,0,0,0-3.79,0,3.32,3.32,0,0,0-.68,2.19,3.27,3.27,0,0,0,.69,2.19A2.33,2.33,0,0,0,130.38,99.85Z"/><path class="cls-5" d="M139.8,101a3.73,3.73,0,0,1-2.8-1A4,4,0,0,1,136,97a4.54,4.54,0,0,1,.46-2.1A3.4,3.4,0,0,1,139.59,93,3,3,0,0,1,142,94a4.09,4.09,0,0,1,.86,2.74.39.39,0,0,1-.44.45h-5.47a3.24,3.24,0,0,0,.78,2.2,2.74,2.74,0,0,0,2.06.76,4.22,4.22,0,0,0,1.13-.15,3.12,3.12,0,0,0,1.07-.55.49.49,0,0,1,.49-.08.38.38,0,0,1,.23.33.45.45,0,0,1-.24.42,3.58,3.58,0,0,1-1.23.63A5.09,5.09,0,0,1,139.8,101Zm-.19-7.18a2.39,2.39,0,0,0-1.88.75,3.34,3.34,0,0,0-.79,1.95h5a3.07,3.07,0,0,0-.64-2A2.13,2.13,0,0,0,139.61,93.79Z"/><path class="cls-5" d="M147.71,101a2.48,2.48,0,0,1-1.93-.7,2.88,2.88,0,0,1-.64-2V93.93H144c-.31,0-.46-.13-.46-.39s.15-.39.46-.39h1.17v-2a.49.49,0,1,1,1,0v2h2.14c.29,0,.44.13.44.38s-.15.4-.44.4h-2.14v4.22a2.38,2.38,0,0,0,.39,1.47,1.59,1.59,0,0,0,1.32.51,1.81,1.81,0,0,0,.52-.07,1.09,1.09,0,0,1,.37-.07c.19,0,.28.13.28.39a.43.43,0,0,1-.05.25.3.3,0,0,1-.2.16,1.86,1.86,0,0,1-.47.12A3,3,0,0,1,147.71,101Z"/><path class="cls-5" d="M156.49,101a3,3,0,0,1-1.38-.3,2.54,2.54,0,0,1-1-.83,2,2,0,0,1-.36-1.17,1.93,1.93,0,0,1,.43-1.34,2.56,2.56,0,0,1,1.44-.69,14.51,14.51,0,0,1,2.79-.21h.49v-.57a2.3,2.3,0,0,0-.43-1.55,1.73,1.73,0,0,0-1.36-.48A4.18,4.18,0,0,0,156,94a5.68,5.68,0,0,0-1.19.51c-.19.1-.34.11-.45,0a.46.46,0,0,1-.16-.4.4.4,0,0,1,.26-.37,5.25,5.25,0,0,1,1.35-.55,5.32,5.32,0,0,1,1.34-.18,2.71,2.71,0,0,1,2.07.71,3.09,3.09,0,0,1,.68,2.19v4.53c0,.33-.15.49-.44.49a.43.43,0,0,1-.48-.49v-1a2.47,2.47,0,0,1-1,1.11A2.85,2.85,0,0,1,156.49,101Zm.13-.78a2.21,2.21,0,0,0,1.2-.33,2.25,2.25,0,0,0,.81-.89,2.77,2.77,0,0,0,.3-1.3v-.53h-.47a15.66,15.66,0,0,0-2.23.13,2,2,0,0,0-1.12.45,1.17,1.17,0,0,0-.31.87,1.5,1.5,0,0,0,.49,1.16A1.92,1.92,0,0,0,156.62,100.19Z"/><path class="cls-5" d="M164.69,103.86a.42.42,0,0,1-.42-.17.44.44,0,0,1,0-.4.36.36,0,0,1,.35-.22,2,2,0,0,0,1.4-.48,2,2,0,0,0,.47-1.45v-7.6c0-.33.15-.5.47-.5s.49.16.49.5v7.53a2.72,2.72,0,0,1-.73,2.1A2.85,2.85,0,0,1,164.69,103.86Zm2.23-12.7a.6.6,0,0,1-.7-.66c0-.43.24-.65.7-.65s.7.22.7.65S167.39,91.16,166.92,91.16Z"/><path class="cls-5" d="M173,101a3.54,3.54,0,0,1-1.87-.48,3.18,3.18,0,0,1-1.23-1.38,5.39,5.39,0,0,1,0-4.22,3.27,3.27,0,0,1,1.23-1.39A3.54,3.54,0,0,1,173,93a3.59,3.59,0,0,1,1.89.49,3.4,3.4,0,0,1,1.23,1.39,4.77,4.77,0,0,1,.43,2.1,4.83,4.83,0,0,1-.43,2.12,3.3,3.3,0,0,1-1.23,1.38A3.59,3.59,0,0,1,173,101Zm0-.81a2.32,2.32,0,0,0,1.87-.83,3.53,3.53,0,0,0,.7-2.34,3.49,3.49,0,0,0-.7-2.33,2.53,2.53,0,0,0-3.73,0,4.3,4.3,0,0,0,0,4.67A2.27,2.27,0,0,0,173,100.15Z"/><path class="cls-5" d="M182.29,101a3.13,3.13,0,0,1-1.64-.42,2.56,2.56,0,0,1-1.06-1.15v1c0,.33-.16.5-.47.5a.45.45,0,0,1-.5-.5V90.05a.49.49,0,1,1,1,0v4.52a2.6,2.6,0,0,1,1-1.15,3.15,3.15,0,0,1,1.64-.42,3.12,3.12,0,0,1,2.49,1.08,4.31,4.31,0,0,1,.92,2.9,4.9,4.9,0,0,1-.42,2.11,3.15,3.15,0,0,1-1.18,1.38A3.37,3.37,0,0,1,182.29,101Zm-.15-.81a2.31,2.31,0,0,0,1.87-.83,3.53,3.53,0,0,0,.7-2.34,3.47,3.47,0,0,0-.7-2.33,2.52,2.52,0,0,0-3.74,0,3.52,3.52,0,0,0-.7,2.33,3.65,3.65,0,0,0,.7,2.34A2.34,2.34,0,0,0,182.14,100.15Z"/><path class="cls-5" d="M188.21,94.55a.7.7,0,0,1-.52-.21.69.69,0,0,1-.21-.52.73.73,0,0,1,.21-.54.69.69,0,0,1,.52-.2.71.71,0,0,1,.54.2.76.76,0,0,1,.19.54.69.69,0,0,1-.73.73Zm0,6.33a.71.71,0,0,1-.53-.21.73.73,0,0,1-.2-.52.72.72,0,0,1,.2-.53.8.8,0,0,1,1.06,0,.76.76,0,0,1,.2.53.73.73,0,0,1-.2.52A.69.69,0,0,1,188.22,100.88Z"/><path class="cls-2" d="M198,101a4,4,0,0,1-1.54-.32,3.89,3.89,0,0,1-1.37-.9.44.44,0,0,1-.16-.43.43.43,0,0,1,.24-.36c.13-.07.28,0,.45.11a3.63,3.63,0,0,0,1.15.77,3.45,3.45,0,0,0,1.24.24,2.9,2.9,0,0,0,2.52-1.24,6.39,6.39,0,0,0,.89-3.7v-.94A3.21,3.21,0,0,1,200.24,96a3.24,3.24,0,0,1-2,.64,3.41,3.41,0,0,1-1.76-.45,3.2,3.2,0,0,1-1.21-1.24,3.73,3.73,0,0,1-.44-1.81,3.63,3.63,0,0,1,.46-1.85A3.38,3.38,0,0,1,196.51,90a3.83,3.83,0,0,1,4.8,1,6.72,6.72,0,0,1,1.05,4,7.42,7.42,0,0,1-1.16,4.47A3.81,3.81,0,0,1,198,101Zm.42-5.23a2.49,2.49,0,0,0,1.88-.75,2.63,2.63,0,0,0,.72-1.92,2.67,2.67,0,0,0-.72-1.93,2.52,2.52,0,0,0-1.88-.74,2.49,2.49,0,0,0-1.86.74,2.95,2.95,0,0,0,0,3.86A2.49,2.49,0,0,0,198.39,95.72Z"/><path class="cls-2" d="M207.48,101a4.17,4.17,0,0,1-1.54-.32,3.85,3.85,0,0,1-1.36-.9.44.44,0,0,1-.17-.43.45.45,0,0,1,.24-.36c.13-.08.28,0,.45.11a3.38,3.38,0,0,0,1.16.76,3.18,3.18,0,0,0,1.23.25A2.91,2.91,0,0,0,210,98.81a6.27,6.27,0,0,0,.89-3.7v-.93A3.15,3.15,0,0,1,209.75,96a3.25,3.25,0,0,1-2,.64,3.43,3.43,0,0,1-1.77-.45,3.16,3.16,0,0,1-1.21-1.25,4,4,0,0,1,0-3.65A3.38,3.38,0,0,1,206,90a3.83,3.83,0,0,1,4.8,1,6.57,6.57,0,0,1,1.05,4,7.38,7.38,0,0,1-1.16,4.47A3.79,3.79,0,0,1,207.48,101Zm.42-5.23a2.48,2.48,0,0,0,1.88-.75,2.93,2.93,0,0,0,0-3.85,2.49,2.49,0,0,0-1.88-.75,2.46,2.46,0,0,0-1.86.75,2.67,2.67,0,0,0-.72,1.93A2.63,2.63,0,0,0,206,95,2.46,2.46,0,0,0,207.9,95.72Z"/><path class="cls-2" d="M216.56,96.35a2.35,2.35,0,0,1-1.93-.89,4.9,4.9,0,0,1,0-5,2.52,2.52,0,0,1,3.86,0,3.91,3.91,0,0,1,.72,2.51,4,4,0,0,1-.71,2.53A2.33,2.33,0,0,1,216.56,96.35Zm0-.75a1.49,1.49,0,0,0,1.29-.68,3.54,3.54,0,0,0,.47-2,3.47,3.47,0,0,0-.47-2,1.45,1.45,0,0,0-1.29-.67,1.47,1.47,0,0,0-1.28.67,3.4,3.4,0,0,0-.46,2,3.56,3.56,0,0,0,.46,2A1.48,1.48,0,0,0,216.56,95.6Zm.95,5.3a.41.41,0,0,1-.38.27.44.44,0,0,1-.36-.22.39.39,0,0,1,0-.46L223,89.59a.41.41,0,0,1,.39-.27.44.44,0,0,1,.35.22.43.43,0,0,1,0,.48Zm6.47,0a2.35,2.35,0,0,1-1.93-.88,4,4,0,0,1-.7-2.54,4,4,0,0,1,.7-2.51,2.33,2.33,0,0,1,1.93-.9,2.35,2.35,0,0,1,1.94.89,4.84,4.84,0,0,1,0,5A2.34,2.34,0,0,1,224,100.94Zm0-.74a1.49,1.49,0,0,0,1.29-.68,3.54,3.54,0,0,0,.47-2,3.49,3.49,0,0,0-.47-2,1.57,1.57,0,0,0-2.57,0,3.49,3.49,0,0,0-.46,2,3.41,3.41,0,0,0,.47,2A1.46,1.46,0,0,0,224,100.2Z"/><rect class="cls-5" x="12.03" y="-11.49" width="2.18" height="25.25" transform="translate(11.94 14.25) rotate(-89.8)"/><rect class="cls-5" x="-11.19" y="11.55" width="25.25" height="2.18" transform="translate(-11.22 14.03) rotate(-89.79)"/><rect class="cls-5" x="260.34" y="12.5" width="25.25" height="2.18" transform="translate(258.4 286.5) rotate(-89.79)"/><rect class="cls-5" x="260.36" y="-10.73" width="2.18" height="25.25" transform="translate(258.65 263.34) rotate(-89.8)"/><rect class="cls-5" x="259.89" y="126.71" width="2.18" height="25.25" transform="translate(120.75 399.83) rotate(-89.8)"/><rect class="cls-5" x="260.04" y="126.73" width="25.25" height="2.18" transform="translate(143.87 400.03) rotate(-89.79)"/><rect class="cls-5" x="-11.49" y="125.79" width="25.25" height="2.18" transform="translate(-125.75 127.56) rotate(-89.79)"/><rect class="cls-5" x="11.56" y="125.95" width="2.18" height="25.25" transform="translate(-125.97 150.73) rotate(-89.8)"/></g></g></svg>