<svg xmlns="http://www.w3.org/2000/svg" viewBox="0 0 561.24 372.45"><defs><style>.cls-1{fill:#fbf5ec;}.cls-2{fill:#404345;}</style></defs><title>Zasób 1</title><g id="Warstwa_2" data-name="Warstwa 2"><g id="Warstwa_1-2" data-name="Warstwa 1"><path class="cls-1" d="M503.2,6.2C440.15-1.37,97.54-2.41,55,5.3c-3.57.65-6.16,2.44-7.45,5.1C32.07,42.4-3.28,304,.25,354.75c.44,6.38,3.79,9.77,8,10.44,53.06,8.51,506.14,10.11,546.79,1.7,2.58-.53,4.47-1.9,5.06-4.16,7.65-29.29-24.58-290.53-41.46-344.17C516.39,11.45,510.73,7.11,503.2,6.2Z"/><path class="cls-2" d="M459.21,41.35C408.65,35.26,134,34.43,99.84,40.63a7.79,7.79,0,0,0-6,4.1C81.46,70.48,53.12,281,55.94,321.84c.36,5.14,3,7.87,6.4,8.4,42.55,6.85,405.81,8.13,438.41,1.36,2.07-.42,3.58-1.52,4.06-3.34,6.13-23.57-19.71-233.8-33.24-277C469.77,45.58,465.24,42.08,459.21,41.35Z"/><path d="M450.4,48.52c-48.06-5.79-309.16-6.58-341.58-.68a7.39,7.39,0,0,0-5.67,3.9C91.35,76.21,64.41,276.27,67.1,315.13c.33,4.88,2.89,7.47,6.08,8,40.44,6.51,385.72,7.73,416.7,1.3,2-.41,3.41-1.45,3.86-3.18C499.56,298.82,475,99,462.15,58,460.44,52.54,456.13,49.22,450.4,48.52Z"/><text/></g></g></svg>