<?xml version="1.0" encoding="utf-8"?>
<!-- Generator: Adobe Illustrator 16.0.0, SVG Export Plug-In . SVG Version: 6.00 Build 0)  -->
<!DOCTYPE svg PUBLIC "-//W3C//DTD SVG 1.1//EN" "http://www.w3.org/Graphics/SVG/1.1/DTD/svg11.dtd">
<svg version="1.1" id="Warstwa_1" xmlns="http://www.w3.org/2000/svg" xmlns:xlink="http://www.w3.org/1999/xlink" x="0px" y="0px"
	 width="416.295px" height="498.422px" viewBox="-27.751 0 416.295 498.422" enable-background="new -27.751 0 416.295 498.422"
	 xml:space="preserve">
<g>
	<g>
		<g>
			<defs>
				<path id="SVGID_1_" d="M388.544,0H-1.634c6.521,29.875,24.237,58.285,51.421,72.22C66.912,81,88.053,84.58,99.682,99.914
					c9.745,12.858,11.662,30.854,7.18,46.36c-4.483,15.507-5.659,18.562-12.012,33.398c-9.932,23.147-10.122,52.021-4.098,76.48
					c6.009,24.471,24.146,42.145,48.463,48.76c26.311,7.146,58.411-3.158,79.039,14.697c23.071,19.957,0.367,73.508,21.368,95.646
					c13.419,14.151,35.354,16.271,54.643,13.356c19.289-2.912,46.119-0.442,57.493,8.604c12.769,10.16,26.635,53.856,36.786,61.205
					V0z"/>
			</defs>
			<clipPath id="SVGID_2_">
				<use xlink:href="#SVGID_1_"  overflow="visible"/>
			</clipPath>
			<rect x="-64.139" y="-4.559" clip-path="url(#SVGID_2_)" fill="#010101" width="455.418" height="506.877"/>
		</g>
		<g>
			<defs>
				<path id="SVGID_3_" d="M388.544,0H-1.634c6.521,29.875,24.237,58.285,51.421,72.22C66.912,81,88.053,84.58,99.682,99.914
					c9.745,12.858,11.662,30.854,7.18,46.36c-4.483,15.507-5.659,18.562-12.012,33.398c-9.932,23.147-10.122,52.021-4.098,76.48
					c6.009,24.471,24.146,42.145,48.463,48.76c26.311,7.146,58.411-3.158,79.039,14.697c23.071,19.957,0.367,73.508,21.368,95.646
					c13.419,14.151,35.354,16.271,54.643,13.356c19.289-2.912,46.119-0.442,57.493,8.604c12.769,10.16,26.635,53.856,36.786,61.205
					V0z"/>
			</defs>
			<clipPath id="SVGID_4_">
				<use xlink:href="#SVGID_3_"  overflow="visible"/>
			</clipPath>
			<g opacity="0.3" clip-path="url(#SVGID_4_)">
				<path fill="#062D3F" d="M321.03,305.23c-1.92-30.418,69.938-45.892,66.675-73.296c-3.881-32.577-110.066-49.495-193.161-55.644
					v18.979c56.943,10.847,117.944,27.449,120.502,54.58c2.938,31.137-73.076,55.018-120.502,78.393v57.687
					c73.246,22.065,238.563,27.435,337.409,23.644v-29.25C446.999,365.976,323.515,344.623,321.03,305.23z M312.701,368.609
					c-5.646,13.752-41.23,12.142-61.721,7.521c-9.252-2.084-34.059-7.674-35.166-18.461c-1.386-13.475,34.034-36.818,63.873-28.033
					C300.382,335.732,317.464,357.006,312.701,368.609z"/>
				<path fill="#062D3F" d="M188.841,107.623c-1.92-30.42,69.94-45.894,66.676-73.295C251.636,1.75,145.451-15.168,62.354-21.315
					v18.979c56.943,10.844,117.944,27.449,120.502,54.581c2.938,31.136-73.075,55.019-120.502,78.392v57.688
					c73.246,22.064,238.563,27.433,337.41,23.644v-29.25C314.809,168.369,191.327,147.018,188.841,107.623z M193.868,156.844
					c-5.646,7.436-41.23,6.563-61.721,4.066c-9.252-1.127-34.059-4.149-35.167-9.981c-1.385-7.286,34.035-19.907,63.874-15.157
					C181.549,139.067,198.631,150.568,193.868,156.844z"/>
			</g>
		</g>
		<g>
			<defs>
				<path id="SVGID_5_" d="M388.544,0H-1.634c6.521,29.875,24.237,58.285,51.421,72.22C66.912,81,88.053,84.58,99.682,99.914
					c9.745,12.858,11.662,30.854,7.18,46.36c-4.483,15.507-5.659,18.562-12.012,33.398c-9.932,23.147-10.122,52.021-4.098,76.48
					c6.009,24.471,24.146,42.145,48.463,48.76c26.311,7.146,58.411-3.158,79.039,14.697c23.071,19.957,0.367,73.508,21.368,95.646
					c13.419,14.151,35.354,16.271,54.643,13.356c19.289-2.912,46.119-0.442,57.493,8.604c12.769,10.16,26.635,53.856,36.786,61.205
					V0z"/>
			</defs>
			<clipPath id="SVGID_6_">
				<use xlink:href="#SVGID_5_"  overflow="visible"/>
			</clipPath>
			<g clip-path="url(#SVGID_6_)">
				<circle opacity="0.5" fill="#FFFFFF" cx="134.543" cy="118.564" r="1.267"/>
				<circle fill="#FFFFFF" cx="273.838" cy="310.246" r="1.268"/>
				<circle fill="#FFFFFF" cx="349.722" cy="333.383" r="1.268"/>
				<circle fill="#FFFFFF" cx="95.304" cy="148.424" r="1.267"/>
				<circle fill="#FFFFFF" cx="111.23" cy="208.69" r="1.267"/>
				<circle opacity="0.5" fill="#FFFFFF" cx="193.786" cy="234.388" r="1.267"/>
				<circle opacity="0.4" fill="#FFFFFF" cx="213.695" cy="275.386" r="1.267"/>
				<circle fill="#FFFFFF" cx="17.32" cy="25.812" r="1.266"/>
				<circle opacity="0.5" fill="#FFFFFF" cx="341.72" cy="214.823" r="1.267"/>
				<circle fill="#FFFFFF" cx="270.788" cy="159.947" r="1.267"/>
				<circle opacity="0.4" fill="#FFFFFF" cx="355.897" cy="380.537" r="1.268"/>
				<circle fill="#FFFFFF" cx="258.964" cy="266.284" r="1.267"/>
				<circle fill="#FFFFFF" cx="129.524" cy="268.534" r="1.267"/>
				<circle fill="#FFFFFF" cx="227.554" cy="24.546" r="1.267"/>
				<circle opacity="0.4" fill="#FFFFFF" cx="273.012" cy="405.003" r="1.267"/>
				<circle fill="#FFFFFF" cx="247.125" cy="84.556" r="1.267"/>
				<circle fill="#FFFFFF" cx="320.636" cy="70.968" r="1.267"/>
				<circle fill="#FFFFFF" cx="292.25" cy="41.814" r="1.267"/>
				<circle fill="#FFFFFF" cx="146.701" cy="171.545" r="1.267"/>
				<circle fill="#FFFFFF" cx="323.855" cy="286.418" r="1.267"/>
				<circle fill="#FFFFFF" cx="130.741" cy="27.08" r="1.267"/>
				<circle opacity="0.5" fill="#FFFFFF" cx="215.125" cy="43.081" r="1.267"/>
				<circle opacity="0.5" fill="#FFFFFF" cx="73.977" cy="35.503" r="1.267"/>
				<circle fill="#FFFFFF" cx="354.372" cy="35.229" r="1.267"/>
				<circle fill="#FFFFFF" cx="299.255" cy="105.424" r="1.267"/>
				<circle fill="#FFFFFF" cx="351.575" cy="113.928" r="1.267"/>
				<circle fill="#FFFFFF" cx="373.868" cy="81.656" r="1.267"/>
			</g>
		</g>
	</g>
</g>
<g>
	<circle fill="#F9FBFB" cx="281.432" cy="103.802" r="70.092"/>
	<g>
		<path fill="#DFDFDF" d="M314.499,128.891c0-6.093,4.939-11.03,11.032-11.03c6.095,0,11.036,4.938,11.036,11.03
			c0,6.096-4.941,11.035-11.036,11.035C319.438,139.926,314.499,134.987,314.499,128.891z"/>
		<path fill="#BDBDBD" d="M335.62,127.95c0,6.093-4.938,11.033-11.031,11.033c-2.806,0-5.368-1.051-7.314-2.776
			c2.022,2.279,4.971,3.719,8.257,3.719c6.096,0,11.036-4.939,11.036-11.035c0-3.284-1.44-6.233-3.723-8.255
			C334.57,122.581,335.62,125.141,335.62,127.95z"/>
		<path fill="#F4F4F4" d="M325.099,139.926c0.07,0,0.146-0.005,0.219-0.006c-5.993-0.114-10.818-5.007-10.818-11.029
			c0-6.093,4.939-11.03,11.032-11.03c6.021,0,10.913,4.822,11.029,10.813c0.003-0.07,0.007-0.143,0.007-0.216
			c0-6.336-5.136-11.47-11.469-11.47c-6.336,0-11.47,5.134-11.47,11.47C313.629,134.792,318.763,139.926,325.099,139.926z"/>
	</g>
	<g>
		<circle fill="#DFDFDF" cx="252.252" cy="148.225" r="5.516"/>
		<path fill="#BDBDBD" d="M257.296,147.751c0,3.047-2.468,5.518-5.517,5.518c-1.402,0-2.682-0.525-3.655-1.389
			c1.01,1.143,2.483,1.861,4.126,1.861c3.048,0,5.519-2.469,5.519-5.517c0-1.644-0.719-3.118-1.858-4.131
			C256.772,145.067,257.296,146.35,257.296,147.751z"/>
		<path fill="#F4F4F4" d="M252.035,153.741c0.036,0,0.073-0.004,0.108-0.004c-2.996-0.059-5.406-2.504-5.406-5.513
			c0-3.048,2.469-5.519,5.517-5.519c3.011,0,5.453,2.412,5.513,5.409c0.002-0.037,0.002-0.074,0.002-0.109
			c0-3.167-2.566-5.734-5.733-5.734s-5.734,2.567-5.734,5.734C246.301,151.174,248.868,153.741,252.035,153.741z"/>
	</g>
	<g>
		<path fill="#DFDFDF" d="M219.18,92.273c0-7.604,6.162-13.766,13.767-13.766c7.604,0,13.764,6.162,13.764,13.766
			c0,7.604-6.16,13.77-13.764,13.77C225.342,106.042,219.18,99.877,219.18,92.273z"/>
		<path fill="#BDBDBD" d="M245.537,91.096c0,7.604-6.165,13.764-13.769,13.764c-3.504,0-6.695-1.306-9.125-3.462
			c2.523,2.845,6.202,4.64,10.304,4.64c7.603,0,13.767-6.162,13.767-13.765c0-4.101-1.796-7.781-4.641-10.307
			C244.227,84.398,245.537,87.593,245.537,91.096z"/>
		<path fill="#F4F4F4" d="M232.404,106.042c0.091,0,0.179-0.008,0.27-0.011c-7.477-0.145-13.494-6.247-13.494-13.759
			c0-7.604,6.162-13.766,13.767-13.766c7.513,0,13.613,6.017,13.759,13.492c0.002-0.091,0.005-0.182,0.005-0.27
			c0-7.902-6.403-14.31-14.306-14.31c-7.903,0-14.311,6.407-14.311,14.31C218.094,99.63,224.501,106.042,232.404,106.042z"/>
	</g>
	<g>
		<circle fill="#DFDFDF" cx="269.734" cy="60.112" r="13.768"/>
		<path fill="#BDBDBD" d="M282.322,58.933c0,7.603-6.163,13.77-13.767,13.77c-3.502,0-6.696-1.311-9.126-3.466
			c2.521,2.846,6.201,4.644,10.301,4.644c7.604,0,13.769-6.165,13.769-13.768c0-4.102-1.797-7.781-4.642-10.303
			C281.012,52.237,282.322,55.431,282.322,58.933z"/>
		<path fill="#F4F4F4" d="M269.19,73.877c0.09,0,0.181-0.006,0.272-0.006c-7.479-0.147-13.496-6.249-13.496-13.76
			c0-7.604,6.163-13.77,13.768-13.77c7.509,0,13.614,6.02,13.76,13.497c0-0.092,0.008-0.182,0.008-0.271
			c0-7.902-6.406-14.313-14.312-14.313c-7.902,0-14.31,6.41-14.31,14.313C254.88,67.472,261.288,73.877,269.19,73.877z"/>
	</g>
	<g>
		<path fill="#DFDFDF" d="M289.237,68.477c0-4.285,3.467-7.753,7.75-7.753c4.28,0,7.752,3.468,7.752,7.753
			c0,4.279-3.472,7.751-7.752,7.751C292.704,76.228,289.237,72.756,289.237,68.477z"/>
		<path fill="#BDBDBD" d="M304.075,67.811c0,4.28-3.469,7.754-7.751,7.754c-1.972,0-3.772-0.739-5.139-1.95
			c1.418,1.601,3.493,2.612,5.801,2.612c4.282,0,7.753-3.472,7.753-7.754c0-2.309-1.011-4.381-2.613-5.801
			C303.34,64.04,304.075,65.838,304.075,67.811z"/>
		<path fill="#F4F4F4" d="M296.683,76.228c0.049,0,0.1-0.004,0.15-0.004c-4.208-0.083-7.598-3.515-7.598-7.747
			c0-4.285,3.469-7.753,7.751-7.753c4.231,0,7.667,3.386,7.749,7.599c0-0.049,0.004-0.103,0.004-0.152
			c0-4.45-3.607-8.058-8.058-8.058c-4.451,0-8.06,3.607-8.06,8.058C288.623,72.62,292.23,76.228,296.683,76.228z"/>
	</g>
	<g>
		<circle fill="#DFDFDF" cx="282.569" cy="79.197" r="4.692"/>
		<path fill="#BDBDBD" d="M286.857,78.794c0,2.591-2.099,4.69-4.69,4.69c-1.195,0-2.282-0.444-3.11-1.177
			c0.855,0.967,2.111,1.579,3.511,1.579c2.592,0,4.693-2.1,4.693-4.69c0-1.399-0.612-2.654-1.581-3.515
			C286.41,76.513,286.857,77.6,286.857,78.794z"/>
		<path fill="#F4F4F4" d="M282.386,83.887c0.028,0,0.061-0.001,0.089-0.001c-2.546-0.051-4.599-2.128-4.599-4.689
			c0-2.593,2.102-4.694,4.692-4.694c2.561,0,4.642,2.052,4.688,4.602c0.002-0.033,0.002-0.061,0.002-0.095
			c0-2.692-2.18-4.879-4.877-4.879c-2.691,0-4.876,2.187-4.876,4.879C277.507,81.705,279.688,83.887,282.386,83.887z"/>
	</g>
	<g>
		<circle fill="#DFDFDF" cx="220.234" cy="111.719" r="5.307"/>
		<path fill="#BDBDBD" d="M225.089,111.266c0,2.932-2.378,5.305-5.312,5.305c-1.347,0-2.579-0.504-3.517-1.333
			c0.974,1.095,2.391,1.79,3.974,1.79c2.929,0,5.306-2.378,5.306-5.309c0-1.582-0.692-2.999-1.789-3.971
			C224.582,108.683,225.089,109.916,225.089,111.266z"/>
		<path fill="#F4F4F4" d="M220.023,117.028c0.037,0,0.068-0.002,0.105-0.006c-2.883-0.054-5.202-2.406-5.202-5.303
			c0-2.931,2.373-5.307,5.308-5.307c2.894,0,5.247,2.32,5.305,5.203c0-0.035,0.002-0.071,0.002-0.103c0-3.049-2.47-5.52-5.518-5.52
			c-3.047,0-5.517,2.471-5.517,5.52C214.507,114.556,216.977,117.028,220.023,117.028z"/>
	</g>
	<g>
		<circle fill="#DFDFDF" cx="318.464" cy="105.152" r="6.995"/>
		<path fill="#BDBDBD" d="M324.862,104.553c0,3.863-3.129,6.997-6.996,6.997c-1.781,0-3.404-0.666-4.638-1.762
			c1.282,1.448,3.152,2.358,5.236,2.358c3.862,0,6.997-3.133,6.997-6.995c0-2.084-0.912-3.952-2.359-5.235
			C324.199,101.15,324.862,102.773,324.862,104.553z"/>
		<path fill="#F4F4F4" d="M318.189,112.147c0.046,0,0.09,0,0.137,0c-3.798-0.073-6.857-3.175-6.857-6.995
			c0-3.864,3.134-6.993,6.996-6.993c3.819,0,6.921,3.055,6.993,6.857c0-0.048,0.004-0.093,0.004-0.14
			c0-4.015-3.254-7.272-7.272-7.272c-4.018,0-7.273,3.258-7.273,7.272C310.916,108.893,314.172,112.147,318.189,112.147z"/>
	</g>
	<g>
		<circle fill="#DFDFDF" cx="302.543" cy="130.677" r="5.862"/>
		<path fill="#BDBDBD" d="M307.904,130.175c0,3.237-2.626,5.86-5.86,5.86c-1.492,0-2.855-0.556-3.89-1.473
			c1.078,1.209,2.644,1.976,4.39,1.976c3.238,0,5.861-2.625,5.861-5.861c0-1.748-0.764-3.314-1.977-4.389
			C307.348,127.323,307.904,128.683,307.904,130.175z"/>
		<path fill="#F4F4F4" d="M302.313,136.538c0.037,0,0.077-0.005,0.114-0.005c-3.186-0.059-5.745-2.657-5.745-5.856
			c0-3.237,2.624-5.861,5.861-5.861c3.2,0,5.798,2.56,5.859,5.745c0-0.037,0-0.079,0-0.115c0-3.366-2.726-6.096-6.091-6.096
			c-3.368,0-6.093,2.731-6.093,6.096C296.221,133.812,298.946,136.538,302.313,136.538z"/>
	</g>
	<g>
		<path fill="#DFDFDF" d="M309.154,64.379c0-2.187,1.771-3.955,3.955-3.955c2.181,0,3.951,1.769,3.951,3.955
			c0,2.181-1.771,3.952-3.951,3.952C310.925,68.331,309.154,66.56,309.154,64.379z"/>
		<path fill="#BDBDBD" d="M316.726,64.038c0,2.183-1.771,3.952-3.958,3.952c-1.004,0-1.921-0.377-2.619-0.994
			c0.725,0.818,1.781,1.332,2.961,1.332c2.183,0,3.951-1.769,3.951-3.949c0-1.182-0.515-2.239-1.332-2.961
			C316.346,62.115,316.726,63.032,316.726,64.038z"/>
		<path fill="#F4F4F4" d="M312.953,68.328c0.024,0,0.051-0.002,0.076-0.002c-2.146-0.041-3.875-1.793-3.875-3.947
			c0-2.188,1.769-3.956,3.955-3.956c2.153,0,3.905,1.729,3.949,3.874c0-0.026,0.002-0.052,0.002-0.077
			c0-2.269-1.841-4.107-4.107-4.107c-2.271,0-4.109,1.84-4.109,4.107C308.844,66.49,310.682,68.328,312.953,68.328z"/>
	</g>
	<path opacity="0.1" fill="#212121" enable-background="new    " d="M281.43,63.602c31.36,0,58.271,19.023,69.838,46.157
		c0.165-1.967,0.255-3.949,0.255-5.957c0-38.711-31.382-70.093-70.094-70.093c-38.707,0-70.089,31.382-70.089,70.093
		c0,2.006,0.089,3.99,0.252,5.957C223.158,82.623,250.072,63.602,281.43,63.602z"/>
	<path opacity="0.1" fill="#212121" enable-background="new    " d="M281.43,47.647c29.317,0,54.86,16.151,68.228,40.037
		c-7.282-30.94-35.064-53.975-68.228-53.975c-33.161,0-60.944,23.034-68.228,53.975C226.571,63.798,252.111,47.647,281.43,47.647z"
		/>
</g>
<g>
	<g>
		<polygon fill="#2D292A" points="54.688,393.943 51.081,380.798 41.613,379.887 47.011,399.557 		"/>
	</g>
	<path fill="#F04E24" d="M71.887,364.6c0,0-13.268-14.897-39.138-8.038c0,0-6.994,2.454-3.782,3.021
		c15.177,2.682,20.034,13.759,20.034,13.759L71.887,364.6z"/>
	<path fill="#F04E24" d="M80.865,397.325c0,0-3.804,19.58-29.553,26.887c0,0-7.267,1.459-4.795-0.667
		c11.684-10.054,10.206-22.058,10.206-22.058L80.865,397.325z"/>
	<g>
		<polygon fill="#BDC6C9" points="135.706,341.149 140.58,350.449 145.021,362.126 147.161,374.432 147.716,384.917 83.842,396.982 
			83.176,389.016 81.599,379.529 78.14,370.63 74.619,363.374 		"/>
		<path fill="#BDC6C9" d="M144.157,362.363l2.114,12.17l0.512,9.652l-62.135,11.736l-0.584-6.979l-0.01-0.074l-0.011-0.07
			l-1.549-9.324l-0.029-0.183l-0.067-0.173l-3.428-8.812l-0.025-0.065l-0.031-0.066l-3.059-6.299l59.422-21.621l4.486,8.561
			L144.157,362.363 M145.887,361.887l-4.492-11.806l-5.26-10.037l-62.75,22.83l3.924,8.08l3.426,8.812l1.551,9.324l0.751,8.952
			l65.612-12.393l-0.6-11.317L145.887,361.887L145.887,361.887z"/>
	</g>
	<polygon fill="#FFFFFF" points="145.887,361.887 141.395,350.081 77.309,370.952 80.734,379.766 82.285,389.09 148.049,374.332 	
		"/>
	<polygon fill="#DF4C26" points="80.734,379.766 77.285,370.907 49.729,380.283 52.472,387.522 53.808,395.144 82.299,389.138 	"/>
	<g>
		<path fill="#B33C1D" d="M141.395,350.081l47.324,0.053c0,0-37.023-14.359-52.584-10.09L141.395,350.081z"/>
		<path fill="#B33C1D" d="M188.719,350.134l-40.67,24.198l0.6,11.317C164.209,381.38,188.719,350.134,188.719,350.134z"/>
	</g>
	<path fill="#DF4C26" d="M188.719,350.134c0,0-31.76-4.323-47.324-0.053l4.492,11.806l2.162,12.445
		C163.613,370.061,188.719,350.134,188.719,350.134z"/>
	<g>
		<path fill="#DF4C26" d="M139.654,363.598c-2.444-8.899-11.64-14.136-20.54-11.693c-8.899,2.442-14.136,11.638-11.692,20.538
			c2.442,8.9,11.637,14.136,20.536,11.692C136.859,381.693,142.094,372.499,139.654,363.598z M112.262,371.113
			c-1.707-6.223,1.956-12.656,8.182-14.365c6.225-1.709,12.66,1.955,14.369,8.179c1.707,6.226-1.957,12.661-8.182,14.369
			C120.405,381.003,113.971,377.341,112.262,371.113z"/>
		<path fill="#CDC8C1" d="M136.326,364.511c-1.939-7.063-9.234-11.217-16.299-9.279c-7.063,1.938-11.217,9.236-9.277,16.298
			c1.938,7.063,9.233,11.22,16.297,9.282C134.11,378.872,138.264,371.574,136.326,364.511z M112.262,371.113
			c-1.707-6.223,1.956-12.656,8.182-14.365c6.225-1.709,12.66,1.955,14.369,8.179c1.707,6.226-1.957,12.661-8.182,14.369
			C120.405,381.003,113.971,377.341,112.262,371.113z"/>
		<path fill="#406594" d="M126.631,379.295c-6.226,1.708-12.66-1.954-14.369-8.183c-1.707-6.223,1.956-12.656,8.182-14.365
			c6.225-1.709,12.66,1.955,14.369,8.179C136.52,371.152,132.855,377.587,126.631,379.295z"/>
		<g>
			<path fill="#CFCBC7" d="M113.805,361.554c1.506-2.271,3.804-4.029,6.639-4.807c6.225-1.709,12.66,1.955,14.369,8.179
				c0.775,2.834,0.439,5.708-0.744,8.162c1.805-2.716,2.471-6.167,1.539-9.562c-1.708-6.227-8.14-9.888-14.367-8.179
				C117.849,356.277,115.219,358.613,113.805,361.554z"/>
			<path fill="#CFCBC7" d="M138.443,375.577c-2.148,3.385-5.516,6.014-9.688,7.158c-8.897,2.441-18.094-2.795-20.535-11.694
				c-1.144-4.169-0.606-8.404,1.21-11.979c-2.434,3.837-3.305,8.649-2.008,13.38c2.441,8.899,11.635,14.136,20.536,11.692
				C132.689,382.837,136.385,379.634,138.443,375.577z"/>
		</g>
		<path fill="#FFFFFF" d="M113.883,361.433l13.785,17.521c2.117-0.795,3.887-2.158,5.18-3.868l-13.988-17.777
			C116.795,358.205,115.092,359.655,113.883,361.433z"/>
		<path fill="#FFFFFF" d="M135.133,369.545l-10.346-13.148c-1.417-0.151-2.885-0.049-4.344,0.351
			c-0.133,0.037-0.266,0.078-0.396,0.121l13.51,17.168C134.377,372.673,134.922,371.142,135.133,369.545z"/>
		<g>
			<path fill="#EEEEF7" d="M137.438,374.218c1.326-3.552,1.368-7.486,0.082-10.936c-1.263-3.449-3.779-6.393-6.996-8.109
				c-3.191-1.763-7.025-2.277-10.608-1.463c-3.593,0.803-6.874,2.968-9.138,6.013c0.92-1.664,2.221-3.12,3.731-4.323
				c1.527-1.171,3.315-2.048,5.179-2.583c3.76-1.089,7.955-0.581,11.409,1.304c3.462,1.874,6.167,5.12,7.294,8.867
				c0.566,1.864,0.805,3.826,0.648,5.75C138.85,370.659,138.332,372.541,137.438,374.218z"/>
		</g>
	</g>
	<g>
		<polygon fill="#B33C1D" points="73.385,362.874 45.797,373.615 49.729,380.283 77.309,370.952 		"/>
		<polygon fill="#B33C1D" points="82.285,389.09 53.808,395.144 53.828,402.886 83.036,398.042 		"/>
	</g>
	
		<rect x="34.34" y="389.355" transform="matrix(-0.2646 -0.9644 0.9644 -0.2646 -320.6194 535.3121)" fill="#CFCBC7" width="18.905" height="1.093"/>
</g>
<path fill="#EF4C23" d="M286.59,193.981c4.853,11.5,11.366,21.754,17.5,32.557c1.596,2.813-2.46,4.873-4.475,2.872
	c-3.407-3.384-6.451-7.164-9.206-11.168c0.772,12.532-0.871,25.84-3.163,37.399c-3.076,15.509-8.704,30.741-16.598,44.451
	c-13.094,22.739-39.377,47.909-67.279,48.797c-1.593,0.052-1.739-2.292-0.504-2.901c12.529-6.182,24.497-10.91,35.191-20.301
	c10.477-9.199,19.464-20.716,25.815-33.137c6.71-13.129,10.279-27.361,12.041-41.944c1.478-12.209,0.673-24.154,0.583-36.23
	c-5.361,6.762-11.936,12.617-19.165,16.018c-4.245,1.997-7.862-3.772-4.392-6.843c5.275-4.673,10.922-8.48,15.578-13.889
	c4.314-5.019,7.595-10.549,10.796-16.311C280.861,190.568,285.435,191.244,286.59,193.981z"/>
<g>
	
		<linearGradient id="SVGID_7_" gradientUnits="userSpaceOnUse" x1="522.4961" y1="-66.7078" x2="522.6307" y2="-39.7061" gradientTransform="matrix(-0.2167 -0.9762 0.9762 -0.2167 163.3418 898.5876)">
		<stop  offset="0" style="stop-color:#FFFFFF"/>
		<stop  offset="0.7635" style="stop-color:#C7C7C7"/>
	</linearGradient>
	<polygon fill="url(#SVGID_7_)" points="43.042,386.698 44.265,392.133 44.394,392.705 -26.4,408.626 -27.751,402.618 	"/>
	<polygon fill="#F2F2F2" points="1.318,399.263 43.083,386.839 44.417,392.85 	"/>
</g>
</svg>
