<svg xmlns="http://www.w3.org/2000/svg" xmlns:xlink="http://www.w3.org/1999/xlink" viewBox="0 0 274.1 320.38"><defs><style>.cls-1{isolation:isolate;}.cls-10,.cls-12,.cls-15,.cls-2,.cls-3,.cls-4,.cls-5{fill-rule:evenodd;}.cls-12,.cls-2,.cls-3{mix-blend-mode:screen;}.cls-2{fill:url(#Gradient_bez_nazwy_18);}.cls-3{fill:url(#Áĺçűě_ííűé_ăđŕäčĺíň_200);}.cls-10,.cls-4{fill:#5badff;}.cls-4,.cls-6{opacity:0.61;}.cls-5{fill:url(#Áĺçűě_ííűé_ăđŕäčĺíň_198);}.cls-7{fill:#8fcbff;}.cls-8{fill:#4acbff;}.cls-9{fill:url(#Áĺçűě_ííűé_ăđŕäčĺíň_198-2);}.cls-11{fill:url(#Áĺçűě_ííűé_ăđŕäčĺíň_198-3);}.cls-12{fill:url(#Áĺçűě_ííűé_ăđŕäčĺíň_404);}.cls-13{fill:#0e0f15;}.cls-14,.cls-15{fill:#ee4c23;}.cls-16{fill:#f8f8f8;}.cls-17{fill:#fff;}</style><radialGradient id="Gradient_bez_nazwy_18" cx="-3529.59" cy="181.57" r="73.03" gradientTransform="matrix(0.96, -0.61, 0.61, 0.95, 3397.22, -2252.33)" gradientUnits="userSpaceOnUse"><stop offset="0" stop-color="#2c6aff"/><stop offset="0.25" stop-color="#234eb8"/><stop offset="0.52" stop-color="#1a3373"/><stop offset="0.74" stop-color="#142040"/><stop offset="0.91" stop-color="#101421"/><stop offset="1" stop-color="#0e0f15"/></radialGradient><radialGradient id="Áĺçűě_ííűé_ăđŕäčĺíň_200" cx="115.07" cy="56.49" r="41.63" gradientUnits="userSpaceOnUse"><stop offset="0" stop-color="#2c6aff"/><stop offset="0.11" stop-color="#2b68fa"/><stop offset="0.23" stop-color="#2962ec"/><stop offset="0.36" stop-color="#2558d4"/><stop offset="0.5" stop-color="#1f4ab3"/><stop offset="0.65" stop-color="#183989"/><stop offset="0.79" stop-color="#0f2355"/><stop offset="0.94" stop-color="#040a18"/><stop offset="1"/></radialGradient><radialGradient id="Áĺçűě_ííűé_ăđŕäčĺíň_198" cx="126.68" cy="66.18" r="47.55" gradientUnits="userSpaceOnUse"><stop offset="0" stop-color="#5ea3e9"/><stop offset="0.77" stop-color="#75fff5"/><stop offset="1" stop-color="#f1f3ff"/></radialGradient><radialGradient id="Áĺçűě_ííűé_ăđŕäčĺíň_198-2" cx="131.99" cy="74.36" r="46.99" xlink:href="#Áĺçűě_ííűé_ăđŕäčĺíň_198"/><radialGradient id="Áĺçűě_ííűé_ăđŕäčĺíň_198-3" cx="138.87" cy="71.18" r="43.67" xlink:href="#Áĺçűě_ííűé_ăđŕäčĺíň_198"/><radialGradient id="Áĺçűě_ííűé_ăđŕäčĺíň_404" cx="1126.63" cy="-2550.52" r="13.95" gradientTransform="matrix(1.1, 0.3, -0.43, 1.59, -2150.59, 3811.66)" gradientUnits="userSpaceOnUse"><stop offset="0" stop-color="#2c6aff"/><stop offset="0.09" stop-color="#2559d6"/><stop offset="0.23" stop-color="#1b429e"/><stop offset="0.36" stop-color="#132e6e"/><stop offset="0.5" stop-color="#0c1d46"/><stop offset="0.63" stop-color="#071027"/><stop offset="0.76" stop-color="#030712"/><stop offset="0.89" stop-color="#010204"/><stop offset="1"/></radialGradient></defs><title>objectTitle</title><g class="cls-1"><g id="Warstwa_2" data-name="Warstwa 2"><g id="Warstwa_1-2" data-name="Warstwa 1"><path class="cls-2" d="M201.61,38.09a83,83,0,1,1-114.48-25A82.86,82.86,0,0,1,201.61,38.09Z"/><path class="cls-3" d="M140.39,115.59C115.87,125.15,89.16,102.21,90.13,69s55.58-37,75.77-23.73S178.42,100.78,140.39,115.59Z"/><path class="cls-4" d="M140.39,115.59C115.87,125.15,89.16,102.21,90.13,69s55.58-37,75.77-23.73S178.42,100.78,140.39,115.59Z"/><path class="cls-5" d="M168.65,77.5a34.59,34.59,0,0,1-49.29,31.3c-.88-.41-1.74-.87-2.58-1.35a34.36,34.36,0,0,1-8.88-7.35,33.54,33.54,0,0,1-2.56-3.34,35,35,0,0,1-2.8-5,34.68,34.68,0,0,1,0-28.51,32.46,32.46,0,0,1,2.17-4A34.25,34.25,0,0,1,111,51.69h0a34.52,34.52,0,0,1,41.41-3.48h0c.61.38,1.2.78,1.77,1.19s1,.71,1.42,1.08a34.71,34.71,0,0,1,13,27Z"/><g class="cls-6"><path class="cls-7" d="M136.24,38.05v.46c11.68,0,22.68,2.65,29.41,7.09,7.75,5.1,11.65,15,10.43,26.42-1.49,14-11.77,33.77-35.85,43.15a31,31,0,0,1-11.31,2.15c-9,0-17.84-4-24.86-11.2-9-9.25-13.89-22.79-13.47-37.15.6-21,23.36-30.46,45.65-30.46v-.46Zm0,0c-21.89,0-45.48,9.15-46.11,30.9-.81,28.1,18.11,48.82,38.79,48.82a31.51,31.51,0,0,0,11.47-2.18c38-14.81,45.7-57.06,25.51-70.37-7-4.61-18.09-7.17-29.66-7.17Z"/></g><path class="cls-8" d="M115.27,40a148.11,148.11,0,0,0-13.6,11.65c-4.17,4.23-8.12,8.77-10.82,13.92a25.71,25.71,0,0,0-2.56,16.47,55.45,55.45,0,0,0,6.35,16.06,48.1,48.1,0,0,0,26.59,21.81,45.47,45.47,0,0,0,17.47,2.28A35.24,35.24,0,0,0,155.27,117a38,38,0,0,0,12-12.35,47.48,47.48,0,0,0,5.94-16.19A68.58,68.58,0,0,0,174,71a102.37,102.37,0,0,0-2.82-17.35,30.53,30.53,0,0,0-7.68-14.85,27.75,27.75,0,0,0-14.88-7.62C137.15,29.21,124.74,32.83,115.27,40Zm-.22-.29a56.64,56.64,0,0,1,15.84-8.52,43.11,43.11,0,0,1,18-2.39,28.38,28.38,0,0,1,17,7.49c4.71,4.39,7.51,10.43,9,16.41,3,11.76,4.07,24.24,1.67,36.36a47.82,47.82,0,0,1-6.87,17.1,38.53,38.53,0,0,1-13.43,12.49,39.43,39.43,0,0,1-17.52,4.82A52.5,52.5,0,0,1,120.86,121a56.35,56.35,0,0,1-16.26-8A48.28,48.28,0,0,1,92,99.66a41.81,41.81,0,0,1-2.27-4,40.47,40.47,0,0,1-2-4.16,39.83,39.83,0,0,1-2.69-8.92,26.1,26.1,0,0,1,3.74-18.12A62.69,62.69,0,0,1,101,51C105.58,47.05,110.31,43.37,115.05,39.72Z"/><path class="cls-9" d="M167.91,105.22c1.16-5.92,2.67-11.78,4.28-17.59S175.55,76,176.11,70a21.34,21.34,0,0,0-.08-4.45,24.21,24.21,0,0,0-1.25-4.27c-1-2.83-2.86-5.18-4.48-7.78a36.11,36.11,0,0,1-2.12-4c-.63-1.38-1.12-2.85-1.74-4.18a33,33,0,0,0-4.84-7.49,35.38,35.38,0,0,0-14.26-10.57,17.22,17.22,0,0,0-8.78-1,21.88,21.88,0,0,0-4.26,1.33,19.39,19.39,0,0,0-3.92,2.15c-2.48,1.72-4,4.4-5.9,6.75a38.55,38.55,0,0,1-6.43,6.4,83,83,0,0,1-7.41,5.22,46.29,46.29,0,0,0-7,5.6A54.62,54.62,0,0,0,92.9,68a42.51,42.51,0,0,0-4.81,17.13,29.21,29.21,0,0,0,4.37,17,38.36,38.36,0,0,0,13,12.11,53.73,53.73,0,0,0,16.4,7.09,42.26,42.26,0,0,0,17.81.22c5.92-1.11,11.51-3.47,17-6,2.74-1.29,5.59-2.32,8.31-3.59,1.3-.69,2.78-1.33,3.61-2.56a1.49,1.49,0,0,0,.21-1,4.52,4.52,0,0,0-.39-1A3.42,3.42,0,0,1,167.91,105.22Zm.09,0a3.33,3.33,0,0,0,.47,2.14,4.88,4.88,0,0,1,.42,1.06,1.68,1.68,0,0,1-.22,1.14c-.87,1.3-2.34,1.94-3.65,2.66-2.73,1.31-5.55,2.38-8.26,3.7-5.46,2.55-11,5-17,6.22a43.07,43.07,0,0,1-18.12.06A52.48,52.48,0,0,1,105,115.06a39.37,39.37,0,0,1-13.22-12.42,30.07,30.07,0,0,1-4.47-17.51,42,42,0,0,1,5-17.41,55.06,55.06,0,0,1,11-14.43,47.76,47.76,0,0,1,7.15-5.59,83,83,0,0,0,7.42-5.14,39.05,39.05,0,0,0,6.43-6.29c1.89-2.31,3.38-5.07,5.92-6.86a20.11,20.11,0,0,1,4-2.23,21.74,21.74,0,0,1,4.34-1.39,17.53,17.53,0,0,1,9,1,35.81,35.81,0,0,1,14.61,10.62,33.68,33.68,0,0,1,5,7.61A67.47,67.47,0,0,0,171,53.13c1.53,2.53,3.44,5,4.43,7.94a25.09,25.09,0,0,1,1.22,4.42,21.25,21.25,0,0,1,0,4.58c-.65,6.06-2.54,11.84-4.15,17.64S169.23,99.33,168,105.24Z"/><path class="cls-4" d="M141,115.94C116.5,125.5,89.8,102.56,90.76,69.3s55.58-37,75.78-23.73S179.05,101.13,141,115.94Z"/><path class="cls-10" d="M157.55,88.47a13.94,13.94,0,0,0-2.25,3.33c-.36.8-1,2-.27,2.7s2.89-.49,3.63-1.22c.35-.34.73-.72,1.08-1.1a4.27,4.27,0,0,0,.88-1.39,9.75,9.75,0,0,0,.43-3.84,12.47,12.47,0,0,0,0-2.52,7.45,7.45,0,0,0-1.28-2.38c-1.08-1.33-1.61.09-1.81,1.12a20,20,0,0,1-.66,3.6c-.1.27-.1.57-.21.83s-.29.33-.34.47a5.43,5.43,0,0,0,0,1.71Z"/><path class="cls-10" d="M162.58,76.88c-.14-.29-.81-1.16-.23-1.33a1.09,1.09,0,0,1,.84.28c.53.54.47,1.64.48,2.33s-.1.93-.6.42a2.79,2.79,0,0,1-.71-1.26Z"/><path class="cls-10" d="M151.65,93.72c-.44-.54-.65-.94-1.3-1.1-.34-.09-.78-.1-1.15-.17-1.39-.27-2.68.53-3.91,1.07s-2.3.84-3.44,1.28a7.46,7.46,0,0,0-3.32,2.82,24.41,24.41,0,0,0-2.42,4.85c-.36.94-.92,2.52-.61,3.55a2.51,2.51,0,0,0,2.4,1.71,19.13,19.13,0,0,0,3.3-.07c.58-.08,1.13-.3,1.71-.37s.94,0,1.41,0,.94-.19,1.43-.23a5.72,5.72,0,0,0,2.49-.87,14.59,14.59,0,0,0,2.09-1.78,7.83,7.83,0,0,0,2.29-2.57,6.26,6.26,0,0,0,.34-2.65,13.69,13.69,0,0,0,0-2.31,6.42,6.42,0,0,1-.2-1c0-.32,0-.65,0-1C152.69,94.36,152.25,94,151.65,93.72Z"/><path class="cls-10" d="M150.77,88.69c.42-.53,1.1-1.35,1.82-.73a1.35,1.35,0,0,1,.16,1.52c-.49.64-1.83-.06-2-.79Z"/><path class="cls-10" d="M117.42,65.89a50.15,50.15,0,0,0,3.94-3.54c1-1,2.12-1.83,3.14-2.79a6.61,6.61,0,0,0,2-3.31,7.69,7.69,0,0,0,0-3.41,3.71,3.71,0,0,0-1.13-2.29,3.2,3.2,0,0,0-2.49-.58,7,7,0,0,0-3.3,1.05c-1.73,1-3.14,2.25-4.77,3.35-1.47,1-2.2,2.38-1.57,3.27a6.83,6.83,0,0,0-1.91,2.42,11.92,11.92,0,0,0-1.16,4.79,4.15,4.15,0,0,0,.76,3.06c1.16,1.26,3.73-.19,4.89-.91.47-.29.91-.64,1.36-1,.61-.46,1.34-1,2.16-.84a1.63,1.63,0,0,1,1.22,2.21c-.68,1.37-2.07.48-2.73-.36Z"/><path class="cls-10" d="M131.75,47.58c-.31.64-.6,1-.19,1.52a4.77,4.77,0,0,0,1.7,1.52,7.33,7.33,0,0,0,2.19.42,32,32,0,0,0,3.53,0c1,0,2.07,0,3.1,0a5,5,0,0,0,2.27-.25c1.27-.6,2-1.46,1.4-2.8-1.33-3.15-5.33-4-8.37-3.95a8.89,8.89,0,0,0-3.66.43C132.39,45.1,130.6,46.15,131.75,47.58Z"/><path class="cls-10" d="M149.24,53.92c.46-.82,1.14-1.41,2.08-.88a1.87,1.87,0,0,1,1,1.88,1.36,1.36,0,0,1-1.1.93c-.86.17-1.62-.71-2.19-1.27Z"/><path class="cls-10" d="M153.84,83.22a2.86,2.86,0,0,0-.66,2.09c0,.52-.17,1.54.43,1.83.39.19.68,0,.93-.2a2.08,2.08,0,0,0,.94-1,4.14,4.14,0,0,0,.33-2.2c-.21-1.21-1.25-.76-2-.1Z"/><path class="cls-10" d="M125.85,102.9c-.76.06-2.49-.17-3.06.63a2.11,2.11,0,0,0-.46,1.06,3.6,3.6,0,0,0,1.77,3.08c1.5,1.1,4,1.75,5.58.57a2.38,2.38,0,0,0,.2-3.71c-.89-.71-3.11-2.18-4.25-1.41Z"/><path class="cls-10" d="M131.31,100.93c.74.92.87,1.08,1.74.6.34-.19.59-.18.68-.59a1.92,1.92,0,0,0,0-.76,1.45,1.45,0,0,0-1.19-.34.92.92,0,0,0-1,.87Z"/><path class="cls-11" d="M138.67,35.66c-11.28,1.49-22.82,2.32-33.61,5.82a32.25,32.25,0,0,0-7.54,3.58,13.17,13.17,0,0,0-5.17,6.09,12.89,12.89,0,0,0-.85,3.93,39.19,39.19,0,0,0-.21,4.19,28,28,0,0,0,1.23,8.2c1.6,5.35,5,10,8.24,14.68,1.64,2.33,3.26,4.7,4.83,7.09.78,1.19,1.52,2.44,2.38,3.55l1.24,1.7c.46.54,1,1,1.44,1.55A34.32,34.32,0,0,0,125,104.72a52.79,52.79,0,0,0,16.74,2.44,72.8,72.8,0,0,0,32.49-8.62c1.28-.61,2.46-1.37,3.7-2s2.32-1.53,3.48-2.31c2.13-1.7,4.06-3.74,4.54-6.22s-.43-5.18-1.38-7.82-2-5.35-2.85-8.13c-1.65-5.62-2-11.38-3.14-16.9a38.08,38.08,0,0,0-2.39-8,17.68,17.68,0,0,0-1-1.83,9.44,9.44,0,0,0-1.11-1.73c-.42-.54-.82-1.11-1.27-1.62l-1.51-1.41a9.18,9.18,0,0,0-1.67-1.22,16.8,16.8,0,0,0-1.77-1.09L166,37.38l-1-.42-1-.29a39.53,39.53,0,0,0-8.32-1.55c-1.42-.09-2.84-.18-4.26-.23l-4.27.11C144.34,35.05,141.51,35.45,138.67,35.66Zm0-.18a99.73,99.73,0,0,1,17.11-.86,39.85,39.85,0,0,1,8.52,1.25l1.06.25,1,.4,2,.79a18.93,18.93,0,0,1,1.91,1.07,9,9,0,0,1,1.83,1.23L173.82,41c.51.53,1,1.12,1.44,1.69a9.32,9.32,0,0,1,1.26,1.81,16.77,16.77,0,0,1,1.08,1.94,39.83,39.83,0,0,1,2.72,8.29c1.29,5.64,1.6,11.38,3.23,16.72.83,2.68,1.84,5.31,2.85,8s2.1,5.62,1.45,8.83-3,5.51-5.31,7.3c-1.22.8-2.41,1.68-3.67,2.38s-2.52,1.45-3.82,2.06a72.52,72.52,0,0,1-33.27,8.08,56.63,56.63,0,0,1-16.94-2.82,37.22,37.22,0,0,1-14.64-8.85c-.49-.52-1-1-1.49-1.57l-1.3-1.73c-.91-1.15-1.62-2.36-2.44-3.53-1.64-2.33-3.31-4.63-5-6.91-3.35-4.57-7-9.18-8.86-14.81a29.54,29.54,0,0,1-1.37-8.64,37.31,37.31,0,0,1,.17-4.36,13.54,13.54,0,0,1,1-4.38,13.78,13.78,0,0,1,2.42-3.81,18.28,18.28,0,0,1,3.42-2.87,30.44,30.44,0,0,1,8-3.48,102.77,102.77,0,0,1,16.9-3Z"/><path class="cls-10" d="M187.72,94.48c-.4.18-.71.24-.94.56a1.59,1.59,0,0,0-.28.84,1.15,1.15,0,0,0,.22.86,2.19,2.19,0,0,0,1,.38A3.93,3.93,0,0,0,192.59,94a.84.84,0,0,0-.16-.76,2.37,2.37,0,0,1-.56-1.13c-.1-1.2,1-2.46.56-3.64-.22-.68-.48-1.34-1.26-1.15a3.87,3.87,0,0,0-2,1.7,5.55,5.55,0,0,0-.8,1.64,15.54,15.54,0,0,1-.43,1.52c-.18.46-.35.89-.55,1.34C187.08,94.27,186.88,94.86,187.72,94.48Z"/><path class="cls-10" d="M190.24,84.86c-.1-.3-.33-1.14.24-1.11s.74.73.83,1.12c.16.69-1,.69-1,.21Z"/><path class="cls-10" d="M190.44,102.27a7.39,7.39,0,0,1,1.56.07,1.11,1.11,0,0,0,.07.43,2.39,2.39,0,0,1-.14,1.18,3,3,0,0,1-1.25,1.58,2.49,2.49,0,0,1-2.83-.53c-.64-.52-1.23-1.49-.46-2.19a5.33,5.33,0,0,1,1.94-1c.33-.1,1.14-.42,1.44-.1Z"/><path class="cls-10" d="M85.73,53.05c-.5.24-.82.25-1,.75a7.83,7.83,0,0,0-.34,2.31,6.73,6.73,0,0,0,1,3.72c.11.16.33.5.56.54s.69-.36.88-.54a8.32,8.32,0,0,0,1.71-2.07,3.8,3.8,0,0,0,.4-2.54c-.08-.58-.24-1.14-.33-1.71a4.24,4.24,0,0,0-.3-1.11c-.21-.45-.48-1-1-.87a4.14,4.14,0,0,0-1.39.77C85.31,52.71,85.06,53.3,85.73,53.05Z"/><path class="cls-10" d="M85.41,64.42a1.17,1.17,0,0,1-.1-.55.89.89,0,0,1,1,0c.33.18.64.59.41,1a.8.8,0,0,1-.92.42c-.4-.16-.84-.54-.77-1Z"/><path class="cls-10" d="M82.34,75.35c-.16.35-.44,1,0,1.33a.68.68,0,0,0,.46.11c.18-.05.21-.18.32-.32.33-.43.8-.93.77-1.5,0-.36-.16-1.27-.72-1.14s-.79,1.52-.82,2Z"/><path class="cls-10" d="M88.35,103.23a6.43,6.43,0,0,0,1.3,1.46c.24.22.7.69,1.09.5s.37-.82.34-1.08a3.27,3.27,0,0,0-.65-1.32,1.58,1.58,0,0,0-1.53-.6c-.35.14-.55.3-.55.71Z"/><path class="cls-10" d="M95.35,98.63a9.87,9.87,0,0,0,3.06,3.51c.24.16.61.37.85.11s-.05-.89-.19-1.21a27,27,0,0,0-1.85-3.21,14.06,14.06,0,0,1-1-1.66c-.27-.61-.65-1.19-1-1.8s-.57-1.05-.85-1.58c-.11-.19-.36-.62-.6-.7s-.54.25-.63.47A2.66,2.66,0,0,0,93.13,94a7.85,7.85,0,0,0,.53,1.64,11.58,11.58,0,0,0,.68,1.68,16.78,16.78,0,0,0,1,1.62c.26.33.5.72.79,1s.73.61,1.08.93Z"/><path class="cls-10" d="M164,114.7c.52-.1,1.34-.51,1.69.11a1.44,1.44,0,0,1-.05,1.32c-.33.88-.9,1.75-1.94,1.75-.72,0-1.78-.32-1.78-1.18a1.35,1.35,0,0,1,.76-1.13,4.77,4.77,0,0,1,1.65-.76Z"/><path class="cls-12" d="M201.79,91.44c-3.33,12.26-12.87,20.34-21.32,18s-12.58-14.09-9.26-26.35,12.87-20.34,21.32-18S205.12,79.18,201.79,91.44Z"/><rect class="cls-13" x="21.56" y="205.51" width="228.98" height="88.69"/><path class="cls-14" d="M251,294.56l-229.78.08,0-89.49,229.78-.07Zm-229-.72,228.18-.08,0-87.89L22,206Z"/><polygon class="cls-15" points="77.35 205.14 84.5 209.22 137.95 209.2 146.11 205.52 77.35 205.14"/><polygon class="cls-15" points="21.67 284.21 31.19 294.24 21.58 294.24 21.67 284.21"/><path class="cls-14" d="M39.48,247.59a.85.85,0,0,1-.84-.35.83.83,0,0,1-.08-.79.7.7,0,0,1,.7-.44,4.19,4.19,0,0,0,2.81-1,3.94,3.94,0,0,0,.93-2.91V226.92c0-.68.31-1,1-1s1,.34,1,1V242a5.52,5.52,0,0,1-1.44,4.21A5.79,5.79,0,0,1,39.48,247.59ZM44,222.15c-.93,0-1.4-.44-1.4-1.33s.47-1.3,1.4-1.3,1.39.43,1.39,1.3S44.88,222.15,44,222.15Z"/><path class="cls-14" d="M56.15,241.77a7,7,0,0,1-3.75-1,6.48,6.48,0,0,1-2.46-2.76,9.64,9.64,0,0,1-.87-4.24,9.4,9.4,0,0,1,.87-4.21,6.48,6.48,0,0,1,2.46-2.78,7.64,7.64,0,0,1,7.52,0,6.6,6.6,0,0,1,2.47,2.77,10.69,10.69,0,0,1,0,8.45,6.37,6.37,0,0,1-2.46,2.76A7.09,7.09,0,0,1,56.15,241.77Zm0-1.61a4.64,4.64,0,0,0,3.75-1.67,7.13,7.13,0,0,0,1.39-4.69,7,7,0,0,0-1.4-4.67,5.05,5.05,0,0,0-7.48,0A7.06,7.06,0,0,0,51,233.8a7.21,7.21,0,0,0,1.39,4.69A4.59,4.59,0,0,0,56.15,240.16Z"/><path class="cls-14" d="M74.73,241.77a6.31,6.31,0,0,1-3.29-.84,5.27,5.27,0,0,1-2.11-2.3v2.09c0,.66-.32,1-1,1a.88.88,0,0,1-1-1v-20.8a.86.86,0,0,1,1-1,.85.85,0,0,1,.95,1V229a5.21,5.21,0,0,1,2.11-2.3,6.38,6.38,0,0,1,3.28-.85,6.24,6.24,0,0,1,5,2.16,8.65,8.65,0,0,1,1.85,5.81,9.72,9.72,0,0,1-.84,4.24,6.35,6.35,0,0,1-2.38,2.77A6.55,6.55,0,0,1,74.73,241.77Zm-.29-1.62a4.64,4.64,0,0,0,3.75-1.67,8.51,8.51,0,0,0,0-9.35,5.09,5.09,0,0,0-7.5,0,7,7,0,0,0-1.39,4.67,7.08,7.08,0,0,0,1.39,4.68A4.67,4.67,0,0,0,74.44,240.15Z"/><path class="cls-16" d="M103.15,241.76a9.8,9.8,0,0,1-5.32-1.4,9.21,9.21,0,0,1-3.46-4,14,14,0,0,1-1.22-6.09,14.16,14.16,0,0,1,1.2-6.1,9,9,0,0,1,3.46-4,11,11,0,0,1,10.69,0,9.13,9.13,0,0,1,3.46,3.94,15.77,15.77,0,0,1,0,12.21,9.16,9.16,0,0,1-3.47,4A9.93,9.93,0,0,1,103.15,241.76Zm0-1.78a7.22,7.22,0,0,0,5.88-2.54q2.09-2.55,2.09-7.15c0-3.07-.69-5.44-2.08-7.13a8.09,8.09,0,0,0-11.75,0q-2.08,2.55-2.08,7.12a11,11,0,0,0,2.08,7.13A7.14,7.14,0,0,0,103.15,240Z"/><path class="cls-16" d="M125.1,241.75a6.31,6.31,0,0,1-3.29-.84,5.27,5.27,0,0,1-2.11-2.3v2.09c0,.66-.32,1-1,1a.87.87,0,0,1-1-1V219.9a.87.87,0,0,1,1-1,.86.86,0,0,1,1,1v9a5.21,5.21,0,0,1,2.11-2.3,6.81,6.81,0,0,1,8.25,1.32,8.59,8.59,0,0,1,1.86,5.81,9.93,9.93,0,0,1-.84,4.24,6.32,6.32,0,0,1-2.38,2.76A6.58,6.58,0,0,1,125.1,241.75Zm-.29-1.62a4.64,4.64,0,0,0,3.75-1.67,8.51,8.51,0,0,0,0-9.35,5.09,5.09,0,0,0-7.5,0,7,7,0,0,0-1.39,4.67,7.13,7.13,0,0,0,1.39,4.69A4.66,4.66,0,0,0,124.81,240.13Z"/><path class="cls-16" d="M132.63,247.56a.85.85,0,0,1-.84-.35.83.83,0,0,1-.08-.79.69.69,0,0,1,.69-.45,4.06,4.06,0,0,0,2.81-1,3.86,3.86,0,0,0,.94-2.9V226.88c0-.67.31-1,.95-1a.88.88,0,0,1,1,1V242a5.5,5.5,0,0,1-1.45,4.21A5.74,5.74,0,0,1,132.63,247.56Zm4.47-25.44c-.93,0-1.4-.44-1.4-1.33s.46-1.31,1.4-1.31,1.39.44,1.39,1.31S138,222.12,137.1,222.12Z"/><path class="cls-16" d="M149.87,241.74a7.46,7.46,0,0,1-5.61-2.11,8,8,0,0,1-2-5.79,9.21,9.21,0,0,1,.92-4.2,6.87,6.87,0,0,1,6.32-3.84,6,6,0,0,1,4.8,2,8.22,8.22,0,0,1,1.72,5.49.79.79,0,0,1-.89.89h-11a6.41,6.41,0,0,0,1.57,4.39,5.44,5.44,0,0,0,4.12,1.54,8.57,8.57,0,0,0,2.27-.3,6.33,6.33,0,0,0,2.14-1.1,1,1,0,0,1,1-.17.82.82,0,0,1,.46.67,1,1,0,0,1-.5.84,6.8,6.8,0,0,1-2.46,1.25A9.79,9.79,0,0,1,149.87,241.74Zm-.39-14.38a4.78,4.78,0,0,0-3.76,1.51,6.56,6.56,0,0,0-1.57,3.89h10.07a6.32,6.32,0,0,0-1.27-4A4.27,4.27,0,0,0,149.48,227.36Z"/><path class="cls-16" d="M166.2,241.74a7.29,7.29,0,0,1-3.88-1,6.55,6.55,0,0,1-2.49-2.83,9.62,9.62,0,0,1-.88-4.24,8.25,8.25,0,0,1,1.92-5.76,6.82,6.82,0,0,1,5.32-2.12,7.67,7.67,0,0,1,2.43.42,6,6,0,0,1,2.24,1.3.73.73,0,0,1,.32.76.92.92,0,0,1-.5.65.77.77,0,0,1-.87-.17,5.11,5.11,0,0,0-1.81-1,6.22,6.22,0,0,0-1.75-.27,4.91,4.91,0,0,0-3.95,1.62,6.89,6.89,0,0,0-1.38,4.6,7.24,7.24,0,0,0,1.38,4.69,4.82,4.82,0,0,0,4,1.7,6.56,6.56,0,0,0,1.74-.28,4.88,4.88,0,0,0,1.81-1,.79.79,0,0,1,.88-.17.88.88,0,0,1,.44.65.75.75,0,0,1-.3.76,6.22,6.22,0,0,1-2.22,1.29A8.05,8.05,0,0,1,166.2,241.74Z"/><path class="cls-16" d="M180.3,241.73a5,5,0,0,1-3.86-1.39,5.72,5.72,0,0,1-1.29-4v-8.7H172.8c-.62,0-.92-.26-.93-.79s.31-.76.92-.76h2.36v-4a.88.88,0,0,1,1-1c.63,0,1,.33,1,1v4h4.29c.59,0,.89.26.89.77s-.3.79-.89.79h-4.29v8.45a4.69,4.69,0,0,0,.79,2.95,3.88,3.88,0,0,0,3.69.87,2.34,2.34,0,0,1,.73-.14c.38,0,.57.27.57.8a1.21,1.21,0,0,1-.11.49.64.64,0,0,1-.4.33,5.18,5.18,0,0,1-1,.24A6.7,6.7,0,0,1,180.3,241.73Z"/><path class="cls-17" d="M42.7,257.49a1.94,1.94,0,0,1-1-.27,1.79,1.79,0,0,1-.66-.75,2.58,2.58,0,0,1-.24-1.14,2.18,2.18,0,0,1,.52-1.54,1.83,1.83,0,0,1,1.42-.56,1.93,1.93,0,0,1,.65.11,1.79,1.79,0,0,1,.6.34.2.2,0,0,1,.08.21.23.23,0,0,1-.13.17.2.2,0,0,1-.23,0,1.4,1.4,0,0,0-.49-.27,1.58,1.58,0,0,0-.47-.07,1.3,1.3,0,0,0-1.05.43,1.83,1.83,0,0,0-.37,1.23,1.9,1.9,0,0,0,.37,1.25,1.28,1.28,0,0,0,1.06.46,2,2,0,0,0,.46-.07,1.4,1.4,0,0,0,.49-.27c.09-.07.16-.09.23,0a.3.3,0,0,1,.12.17.22.22,0,0,1-.08.21,1.56,1.56,0,0,1-.6.34A2.1,2.1,0,0,1,42.7,257.49Z"/><path class="cls-17" d="M46.47,257.49a1.88,1.88,0,0,1-1-.26,1.64,1.64,0,0,1-.66-.74,2.51,2.51,0,0,1-.23-1.13,2.38,2.38,0,0,1,.23-1.13,1.74,1.74,0,0,1,.65-.74,1.85,1.85,0,0,1,1-.26,1.75,1.75,0,0,1,1.67,1,2.89,2.89,0,0,1,0,2.26,1.76,1.76,0,0,1-.66.74A1.92,1.92,0,0,1,46.47,257.49Zm0-.44a1.22,1.22,0,0,0,1-.44,1.9,1.9,0,0,0,.37-1.25,1.87,1.87,0,0,0-.37-1.25,1.36,1.36,0,0,0-2,0,1.87,1.87,0,0,0-.37,1.25,1.9,1.9,0,0,0,.37,1.25A1.22,1.22,0,0,0,46.47,257.05Z"/><path class="cls-17" d="M51.11,257.49a1.91,1.91,0,0,1-1-.26,1.83,1.83,0,0,1-.66-.74,2.89,2.89,0,0,1,0-2.26,1.76,1.76,0,0,1,.66-.74,2,2,0,0,1,2,0,1.7,1.7,0,0,1,.66.74,2.46,2.46,0,0,1,.23,1.12,2.52,2.52,0,0,1-.23,1.14,1.69,1.69,0,0,1-.66.74A1.92,1.92,0,0,1,51.11,257.49Zm0-.44a1.24,1.24,0,0,0,1-.44,1.91,1.91,0,0,0,.38-1.26,1.86,1.86,0,0,0-.38-1.24,1.36,1.36,0,0,0-2,0,2.32,2.32,0,0,0,0,2.5A1.22,1.22,0,0,0,51.11,257.05Z"/><path class="cls-17" d="M54.38,257.47a.23.23,0,0,1-.26-.26v-3.7c0-.18.08-.27.26-.27s.25.09.25.27v.54a1.38,1.38,0,0,1,.55-.62,1.83,1.83,0,0,1,.86-.22.26.26,0,0,1,.17,0,.18.18,0,0,1,.06.16c0,.16-.07.24-.24.26h-.12a1.38,1.38,0,0,0-.94.4,1.25,1.25,0,0,0-.33.92v2.2A.23.23,0,0,1,54.38,257.47Z"/><path class="cls-17" d="M58.54,257.48a1.72,1.72,0,0,1-1-.26,1.68,1.68,0,0,1-.63-.73,2.67,2.67,0,0,1-.22-1.14,2.24,2.24,0,0,1,.49-1.55,1.79,1.79,0,0,1,2.2-.35,1.38,1.38,0,0,1,.56.61v-2.42a.26.26,0,0,1,.52,0v5.56c0,.18-.08.27-.25.27s-.26-.09-.26-.27v-.56a1.48,1.48,0,0,1-.57.62A1.66,1.66,0,0,1,58.54,257.48Zm.07-.43a1.23,1.23,0,0,0,1-.45,2.3,2.3,0,0,0,0-2.5,1.25,1.25,0,0,0-1-.44,1.23,1.23,0,0,0-1,.45,1.85,1.85,0,0,0-.37,1.24,2,2,0,0,0,.37,1.26A1.25,1.25,0,0,0,58.61,257.05Z"/><path class="cls-17" d="M62.11,252.24a.32.32,0,0,1-.37-.36c0-.23.12-.35.37-.35s.38.12.38.35S62.36,252.24,62.11,252.24Zm0,5.21a.25.25,0,0,1-.27-.28v-3.64a.26.26,0,1,1,.52,0v3.64C62.37,257.35,62.29,257.45,62.12,257.45Z"/><path class="cls-17" d="M64,257.46c-.18,0-.26-.08-.26-.26v-3.69c0-.18.08-.27.26-.27s.25.09.25.27V254a1.37,1.37,0,0,1,.58-.61,1.87,1.87,0,0,1,.85-.2q1.47,0,1.47,1.59v2.39a.26.26,0,0,1-.52,0v-2.34a1.33,1.33,0,0,0-.25-.9,1,1,0,0,0-.78-.29,1.33,1.33,0,0,0-1,.38,1.41,1.41,0,0,0-.37,1v2.14C64.25,257.38,64.17,257.46,64,257.46Z"/><path class="cls-17" d="M69.76,257.48a1.64,1.64,0,0,1-.74-.16,1.41,1.41,0,0,1-.52-.44,1.17,1.17,0,0,1-.19-.63,1.05,1.05,0,0,1,.23-.72,1.42,1.42,0,0,1,.77-.37,8.29,8.29,0,0,1,1.5-.11h.26v-.3a1.25,1.25,0,0,0-.23-.83.92.92,0,0,0-.73-.26,2.72,2.72,0,0,0-.63.08,2.84,2.84,0,0,0-.63.28c-.11,0-.19,0-.25,0a.25.25,0,0,1-.08-.21.21.21,0,0,1,.14-.2,3.23,3.23,0,0,1,.72-.3,3.08,3.08,0,0,1,.72-.09,1.48,1.48,0,0,1,1.11.38,1.64,1.64,0,0,1,.36,1.17v2.43c0,.17-.08.26-.24.26a.23.23,0,0,1-.25-.26v-.53a1.25,1.25,0,0,1-.51.6A1.53,1.53,0,0,1,69.76,257.48Zm.07-.42a1.11,1.11,0,0,0,.64-.17,1.27,1.27,0,0,0,.44-.48,1.45,1.45,0,0,0,.16-.7v-.28h-.25a9,9,0,0,0-1.2.07,1.13,1.13,0,0,0-.59.24.61.61,0,0,0-.17.47.79.79,0,0,0,.26.62A1,1,0,0,0,69.83,257.06Z"/><path class="cls-17" d="M74.48,257.48a1.35,1.35,0,0,1-1-.38A1.49,1.49,0,0,1,73.1,256v-2.33h-.63q-.24,0-.24-.21t.24-.21h.63v-1.06a.26.26,0,0,1,.52,0v1.06h1.14q.24,0,.24.21t-.24.21H73.62V256a1.28,1.28,0,0,0,.21.79.85.85,0,0,0,.71.27,1.11,1.11,0,0,0,.28,0,.46.46,0,0,1,.19,0q.15,0,.15.21a.35.35,0,0,1,0,.14.14.14,0,0,1-.1.08,1.05,1.05,0,0,1-.26.07Z"/><path class="cls-17" d="M77.52,257.48a2,2,0,0,1-1.5-.57,2.1,2.1,0,0,1-.55-1.55,2.52,2.52,0,0,1,.24-1.12,1.92,1.92,0,0,1,.69-.75,1.85,1.85,0,0,1,1-.27,1.57,1.57,0,0,1,1.29.53,2.23,2.23,0,0,1,.45,1.47c0,.16-.07.24-.23.24H76a1.72,1.72,0,0,0,.42,1.17,1.43,1.43,0,0,0,1.1.41,2.09,2.09,0,0,0,.61-.08,1.71,1.71,0,0,0,.57-.29.27.27,0,0,1,.26-.05.19.19,0,0,1,.12.18.25.25,0,0,1-.13.23,1.9,1.9,0,0,1-.65.33A2.61,2.61,0,0,1,77.52,257.48Zm-.11-3.85a1.29,1.29,0,0,0-1,.4,1.78,1.78,0,0,0-.42,1h2.69a1.7,1.7,0,0,0-.34-1.06A1.18,1.18,0,0,0,77.41,253.63Z"/><path class="cls-17" d="M81.54,257.48a2.79,2.79,0,0,1-.76-.11,2.15,2.15,0,0,1-.72-.34.2.2,0,0,1-.1-.19.28.28,0,0,1,.1-.2.18.18,0,0,1,.22,0,2.26,2.26,0,0,0,.65.31,2.72,2.72,0,0,0,.63.08,1.34,1.34,0,0,0,.79-.19.61.61,0,0,0,.27-.53.52.52,0,0,0-.18-.42,1.4,1.4,0,0,0-.56-.24l-.74-.17q-1-.24-1-1.08a1.08,1.08,0,0,1,.43-.88,1.78,1.78,0,0,1,1.12-.33,2.45,2.45,0,0,1,.71.11,1.77,1.77,0,0,1,.6.34.23.23,0,0,1,.09.21.25.25,0,0,1-.11.18c-.07,0-.14,0-.23,0a1.84,1.84,0,0,0-.52-.27,1.71,1.71,0,0,0-.55-.09,1.21,1.21,0,0,0-.76.2.66.66,0,0,0-.27.55.58.58,0,0,0,.17.43,1.05,1.05,0,0,0,.52.24l.74.17a1.89,1.89,0,0,1,.83.38.87.87,0,0,1,.27.67,1,1,0,0,1-.44.87A1.89,1.89,0,0,1,81.54,257.48Z"/><path class="cls-17" d="M84.51,254a.36.36,0,0,1-.28-.11.38.38,0,0,1-.11-.28.39.39,0,0,1,.11-.28.36.36,0,0,1,.28-.11.34.34,0,0,1,.28.11.36.36,0,0,1,.11.28.38.38,0,0,1-.39.39Zm0,3.39a.38.38,0,0,1-.39-.39.41.41,0,0,1,.11-.28.39.39,0,0,1,.28-.11.42.42,0,0,1,.29.11.4.4,0,0,1,.1.28.39.39,0,0,1-.1.28A.42.42,0,0,1,84.51,257.43Z"/><path class="cls-17" d="M90.22,257.47a1.67,1.67,0,0,1-.88-.22,1.42,1.42,0,0,1-.57-.62v.56c0,.18-.08.27-.25.27a.24.24,0,0,1-.27-.27v-5.56a.24.24,0,0,1,.27-.26c.17,0,.25.09.25.26v2.42a1.4,1.4,0,0,1,.57-.61,1.79,1.79,0,0,1,2.2.35,2.29,2.29,0,0,1,.5,1.55,2.62,2.62,0,0,1-.22,1.13,1.69,1.69,0,0,1-1.6,1Zm-.08-.43a1.23,1.23,0,0,0,1-.45,2.3,2.3,0,0,0,0-2.5,1.36,1.36,0,0,0-2,0,2.25,2.25,0,0,0,0,2.5A1.23,1.23,0,0,0,90.14,257Z"/><path class="cls-17" d="M94.93,257.47a2,2,0,0,1-1.5-.56,2.13,2.13,0,0,1-.55-1.55,2.34,2.34,0,0,1,.25-1.12,1.8,1.8,0,0,1,.68-.76,1.88,1.88,0,0,1,1-.27,1.62,1.62,0,0,1,1.28.53,2.23,2.23,0,0,1,.46,1.47.21.21,0,0,1-.24.24H93.39a1.77,1.77,0,0,0,.42,1.18,1.46,1.46,0,0,0,1.1.41,2.49,2.49,0,0,0,.61-.08,1.75,1.75,0,0,0,.57-.3.26.26,0,0,1,.26,0,.2.2,0,0,1,.13.18c0,.08,0,.15-.13.22a2,2,0,0,1-.66.34A2.91,2.91,0,0,1,94.93,257.47Zm-.11-3.85a1.27,1.27,0,0,0-1,.41,1.75,1.75,0,0,0-.42,1h2.69a1.68,1.68,0,0,0-.34-1.06A1.12,1.12,0,0,0,94.82,253.62Z"/><path class="cls-17" d="M99.16,257.47a1.34,1.34,0,0,1-1-.37,1.53,1.53,0,0,1-.34-1.07V253.7h-.63c-.16,0-.25-.07-.25-.21s.09-.21.25-.21h.63v-1.06a.23.23,0,0,1,.26-.26c.17,0,.25.09.25.26v1.06h1.15q.24,0,.24.21t-.24.21H98.3V256a1.28,1.28,0,0,0,.21.79.83.83,0,0,0,.7.27.72.72,0,0,0,.28,0,.88.88,0,0,1,.2,0q.15,0,.15.21a.35.35,0,0,1,0,.14.17.17,0,0,1-.11.09l-.25.06Z"/><path class="cls-17" d="M101.73,257.47a1.72,1.72,0,0,1-.74-.16,1.33,1.33,0,0,1-.52-.44,1.09,1.09,0,0,1-.19-.63,1,1,0,0,1,.23-.72,1.36,1.36,0,0,1,.77-.37,8.17,8.17,0,0,1,1.49-.11H103v-.31a1.22,1.22,0,0,0-.22-.82.92.92,0,0,0-.73-.26,2.59,2.59,0,0,0-.63.08,2.71,2.71,0,0,0-.64.28.21.21,0,0,1-.24,0,.26.26,0,0,1-.09-.21.23.23,0,0,1,.14-.2,3.67,3.67,0,0,1,.72-.3,3.1,3.1,0,0,1,.73-.09,1.43,1.43,0,0,1,1.1.38,1.6,1.6,0,0,1,.37,1.17v2.43c0,.17-.08.26-.24.26a.23.23,0,0,1-.26-.26v-.53a1.3,1.3,0,0,1-.51.6A1.52,1.52,0,0,1,101.73,257.47Zm.07-.42a1.14,1.14,0,0,0,1.07-.65,1.48,1.48,0,0,0,.17-.7v-.28h-.26a8.69,8.69,0,0,0-1.19.07,1.13,1.13,0,0,0-.6.24.64.64,0,0,0-.17.47.79.79,0,0,0,.26.61A1,1,0,0,0,101.8,257.05Z"/><path class="cls-14" d="M107.65,257.4a.21.21,0,0,1-.24-.24c0-.15.08-.22.24-.22h1.18V252l-.93.64a.23.23,0,0,1-.25,0,.29.29,0,0,1-.13-.2.22.22,0,0,1,.13-.22l1.17-.82a.71.71,0,0,1,.16-.07l.15,0a.21.21,0,0,1,.22.24v5.34h1.1c.16,0,.24.07.24.22a.21.21,0,0,1-.24.24Z"/><path class="cls-14" d="M113.94,257.46a3.17,3.17,0,0,1-1-.15,2.18,2.18,0,0,1-.85-.46.25.25,0,0,1-.13-.23.27.27,0,0,1,.12-.2.24.24,0,0,1,.26,0,2.75,2.75,0,0,0,.78.4,2.53,2.53,0,0,0,.83.13,1.57,1.57,0,0,0,1-.32,1.12,1.12,0,0,0,.36-.9,1,1,0,0,0-.38-.88,1.71,1.71,0,0,0-1.09-.3h-.63c-.17,0-.26-.08-.26-.23s.09-.23.26-.23h.59a1.4,1.4,0,0,0,1-.33,1.19,1.19,0,0,0,.36-.92,1,1,0,0,0-.33-.79,1.44,1.44,0,0,0-.94-.27,2.15,2.15,0,0,0-1.48.55.21.21,0,0,1-.25.06.27.27,0,0,1-.13-.19.28.28,0,0,1,.13-.25,2,2,0,0,1,.79-.48,2.84,2.84,0,0,1,1-.17,2,2,0,0,1,1.32.4,1.38,1.38,0,0,1,.48,1.11,1.54,1.54,0,0,1-.27.9,1.47,1.47,0,0,1-.71.56,1.46,1.46,0,0,1,.84.52,1.53,1.53,0,0,1,.3,1,1.51,1.51,0,0,1-.52,1.22A2.09,2.09,0,0,1,113.94,257.46Z"/><path class="cls-14" d="M117.61,257.39a.28.28,0,0,1-.22-.07.26.26,0,0,1-.08-.19.38.38,0,0,1,.13-.26l2-2.15a3.8,3.8,0,0,0,.65-.91,1.91,1.91,0,0,0,.21-.86,1.09,1.09,0,0,0-.33-.85,1.44,1.44,0,0,0-1-.28,2.22,2.22,0,0,0-1.47.55c-.1.07-.18.09-.25,0a.27.27,0,0,1-.12-.2.24.24,0,0,1,.1-.23,2.42,2.42,0,0,1,.8-.47,2.65,2.65,0,0,1,1-.18,2,2,0,0,1,1.34.41,1.5,1.5,0,0,1,.47,1.17,2.29,2.29,0,0,1-.27,1.06,5,5,0,0,1-.8,1.1L118,256.94h2.88c.16,0,.25.07.25.22s-.09.23-.25.23Z"/><path class="cls-14" d="M124.12,257.46a3.41,3.41,0,0,1-1-.15,2.45,2.45,0,0,1-.86-.46.26.26,0,0,1-.12-.23.25.25,0,0,1,.12-.2c.07-.05.16,0,.26,0a3,3,0,0,0,.77.4,2.88,2.88,0,0,0,.83.13,1.6,1.6,0,0,0,1.06-.32,1.14,1.14,0,0,0,.36-.91,1.07,1.07,0,0,0-.38-.88,1.71,1.71,0,0,0-1.09-.3h-.64c-.17,0-.25-.07-.25-.23s.08-.23.25-.23h.6a1.4,1.4,0,0,0,1-.33,1.17,1.17,0,0,0,.36-.91,1,1,0,0,0-.33-.79,1.46,1.46,0,0,0-.94-.28,2.3,2.3,0,0,0-.79.14,1.94,1.94,0,0,0-.69.42.21.21,0,0,1-.25.06.26.26,0,0,1-.13-.19.3.3,0,0,1,.12-.26,2.3,2.3,0,0,1,.79-.47,2.63,2.63,0,0,1,1-.17,2,2,0,0,1,1.32.4,1.38,1.38,0,0,1,.48,1.11,1.54,1.54,0,0,1-.27.9,1.45,1.45,0,0,1-.71.55,1.48,1.48,0,0,1,.84.53,1.53,1.53,0,0,1,.3,1,1.56,1.56,0,0,1-.52,1.22A2.11,2.11,0,0,1,124.12,257.46Z"/><path class="cls-14" d="M127.05,257.71c0,.09-.08.15-.16.16a.25.25,0,0,1-.22-.07.17.17,0,0,1,0-.22l2-6.34c0-.11.09-.16.18-.17a.23.23,0,0,1,.21.06.19.19,0,0,1,0,.22Z"/><path class="cls-14" d="M130.08,257.39a.29.29,0,0,1-.22-.07.25.25,0,0,1-.07-.19.41.41,0,0,1,.12-.27l2-2.14a4.22,4.22,0,0,0,.66-.92,1.87,1.87,0,0,0,.2-.86,1,1,0,0,0-.33-.84,1.44,1.44,0,0,0-1-.29,2.28,2.28,0,0,0-1.47.55c-.1.08-.18.09-.25,0a.25.25,0,0,1-.12-.2.27.27,0,0,1,.1-.23,2.82,2.82,0,0,1,.8-.47,2.91,2.91,0,0,1,1-.17,2,2,0,0,1,1.34.41,1.47,1.47,0,0,1,.47,1.17A2.39,2.39,0,0,1,133,254a4.89,4.89,0,0,1-.81,1.1l-1.76,1.86h2.88c.17,0,.25.07.25.22s-.08.24-.25.24Z"/><path class="cls-14" d="M136.59,257.46a3.12,3.12,0,0,1-1-.16,2.3,2.3,0,0,1-.85-.45.25.25,0,0,1-.13-.24.27.27,0,0,1,.12-.2.23.23,0,0,1,.26,0,2.71,2.71,0,0,0,.78.39,2.51,2.51,0,0,0,.82.13,1.6,1.6,0,0,0,1.06-.31,1.15,1.15,0,0,0,.36-.91,1,1,0,0,0-.38-.88,1.71,1.71,0,0,0-1.09-.3h-.63c-.17,0-.26-.08-.26-.23s.09-.23.26-.23h.59a1.4,1.4,0,0,0,1-.33,1.19,1.19,0,0,0,.36-.92,1,1,0,0,0-.33-.78,1.41,1.41,0,0,0-.94-.28,2.15,2.15,0,0,0-1.48.55.21.21,0,0,1-.25.06.27.27,0,0,1-.13-.19.29.29,0,0,1,.12-.25,2.14,2.14,0,0,1,.8-.48,2.83,2.83,0,0,1,1-.16,2,2,0,0,1,1.32.39,1.38,1.38,0,0,1,.48,1.12,1.51,1.51,0,0,1-.27.89,1.47,1.47,0,0,1-.71.56,1.46,1.46,0,0,1,.84.52A1.7,1.7,0,0,1,138,257,2.1,2.1,0,0,1,136.59,257.46Z"/><path class="cls-17" d="M143.69,257.45a2,2,0,0,1-1-.26,1.78,1.78,0,0,1-.67-.76,2.51,2.51,0,0,1-.23-1.13,2.2,2.2,0,0,1,.51-1.54,1.82,1.82,0,0,1,1.42-.57,2.16,2.16,0,0,1,.65.11,1.82,1.82,0,0,1,.6.35.19.19,0,0,1,.08.2.24.24,0,0,1-.13.18.21.21,0,0,1-.23-.05,1.4,1.4,0,0,0-.49-.27,1.9,1.9,0,0,0-.46-.07,1.32,1.32,0,0,0-1.06.44,1.84,1.84,0,0,0-.37,1.23,2,2,0,0,0,.37,1.25,1.3,1.3,0,0,0,1.06.45,1.62,1.62,0,0,0,.47-.07,1.46,1.46,0,0,0,.48-.27c.09-.07.17-.08.23,0a.2.2,0,0,1,.12.17.18.18,0,0,1-.08.2,1.54,1.54,0,0,1-.59.35A2.14,2.14,0,0,1,143.69,257.45Z"/><path class="cls-17" d="M147.61,257.45a2,2,0,0,1-1.49-.56,2.11,2.11,0,0,1-.55-1.55,2.46,2.46,0,0,1,.24-1.12,2,2,0,0,1,.69-.76,1.85,1.85,0,0,1,1-.27,1.64,1.64,0,0,1,1.29.53,2.23,2.23,0,0,1,.45,1.47c0,.16-.07.24-.23.24h-2.93a1.67,1.67,0,0,0,.42,1.18,1.46,1.46,0,0,0,1.1.41,2.35,2.35,0,0,0,.6-.08,1.66,1.66,0,0,0,.58-.29.24.24,0,0,1,.26,0,.2.2,0,0,1,.12.18c0,.08,0,.15-.13.22a1.87,1.87,0,0,1-.66.34A2.85,2.85,0,0,1,147.61,257.45Zm-.1-3.84a1.3,1.3,0,0,0-1,.4,1.78,1.78,0,0,0-.42,1h2.7a1.74,1.74,0,0,0-.34-1.06A1.14,1.14,0,0,0,147.51,253.61Z"/><path class="cls-17" d="M150.56,257.43c-.18,0-.26-.08-.26-.26v-3.69a.24.24,0,0,1,.27-.27q.24,0,.24.27V254a1.45,1.45,0,0,1,.59-.61,1.87,1.87,0,0,1,.85-.2q1.47,0,1.47,1.59v2.39a.26.26,0,1,1-.52,0v-2.34a1.33,1.33,0,0,0-.25-.9.94.94,0,0,0-.78-.29,1.3,1.3,0,0,0-1,.38,1.41,1.41,0,0,0-.37,1v2.14C150.81,257.35,150.73,257.43,150.56,257.43Z"/><path class="cls-17" d="M156.6,257.45a1.38,1.38,0,0,1-1-.37,1.53,1.53,0,0,1-.34-1.07v-2.33h-.63c-.16,0-.25-.07-.25-.21s.09-.21.25-.21h.63V252.2a.26.26,0,0,1,.52,0v1.06h1.14q.24,0,.24.21t-.24.21h-1.14v2.26a1.28,1.28,0,0,0,.21.79.84.84,0,0,0,.7.27.72.72,0,0,0,.28,0,.88.88,0,0,1,.2,0c.1,0,.15.07.15.22a.35.35,0,0,1,0,.13.18.18,0,0,1-.1.09l-.26.06Z"/><path class="cls-17" d="M158.25,257.41a.39.39,0,0,1-.28-.11.41.41,0,0,1-.11-.28.38.38,0,0,1,.11-.28.36.36,0,0,1,.28-.11.37.37,0,0,1,.29.1.4.4,0,0,1,.1.28.41.41,0,0,1-.1.29A.42.42,0,0,1,158.25,257.41Z"/><path class="cls-17" d="M163.86,257.45a1.73,1.73,0,0,1-1.53-.78,5.28,5.28,0,0,1,0-4.57,1.92,1.92,0,0,1,3.07,0,4.13,4.13,0,0,1,.52,2.28,4.09,4.09,0,0,1-.53,2.28A1.74,1.74,0,0,1,163.86,257.45Zm0-.47a1.23,1.23,0,0,0,1.15-.64,4,4,0,0,0,.37-2,3.93,3.93,0,0,0-.37-2,1.23,1.23,0,0,0-1.15-.63,1.25,1.25,0,0,0-1.15.63,4.07,4.07,0,0,0-.37,2,4,4,0,0,0,.38,2A1.23,1.23,0,0,0,163.86,257Z"/><path class="cls-17" d="M168.91,257.45a3.49,3.49,0,0,1-1-.16,2.18,2.18,0,0,1-.85-.46.25.25,0,0,1,0-.43.24.24,0,0,1,.26,0,2.89,2.89,0,0,0,.78.4,2.53,2.53,0,0,0,.83.13,1.57,1.57,0,0,0,1.05-.32,1.12,1.12,0,0,0,.36-.9,1.05,1.05,0,0,0-.37-.88,1.76,1.76,0,0,0-1.1-.3h-.63c-.17,0-.26-.08-.26-.23s.09-.23.26-.23h.59a1.4,1.4,0,0,0,1-.33,1.19,1.19,0,0,0,.36-.92,1,1,0,0,0-.33-.79,1.44,1.44,0,0,0-.94-.27,2.15,2.15,0,0,0-1.48.55q-.14.12-.24.06a.25.25,0,0,1-.14-.19.28.28,0,0,1,.13-.25,2.1,2.1,0,0,1,.79-.48,2.85,2.85,0,0,1,1-.17,2,2,0,0,1,1.31.4,1.38,1.38,0,0,1,.48,1.11,1.54,1.54,0,0,1-.27.9,1.47,1.47,0,0,1-.71.56,1.46,1.46,0,0,1,.84.52,1.53,1.53,0,0,1,.3,1,1.51,1.51,0,0,1-.52,1.22A2.14,2.14,0,0,1,168.91,257.45Z"/><path class="cls-17" d="M172.44,257.4a.38.38,0,0,1-.28-.11.41.41,0,0,1,0-.56.41.41,0,0,1,.56,0,.41.41,0,0,1,0,.56A.38.38,0,0,1,172.44,257.4Z"/><path class="cls-17" d="M174.3,257.4a.38.38,0,0,1-.28-.11.41.41,0,0,1,0-.56.41.41,0,0,1,.56,0,.41.41,0,0,1,0,.56A.38.38,0,0,1,174.3,257.4Z"/><path class="cls-17" d="M176.16,257.4a.38.38,0,0,1-.28-.11.41.41,0,0,1,0-.56.41.41,0,0,1,.56,0,.41.41,0,0,1,0,.56A.38.38,0,0,1,176.16,257.4Z"/><path class="cls-17" d="M41,280.89a.41.41,0,0,1-.41-.2.52.52,0,0,1,0-.48L45,270a.61.61,0,0,1,1.17,0l4.46,10.23a.63.63,0,0,1,.06.49.39.39,0,0,1-.39.2.52.52,0,0,1-.36-.12.92.92,0,0,1-.23-.33l-1.13-2.63h-6l-1.12,2.64C41.38,280.74,41.2,280.89,41,280.89Zm4.64-10.07L43,277h5.26l-2.62-6.15Z"/><path class="cls-17" d="M59.75,280.92a3.62,3.62,0,0,1-1.93-.5A3.43,3.43,0,0,1,56.57,279a4.9,4.9,0,0,1-.43-2.12,4.12,4.12,0,0,1,1-2.88A3.41,3.41,0,0,1,59.75,273a4,4,0,0,1,1.21.2,3.23,3.23,0,0,1,1.12.65.36.36,0,0,1,.16.38.45.45,0,0,1-.25.33.37.37,0,0,1-.43-.09,2.66,2.66,0,0,0-.91-.5,3,3,0,0,0-.87-.13,2.45,2.45,0,0,0-2,.81,3.43,3.43,0,0,0-.69,2.3,3.58,3.58,0,0,0,.69,2.33,2.39,2.39,0,0,0,2,.85,3.11,3.11,0,0,0,.87-.13,2.71,2.71,0,0,0,.9-.5c.17-.13.32-.16.44-.09a.46.46,0,0,1,.22.32.4.4,0,0,1-.15.38,3.12,3.12,0,0,1-1.11.65A4,4,0,0,1,59.75,280.92Z"/><path class="cls-17" d="M64.38,280.88a.43.43,0,0,1-.49-.49V270a.44.44,0,0,1,.49-.5c.32,0,.48.17.48.5v4.42a2.59,2.59,0,0,1,1.1-1.1,3.27,3.27,0,0,1,1.56-.38c1.83,0,2.74,1,2.74,3v4.46a.42.42,0,0,1-.47.49.43.43,0,0,1-.49-.49V276a2.59,2.59,0,0,0-.46-1.68,1.83,1.83,0,0,0-1.46-.54,2.45,2.45,0,0,0-1.83.71,2.59,2.59,0,0,0-.69,1.89v4A.43.43,0,0,1,64.38,280.88Z"/><path class="cls-17" d="M75.15,280.91a3.12,3.12,0,0,1-1.39-.3,2.46,2.46,0,0,1-1-.83,2,2,0,0,1-.35-1.17,2,2,0,0,1,.42-1.34,2.62,2.62,0,0,1,1.45-.69,14.51,14.51,0,0,1,2.79-.2h.49v-.57a2.32,2.32,0,0,0-.43-1.54,1.75,1.75,0,0,0-1.36-.49,4.6,4.6,0,0,0-1.18.16,5.91,5.91,0,0,0-1.19.51c-.19.11-.34.11-.45,0a.51.51,0,0,1-.16-.4.45.45,0,0,1,.26-.37,6.49,6.49,0,0,1,1.35-.55,5.46,5.46,0,0,1,1.35-.18,2.75,2.75,0,0,1,2.07.71,3.1,3.1,0,0,1,.67,2.19v4.54c0,.32-.14.49-.44.49s-.47-.17-.48-.49v-1a2.41,2.41,0,0,1-.95,1.11A2.76,2.76,0,0,1,75.15,280.91Zm.12-.78a2.24,2.24,0,0,0,1.2-.32,2.38,2.38,0,0,0,.82-.9,2.74,2.74,0,0,0,.3-1.3v-.52h-.48a14.38,14.38,0,0,0-2.23.13,2,2,0,0,0-1.11.44,1.18,1.18,0,0,0-.32.87,1.48,1.48,0,0,0,.49,1.16A1.89,1.89,0,0,0,75.27,280.13Z"/><path class="cls-17" d="M81.54,280.88a.45.45,0,0,1-.5-.5v-6.89a.44.44,0,0,1,.49-.51c.31,0,.46.17.46.51v1a2.53,2.53,0,0,1,1.1-1.14,3.21,3.21,0,0,1,1.58-.38c1.83,0,2.75,1,2.75,3v4.45a.43.43,0,0,1-.48.49.43.43,0,0,1-.49-.49V276a2.54,2.54,0,0,0-.46-1.68,1.82,1.82,0,0,0-1.46-.54,2.44,2.44,0,0,0-1.83.7,2.63,2.63,0,0,0-.69,1.9v4C82,280.71,81.85,280.88,81.54,280.88Z"/><path class="cls-17" d="M93.06,280.9a3.54,3.54,0,0,1-1.93-.5A3.24,3.24,0,0,1,89.88,279a4.82,4.82,0,0,1-.43-2.11,4.1,4.1,0,0,1,1-2.88,3.43,3.43,0,0,1,2.66-1.06,3.81,3.81,0,0,1,1.21.21,3.08,3.08,0,0,1,1.12.65.36.36,0,0,1,.16.38.47.47,0,0,1-.25.33.39.39,0,0,1-.43-.09,2.66,2.66,0,0,0-.91-.5,3,3,0,0,0-.87-.13,2.42,2.42,0,0,0-2,.81,3.41,3.41,0,0,0-.69,2.29,3.59,3.59,0,0,0,.69,2.34,2.39,2.39,0,0,0,2,.85,3,3,0,0,0,.87-.14,2.5,2.5,0,0,0,.91-.5c.17-.12.31-.15.43-.08a.43.43,0,0,1,.23.32.4.4,0,0,1-.15.38,3,3,0,0,1-1.11.64A3.74,3.74,0,0,1,93.06,280.9Z"/><path class="cls-17" d="M100.39,280.9a3.72,3.72,0,0,1-2.8-1,4,4,0,0,1-1-2.89,4.67,4.67,0,0,1,.46-2.1,3.43,3.43,0,0,1,3.16-1.92,3,3,0,0,1,2.39,1,4.09,4.09,0,0,1,.86,2.74.39.39,0,0,1-.44.45H97.52a3.19,3.19,0,0,0,.78,2.19,2.68,2.68,0,0,0,2,.77,4.3,4.3,0,0,0,1.14-.15,3.12,3.12,0,0,0,1.07-.55.49.49,0,0,1,.49-.08.4.4,0,0,1,.23.33.49.49,0,0,1-.25.42,3.61,3.61,0,0,1-1.22.63A5.09,5.09,0,0,1,100.39,280.9Zm-.2-7.18a2.37,2.37,0,0,0-1.87.75,3.32,3.32,0,0,0-.79,1.95h5a3.13,3.13,0,0,0-.64-2A2.15,2.15,0,0,0,100.19,273.72Z"/><path class="cls-17" d="M112.29,280.9a2.46,2.46,0,0,1-1.92-.7,2.85,2.85,0,0,1-.65-2v-4.34h-1.17c-.31,0-.46-.13-.46-.4s.15-.38.46-.38h1.17v-2a.49.49,0,1,1,1,0v2h2.14c.3,0,.44.13.44.38s-.14.4-.44.4h-2.14v4.22a2.32,2.32,0,0,0,.4,1.47,1.9,1.9,0,0,0,1.84.43,1.34,1.34,0,0,1,.36-.07c.19,0,.29.14.29.4a.57.57,0,0,1-.06.25.28.28,0,0,1-.2.16,3.46,3.46,0,0,1-.47.12A2.89,2.89,0,0,1,112.29,280.9Z"/><path class="cls-17" d="M117.68,280.89a3.54,3.54,0,0,1-1.87-.48,3.18,3.18,0,0,1-1.23-1.38,5.37,5.37,0,0,1,0-4.21,3.27,3.27,0,0,1,1.23-1.39,3.45,3.45,0,0,1,1.87-.49,3.5,3.5,0,0,1,1.89.49,3.31,3.31,0,0,1,1.23,1.38,5.39,5.39,0,0,1,0,4.22,3.18,3.18,0,0,1-1.23,1.38A3.59,3.59,0,0,1,117.68,280.89Zm0-.8a2.3,2.3,0,0,0,1.87-.84,4.24,4.24,0,0,0,0-4.67,2.35,2.35,0,0,0-1.87-.82,2.3,2.3,0,0,0-1.86.83,3.52,3.52,0,0,0-.69,2.33,3.59,3.59,0,0,0,.69,2.34A2.3,2.3,0,0,0,117.68,280.09Z"/><path class="cls-17" d="M130.64,283.74a6.51,6.51,0,0,1-1.66-.21,4.22,4.22,0,0,1-1.45-.69.34.34,0,0,1-.19-.36.54.54,0,0,1,.2-.36.31.31,0,0,1,.38,0,5,5,0,0,0,1.34.65,4.52,4.52,0,0,0,1.34.17,2.31,2.31,0,0,0,1.76-.63,2.54,2.54,0,0,0,.61-1.84V279a2.56,2.56,0,0,1-1.06,1.19,3.11,3.11,0,0,1-1.64.43,3.44,3.44,0,0,1-1.85-.48,3.26,3.26,0,0,1-1.19-1.35,4.57,4.57,0,0,1-.42-2,4.45,4.45,0,0,1,.42-2,3.23,3.23,0,0,1,1.19-1.34,3.34,3.34,0,0,1,1.85-.49,3.1,3.1,0,0,1,1.62.42,2.67,2.67,0,0,1,1.06,1.17v-1c0-.34.16-.51.47-.51s.48.17.48.51v6.85Q133.9,283.74,130.64,283.74Zm-.26-4a2.38,2.38,0,0,0,1.89-.81,3.84,3.84,0,0,0,0-4.39,2.37,2.37,0,0,0-1.89-.8,2.4,2.4,0,0,0-1.9.8,3.86,3.86,0,0,0,0,4.39A2.35,2.35,0,0,0,130.38,279.76Z"/><path class="cls-17" d="M139.8,280.89a3.7,3.7,0,0,1-2.8-1.06,4,4,0,0,1-1-2.89,4.5,4.5,0,0,1,.46-2.09,3.41,3.41,0,0,1,1.27-1.41,3.49,3.49,0,0,1,1.88-.51,3,3,0,0,1,2.39,1,4.07,4.07,0,0,1,.86,2.74.39.39,0,0,1-.44.44h-5.47a3.2,3.2,0,0,0,.78,2.2,2.75,2.75,0,0,0,2.06.77,4.22,4.22,0,0,0,1.13-.15,3.31,3.31,0,0,0,1.07-.55.47.47,0,0,1,.49-.09.38.38,0,0,1,.23.34.45.45,0,0,1-.24.42,3.56,3.56,0,0,1-1.23.62A4.77,4.77,0,0,1,139.8,280.89Zm-.19-7.18a2.39,2.39,0,0,0-1.88.75,3.31,3.31,0,0,0-.79,1.94h5a3,3,0,0,0-.64-2A2.1,2.1,0,0,0,139.61,273.71Z"/><path class="cls-17" d="M147.71,280.88a2.48,2.48,0,0,1-1.93-.69,2.89,2.89,0,0,1-.64-2v-4.34H144c-.31,0-.46-.13-.46-.4s.15-.38.46-.38h1.17v-2a.49.49,0,1,1,1,0v2h2.14c.29,0,.44.12.44.38s-.15.4-.44.4h-2.14v4.21a2.4,2.4,0,0,0,.39,1.48,1.58,1.58,0,0,0,1.32.5,1.52,1.52,0,0,0,.52-.07,1.4,1.4,0,0,1,.37-.07c.19,0,.28.13.28.4a.42.42,0,0,1-.05.24.31.31,0,0,1-.2.17,3.46,3.46,0,0,1-.47.12A2.9,2.9,0,0,1,147.71,280.88Z"/><path class="cls-17" d="M156.49,280.88a3,3,0,0,1-1.38-.3,2.52,2.52,0,0,1-1-.82,2,2,0,0,1-.36-1.18,1.94,1.94,0,0,1,.43-1.34,2.56,2.56,0,0,1,1.44-.69,15.53,15.53,0,0,1,2.79-.2h.49v-.58a2.27,2.27,0,0,0-.43-1.54,1.73,1.73,0,0,0-1.36-.48,4.18,4.18,0,0,0-1.17.16,5.14,5.14,0,0,0-1.19.5c-.19.11-.34.11-.45,0a.44.44,0,0,1-.16-.39.42.42,0,0,1,.26-.38,6.08,6.08,0,0,1,1.35-.55,5.32,5.32,0,0,1,1.34-.18,2.71,2.71,0,0,1,2.07.72,3.06,3.06,0,0,1,.68,2.18v4.54c0,.32-.15.49-.44.49a.43.43,0,0,1-.48-.49v-1a2.37,2.37,0,0,1-1,1.11A2.76,2.76,0,0,1,156.49,280.88Zm.13-.78a2.2,2.2,0,0,0,1.2-.32,2.35,2.35,0,0,0,.81-.9,2.74,2.74,0,0,0,.3-1.3v-.52h-.47a14.29,14.29,0,0,0-2.23.13,2,2,0,0,0-1.12.44,1.17,1.17,0,0,0-.31.87,1.47,1.47,0,0,0,.49,1.16A1.88,1.88,0,0,0,156.62,280.1Z"/><path class="cls-17" d="M164.69,283.78a.43.43,0,0,1-.42-.18.41.41,0,0,1,0-.39.35.35,0,0,1,.35-.22,2,2,0,0,0,1.4-.49,1.94,1.94,0,0,0,.47-1.45v-7.59c0-.34.15-.51.47-.51s.49.17.49.51V281a2.72,2.72,0,0,1-.73,2.1A2.85,2.85,0,0,1,164.69,283.78Zm2.23-12.7c-.46,0-.7-.22-.7-.67s.24-.65.7-.65.7.22.7.65S167.39,271.08,166.92,271.08Z"/><path class="cls-17" d="M173,280.88a3.45,3.45,0,0,1-1.87-.49,3.18,3.18,0,0,1-1.23-1.38,5.37,5.37,0,0,1,0-4.21,3.27,3.27,0,0,1,1.23-1.39,3.45,3.45,0,0,1,1.87-.49,3.5,3.5,0,0,1,1.89.49,3.38,3.38,0,0,1,1.23,1.38,5.39,5.39,0,0,1,0,4.22,3.18,3.18,0,0,1-1.23,1.38A3.59,3.59,0,0,1,173,280.88Zm0-.81a2.3,2.3,0,0,0,1.87-.84,3.5,3.5,0,0,0,.7-2.34,3.44,3.44,0,0,0-.7-2.32,2.51,2.51,0,0,0-3.73,0,3.52,3.52,0,0,0-.69,2.33,3.59,3.59,0,0,0,.69,2.34A2.3,2.3,0,0,0,173,280.07Z"/><path class="cls-17" d="M182.29,280.87a3.13,3.13,0,0,1-1.64-.42,2.56,2.56,0,0,1-1.06-1.15v1.05c0,.33-.16.49-.47.49a.44.44,0,0,1-.5-.49V270a.44.44,0,0,1,.49-.5c.32,0,.48.17.48.5v4.51a2.65,2.65,0,0,1,1-1.15,3.15,3.15,0,0,1,1.64-.42,3.12,3.12,0,0,1,2.49,1.08,4.35,4.35,0,0,1,.92,2.9,5,5,0,0,1-.42,2.12,3.15,3.15,0,0,1-1.18,1.38A3.36,3.36,0,0,1,182.29,280.87Zm-.15-.81a2.28,2.28,0,0,0,1.87-.83,4.24,4.24,0,0,0,0-4.67,2.54,2.54,0,0,0-3.74,0,3.54,3.54,0,0,0-.7,2.33,3.61,3.61,0,0,0,.7,2.34A2.31,2.31,0,0,0,182.14,280.06Z"/><path class="cls-17" d="M188.21,274.47a.74.74,0,1,1,0-1.48.72.72,0,0,1,.54.21.83.83,0,0,1,0,1.06A.72.72,0,0,1,188.21,274.47Zm0,6.32a.74.74,0,0,1-.53-.2.76.76,0,0,1-.2-.53.69.69,0,0,1,.2-.52.77.77,0,0,1,1.06,0,.73.73,0,0,1,.2.52.76.76,0,0,1-.2.53A.72.72,0,0,1,188.22,280.79Z"/><path class="cls-14" d="M198,280.87a4.17,4.17,0,0,1-1.54-.32,3.89,3.89,0,0,1-1.37-.9.45.45,0,0,1-.16-.43.46.46,0,0,1,.24-.37q.2-.11.45.12a3.59,3.59,0,0,0,1.15.76A3.27,3.27,0,0,0,198,280a2.91,2.91,0,0,0,2.52-1.25,6.37,6.37,0,0,0,.89-3.7v-.93a3.15,3.15,0,0,1-1.15,1.76,3.25,3.25,0,0,1-2,.65,3.41,3.41,0,0,1-1.76-.45,3.23,3.23,0,0,1-1.21-1.25,3.7,3.7,0,0,1-.44-1.81,3.59,3.59,0,0,1,.46-1.84,3.24,3.24,0,0,1,1.23-1.26,3.47,3.47,0,0,1,1.8-.46,3.52,3.52,0,0,1,3,1.41,6.76,6.76,0,0,1,1.05,4,7.38,7.38,0,0,1-1.16,4.47A3.79,3.79,0,0,1,198,280.87Zm.42-5.23a2.49,2.49,0,0,0,1.88-.75,2.93,2.93,0,0,0,0-3.85,2.49,2.49,0,0,0-1.88-.75,2.46,2.46,0,0,0-1.86.75,2.93,2.93,0,0,0,0,3.85A2.46,2.46,0,0,0,198.39,275.64Z"/><path class="cls-14" d="M207.48,280.86a4.15,4.15,0,0,1-1.54-.31,3.87,3.87,0,0,1-1.36-.91.41.41,0,0,1-.17-.42.49.49,0,0,1,.24-.37c.13-.07.28,0,.45.11a3.46,3.46,0,0,0,2.39,1,2.93,2.93,0,0,0,2.52-1.25,6.29,6.29,0,0,0,.89-3.7v-.94a3.15,3.15,0,0,1-1.15,1.77,3.19,3.19,0,0,1-2,.64,3.43,3.43,0,0,1-1.77-.45,3.14,3.14,0,0,1-1.21-1.24,4,4,0,0,1,0-3.66,3.38,3.38,0,0,1,1.23-1.26,3.6,3.6,0,0,1,1.8-.46,3.5,3.5,0,0,1,3,1.42,6.62,6.62,0,0,1,1.05,4,7.42,7.42,0,0,1-1.16,4.47A3.78,3.78,0,0,1,207.48,280.86Zm.42-5.23a2.51,2.51,0,0,0,1.88-.74,2.95,2.95,0,0,0,0-3.86,2.52,2.52,0,0,0-1.88-.74A2.49,2.49,0,0,0,206,271a2.69,2.69,0,0,0-.72,1.94,2.66,2.66,0,0,0,.72,1.92A2.49,2.49,0,0,0,207.9,275.63Z"/><path class="cls-14" d="M216.56,276.26a2.34,2.34,0,0,1-1.93-.88,4,4,0,0,1-.7-2.54,4,4,0,0,1,.7-2.51,2.53,2.53,0,0,1,3.86,0,3.94,3.94,0,0,1,.72,2.52,4,4,0,0,1-.71,2.53A2.35,2.35,0,0,1,216.56,276.26Zm0-.74a1.49,1.49,0,0,0,1.29-.68,3.56,3.56,0,0,0,.47-2,3.49,3.49,0,0,0-.47-2,1.48,1.48,0,0,0-1.29-.67,1.49,1.49,0,0,0-1.28.67,3.41,3.41,0,0,0-.46,2,3.52,3.52,0,0,0,.46,2A1.49,1.49,0,0,0,216.56,275.52Zm.95,5.29a.41.41,0,0,1-.38.27.43.43,0,0,1-.36-.21.41.41,0,0,1,0-.47L223,269.51a.42.42,0,1,1,.71.42Zm6.47.05a2.36,2.36,0,0,1-1.93-.89,4.9,4.9,0,0,1,0-5.05,2.53,2.53,0,0,1,3.87,0,4,4,0,0,1,.71,2.51,4,4,0,0,1-.71,2.53A2.32,2.32,0,0,1,224,280.86Zm0-.75a1.48,1.48,0,0,0,1.29-.67,3.55,3.55,0,0,0,.47-2,3.47,3.47,0,0,0-.47-2,1.57,1.57,0,0,0-2.57,0,4.49,4.49,0,0,0,0,4A1.45,1.45,0,0,0,224,280.11Z"/><rect class="cls-17" x="12.03" y="168.42" width="2.18" height="25.25" transform="translate(-167.97 193.55) rotate(-89.8)"/><rect class="cls-17" x="-11.19" y="191.47" width="25.25" height="2.18" transform="translate(-191.13 193.3) rotate(-89.79)"/><rect class="cls-17" x="260.34" y="192.41" width="25.25" height="2.18" transform="translate(78.49 465.77) rotate(-89.79)"/><rect class="cls-17" x="260.36" y="169.19" width="2.18" height="25.25" transform="translate(78.73 442.63) rotate(-89.8)"/><rect class="cls-17" x="259.89" y="306.62" width="2.18" height="25.25" transform="translate(-59.17 579.12) rotate(-89.8)"/><rect class="cls-17" x="260.04" y="306.65" width="25.25" height="2.18" transform="translate(-36.05 579.3) rotate(-89.79)"/><rect class="cls-17" x="-11.49" y="305.71" width="25.25" height="2.18" transform="translate(-305.66 306.83) rotate(-89.79)"/><rect class="cls-17" x="11.56" y="305.86" width="2.18" height="25.25" transform="translate(-305.88 330.02) rotate(-89.8)"/></g></g></g></svg>