<svg xmlns="http://www.w3.org/2000/svg" xmlns:xlink="http://www.w3.org/1999/xlink" viewBox="0 0 246.09 241.9"><defs><style>.cls-1,.cls-2,.cls-3,.cls-4,.cls-5,.cls-6,.cls-7,.cls-8,.cls-9{fill-rule:evenodd;}.cls-1{fill:url(#radial-gradient);}.cls-2{fill:url(#radial-gradient-2);}.cls-3{fill:url(#radial-gradient-3);}.cls-4{fill:url(#radial-gradient-4);}.cls-5{fill:url(#radial-gradient-5);}.cls-6{fill:url(#radial-gradient-6);}.cls-7{fill:url(#radial-gradient-7);}.cls-8{fill:url(#radial-gradient-8);}.cls-9{fill:url(#radial-gradient-9);}.cls-10{fill:#ffec00;}</style><radialGradient id="radial-gradient" cx="97.22" cy="81.38" r="166.3" gradientUnits="userSpaceOnUse"><stop offset="0" stop-color="#ff4215"/><stop offset="0.56" stop-color="#ff8115"/><stop offset="1" stop-color="#ffb315"/></radialGradient><radialGradient id="radial-gradient-2" cx="89.95" cy="42.46" r="230.92" gradientUnits="userSpaceOnUse"><stop offset="0" stop-color="#ca0024"/><stop offset="0.99" stop-color="red"/></radialGradient><radialGradient id="radial-gradient-3" cx="89.96" cy="42.47" r="230.91" xlink:href="#radial-gradient-2"/><radialGradient id="radial-gradient-4" cx="89.95" cy="42.48" r="230.9" xlink:href="#radial-gradient-2"/><radialGradient id="radial-gradient-5" cx="89.96" cy="43.97" r="229.75" xlink:href="#radial-gradient-2"/><radialGradient id="radial-gradient-6" cx="118.42" cy="62.49" r="80.51" gradientUnits="userSpaceOnUse"><stop offset="0" stop-color="#ffec00"/><stop offset="1" stop-color="#ffec00"/></radialGradient><radialGradient id="radial-gradient-7" cx="86.46" cy="38.33" r="39.19" xlink:href="#radial-gradient-6"/><radialGradient id="radial-gradient-8" cx="128.49" cy="143.6" r="85.21" xlink:href="#radial-gradient-6"/><radialGradient id="radial-gradient-9" cx="150.93" cy="199.66" r="57.63" xlink:href="#radial-gradient-6"/></defs><title>Zasób 9</title><g id="Warstwa_2" data-name="Warstwa 2"><g id="Warstwa_1-2" data-name="Warstwa 1"><path class="cls-1" d="M244,121A121,121,0,0,1,71.6,230.44c-3.07-1.44-6.08-3-9-4.71A121,121,0,0,1,12.84,71.05,116.87,116.87,0,0,1,20.4,57,120.39,120.39,0,0,1,42.53,30.71l0,0A120.89,120.89,0,0,1,187.37,18.52h0c2.11,1.34,4.18,2.73,6.19,4.18,1.69,1.21,3.35,2.48,5,3.78a120.91,120.91,0,0,1,44.7,81.08A118.5,118.5,0,0,1,244,121Z"/><path class="cls-2" d="M231.39,53.4,227,59.14l-1.58-2.57S74.61,35.52,10.07,76.7L5.46,75.26l0,0L10.94,66S45.72,42,127.22,44.06c0,0-26.3-8.45-95.89-1.93l.29-9.52S86.56-4.65,186.25,11.36C186.25,11.36,217.63,28.63,231.39,53.4Z"/><path class="cls-3" d="M4,143,.21,150.63l12.64,26.89s100.57-51.14,230.63-63l2.61-5L245,95.56S137.31,93.37,4,143Z"/><path class="cls-4" d="M34.61,211.25s87.7-35.14,206.13-44.4l-3.61,10.67S137.26,181.83,46.58,222Z"/><path class="cls-5" d="M46.58,222s8.12-4.27,25.9-10.4c0,0,67.52,6.53,158.91-23.46l-8.95,17.94S170.31,229.49,94.62,239C94.62,239,72.61,240.29,46.58,222Z"/><path class="cls-6" d="M231.39,53.4,227,59.14l-1.58-2.57S74.61,35.52,10.07,76.7L5.46,75.26l0,0C7.27,74.14,75.06,34.43,231.39,53.4Z"/><path class="cls-7" d="M31.62,32.61s70.63.45,110,11.44H127.22s-31.57-8.29-95.89-1.93Z"/><path class="cls-8" d="M12.85,177.52s128.09-65.67,231.28-67.85l-.65,4.81S154.7,116.28,12.85,177.52Z"/><path class="cls-9" d="M231.39,188.12l-6.83-1.41s-51.51,23.8-154.09,25.56C70.47,212.27,177.38,217.39,231.39,188.12Z"/><path class="cls-10" d="M223.3,42.59C157.64,13.89,33,33,31.71,33.21L31.52,32c1.25-.2,126.28-19.38,192.27,9.46Z"/><path class="cls-10" d="M214.54,33.18c-37.79-13.83-146.89-15.11-148-15.12V16.84C67.66,16.85,177,18.13,215,32Z"/><path class="cls-10" d="M207.15,25.55C186.76,13.17,144.41,8.2,144,8.15l.14-1.22c.42.05,43,5.05,63.65,17.58Z"/><path class="cls-10" d="M13.19,178l-.67-1c.93-.61,94-60.68,194.82-80.42l.24,1.2C107,117.49,14.12,177.43,13.19,178Z"/><path class="cls-10" d="M.43,151.21,0,150.06c.61-.23,62.05-22.94,143.89-45.36l.33,1.18C62.42,128.28,1,151,.43,151.21Z"/></g></g></svg>