<svg xmlns="http://www.w3.org/2000/svg" xmlns:xlink="http://www.w3.org/1999/xlink" viewBox="0 0 191.98 191.95"><defs><style>.cls-1{isolation:isolate;}.cls-2,.cls-4,.cls-6,.cls-7,.cls-9{fill-rule:evenodd;}.cls-2{fill:url(#Áĺçűě_ííűé_ăđŕäčĺíň_236);}.cls-3{opacity:0.5;}.cls-3,.cls-5{mix-blend-mode:multiply;}.cls-4{fill:#c3afb7;}.cls-5{opacity:0.65;}.cls-6{fill:#ff8042;}.cls-7{fill:#ffcd42;}.cls-8{mix-blend-mode:soft-light;}.cls-9{fill:#fffd8f;}</style><radialGradient id="Áĺçűě_ííűé_ăđŕäčĺíň_236" cx="75.51" cy="64.58" r="131.97" gradientUnits="userSpaceOnUse"><stop offset="0" stop-color="#ff5731"/><stop offset="0.7" stop-color="#b9005e"/><stop offset="0.95" stop-color="#5e1377"/><stop offset="1" stop-color="#8060ff"/></radialGradient></defs><title>Zasób 7</title><g class="cls-1"><g id="Warstwa_2" data-name="Warstwa 2"><g id="Warstwa_1-2" data-name="Warstwa 1"><path class="cls-2" d="M191,109.56c-.24,1.67-.53,3.33-.86,5q-.72,3.69-1.75,7.27a93.2,93.2,0,0,1-7.13,18.07c-1.07,2.08-2.2,4.11-3.44,6.1h0a97.56,97.56,0,0,1-28.78,30,93.53,93.53,0,0,1-10.43,6c-1.58.8-3.17,1.53-4.78,2.23a94.66,94.66,0,0,1-28.49,7.29,95.93,95.93,0,0,1-48.74-8l-1.47-.66c-2.44-1.16-4.82-2.4-7.14-3.75q-1.12-.65-2.25-1.35a96.79,96.79,0,0,1-29.49-28.3c-.24-.36-.48-.72-.72-1.1q-2.6-4-4.8-8.18c-.79-1.53-1.56-3.09-2.26-4.66-.29-.65-.57-1.29-.84-1.93a94.14,94.14,0,0,1-6.5-22.81,93.25,93.25,0,0,1-1-10.08C0,99.15,0,97.57,0,96A95.7,95.7,0,0,1,8.53,56.38c.58-1.29,1.2-2.58,1.86-3.84a83.87,83.87,0,0,1,4.15-7.34A95.15,95.15,0,0,1,32.1,24.37l0,0,.94-.82A95.46,95.46,0,0,1,96,0,95.37,95.37,0,0,1,147,14.69h0c1.68,1.06,3.33,2.17,4.92,3.32,1.35,1,2.65,2,3.94,3a95.17,95.17,0,0,1,16.77,17.26c1.38,1.83,2.7,3.72,3.94,5.65a89.38,89.38,0,0,1,5.11,8.92,94.4,94.4,0,0,1,9.65,32.5c0,.23,0,.45.08.68.13,1.29.25,2.58.33,3.87A96,96,0,0,1,191,109.56Z"/><g class="cls-3"><path class="cls-4" d="M191,109.56l-.17-.21c-2.42-3-5.6-5.5-7.86-8.66a15.22,15.22,0,0,0-5.19-5.09,41.75,41.75,0,0,0-4.7-2.31c-1.44-.54-3-.62-4.44-1.08-2-.62-3.42-1.57-5.52-1.74a57.09,57.09,0,0,0-5.69-.57c-1.18,0-5.16-.76-5.31,1.15a5.45,5.45,0,0,0,1.59,2.4,32.81,32.81,0,0,0,6.81,3.27c4,1.63,8.18,2.82,12.14,4.68A58.11,58.11,0,0,1,184,108.65a42.52,42.52,0,0,1,6.16,5.89q-.72,3.69-1.75,7.27a36.36,36.36,0,0,1-3.58-2.37c-1.3-1.06-2.47-2.25-3.72-3.39-3.55-3.26-6.94-6.52-11-9.12-1.56-1-3.19-2-4.82-2.85s-3.57-1.42-5.26-2.37c-3-1.68-6.15-3.18-9.25-4.66-3.84-1.83-8.54-2.74-12.66-3.73a159.54,159.54,0,0,0-20.64-3.85,121.06,121.06,0,0,1-22-4.14c-3.59-1.06-7.13-2.22-10.79-3.12-3.08-.75-6.08-1.95-9.21-2.56a68.92,68.92,0,0,0-19.55-.79c-7.92.73-15.82-1.23-23.75.25-7,1.32-13.26,3.93-19.62,7-3.16,1.52-5,4.62-7.13,7.27A81.17,81.17,0,0,0,.12,100.7C0,99.15,0,97.57,0,96A95.65,95.65,0,0,1,8.53,56.38a91.57,91.57,0,0,1,6-11.18A95.15,95.15,0,0,1,32.1,24.37l0,0,.94-.82A69.17,69.17,0,0,1,44.21,22.3c3.72-.11,7.66.51,11.33-.09a36.5,36.5,0,0,1,5.21-.44c1.58,0,3-.5,4.62-.58,5.46-.25,10.77-2.32,16.22-2.28q3.8,0,7.58,0c3.28,0,6.49.57,9.81.59a71.75,71.75,0,0,1,23.14,3.4,129.83,129.83,0,0,0,21.55,5.54c5.64.89,11.12,2,16.2,4.66,1.81,1,3.39,2,5.13,3.14a16.82,16.82,0,0,1,2.68,2.44,21.52,21.52,0,0,0,3.58,2.4,27.81,27.81,0,0,0,4.56,2.54c.27.11.52.21.79.3,1,.38,2,.74,2.91,1.13s1.06.84,1.66,1.72a15.45,15.45,0,0,1,1.59,2.1c.32.73.39,1.65.68,2.43.4,1.05.62,3.19,1.51,4.09-.66-.56-1.44-1-2.08-1.54a14.23,14.23,0,0,0-1.16-1,7,7,0,0,0-1.44-.91,33.07,33.07,0,0,0-3.17-1.65c-1.77-.57-3.53-.87-5.28-1.61a44.83,44.83,0,0,1-5.54-2.45c-1.89-1.11-3.5-2.66-5.4-3.73-4-2.27-7.75-5.89-12.09-7.39a22.78,22.78,0,0,0-5.22-1.4c-1.12-.1-2.17-.54-3.29-.61-1.34-.08-2.67.12-4,0-2.8-.28-5.71-.71-8.48-1.22-2.48-.45-4.89-1.29-7.38-1.56s-5.11-1.19-7.66-1.71c-2.9-.62-5.87-.89-8.79-1.43C98,26.06,91.4,27,85.48,27.72c-7.09.89-15.09,1.67-21.5,5.12-1.61.85-3.31,1.45-4.95,2.26a19.27,19.27,0,0,0-3.36,2.45c-1.33,1.07-4.63,1.82-4.48,4,1.05.06,2.82-.83,3.88-1.07,2.31-.52,4.59-.51,6.85-1,1-.23,1.92,0,2.91-.17a14.39,14.39,0,0,0,3.43-1.08,88.91,88.91,0,0,1,9.58-3.44c2.52-.66,5.08-1.23,7.64-1.64s5.2,0,7.69,0h8.44c3.32,0,6.81-.37,10,.69a14.36,14.36,0,0,1,5.65,4c1.81,1.93,2.18,4.57,4,6.43a29.11,29.11,0,0,0,2,2.29c.93.78,2.38,1.41,3.4,2.12a16.93,16.93,0,0,0,7.72,2.68c.86.07,1.75.6,2.55.6,1,0,.75-.08,1.2-.81a2.22,2.22,0,0,0-.23-3.06,9.64,9.64,0,0,0-3.26-2.29c-1.61-.62-3.23-.45-4.41-1.83-.63-.72-1.23-2.38-.6-3.31.53-.75,2.79-.75,3.6-1,1.8-.45,2.24,0,3.94.59s3.5,1.18,5.27,1.81c2.58.94,5.07,2.11,7.56,3.3.87.42,2.09.64,2.72,1.38.24.28.57,1.29.8,1.67,1.27,2.24,3.11,3.93,4.43,6.18,1.08,1.83,2.16,5,1.65,7.24-.43,1.88-1.5,4.18-3.5,4.69-2.24.58-3.5-.77-5.55-1.31s-3.58-1.39-5.41-.31a2.4,2.4,0,0,0-1,3.57c.95,1.79,2.89,1.93,4.69,2.27a58.07,58.07,0,0,1,7.29,2.3c2.18.72,4.6.73,6.89,1.38a55.88,55.88,0,0,1,10.62,4.69c3.68,2,7.33,4,11.12,5.68a22.55,22.55,0,0,1,7.08,5.11A96,96,0,0,1,191,109.56Z"/><path class="cls-4" d="M181.29,139.88c-1.07,2.08-2.2,4.11-3.44,6.1a28.1,28.1,0,0,0-3.47-3.57,33.74,33.74,0,0,1-3.55-4.25,19.77,19.77,0,0,0-3.58-3.2,31.28,31.28,0,0,0-7.63-4.39,71,71,0,0,1-10.25-5c-4.2-2.45-7.92-5.69-12.05-8.25a51.8,51.8,0,0,0-12.1-5.85c-2-.61-4-.94-6-1.68a27.93,27.93,0,0,0-7.72-1.12c-2.35-.15-4.64-.59-7-.87-2.64-.32-5.31-.33-8-.68-5-.65-10.08-1.18-15.13-1.72a156.32,156.32,0,0,0-16.34-.7c-5.17,0-10.09,0-15.15,1.14a45,45,0,0,0-8.81,2.66c-1.73.78-3.37,1.46-5.11,2.15-1.07.42-2,1.06-3.12,1.45a43.1,43.1,0,0,0-4.47,1.44c-4,2-7.22,3.64-10.19,7-2.74,3.15-5.21,6.54-8,9.7-.92,1.05-1.76,2.19-2.58,3.33a94.14,94.14,0,0,1-6.5-22.81,26.08,26.08,0,0,1,3.16-2.13c3.86-2.22,8-3.94,11.9-6,4.1-2.12,8-4.37,12.51-5.43a45.38,45.38,0,0,1,10.58-1.09c5.57,0,11.16-.27,16.71.43,1.69.22,3.37.06,5.06.39a43.27,43.27,0,0,0,4.63.85c2,.17,3.8.84,5.74,1.11,2.33.32,4.62.51,7,.6,1.54,0,3,.54,4.51.6a40.45,40.45,0,0,1,4.67.11c4.59.7,9.3.93,13.94,1.44,10.37,1.12,20.83,2.41,30.83,5.51a64.92,64.92,0,0,1,6.31,2.73,68.28,68.28,0,0,1,7.56,3.25c2,1.14,4.11,2.14,6,3.39a70.9,70.9,0,0,1,6.24,5.11c2.61,2.11,5.74,3.59,8.48,5.56,1.66,1.17,3.28,2.29,4.86,3.56,1.87,1.5,4.33,2.69,5.87,4.53C178.87,136.76,180.18,138.29,181.29,139.88Z"/><path class="cls-4" d="M166.18,161.36A96.54,96.54,0,0,1,149.07,176c-4.27-2.57-9.47-3.78-13.73-6.4-3.81-2.36-8.14-3.87-12.23-5.7-4.29-1.9-8.53-3.7-13-5.26a46.32,46.32,0,0,0-9.05-2.2,33.11,33.11,0,0,0-4.57-.06,34,34,0,0,0-5.62,0,67.48,67.48,0,0,1-12.73,1.1c-3.28,0-6.55,0-9.81,0-2.72,0-5.28-.57-8-.57a31.61,31.61,0,0,0-8.68.72A9.39,9.39,0,0,0,47,160.25c-1.4-.24-.9-1.53-.56-2.33a5.56,5.56,0,0,1,3-2.57,17.33,17.33,0,0,1,4-.66c.72-.14,1.25-.54,2-.63a26.15,26.15,0,0,0,3.15-.42c3.31-.74,6.38,1,9.63,1,1.52,0,3,0,4.54,0a8.94,8.94,0,0,0,2.28-.27,2.67,2.67,0,0,0,2-1.14,3.21,3.21,0,0,0-2.26-5.41,17.14,17.14,0,0,0-4,.06A33.42,33.42,0,0,1,65.07,149c-1.48.08-4.26.45-5.66-.06a4.2,4.2,0,0,1-1.32-1.06,9.22,9.22,0,0,0-2.27-2.31,17.35,17.35,0,0,0-7-2.79c-2.26-.39-5.05.6-7.25,0-5-1.4,1.06-9.82,2.84-11.53,2.46-2.36,6.34-3.77,9.46-5,2.34-.92,5-.51,7.45-1.23-.36-2.08-6.1-.83-7.37-.59-2.58.48-5.21.84-7.77,1.38a32.94,32.94,0,0,0-9.24,3.87,91.91,91.91,0,0,0-9.33,5.66c-4,3-6.83,7.09-10.08,10.79-.66.75-1.32,1.5-2,2.25q-2.6-4-4.8-8.18c.54-.68,1.11-1.32,1.71-2,.93-1,1.83-2,2.74-3a16.25,16.25,0,0,1,3.43-2.68c4.51-3,8.57-6.28,14-7.39,3.58-.74,7-2,10.64-2.7,4.33-.81,8.6-1.87,12.95-2.7a44.87,44.87,0,0,1,8.09-.85,19.52,19.52,0,0,1,4.38.69c7.41,1.65,15.13,3.48,22.6,5.56,8.9,2.49,18.2,3.22,27,6,3.9,1.2,7.93,2.18,11.73,3.66,3.53,1.38,6.75,3.69,10.18,5.27a62,62,0,0,1,9.41,5.43c2.29,1.62,4.72,3,7,4.68,1.66,1.28,2.85,2.93,4.44,4.25a14.65,14.65,0,0,1,3.76,4.69C165.22,159.81,165.7,160.58,166.18,161.36Z"/><path class="cls-4" d="M138.64,182c-1.58.8-3.17,1.53-4.78,2.23-2.25-.63-4.67-.85-6.82-1.48-2.46-.72-4.66-2.13-7.15-2.86-2.19-.65-4.41-1-6.56-1.67a95.63,95.63,0,0,0-16.92-3.53,40,40,0,0,0-12.35-.23,86,86,0,0,0-10.81,2.22c-4,1.17-7.85,1.65-11.49,3.69-1.5.84-2.77,1.89-4.23,2.71l-.9.45-1.47-.66c-2.44-1.16-4.82-2.4-7.14-3.75q-1.12-.65-2.25-1.35c.85-.34,1.74-.66,2.65-.95,2.85-.93,5.61-2.19,8.51-2.9,3.18-.76,6.57-1.12,9.8-1.67,8-1.38,16-1.88,24.13-2.78a76.16,76.16,0,0,1,14.16-.57c5.13.42,10.57.93,15.45,2.65,1.25.44,2.6.89,3.8,1.41s2.24,1.59,3.52,2.18c1.11.51,2.35.87,3.49,1.32a10.65,10.65,0,0,1,3.33,2.08A25.64,25.64,0,0,1,138.64,182Z"/></g><g class="cls-5"><path class="cls-4" d="M119,51.3c-.31,2.07-2.11,3.86-3.41,5.45-.9,1.1-1.46,2.47-2.41,3.49a8.48,8.48,0,0,1-1.08.92c-.57.43-.47.3-1.13.13a9.11,9.11,0,0,1-2.28-.85,9.45,9.45,0,0,0-3-.84c-1.8-.35-3.56-.66-5.35-1.08-2-.47-4-.94-6.07-1.33a22.53,22.53,0,0,1-7.94-3.33,22.52,22.52,0,0,0-2.28-1.45c-.84-.41-1.83-.6-2.69-1a18.18,18.18,0,0,1-2.81-1.27A6.37,6.37,0,0,1,76.83,48a16.72,16.72,0,0,0-1.27-1.73,7.59,7.59,0,0,0-2.43-1.48,10,10,0,0,0-4.4-.56c-.87,0-1.68.24-2.55.27A7.21,7.21,0,0,0,65,44.7a14.12,14.12,0,0,1-1.72,0c-.89.07-1.62.3-2.55.3H58.52c-1.38,0-2.76-.12-4,.63-.24.15-1,.57-1.08.85s.25.77.57,1a4.42,4.42,0,0,0,2.78,1.19c1.44,0,2.78-.28,4.23-.28a42.16,42.16,0,0,1,6.56.31,9.15,9.15,0,0,1,2.57.75c.52.27.58.66.79,1.14a2.43,2.43,0,0,1-1.59.66c-.46,0-1,0-1.45,0a24.83,24.83,0,0,0-2.86.36c-1.7.27-3.39.45-5.07.72-1.23.21-2.52-.1-3.73.14a19.3,19.3,0,0,1-3.57.22c-1.44,0-2.67-.46-4.12-.09-2.67.71-4.94,2.29-7.6,3-3.65,1-7.34,1.81-11,2.89a25.17,25.17,0,0,0-6.11,3c-1.65,1-3.27,2.22-5,3.12A21.29,21.29,0,0,0,16.5,66c-.63.42-1.36.58-2,1-1.74,1.1-3.73,1.76-5.52,2.78-.94.55-1.9,1-2.88,1.45a23.61,23.61,0,0,0-3,2c-.17.12-.35.24-.5.36A96.14,96.14,0,0,1,8.53,56.38c.58-1.29,1.2-2.58,1.86-3.84,2.8-1.12,5.68-2.11,8.36-3.45,1.27-.63,2.62-1,3.91-1.55a27,27,0,0,1,3.06-1.07c1.11-.31,2.12-.91,3.25-1.17.76-.16,1.53-.19,2.31-.31s1.6-.47,2.42-.65a18.68,18.68,0,0,1,3.74-.15h6.23a89.4,89.4,0,0,0,12.06-.91c4.66-.63,9.55-1.17,14.15-2.26a20.23,20.23,0,0,0,2.61-1.08,13.74,13.74,0,0,1,2.91-.86c2.29-.46,4.61-.57,6.89-1s4.34-1.71,6.73-2a38.28,38.28,0,0,1,10.68.6,34.72,34.72,0,0,1,6.52,1.21c.83.32,1.77.59,2.56,1a5.58,5.58,0,0,1,2.28,1.42,9,9,0,0,1,1.4,2.56,4.86,4.86,0,0,0,1.14,1.47,22.39,22.39,0,0,0,1.7,2c.89.87,1.73,1.77,2.57,2.68A3.32,3.32,0,0,1,119,51.3Z"/><path class="cls-4" d="M7.12,79.12c.7-1,1.57-1.85,2.37-2.81a27,27,0,0,1,4.12-3.58,60.92,60.92,0,0,1,9.86-6.39c3-1.59,6.17-2.81,9.2-4.33a27.92,27.92,0,0,1,6.54-2.4,28.51,28.51,0,0,1,5.1-1.23A70.44,70.44,0,0,1,53.7,59c2.73.23,5.23.56,7.53,2.16.9.64,1.66,1.34,2.52,2a25.19,25.19,0,0,0,3.73,2.26c1.07.59,2.21,1.05,3.24,1.71.5.33,1.41.81,1.66,1.41.52,1.21-1,2.55-1.89,3.06-.34.2-.56.46-.88.64a6,6,0,0,1-1.75.33c-2.73.57-5.45,1.1-8.22,1.44s-5.51.55-8.25.92a63.71,63.71,0,0,1-7.52.7c-1.22,0-2.46.22-3.67.33-1.43.14-2.94.11-4.35.31a19.72,19.72,0,0,1-3.17.22,33.3,33.3,0,0,0-4.55.49c-3,.38-5.73,1.58-8.65,2.19-1.58.33-3.12.66-4.69,1s-3,.68-4.58.92a14.17,14.17,0,0,1-2.53.22,1.34,1.34,0,0,1-1.42-.86c-.33-.6-.29-.66,0-1.3a2.06,2.06,0,0,1,.64-1C7.22,78,7.67,78,7.12,79.12Z"/><path class="cls-4" d="M67.31,62.08c0,.55-.13.94.31,1.31a5.71,5.71,0,0,0,1.53.7,8.09,8.09,0,0,0,3,.28,1.61,1.61,0,0,0,1.52-.8c.3-.57.13-.72-.36-1.2a5.13,5.13,0,0,0-3.14-1.71c-.73,0-2.23.2-2.27,1.14Z"/><path class="cls-4" d="M50.56,133.07a10.59,10.59,0,0,0-4.1,3.62,2.06,2.06,0,0,0-.08,2.48A5.15,5.15,0,0,0,49,140.6c1.51.33,3.08.64,4.61.86a18,18,0,0,0,4.91.08c1.07-.13,2.07-.31,3.12-.53a16.93,16.93,0,0,1,3.41-.18c1.17,0,2.35-.06,3.51,0,.85.07,1.7.23,2.55.3a20.28,20.28,0,0,0,7-.52,4.66,4.66,0,0,0,3.63-2.93,4.83,4.83,0,0,0,0-3.89c-1-2.06-3.39-3.22-5.46-4a30.71,30.71,0,0,0-8.54-1.66,28.57,28.57,0,0,0-10.16,1,35.11,35.11,0,0,0-3.55,1.57,11.23,11.23,0,0,0-2.76,1.51c-.32.27-.64.51-1,.76S49.73,133.64,50.56,133.07Z"/><path class="cls-4" d="M66.46,124.55a3.25,3.25,0,0,1,1.83-.58,3.9,3.9,0,0,1,1.46.53,1.18,1.18,0,0,1,.65.82c0,.37-.05.39-.43.56a4.26,4.26,0,0,1-2.55.1,2.06,2.06,0,0,1-.86-.4c-.14-.17-.23-.63.09-.65Z"/><path class="cls-4" d="M86.53,130.23a2.63,2.63,0,0,0,.58,1h.28a7.21,7.21,0,0,0,1,.27,17.56,17.56,0,0,0,2.81.07c1.64.06,4.74,2.35,5.24-.34.45-2.39-2.77-3.14-4.47-3.58a4,4,0,0,0-2.48-.05,9,9,0,0,0-1.63.59A2.6,2.6,0,0,0,86.53,130.23Z"/><path class="cls-4" d="M135.37,160.9a15.18,15.18,0,0,1,2.8-.73,14.38,14.38,0,0,1,4.89.36,7.49,7.49,0,0,1,4.78,3.61c.35.75.73,2,0,2.63-1,1-3.14.8-4.39.76a16.25,16.25,0,0,1-5.33-1.19c-1.11-.41-2.24-.8-3.35-1.23a5,5,0,0,1-2.08-1.34,2,2,0,0,1-.57-2c.17-.51,1-.94,1.43-1.12A2,2,0,0,1,135.37,160.9Z"/><path class="cls-4" d="M96.18,170.55a17.9,17.9,0,0,1,2.18.44c-.18.26.14.4.07.69s-.74.64-1.06.77a5.17,5.17,0,0,1-2,.18,10,10,0,0,1-2.84-.13c-.82-.24-1.3-.76-.42-1.28a7.66,7.66,0,0,1,4-.67Z"/><path class="cls-4" d="M145.59,118.87a2.11,2.11,0,0,0,.11,1.09,6.81,6.81,0,0,0,.64.88,19.31,19.31,0,0,0,2.59,2.68,10.68,10.68,0,0,0,1.95,1.23,13.57,13.57,0,0,0,2.14,1.11,10.17,10.17,0,0,0,3.17.6c1.27,0,1.85-1,1.88-2.2,0-.93-.76-1.72-1.31-2.41a18.32,18.32,0,0,0-2.5-2.4c-1.84-1.63-3.88-3-5.84-4.52-.59-.46-2.48-1.73-3.22-.9a4,4,0,0,0-.52,1.63c-.1.54-.14,1.14-.21,1.7C144.31,118.5,144.72,120,145.59,118.87Z"/><path class="cls-4" d="M177.58,84.61a15.51,15.51,0,0,0-4.21-3.16c-2.16-1.34-4.16-2.88-6.21-4.38a10.16,10.16,0,0,0-3.63-1.95,21.61,21.61,0,0,0-2.76-.51,27.65,27.65,0,0,0-5,.16,87.21,87.21,0,0,0-9.4.93c-1.89.35-7.36,1.9-4.88,4.73a5.42,5.42,0,0,0,2.21,1.14c1,.41,2,.88,3,1.24,2.46.87,4.93,1.78,7.42,2.54,2.06.63,4.14,1.08,6.18,1.77,1.8.61,3.61,1.21,5.44,1.73a23.84,23.84,0,0,0,5.63.87c.93,0,1.86.19,2.79.21a9.11,9.11,0,0,0,3-.33C179,88.93,179.22,86.76,177.58,84.61Z"/><path class="cls-4" d="M180.8,85.56c0,.29-.05.73.16,1a2.71,2.71,0,0,0,.78.44,2.89,2.89,0,0,0,1.32.48c.8,0,1.12-.47,1-1.25-.08-.43-.6-.75-.91-1A2.12,2.12,0,0,0,180.8,85Z"/><path class="cls-4" d="M143.88,30.28a12.54,12.54,0,0,1,6.83-.59A9.68,9.68,0,0,1,153.82,31c.79.56,1.4,1.29,2.13,1.92,1,.86,2.1,1.35,2.71,2.59.46.94-.2,1.53-1.12,1.71a5.7,5.7,0,0,1-2.64-.34c-1.07-.3-2.09-.68-3.15-1s-1.95-.6-2.91-1c-.71-.3-1.4-.62-2.12-.9a8.44,8.44,0,0,1-2.93-1.89c-.28-.28-.48-.45-.48-.85A1,1,0,0,1,143.88,30.28Z"/><path class="cls-4" d="M158.84,38.23c1.08-.45,2.07-.95,3.08-.19a1.63,1.63,0,0,1,.7,1.81c-.26.67-1.7.54-2.25.45a4.43,4.43,0,0,1-2.48-1.5Z"/><path class="cls-4" d="M48.86,24.6a32.94,32.94,0,0,0-6.07,3.07A16.2,16.2,0,0,0,37,33c-1.57,2.66.48,5.5,3.42,5.58a11,11,0,0,0,5.29-.91,17.63,17.63,0,0,1,4.13-1c2-.45,3.88-1,5.84-1.52,1.09-.26,2.11-.69,3.2-.94a16.28,16.28,0,0,0,3-1.15c1.92-.86,3.74-1.84,5.59-2.86,1.25-.69,3.2-1.65,3.67-3.1.34-1,.42-2-.65-2.65a5.31,5.31,0,0,0-2-.44c-.91-.09-1.84,0-2.77,0s-1.74-.17-2.62-.21a30.62,30.62,0,0,1-3.18-.08,31.71,31.71,0,0,0-5.51-.28c-.8.05-1.56.33-2.37.38a8,8,0,0,0-2,.47C48.9,24.63,47.35,25,48.86,24.6Z"/><path class="cls-4" d="M71.57,23.28a6.2,6.2,0,0,0,3.07,1,8.69,8.69,0,0,0,3.55-.39c.81-.33,2.16-1.32,1.06-2.17s-2.51-.48-3.66-.49C74.17,21.18,72.32,21.58,71.57,23.28Z"/><path class="cls-4" d="M85.49,136.48c1.2.11,2.91.64,4,0a4.32,4.32,0,0,0,1.12-.87c.58-.77.21-1.42-.67-1.65-1.39-.36-4.54.6-4.19,2.5Z"/><path class="cls-4" d="M79.52,154.65a10.28,10.28,0,0,1,9.67-4,22.8,22.8,0,0,1,5.23,1.8,3.64,3.64,0,0,1,1.33.74c.19.2.26.45.49.63-.36,1-2.07,1.93-3.06,2.15a10,10,0,0,1-3.41,0,19.76,19.76,0,0,0-2-.56,22.07,22.07,0,0,0-4.3,0,5.39,5.39,0,0,1-2.18.2,8,8,0,0,1-1.47-.86C79.94,154.52,80.37,154.3,79.52,154.65Z"/><path class="cls-4" d="M99.4,152.66c.11,1.62.44,1.51,2,1.43.76,0,1.44-.58,1.17-1.44-.17-.52-.69-.66-1.15-.84a1.59,1.59,0,0,0-2,.28Z"/><path class="cls-4" d="M16.2,108.93c.14-1.66,1.13-2.3,2.39-3.4a26.14,26.14,0,0,1,6.12-4A34.11,34.11,0,0,1,38.85,98.7c2,0,3.93,0,5.89.15,1.32.13,3.18,0,4.36.7a1.62,1.62,0,0,1,.89,1.72c-.22,1.09-1.91,1.38-2.83,1.71-1.41.5-2.88.72-4.32,1.11a42.2,42.2,0,0,0-6.19,2.21c-3.4,1.54-6.82,3-10.29,4.34a26.51,26.51,0,0,1-4.48,1.14,6.87,6.87,0,0,1-3.84,0,2.25,2.25,0,0,1-1.5-1.93C16.4,109.12,16.61,107.28,16.2,108.93Z"/><path class="cls-4" d="M53.4,100.13a3.81,3.81,0,0,0,2.24,1.42,9.21,9.21,0,0,0,2.68.6c1.08-.09,1.84-1,.92-1.85-1.56-1.39-4-1.06-5.84-.73Z"/><path class="cls-4" d="M2.57,112.63c3-1.06,5.83-2.35,9.07-2.29,1.55,0,2,.79,2,2.28a8.53,8.53,0,0,1-2.29,5.12c-.61.73-1.39,1.3-2,2.05a8.14,8.14,0,0,1-1.28,1.47c-.4.34-1.28,1.16-1.77,1-.26-.1-.61-.73-.78-.94A9.55,9.55,0,0,1,4.63,120a9.76,9.76,0,0,1-.92-3.55c-.12-1.24-.7-2.61-.57-3.84Z"/><path class="cls-4" d="M143.13,84.8a1.8,1.8,0,0,0-.56,1.11,8.82,8.82,0,0,0,2.14,1.47,9.29,9.29,0,0,0,2.26.53,4.66,4.66,0,0,0,1.57-.26c.5-.18.48-.3.35-.65s-.6-.67-.79-.92c-.4-.5-.59-1-1.2-1.22a8.52,8.52,0,0,0-3.77-.63Z"/><path class="cls-4" d="M137.17,44.19c2.11,3,3.37,6.6,5.12,9.83a8.46,8.46,0,0,0,4.21,3.79c1,.39,2.13.46,3.16.87a6.35,6.35,0,0,0,2.53.28c.59,0,1.63.19,2.14-.14,1.3-.85.77-3.77.32-4.89a16.91,16.91,0,0,0-3.55-5.47,23.62,23.62,0,0,0-2.84-2.35A16.93,16.93,0,0,0,145,44.62a10,10,0,0,0-4.43-1,3.39,3.39,0,0,0-1.35,0c-.35.18-.37.53-.85.57C138.34,44.33,138.32,44.4,137.17,44.19Z"/><path class="cls-4" d="M141.14,55.84c-.7,1.09-.89,1.46,0,2.28.55.52,1.32.22,1.17-.6s-1.17-1.84-2-1.68Z"/><path class="cls-4" d="M123.82,27.16A10.25,10.25,0,0,0,130.31,30c.69,0,1.35-.4,1.12-1.17a3,3,0,0,0-.79-1,6.77,6.77,0,0,0-4.13-2.37c-1.14-.16-2.79-.36-3,1.11Z"/><path class="cls-4" d="M117,59.81c.31-1.07.44-1.47,1.44-1.88s1.4-.53,2.25.16c1.11.9,1.37,1.94.44,3-.52.6-1.88,1.44-2.72.95a5.13,5.13,0,0,1-.85-1.09c-.36-.49-.26-.84-.27-1.42Z"/><path class="cls-4" d="M103.09,62.37c1,.86,2.1,1.83,3.54,1.29.65-.24,1.3-.67.65-1.23-.42-.36-1.14-.28-1.64-.41a1.89,1.89,0,0,0-1.7.06Z"/><path class="cls-4" d="M90.6,11.26c1.32,0,2.63-.17,3.94-.35,0-.42.39-.81.32-1.22-.12-.66-1.19-.88-1.73-1-.95-.16-3.65.36-3.67,1.68Z"/><path class="cls-4" d="M104.37,153.8a1.55,1.55,0,0,1,1.36-1,6.1,6.1,0,0,1,1.9.14,18.63,18.63,0,0,1,3.36,1.11c1.34.47,2.68,1,4.05,1.43a33,33,0,0,0,4.52.84c2.36.34,4.73.55,7.07,1a12.92,12.92,0,0,1,2,.54,14.38,14.38,0,0,0,1.45.31,2.67,2.67,0,0,1,1.49.76,1.1,1.1,0,0,1,.28,1.09c-.12.4-.5.72-.64,1.13a4.18,4.18,0,0,0-.33,1.88,2.63,2.63,0,0,0,.89,1.6,11.33,11.33,0,0,1,1.57,1.68c.28.4.34.69-.29.53a9.83,9.83,0,0,1-2-.92c-1.26-.65-2.45-1.39-3.73-2-.72-.33-1.46-.57-2.18-.88s-1.36-.61-2-.86c-1.4-.49-2.75-1.15-4.11-1.73-2.23-.94-4.44-1.92-6.69-2.81a18.41,18.41,0,0,1-3.06-1.49c-.51-.33-1-.76-1.5-1.07a6.08,6.08,0,0,0-1.45-.44,2.24,2.24,0,0,1-.72-.41,5,5,0,0,0-1.61-.88S104,153.27,104.37,153.8Z"/><path class="cls-4" d="M84.92,138.32c-.19.09-1,.33-1.14.7s.13.43.36.52a7.93,7.93,0,0,0,1.28.2c.76.12,1.5.27,2.25.43s1.22.31,1.84.43,1.58.22,2.33.41a20.37,20.37,0,0,0,2,.47c.85.13,1.63.45,2.48.54,1.78.2,3.59.33,5.37.42a18.88,18.88,0,0,1,5.36,1.1c.78.28,1.58.54,2.35.85s1.26.68,1.91,1c1.42.7,2.77,1.63,4.25,2.2a31.73,31.73,0,0,0,5,1.38c2.42.53,4.85,1,7.27,1.52,2.78.61,5.57,1.31,8.32,2a18.55,18.55,0,0,1,3.71,1.3c.9.48,1.85.94,2.73,1.46.69.41,1.38.81,2.08,1.2s1.3.89,2,1.29a6.46,6.46,0,0,1,1.58,1,18.25,18.25,0,0,0,1.33,1.31c.34.29.61.63.92.93a2.94,2.94,0,0,1,.71.74,5.55,5.55,0,0,1,.45,1,16.15,16.15,0,0,0,.84,1.43c.06.14.08.32.15.46a4.84,4.84,0,0,0,.56.64c.18.21.3.46.47.67a10,10,0,0,0,.9.81c.39.39.8.7,1.18,1.11a2.75,2.75,0,0,1,.59,1.39c.11,0,.22.13.29.14s.12,0,.28-.08a3,3,0,0,0,.85-.6A11.27,11.27,0,0,0,160,166a3.9,3.9,0,0,0,.61-2.17,1.07,1.07,0,0,0-.75-.92c-.7-.32-1.5-.4-2.2-.74s-1.62-.78-2.42-1.17c-.5-.24-.93-.57-1.45-.79a6.91,6.91,0,0,1-1.53-.84,23.27,23.27,0,0,1-2.37-1.82c-1.1-1-2.31-2-3.49-2.91a31.47,31.47,0,0,0-2.84-2.14,10.55,10.55,0,0,0-2.61-1.1,18.17,18.17,0,0,0-1.82-.3c-.67-.13-1.31-.26-2-.33-1.11-.11-2.19-.2-3.3-.24a10,10,0,0,1-2.49-.43,7.22,7.22,0,0,1-1.88-.71c-.46-.31-.94-.57-1.41-.85-.67-.4-1.28-.92-2-1.29a12.29,12.29,0,0,1-2.59-1.66c-.39-.36-2-1.88-1.11-2.35a3.84,3.84,0,0,1,2.39.07,4.9,4.9,0,0,1,.91.53c.29.17.56.37.85.55a7.23,7.23,0,0,0,1.71.6c1.13.31,2.24.69,3.38,1s2.43.85,3.68,1.14c2.5.58,5.1.91,7.4,2.09,1.09.57,2.26.95,3.37,1.49s2,1.11,3,1.63a47.59,47.59,0,0,1,4.41,2.34,5.42,5.42,0,0,1,1.28,1.42c.36.48.68,1,1,1.52a4,4,0,0,0,1.24,1.43,4.49,4.49,0,0,0,1.31.66.73.73,0,0,0-.19-.37c-.25-.31-.54-.59-.78-.91a2.73,2.73,0,0,1-.72-1.58,3.17,3.17,0,0,0-.59-1.65,16.22,16.22,0,0,0-2.8-3.16,7.83,7.83,0,0,0-1.92-1.37c-.73-.34-1.49-.6-2.23-.92-1.48-.64-3-1.2-4.52-1.77s-3.37-1-5.05-1.43c-.8-.22-1.62-.33-2.41-.56l-3.06-.86a21.62,21.62,0,0,1-4.72-2.15c-.66-.39-1.31-.78-2-1.15-.85-.46-1.75-.82-2.59-1.31a37.05,37.05,0,0,0-4.52-2.21,25.08,25.08,0,0,0-4.79-1.12c-1.61-.32-3.22-.65-4.84-.92-1.87-.32-3.69-.75-5.58-.93-1.52-.15-3-.37-4.54-.45a10.2,10.2,0,0,0-2.59,0,7.47,7.47,0,0,0-1.83.74,15.64,15.64,0,0,1-6.82,2c-.68,0-1.36.13-2,.15a8.19,8.19,0,0,0-1.56.17C85,138.08,84.66,138.3,84.92,138.32Z"/><path class="cls-4" d="M104.51,128.67a2.91,2.91,0,0,0-.72,1.16c-.08.55.56,1,1,1.23a15.45,15.45,0,0,0,3,.76c1.27.35,2.52.76,3.77,1.14a25.33,25.33,0,0,0,3.53.89c.51.07,1.28.26,1.7-.13.87-.81-.19-1.57-.85-2.07a11.44,11.44,0,0,0-4.22-1.6c-1-.25-2-.48-3.07-.64-.76-.11-1.46-.31-2.2-.49-.3-.08-.58-.06-.87-.12S104.89,128.45,104.51,128.67Z"/><path class="cls-4" d="M129.36,178.64a6.4,6.4,0,0,0-1.76-1.41c-1.35-.88-2.93-1.39-4.32-2.19a15.58,15.58,0,0,0-4.37-1.73c-1.2-.26-2.41-.32-3.63-.46-.72-.08-1.44,0-2.16-.1a20.5,20.5,0,0,0-2.35-.07,21.62,21.62,0,0,0-2.28.11c-.92.07-1.84,0-2.75.2-.47.08-1.63.23-1.66.82s.58.86,1,1.08a11.51,11.51,0,0,0,3.28,1.14c1.6.33,3.2.69,4.79,1.05,1.35.3,2.7.63,4,1,.61.17,1.15.41,1.75.63s1.23.37,1.83.65a32.09,32.09,0,0,0,3.18,1.07l1.44.49c.53.18.94.5,1.45.72a15.45,15.45,0,0,0,2.7,1.1l2.4.56c.65.16,1.89.68,2.47.12s-.2-2-.66-2.56a8.34,8.34,0,0,0-2.55-1.77A2.59,2.59,0,0,0,129.36,178.64Z"/></g><path class="cls-6" d="M72,74.29c-.34.48-.71.9-.1,1.4a3,3,0,0,0,2.52.32c.91-.25,2.35-1.26,2.14-2.4s-2.07-1.06-2.87-.84a2.42,2.42,0,0,0-1.83,2.09Z"/><path class="cls-6" d="M12.37,78.54c-.34.48-.7.9-.1,1.4a3,3,0,0,0,2.52.32c.91-.25,2.35-1.26,2.13-2.39S14.86,76.8,14.06,77a2.42,2.42,0,0,0-1.83,2.09Z"/><path class="cls-6" d="M124.81,11.68c-.32.65-.32.57,0,1.12a3.28,3.28,0,0,0,1.65,1.28,6.73,6.73,0,0,0,1.74.19,5.45,5.45,0,0,0,1.71,0c.92-.15,2.14-.34,2.69-1.2.67-1.08,0-2.36-.67-3.24-1.45-1.81-4.26-1.95-6.25-1A1.88,1.88,0,0,0,124.81,11.68Z"/><path class="cls-6" d="M135.18,15.8a.93.93,0,0,1-.13-.56,1.46,1.46,0,0,1,1.88.85,1.29,1.29,0,0,1,.1.82,1.49,1.49,0,0,1-.66.6,1.33,1.33,0,0,1-1.66-.43c-.21-.28-.5-1,0-1.14Z"/><path class="cls-6" d="M101.45,80.81a1,1,0,0,1-.13-.56,1.45,1.45,0,0,1,1.88.86,1.36,1.36,0,0,1,.11.82,1.41,1.41,0,0,1-.66.59A1.34,1.34,0,0,1,101,82.1c-.22-.29-.51-1,0-1.15Z"/><path class="cls-6" d="M177.77,71.31c.33.73.89,1.63,1.85,1.4a3.27,3.27,0,0,0,2-2.68,6,6,0,0,0-1.28-4.79,12.25,12.25,0,0,0-1.69-1.61c-.41-.3-.71-.61-1.25-.57-1.08.09-1.53,1.66-1.82,2.51a4.74,4.74,0,0,0-.11,3.11,9.26,9.26,0,0,0,1.33,2.43C177.12,71.43,177.46,71.81,177.77,71.31Z"/><path class="cls-6" d="M116.39,17.52c.33.73.89,1.63,1.85,1.4a3.3,3.3,0,0,0,2.06-2.68A6,6,0,0,0,119,11.45a12.25,12.25,0,0,0-1.69-1.61c-.4-.3-.71-.61-1.24-.57-1.09.09-1.54,1.66-1.82,2.51a4.68,4.68,0,0,0-.12,3.11,9.26,9.26,0,0,0,1.33,2.43C115.75,17.64,116.08,18,116.39,17.52Z"/><path class="cls-6" d="M173.37,72.59a5.18,5.18,0,0,1,1.78.44,2,2,0,0,0,.06.55c0,.11.17.28.12.4-.12.35-.75.35-1,.3a3,3,0,0,1-1.14-.56.94.94,0,0,1-.49-.53c.11-.09.24-.17.26-.32Z"/><path class="cls-6" d="M172,115.23a5.23,5.23,0,0,1,1.78.44,2,2,0,0,0,.06.55c0,.12.17.28.12.4-.13.35-.75.35-1,.3a3.2,3.2,0,0,1-1.14-.56.94.94,0,0,1-.49-.53c.11-.09.23-.17.26-.32Z"/><path class="cls-6" d="M175.92,57c.19.17.46.54.73.59s.78-.3,1-.45a1.33,1.33,0,0,0,.67-1.31,2.07,2.07,0,0,0-.73-1.38,13.79,13.79,0,0,0-2.54-1.5,2.06,2.06,0,0,0-1.78-.08c-.63.46-.23,1.25,0,1.79a7.8,7.8,0,0,0,1.43,2,2,2,0,0,0,1.62.92Z"/><path class="cls-6" d="M154.67,142a2,2,0,0,0-.16.94,3.32,3.32,0,0,0,1.81.93,3.48,3.48,0,0,0,2.88-.69,2.77,2.77,0,0,0,.8-1.37c0-.41-.47-.91-.78-1.15a3.37,3.37,0,0,0-2.44-.35,4.62,4.62,0,0,0-1.07.35c-.49.27-.68.74-1,1.15Z"/><path class="cls-6" d="M163.57,146.7a3.51,3.51,0,0,1,1.83.58c-.19.29-.18.71-.54.9a2.25,2.25,0,0,1-1.18,0,2.38,2.38,0,0,1-.64-.59c-.17-.35.11-.84.53-.72Z"/><path class="cls-6" d="M75.94,166.88a3.66,3.66,0,0,1,1.83.58c-.19.29-.18.71-.54.9a1.38,1.38,0,0,1-1.82-.57.49.49,0,0,1,.53-.72Z"/><path class="cls-6" d="M176.63,118.3a4.13,4.13,0,0,0,1.85,1.49c.9.24,1.33-.31,1.73-1.06a6,6,0,0,0,.18-3.12,4.36,4.36,0,0,0-1.29-2.72c-1.44-1-2.6.46-2.82,1.81-.07.37-.17.76-.21,1.13a4,4,0,0,0,.25,1.41,6.14,6.14,0,0,0,.39,1.41,4.53,4.53,0,0,0,.87,1Z"/><path class="cls-6" d="M82.36,167.52a5.16,5.16,0,0,0,2.9.54c.85-.11,1.72-.35,2.56-.54s2.84-.34,3-1.49c.26-1.4-1.69-2.42-2.59-3.07a7.6,7.6,0,0,0-3-1.41c-1-.16-1.72-.41-2.63.14a3.86,3.86,0,0,0-1.8,1.7,2.48,2.48,0,0,0,.48,2.43C81.78,166.49,82.35,166.92,82.36,167.52Z"/><path class="cls-6" d="M91.35,167.67c0-.57-.06-.78.41-.95a1.39,1.39,0,0,1,.73,0,1.18,1.18,0,0,1,.57,1c0,.36-.12.75-.58.67-.26,0-1-.51-.94-.77Z"/><path class="cls-6" d="M104.72,9.37c0-.57-.06-.78.41-.95a1.39,1.39,0,0,1,.73,0,1.18,1.18,0,0,1,.57,1c0,.36-.12.75-.58.67-.26,0-1-.51-.94-.77Z"/><path class="cls-6" d="M14,87.56c0-.57-.06-.78.41-1a1.5,1.5,0,0,1,.73,0,1.18,1.18,0,0,1,.57,1c0,.36-.12.75-.58.67-.26,0-1-.51-.94-.77Z"/><path class="cls-6" d="M159.15,139.64c0-.58-.06-.78.41-1a1.39,1.39,0,0,1,.73,0,1.16,1.16,0,0,1,.57,1c0,.36-.12.76-.58.68-.26,0-1-.52-.94-.77Z"/><path class="cls-6" d="M105.46,185.32a6.64,6.64,0,0,0,2.2.58,11,11,0,0,0,1.26-.19,3.51,3.51,0,0,0,2-1c.74-.88.2-1.47-.78-1.63a6,6,0,0,0-3.22,0c-.53.21-2.09.93-1.13,1.71Z"/><path class="cls-6" d="M89.18,102c-.21.67-.37,1.17.25,1.66.8.64,2.23.48,3.18.61.79.1,2.87.58,2.14-1a3.36,3.36,0,0,0-2.54-1.89c-1-.24-2.26-.44-3,.38Z"/><path class="cls-6" d="M44,105.84a1.2,1.2,0,0,1,.37-.46,4,4,0,0,1,.92-.46,5.23,5.23,0,0,1,1.41-.31c.1,0,.52,0,.42.21,0,0-.1.09-.14.11a1.36,1.36,0,0,1-.38.24,3.44,3.44,0,0,0-.37.14,1.89,1.89,0,0,1-.46.2,1,1,0,0,0-.37.13,2.65,2.65,0,0,1-.54.25,1.81,1.81,0,0,1-.75.16c-.08,0-.16,0-.2,0S43.9,105.85,44,105.84Z"/><path class="cls-6" d="M53.59,103.54a9.18,9.18,0,0,1,2.28.34c.06.54-.7.75-1.14.8a1.66,1.66,0,0,1-.86-.09c-.25-.12-.4-.43-.66-.48Z"/><path class="cls-6" d="M52.45,61.14a15.71,15.71,0,0,0-4.77-1.87,9.31,9.31,0,0,0-6.2.93c-.61.33-1.88.76-1.87,1.7,0,1.1,2.37.92,3,.93a29.53,29.53,0,0,1,5.48.57,8.39,8.39,0,0,0,4.3.25,1.67,1.67,0,0,0,1-1.42C53.45,61.68,52.58,61,52.45,61.14Z"/><path class="cls-6" d="M54.54,61.7c.45.25,1.55,1.31,1.85.39.15-.46-.1-.71-.32-1.07s-.23-.43-.68-.55-.7-.17-1,.29Z"/><path class="cls-6" d="M176.63,90.48a13.17,13.17,0,0,1,2.94-.17c.36.08.73.24,1.09.35a4.64,4.64,0,0,1,2.14,1.24,1.88,1.88,0,0,1,.45.94c0,.41-.4.79-.74,1a3.15,3.15,0,0,1-1.69.23,5.9,5.9,0,0,1-2.78-.56c-.52-.27-2.35-1.74-1.41-2.48Z"/><path class="cls-6" d="M158.65,124.17c-.44.92-.48,1,0,1.83a4.47,4.47,0,0,0,2.41,1.79c.7.27,2.19.31,2.09-.85-.08-.91-1.41-2-2.06-2.59a3.59,3.59,0,0,0-2.65-.74Z"/><path class="cls-7" d="M91.17,109.79a3.4,3.4,0,0,0,2.55,1.66,2.72,2.72,0,0,0,2.15-.81c.84-.89,0-1.69-.86-2.14a2.29,2.29,0,0,0-2.32-.17,1.23,1.23,0,0,0-.65.77c-.09.52.4.79.26,1.25Z"/><path class="cls-7" d="M114.17,82.81c-.65-.93-1.8-2.14-.53-3.06a3.54,3.54,0,0,1,2-.35,14,14,0,0,1,2.51.06c1,.21,2.29.52,2.82,1.41a7.54,7.54,0,0,1,1.16,2.95,2.8,2.8,0,0,1-3.34,2.92,8.27,8.27,0,0,1-1.87-.58c-.59-.27-.84-.71-1.33-1.09-.64-.5-1.44-.86-1.71-1.69Z"/><path class="cls-7" d="M123.82,79.69A4.44,4.44,0,0,0,126,78.5c-.43-.45-1.06-1.22-1.73-1.1-.93.17-1,.92-1,1.72Z"/><path class="cls-7" d="M103,46.58a4.44,4.44,0,0,0,2.15-1.19c-.43-.45-1.06-1.21-1.73-1.09-.93.16-1,.92-1,1.71Z"/><path class="cls-7" d="M52,65.49c.67-.51,1.32-1.3,2.14-1.43a3.23,3.23,0,0,1,1.85.21c.27.14.76.5.83.82.12.59-.36.61-.78.75a7.56,7.56,0,0,1-1.91.5c-.47,0-1.87.62-1.56-.57Z"/><path class="cls-7" d="M77.25,32.55A6.1,6.1,0,0,0,80,31.36a2.8,2.8,0,0,0-2.48-.94c-1,.27-1.12.46-1.14,1.56Z"/><path class="cls-7" d="M82.65,150.67a2.67,2.67,0,0,1-.56-1.42c.46-.23.68-.78,1.11-1.09a2.87,2.87,0,0,1,2-.34c.72.07,1.8.54,1.71,1.43A2.52,2.52,0,0,1,85.27,151a6,6,0,0,1-2,.21Z"/><path class="cls-7" d="M106.77,49.18a2.72,2.72,0,0,1-.55-1.43c.45-.23.67-.78,1.11-1.09a2.91,2.91,0,0,1,2-.34c.72.07,1.8.54,1.72,1.43a2.52,2.52,0,0,1-1.67,1.78,5.94,5.94,0,0,1-2,.21Z"/><path class="cls-7" d="M114.45,171.12c.55-.4,1.63-1.38,2.35-.65.41.41.2.88,0,1.28a1.31,1.31,0,0,1-.91.8c-.61.15-.84-.32-1.38-.35a1.89,1.89,0,0,0,0-.23Z"/><path class="cls-7" d="M71.74,133.69c.82,1.06,1.91,2.13,2.59.44.27-.67.18-.69-.32-1.15a1.18,1.18,0,0,0-1.37-.38c0,.08,0,.16,0,.24Z"/><g class="cls-8"><path class="cls-9" d="M83.31,39.65a15.58,15.58,0,0,1,1.79-.87A6.71,6.71,0,0,1,88.82,38a10.38,10.38,0,0,0,3.56.06c1.46-.2,2.92-.33,4.39-.42a13.06,13.06,0,0,1,2.64.26,9.85,9.85,0,0,1,2.44.69c.72.3,1.4.75,2.09,1.11l2.82,1.5c.7.36,1.45.64,2.12,1a6,6,0,0,1,1.36,1.26,19.65,19.65,0,0,1,2.35,3,10,10,0,0,1,1.09,3.58c.1.94,0,2.23-1.1,2.45a3.53,3.53,0,0,1-1.12-.07c-.34,0-.68,0-1-.1a5,5,0,0,0-1.65.27c-.59.14-1.16.3-1.76.39a5.74,5.74,0,0,1-2.64-.12,14.77,14.77,0,0,1-1.39-.54c-.63-.31-1.24-.68-1.9-.94a8.59,8.59,0,0,0-1.48-.5,9.13,9.13,0,0,0-1.73-.09,26.71,26.71,0,0,1-5-.37,29.9,29.9,0,0,1-7.39-2.3,9,9,0,0,1-2.65-1.68,8.55,8.55,0,0,1-1.5-1.89c-.57-1-1-2.34-.16-3.3a8.06,8.06,0,0,1,1.15-.95A3,3,0,0,0,83.31,39.65Z"/><path class="cls-9" d="M79.9,40.22a4.31,4.31,0,0,0-1.36-.29,7.08,7.08,0,0,0-1.22.09c-.4.09-.81.18-1.21.29a7.07,7.07,0,0,0-1.42.67c-.33.17-1.07.46-1,.91,0,.28.45.58.65.7a3.47,3.47,0,0,0,.86.38,10.82,10.82,0,0,0,1.85.52,1.77,1.77,0,0,0,1.66-.73,4.32,4.32,0,0,0,.83-1.57C79.62,40.67,79.17,40.31,79.9,40.22Z"/><path class="cls-9" d="M59.23,50A8.44,8.44,0,0,0,58,50.3c-.21.07-.64.16-.79.37s0,.31.18.4a1.9,1.9,0,0,0,1,.24c.82.07,1.61-.14,2.42-.15a9.47,9.47,0,0,0,1.06-.09,3,3,0,0,0,.93-.26c.27-.12.48-.39.28-.68s-.82-.39-1.2-.43a4.8,4.8,0,0,0-2.1.08C59.45,49.91,59.08,50.1,59.23,50Z"/><path class="cls-9" d="M61.21,69.18a7.2,7.2,0,0,0-2.45.95c-.41.29-.95.56-1.16,1.05-.42.92.82,1.19,1.48,1.31a9.06,9.06,0,0,0,2.84-.15,10.3,10.3,0,0,1,1.24,0,4.45,4.45,0,0,0,1.51-.44c.62-.26,1.34-.67,1.38-1.42A1.41,1.41,0,0,0,65.51,69,2.23,2.23,0,0,0,64,68.62a11.41,11.41,0,0,0-2.91.28Z"/><path class="cls-9" d="M54.25,72.59a1.14,1.14,0,0,1,.74.59,2.54,2.54,0,0,1-2.36.53c-.37-.07-.66-.3-.37-.63s.58-.2.86-.21Z"/><path class="cls-9" d="M37.5,101c-.29.14-.85.29-1,.54-.06.09-.12.27-.18.38a1.18,1.18,0,0,0-.07,1.25c.41.68,1.42.77,2.13.81a12.09,12.09,0,0,0,3.53-.45c1-.24,1.9-.6,2.85-.87A11.17,11.17,0,0,0,46,102.3a.9.9,0,0,0,.1-1.53c-1.57-1.42-4.4-1.32-6.28-.73a11.69,11.69,0,0,0-1.68.79l-.49.26C37.42,101.22,37.19,101.54,37.5,101Z"/><path class="cls-9" d="M147.25,116.32c-.12.08-.81.52-.88.8a3.33,3.33,0,0,0,0,.63,2.6,2.6,0,0,0,1.06,2,7.11,7.11,0,0,0,1.91,1,1.22,1.22,0,0,0,1.13,0c1.35-.8-.31-2.49-1-3.14-.37-.38-.89-1.42-1.56-1.28Z"/><path class="cls-9" d="M136,111.21a28.9,28.9,0,0,0-4.41-2.4,33.38,33.38,0,0,0-4.43-2.13,26.15,26.15,0,0,0-4.85-1.24,29,29,0,0,0-7.56,0c-1,.13-2,.37-3,.48-.49.06-.92.23-1.4.31-.13.37.4.6.65.75a10.35,10.35,0,0,0,1.75.61c.64.23,1.28.42,1.92.64,1.49.49,3,1,4.5,1.36,1.81.4,3.68.62,5.51.94s3.35.88,5,1.22a16.32,16.32,0,0,0,3.46.56,3.68,3.68,0,0,0,1.48-.1C134.87,112.14,135.26,111.77,136,111.21Z"/><path class="cls-9" d="M110.19,104.53a8.72,8.72,0,0,0-1.89.57,3.69,3.69,0,0,1-1.08.4,7.59,7.59,0,0,1-2.85,0c-.28,0-4.31-.46-3-1.56a5,5,0,0,1,3-.87,17.43,17.43,0,0,1,3.31.21,5,5,0,0,1,1.42.41c.14.07.25.07.29.24S109.36,104.25,110.19,104.53Z"/><path class="cls-9" d="M107.35,106.8c-.28.17-.56.32-.85.47.21,0,.25-.14.41-.22a3,3,0,0,1,.76-.22c.27,0,1,.12,1,.54,0,.79-1.69.33-2,.14Z"/><path class="cls-9" d="M84.21,102.12c-.73-.14-1.44-.25-2.15-.42a10.13,10.13,0,0,0-3-.12,11.57,11.57,0,0,0-3.51.57c-.34.13-.83.26-1,.64-.35,1,1.08,1.42,1.72,1.6a21,21,0,0,0,4.59.7c.7,0,1.4,0,2.1,0a9,9,0,0,0,2.14.08,6.05,6.05,0,0,0,1.56-.39c.35-.14.7-.19.81-.58.24-.89-.61-1.51-1.31-1.84C85.3,102,84.31,101.53,84.21,102.12Z"/><path class="cls-9" d="M54.54,135.06c0-.54-.08-.49.15-.8a5.26,5.26,0,0,1,1.13-1.08c.86-.65,2-1.44,3.19-1.25a1.5,1.5,0,0,1,.76,2.53,7.39,7.39,0,0,1-1.9,1.33,6.41,6.41,0,0,1-1.91.8,1.56,1.56,0,0,1-1.43-.42.92.92,0,0,1-.24-.86C54.4,135,54.75,134.82,54.54,135.06Z"/><path class="cls-9" d="M150.94,93.74a8.67,8.67,0,0,0-4.67-1.92c-.49-.09-3.36-.61-3,.58.22.69,1.26,1.09,1.83,1.38.9.46,1.81.85,2.75,1.24,1.84.77,3.67,1.57,5.49,2.42a19.66,19.66,0,0,0,2.13,1c.32.1.63.24.87-.06.47-.59-.24-1.33-.61-1.79a7.19,7.19,0,0,0-2.55-2,13.33,13.33,0,0,1-1.82-.89C151,93.47,150.57,93.37,150.94,93.74Z"/><path class="cls-9" d="M159.17,99.42l.12,0c0-.48,1-.8,1.39-.82a5.26,5.26,0,0,1,1.19,0,1.58,1.58,0,0,1,1,.84c.46.69.67,1.9-.51,1.68a4.2,4.2,0,0,1-2.81-1.53Z"/><path class="cls-9" d="M165,102.69a6.33,6.33,0,0,0,2.45,1.86,2.34,2.34,0,0,0,2.1-.12c.84-.74.38-2.21-.23-3a4.14,4.14,0,0,0-4.24-1c-.33.11-.77.23-.92.58a1.32,1.32,0,0,0,.27,1.19Z"/><path class="cls-9" d="M172.52,105c-.14-.14-1.14-1.11-.44-1.29.5-.13.89.37,1.22.64s.69.38.39.69-.75.1-1,.1Z"/><path class="cls-9" d="M123.75,144.5c-.13.26-.15.22-.1.42a2.27,2.27,0,0,0,.23.5,2.79,2.79,0,0,0,1.22.92c.46.21,1,.38,1.42.57s.92.48,1.38.71a12.1,12.1,0,0,0,1.94.69,4.78,4.78,0,0,0,2,.29c.24,0,.71-.13.8-.4s-.21-.75-.47-.92a3.94,3.94,0,0,0-.55-.26c-.26-.11-.5-.25-.76-.36a13.28,13.28,0,0,0-1.59-.6,12.18,12.18,0,0,1-2.59-.74,6.79,6.79,0,0,0-1.36-.77A2.51,2.51,0,0,0,123.75,144.5Z"/><path class="cls-9" d="M130.85,149.54c-.08-.18-.17-.24,0-.34s.33-.08.46-.09a5.66,5.66,0,0,1,.82-.06,2,2,0,0,1,.48.13,4.45,4.45,0,0,1,.71.3.28.28,0,0,1,.1.38c-.17.35-.92.27-1.21.21a5.7,5.7,0,0,1-.81-.22c-.15-.06-.47-.12-.57-.24Z"/><path class="cls-9" d="M138.09,148.76c0,.13-.12.3-.06.43a2.24,2.24,0,0,0,.33.36,5,5,0,0,0,1.35,1.06c.22.11.42.25.65.34s.46.12.68.19.45.18.68.25a6.55,6.55,0,0,1,.89.27,15.58,15.58,0,0,0,3.43,1.22,3.14,3.14,0,0,0,1.52.07c.26-.09.52-.19.43-.5a1.72,1.72,0,0,0-.77-.89,9.2,9.2,0,0,0-1.47-.74c-.65-.31-1.31-.59-2-.86s-1.24-.46-1.86-.7a14.68,14.68,0,0,0-2.92-.88C138.47,148.29,138.05,148.29,138.09,148.76Z"/><path class="cls-9" d="M142.21,145.7a1.23,1.23,0,0,1,1.55,0c.19.17.34.35.08.51-.45.29-1.51.23-1.78-.28Z"/><path class="cls-9" d="M158.6,128c-.3,0-1.18-.11-1.48.22a.51.51,0,0,0,0,.7,4.31,4.31,0,0,0,1.61.78c.8.32,1.65.53,2.44.89s1.75.73,2.61,1.17,1.45.76,2.14,1.21c.32.2.65.38,1,.55a4.23,4.23,0,0,0,1,.42,2,2,0,0,0,1.58-.13c.76-.58-.28-2-.73-2.39a7.38,7.38,0,0,0-1.87-1.37,16.15,16.15,0,0,0-2.33-.83c-.66-.19-1.29-.41-1.94-.64a12.16,12.16,0,0,0-1.59-.48c-.6-.11-1.2-.2-1.8-.28S158.19,127.81,158.6,128Z"/><path class="cls-9" d="M164.71,127.46l.81.24c0,.08.09.09.17.16a.76.76,0,0,1,.18.37c0,.2,0,.34-.2.41a1.28,1.28,0,0,1-1-.33c-.17-.1-.65-.49-.35-.71Z"/><path class="cls-9" d="M90,23.47a8.94,8.94,0,0,0-1.5-.46,5.57,5.57,0,0,1-.82,0c-.6,0-1.22,0-1.83,0-.88.09-1.75.37-2.63.51a18.52,18.52,0,0,0-1.92.47,21.3,21.3,0,0,0-3.92,1.09c-.52.25-1.77.83-1.84,1.47-.06.47.43.49.82.54a21.78,21.78,0,0,0,3.23.17c1.86,0,3.7-.41,5.54-.55,1.08-.08,2.18-.12,3.26-.15s2.06-.16,3.1-.27c.82-.09,1.64-.12,2.46-.2s1.82-.35,2.73-.51A10.21,10.21,0,0,0,100,24.54c.46-.25.84-.54.48-1.08s-1.2-.57-1.81-.56c-2.29,0-4.57.14-6.87.14C91.39,23,88.65,22.88,90,23.47Z"/><path class="cls-9" d="M95.85,21.48a5.24,5.24,0,0,1,3.55-.58c.33.09,1.15.44.69.83a1.29,1.29,0,0,1-.82.18c-.42,0-.87,0-1.29,0-.72-.05-1.42-.34-2.13-.43Z"/><path class="cls-9" d="M102.38,24.6a6.27,6.27,0,0,1,1.75-.26,3.6,3.6,0,0,1,.66.2,3,3,0,0,1,1.14.63c.56.55.19.78-.37,1a4.07,4.07,0,0,1-2.08.11,2.83,2.83,0,0,1-.85-.28c-.13-.07-.69-.67-.25-.68Z"/><path class="cls-9" d="M138.59,29.43c-1.09.19-2.08.35-3.14.64a11.11,11.11,0,0,1-1.41.33c-.53.08-1.07,0-1.6.05a10.71,10.71,0,0,1-1.39.12,4.6,4.6,0,0,0-.91,0c-.31.05-.75.15-.64.55s1.41.86,1.84,1c.78.27,1.58.54,2.36.77a15.39,15.39,0,0,0,2.44.33c.37,0,.73,0,1.1.05s.9.14,1.36.2c1.34.16,6.66.81,5.25-2a3.49,3.49,0,0,0-1.12-1.32,5.19,5.19,0,0,0-1.66-.7,5.25,5.25,0,0,0-2.09-.12C137.88,29.45,136.92,29.92,138.59,29.43Z"/><path class="cls-9" d="M163.43,41.21a3.8,3.8,0,0,0,1.31,2.6,6.73,6.73,0,0,0,2.82,2.13c.55.19,1.37.5,1.81-.11s0-1.55-.4-2a6,6,0,0,0-1.85-1.13c-.67-.33-1.22-.76-1.86-1.13a9,9,0,0,0-1.62-.86C163.11,40.54,163,40.85,163.43,41.21Z"/><path class="cls-9" d="M40.76,32.13c-1,.58-2.27,1.5-2.4,2.81-.11,1.06.87,1.44,1.76,1.56a9.92,9.92,0,0,0,2-.11,14.4,14.4,0,0,0,1.58-.25,3.85,3.85,0,0,0,2.71-1.54,2.13,2.13,0,0,0,.13-2.41A3.64,3.64,0,0,0,44.08,31a6.22,6.22,0,0,0-2.5.44,2.51,2.51,0,0,0-1,.55C40.39,32.15,39.73,32.49,40.76,32.13Z"/><path class="cls-9" d="M44.17,27.87c-.15.33-.46.74-.2,1.07s.83.2,1.19.21c.58,0,2-.24,2-1.07,0-1.13-3.15-.74-3.14.07Z"/><path class="cls-9" d="M16.2,43.91a11.46,11.46,0,0,1,2.7-2,23.51,23.51,0,0,1,5.46-2.27,7,7,0,0,1,4.34,0c.49.23,1.25.62,1.14,1.26s-.72,1-1.13,1.3a9.71,9.71,0,0,1-2.07,1.08c-.63.26-1.27.52-1.91.72a21.94,21.94,0,0,0-2.1.93c-.86.38-1.67.79-2.48,1.24a31.43,31.43,0,0,0-2.79,1.54,9.76,9.76,0,0,1-1.73,1.14,3.32,3.32,0,0,1-1,.29,1.06,1.06,0,0,1-.73-.86,3.41,3.41,0,0,1,.5-2.09C15.24,44.74,16.53,42.88,16.2,43.91Z"/><path class="cls-9" d="M15.49,50.73A4.82,4.82,0,0,0,14,52c-.2.28-.51.92-.26,1.26s1.39.06,1.81,0a6.94,6.94,0,0,0,1.1-.23c.35-.13.66-.31,1-.43s.94-.33,1.11-.85-.16-.78-.51-1.11A2.08,2.08,0,0,0,17,50.15c-.51,0-1.59.12-1.74.72Z"/><path class="cls-9" d="M43,50.87c.24.33.4.57.83.58a5.3,5.3,0,0,0,1-.18c.36-.1,1.15-.47.91-1-.12-.27-.59-.29-.84-.29s-.7-.12-1.07-.15-1.33.24-1.38.72Z"/><path class="cls-9" d="M32.25,75.85c.94-.71,2.11-1.48,3.34-1.2.23,0,.52,0,.62.29s-.09.38-.27.49a3.27,3.27,0,0,1-1.17.31c-.31.07-.59.18-.88.25s-.61-.18-.93-.14Z"/><path class="cls-9" d="M13.93,139a12.85,12.85,0,0,1,4.86-4.25c.95-.43,3-.68,3.69.33s.09,2.18-.29,3.07a18.88,18.88,0,0,1-1.46,2.29,5.45,5.45,0,0,1-.88,1.34c-1.33,1.19-3.55,2.37-5.36,1.57a2.27,2.27,0,0,1-1.14-2.28,3.69,3.69,0,0,1,1.43-2.92Z"/><path class="cls-9" d="M26.43,131.93a1.75,1.75,0,0,0-.56,1.12,2.51,2.51,0,0,0,4-1.39c.11-.78-.29-1.07-.86-1.43s-1.17-.09-1.7.57Z"/></g></g></g></g></svg>