<svg xmlns="http://www.w3.org/2000/svg" xmlns:xlink="http://www.w3.org/1999/xlink" viewBox="0 0 425.95 314.73"><defs><style>.cls-1{mask:url(#mask);filter:url(#luminosity-noclip-3);}.cls-2,.cls-4{mix-blend-mode:multiply;}.cls-2{fill:url(#linear-gradient);}.cls-3{mask:url(#mask-2);filter:url(#luminosity-noclip-4);}.cls-4{fill:url(#linear-gradient-2);}.cls-5{isolation:isolate;}.cls-6{fill:#fbf5ec;}.cls-7{fill:#404345;}.cls-8{fill:#80b362;}.cls-9{opacity:0.35;}.cls-10{opacity:0.75;mix-blend-mode:overlay;}.cls-11{mask:url(#mask-3);}.cls-12{fill:url(#linear-gradient-3);}.cls-13{mask:url(#mask-4);}.cls-14{mix-blend-mode:screen;fill:url(#linear-gradient-4);}.cls-15{fill:#b9161c;}.cls-16{fill:#87b4e2;}.cls-17{filter:url(#luminosity-noclip-2);}.cls-18{filter:url(#luminosity-noclip);}</style><filter id="luminosity-noclip" x="164.76" y="-7105.06" width="64.06" height="32766" filterUnits="userSpaceOnUse" color-interpolation-filters="sRGB"><feFlood flood-color="#fff" result="bg"/><feBlend in="SourceGraphic" in2="bg"/></filter><mask id="mask" x="164.76" y="-7105.06" width="64.06" height="32766" maskUnits="userSpaceOnUse"><g class="cls-18"/></mask><linearGradient id="linear-gradient" x1="215.72" y1="215.7" x2="212.58" y2="132.92" gradientTransform="translate(13.09 -61.46) rotate(8.97)" gradientUnits="userSpaceOnUse"><stop offset="0.27"/><stop offset="0.63" stop-color="#fff"/></linearGradient><filter id="luminosity-noclip-2" x="191.27" y="-7105.06" width="37.54" height="32766" filterUnits="userSpaceOnUse" color-interpolation-filters="sRGB"><feFlood flood-color="#fff" result="bg"/><feBlend in="SourceGraphic" in2="bg"/></filter><mask id="mask-2" x="191.27" y="-7105.06" width="37.54" height="32766" maskUnits="userSpaceOnUse"><g class="cls-17"/></mask><linearGradient id="linear-gradient-2" x1="224.64" y1="173.9" x2="223.11" y2="133.41" xlink:href="#linear-gradient"/><filter id="luminosity-noclip-3" x="164.76" y="103.69" width="64.06" height="82.37" filterUnits="userSpaceOnUse" color-interpolation-filters="sRGB"><feFlood flood-color="#fff" result="bg"/><feBlend in="SourceGraphic" in2="bg"/></filter><mask id="mask-3" x="164.76" y="103.69" width="64.06" height="82.37" maskUnits="userSpaceOnUse"><g class="cls-1"><path class="cls-2" d="M166.14,141a57.61,57.61,0,0,0,8.77,45.07l53.91-36.79-35.3-45.58A58.57,58.57,0,0,0,166.14,141Z"/></g></mask><linearGradient id="linear-gradient-3" x1="215.72" y1="215.7" x2="212.58" y2="132.92" gradientTransform="translate(13.09 -61.46) rotate(8.97)" gradientUnits="userSpaceOnUse"><stop offset="0.27" stop-color="#40403e"/><stop offset="0.63" stop-color="#7aae43"/></linearGradient><filter id="luminosity-noclip-4" x="191.27" y="103.69" width="37.54" height="45.58" filterUnits="userSpaceOnUse" color-interpolation-filters="sRGB"><feFlood flood-color="#fff" result="bg"/><feBlend in="SourceGraphic" in2="bg"/></filter><mask id="mask-4" x="191.27" y="103.69" width="37.54" height="45.58" maskUnits="userSpaceOnUse"><g class="cls-3"><path class="cls-4" d="M191.27,105.1l37.55,44.17-35.3-45.58Q192.38,104.37,191.27,105.1Z"/></g></mask><linearGradient id="linear-gradient-4" x1="224.64" y1="173.9" x2="223.11" y2="133.41" xlink:href="#linear-gradient-3"/></defs><title>Zasób 3</title><g class="cls-5"><g id="Warstwa_2" data-name="Warstwa 2"><g id="Warstwa_1-2" data-name="Warstwa 1"><path class="cls-6" d="M412.62,52.05C366.5,39.43,111.54-.6,79,0a7.33,7.33,0,0,0-6.1,2.77C57.9,23.78,3,205.88,0,242.44c-.37,4.59,1.76,7.39,4.8,8.34C43.42,262.92,380.56,316,411.75,314.7c2-.08,3.53-.84,4.22-2.38,8.89-20,13.48-209.59,6.78-249.71C421.86,57.3,418.12,53.56,412.62,52.05Z"/><path class="cls-7" d="M376,72c-37-10.13-241.4-42.23-267.47-41.72a5.87,5.87,0,0,0-4.89,2.23C91.6,49.43,47.47,196,45.11,225.41c-.3,3.69,1.4,5.94,3.84,6.71,30.93,9.75,301.24,52.32,326.25,51.25a3.58,3.58,0,0,0,3.39-1.92c7.14-16.08,10.9-168.66,5.55-200.93C383.43,76.24,380.43,73.23,376,72Z"/><path d="M368.68,76.12C333.54,66.48,139.23,36,114.45,36.45a5.59,5.59,0,0,0-4.65,2.13C98.34,54.65,56.39,193.94,54.14,221.91c-.28,3.5,1.34,5.64,3.66,6.38C87.19,237.55,344.13,278,367.9,277a3.43,3.43,0,0,0,3.22-1.82c6.78-15.28,10.36-160.32,5.27-191C375.72,80.12,372.87,77.27,368.68,76.12Z"/><path class="cls-8" d="M315.14,238.63l.24,0L321,99.06l-.4-.06v.06l-15.36-2.42v-.07l-.4-.06v.06L288.59,94V94l-.4-.06V94L272,91.39v-.06l-.4-.07v.07l-16.23-2.56V88.7l-.39-.06,0,.07-16.22-2.56v-.07l-.4-.06v.06l-16.22-2.56v-.06l-.4-.06v.06L205.46,80.9l0-.06-.4-.07,0,.07-16.22-2.56,0-.07-.41-.06v.06l-16.23-2.56,0-.06-.4-.06v.06l-15.38-2.43-.1.34,15.39,2.43-3.65,14.16-15.7-2.47,4.06-14.52L156,73,118.37,207.58l.22,0-.07.24,196.61,31ZM192.48,143.72l17.69,2.79-3.11,17.06L189,160.71Zm18.13,2.86,17.7,2.8-2.71,17.11-18.09-2.85Zm18.13,2.87,17.7,2.79-2.3,17.18-18.09-2.85Zm18.14,2.86,17.69,2.79-1.89,17.25-18.09-2.86Zm17.74,2.37-17.69-2.79,2.19-16.43,17.3,2.73Zm-18.12-2.86L228.81,149l2.58-16.36,17.3,2.73ZM228.37,149l-17.68-2.79,3-16.3L231,132.6Zm-18.12-2.86-17.69-2.79,3.36-16.24,17.31,2.73ZM192,143.65l-3.53,17-18.09-2.85,3.92-16.93Zm-3.16,17.49L207,164l-3.26,17.86-18.52-2.92Zm18.55,2.93,18.1,2.86-2.83,17.93-18.52-2.92ZM226,167l18.11,2.86-2.41,18-18.52-2.92Zm18.55,2.93,18.11,2.85-2,18.07-18.52-2.93Zm18.56,2.92,18.1,2.86-1.55,18.13-18.52-2.92Zm0-.43L265,155.17l17.7,2.79-1.48,17.31Zm1.93-17.67,1.79-16.49L284.16,141l-1.42,16.55ZM195.49,127l-3.37,16.24-17.68-2.79,3.75-16.18Zm-25.17,31.22,18.11,2.85-3.69,17.8L166.22,176Zm113.87-17.63-17.29-2.73,1.72-15.78,16.93,2.68Zm-17.72-2.79-17.3-2.73,2.09-15.72L268.2,122ZM248.75,135l-17.3-2.73,2.47-15.66,16.93,2.67ZM231,132.2l-17.3-2.73,2.85-15.6,16.93,2.67Zm-17.72-2.79L196,126.68l3.21-15.55,16.94,2.68Zm-17.73-2.8-17.29-2.73,3.58-15.48,16.93,2.67Zm-17.81-2.41L174,140.38l-17.69-2.79,4.14-16.12Zm-3.85,16.59L170,157.72l-18.09-2.86L156.21,138Zm-4,17.36-4.11,17.73L147.24,173l4.53-17.66Zm-3.76,18.24,18.54,2.93L180.78,198l-19-3Zm19,3,18.54,2.92L200.22,201l-19-3Zm19,3,18.54,2.92-3,18.8-19-3Zm19,3,18.54,2.93-2.52,18.86-19-3Zm19,3,18.53,2.92-2.08,18.94-19-3Zm19,3,18.53,2.92-1.63,19-19-3Zm19,3,18.53,2.93-1.18,19.08-19-3Zm0-.46,1.54-18.13,18.1,2.86-1.12,18.2Zm1.57-18.57L283.15,158l17.69,2.79-1.07,17.38Zm1.51-17.73,1.41-16.55,17.3,2.73-1,16.61Zm1.44-17L286,124.82l16.93,2.67-1,15.9ZM181.45,108.33l-3.6,15.48-17.3-2.73,4-15.42ZM147.12,173.4l18.53,2.92-4.31,18.58-19-3Zm155.8-46.29L286,124.44l1.29-15.17,16.58,2.62Zm-17.34-2.74-16.92-2.66,1.64-15.12,16.58,2.62Zm-17.34-2.73L251.32,119l2-15.06,16.58,2.62ZM250.9,118.9,234,116.23l2.37-15,16.57,2.62Zm-17.35-2.73-16.92-2.67,2.72-15,16.58,2.62Zm-17.34-2.74-16.92-2.67,3.08-14.89,16.57,2.62Zm-17.34-2.74L182,108l3.44-14.83L202,95.81ZM181.53,108l-16.92-2.67,3.79-14.78L185,93.13Zm-33.46-4.89,16,2.52-4,15.43-16.35-2.58Zm-4.4,15.76L160,121.41l-4.14,16.11-16.7-2.63Zm-4.6,16.47,16.7,2.63-4.34,16.86-17.06-2.69Zm-4.82,17.23,17.07,2.69-4.54,17.66-17.44-2.75Zm-5,18,17.45,2.76-4.76,18.51L124.06,189Zm32,24.81L157,213.45l-19.41-3.07,4.63-18Zm.47.07,19,3-3.76,18.13-19.41-3.06Zm19.45,3.07,19,3-3.33,18.21-19.4-3.06Zm19.45,3.07,19,3-2.89,18.28-19.41-3.06Zm19.45,3.07,19,3L236.58,226l-19.41-3.07Zm19.45,3.07,19,3-2,18.41-19.4-3.06ZM259,210.79l19,3-1.58,18.48-19.41-3.06Zm19.45,3.07,19,3-1.14,18.55-19.41-3.06Zm19.45,3.07,17.81,2.81-.75,18.62-18.19-2.87Zm0-.48,1.17-19.08,17.41,2.75-.77,19.14Zm1.2-19.54,1.11-18.2,17,2.69-.74,18.26Zm1.14-18.64,1.06-17.38L318,163.52,317.24,181Zm1.08-17.8,1-16.61,16.32,2.57L318,163.1Zm1.05-17,1-15.9,16,2.52L318.66,146Zm1-16.28.93-15.23,15.67,2.47-.62,15.28Zm-139.15-22-16-2.53L152.29,88,168,90.45Zm-40.26,84.27,17.84,2.82-4.63,18-18.22-2.88ZM320.55,99.41,320,114.06l-15.67-2.48.9-14.59Zm-15.76-2.48-.9,14.59-16.57-2.61,1.23-14.54ZM288.15,94.3l-1.24,14.54-16.57-2.61,1.58-14.49Zm-16.63-2.62-1.58,14.48-16.57-2.61,1.92-14.43Zm-16.63-2.63L253,103.49l-16.57-2.62,2.27-14.38Zm-16.63-2.62L236,100.81l-16.56-2.62L222,83.87ZM221.62,83.8,219,98.13l-16.57-2.62,2.95-14.27ZM205,81.18l-3,14.27-16.57-2.61,3.29-14.22Zm-16.63-2.62-3.3,14.21-16.57-2.61L172.13,76Z"/><path class="cls-8" d="M231.07,135c-9.27-1.46-18,4.38-19.59,13.17-1.57,8.94,4.92,17.57,14.5,19.08s18.42-4.7,19.68-13.69C246.89,144.7,240.34,136.45,231.07,135Zm-4.92,31.18c-9-1.41-15-9.47-13.57-17.84s9.65-13.7,18.33-12.33,14.81,9.11,13.65,17.38S235.11,167.58,226.15,166.16Z"/><path class="cls-8" d="M233,122.61c-16.5-2.6-32.28,7.67-35.28,23.37-3.09,16.22,8.57,32.08,26.1,34.84s33.5-8.73,35.56-25.11C261.38,139.85,249.53,125.22,233,122.61Zm-9,57.11c-16.88-2.66-28.13-17.93-25.17-33.57,2.87-15.14,18.1-25.07,34-22.56s27.36,16.65,25.43,31.94C256.3,171.32,240.9,182.38,224,179.72Z"/><path class="cls-8" d="M235.08,109.61c-24.11-3.81-47.42,11-52.18,34-5,24.16,12.2,48.13,38.56,52.29s50.08-13.35,52.77-37.88C276.79,134.69,259.18,113.41,235.08,109.61Zm-13.44,85.18c-25.7-4-42.48-27.41-37.64-51,4.62-22.47,27.38-37,50.93-33.25s40.73,24.51,38.2,47.31C270.48,181.79,247.33,198.84,221.64,194.79Z"/><path class="cls-8" d="M237.33,95.34c-32.45-5.12-64.2,14.56-71.19,45.65-7.47,33.26,15.88,66.78,52.54,72.56s69.19-18.92,72.31-52.86C293.92,129,269.77,100.46,237.33,95.34Zm-18.47,117c-36-5.67-58.92-38.55-51.62-71.2,6.84-30.57,38-49.94,69.94-44.91s55.62,33.07,52.72,64.26C286.78,193.83,254.83,218.05,218.86,212.37Z"/><g class="cls-9"><path class="cls-8" d="M237.33,95.34c-32.45-5.12-64.2,14.56-71.19,45.65-7.47,33.26,15.88,66.78,52.54,72.56s69.19-18.92,72.31-52.86C293.92,129,269.77,100.46,237.33,95.34Z"/></g><g class="cls-10"><g class="cls-11"><path class="cls-12" d="M166.14,141a57.61,57.61,0,0,0,8.77,45.07l53.91-36.79-35.3-45.58A58.57,58.57,0,0,0,166.14,141Z"/></g></g><g class="cls-10"><g class="cls-13"><path class="cls-14" d="M191.27,105.1l37.55,44.17-35.3-45.58Q192.38,104.37,191.27,105.1Z"/></g></g><path class="cls-15" d="M229.4,143.63a7.12,7.12,0,1,0,6.3,8.15A7.27,7.27,0,0,0,229.4,143.63Z"/><polygon class="cls-16" points="336.65 206.16 334.24 251.79 282.4 243.61 281.87 247 337.35 255.76 339.8 206.66 336.65 206.16"/><polygon class="cls-16" points="303.22 81.85 302.82 84.38 342.74 90.68 340.44 134.14 343.4 134.61 345.71 88.56 303.22 81.85"/><polygon class="cls-16" points="101.67 169.09 98.52 168.59 85.73 216.06 147.35 225.78 147.89 222.39 89.91 213.24 101.67 169.09"/><polygon class="cls-16" points="117.27 98.93 120.23 99.39 131.43 57.34 174.86 64.19 175.26 61.66 129.26 54.41 117.27 98.93"/></g></g></g></svg>