<svg xmlns="http://www.w3.org/2000/svg" xmlns:xlink="http://www.w3.org/1999/xlink" preserveAspectRatio='none' viewBox="0 0 1920.7 156.41"><defs><style>.cls-1{isolation:isolate;}.cls-2,.cls-3,.cls-4,.cls-5,.cls-6,.cls-7,.cls-8{fill-rule:evenodd;}.cls-2{fill:url(#Áĺçűě_ííűé_ăđŕäčĺíň_273);}.cls-3{fill:#ff7c25;}.cls-4{fill:#eb5b25;}.cls-5,.cls-6{fill:#a57c4c;mix-blend-mode:multiply;}.cls-5{opacity:0.5;}.cls-6{opacity:0.3;}.cls-7{fill:#df5f25;}.cls-8{fill:#ce5325;}</style><linearGradient id="Áĺçűě_ííűé_ăđŕäčĺíň_273" x1="960.35" y1="156.41" x2="960.35" gradientUnits="userSpaceOnUse"><stop offset="0" stop-color="#a33440"/><stop offset="1" stop-color="#c65225"/></linearGradient></defs><title>Zasób 6</title><g class="cls-1"><g id="Warstwa_2" data-name="Warstwa 2"><g id="Warstwa_1-2" data-name="Warstwa 1"><polygon class="cls-2" points="0 40.81 376.95 37.12 389.96 44.94 451.42 40.81 476.56 17.58 681.46 14.66 700.32 32.22 1152.47 44.15 1187.01 35.98 1383.01 35.98 1395.01 22.95 1497.63 0 1537.53 28.9 1778.01 43.16 1798.52 47.69 1920.7 46.84 1920.7 156.41 0 156.41 0 40.81"/><polygon class="cls-3" points="476.56 17.58 522.29 28.45 681.46 14.66 476.56 17.58"/><polygon class="cls-3" points="700.32 32.22 436.69 59.83 929.25 68.47 1383.01 35.98 700.32 32.22"/><polygon class="cls-3" points="376.95 37.12 341.5 49.77 0 78.46 0 40.81 376.95 37.12"/><polygon class="cls-4" points="0 89.88 355.61 80.41 1462.59 89.88 526.08 156.41 0 156.41 0 89.88"/><polygon class="cls-3" points="1497.63 0 1470.52 22.95 1395.01 22.95 1497.63 0"/><polygon class="cls-3" points="1537.53 28.9 1326.7 46.24 1778.01 43.16 1537.53 28.9"/><polygon class="cls-4" points="1798.52 47.69 1593.61 56.8 1169.89 72.62 1920.7 77.86 1920.7 46.84 1798.52 47.69"/><polygon class="cls-4" points="852.97 156.41 1920.7 118.41 1920.7 156.41 852.97 156.41"/><polygon class="cls-5" points="929.25 68.47 924.65 85.28 1162.98 87.32 1169.89 72.62 1309.93 67.39 1326.7 46.24 1386.84 41.3 1383.01 35.98 929.25 68.47"/><polygon class="cls-5" points="436.69 59.83 418.18 80.95 355.61 80.41 253.17 81.78 341.5 49.77 376.95 37.12 389.96 44.94 451.42 40.81 476.56 55.5 436.69 59.83"/><polygon class="cls-5" points="1462.59 89.88 1486.95 133.85 1650.6 128.03 1658.56 76.03 1386.84 74.31 1392.32 87.23 1462.59 89.88"/><polygon class="cls-6" points="1733.89 125.06 1749.26 76.67 1770.99 76.82 1752.28 124.41 1733.89 125.06"/><polygon class="cls-5" points="1766.54 123.9 1787.14 76.93 1801.25 77.03 1770.66 123.9 1766.54 123.9"/><polygon class="cls-6" points="1055.85 118.78 1074.25 148.54 1055.85 149.19 1046.77 119.42 1055.85 118.78"/><polygon class="cls-6" points="1065.23 118.11 1080.69 148.31 1105.7 147.42 1105.7 115.24 1065.23 118.11"/><polygon class="cls-6" points="872.93 131.78 915.99 154.17 872.93 154.17 847.59 133.99 872.93 131.78"/><polygon class="cls-7" points="878.7 67.58 960.35 66.48 924.65 80.26 878.7 67.58"/><polygon class="cls-8" points="753.86 140.23 797.45 133.99 941.3 126.92 819.79 140.23 753.86 140.23"/><polygon class="cls-8" points="1394.25 94.74 1364.83 101.61 1344.53 98.27 1394.25 94.74"/><polygon class="cls-7" points="436.69 59.83 488.52 64.29 579.01 62.33 436.69 59.83"/><polygon class="cls-7" points="1043.62 60.28 1074.25 60.47 1079.94 57.68 1043.62 60.28"/></g></g></g></svg>