<svg xmlns="http://www.w3.org/2000/svg" xmlns:xlink="http://www.w3.org/1999/xlink" viewBox="0 0 209.29 474.94"><defs><style>.cls-1{isolation:isolate;}.cls-2{fill:#ce4d2a;}.cls-10,.cls-11,.cls-12,.cls-13,.cls-14,.cls-15,.cls-17,.cls-18,.cls-19,.cls-2,.cls-20,.cls-21,.cls-22,.cls-23,.cls-24,.cls-25,.cls-26,.cls-27,.cls-28,.cls-29,.cls-3,.cls-30,.cls-31,.cls-33,.cls-34,.cls-35,.cls-36,.cls-37,.cls-39,.cls-4,.cls-40,.cls-41,.cls-5,.cls-7,.cls-8,.cls-9{fill-rule:evenodd;}.cls-3{fill:url(#Áĺçűě_ííűé_ăđŕäčĺíň_14);}.cls-15,.cls-4{fill:#606060;}.cls-5{fill:url(#radial-gradient);}.cls-6,.cls-7{fill:#5b5b5b;}.cls-8{fill:url(#Áĺçűě_ííűé_ăđŕäčĺíň_136);}.cls-10,.cls-15,.cls-17,.cls-35,.cls-9{opacity:0.5;}.cls-10,.cls-17,.cls-9{mix-blend-mode:multiply;}.cls-9{fill:url(#Áĺçűě_ííűé_ăđŕäčĺíň_11);}.cls-10{fill:url(#Áĺçűě_ííűé_ăđŕäčĺíň_11-2);}.cls-11{fill:url(#Áĺçűě_ííűé_ăđŕäčĺíň_12);}.cls-12{fill:#a3345f;}.cls-13{fill:url(#Áĺçűě_ííűé_ăđŕäčĺíň_129);}.cls-14{fill:url(#Áĺçűě_ííűé_ăđŕäčĺíň_12-2);}.cls-16,.cls-32,.cls-35,.cls-36,.cls-37{fill:#fff;}.cls-17{fill:url(#Áĺçűě_ííűé_ăđŕäčĺíň_11-3);}.cls-18{fill:url(#Áĺçűě_ííűé_ăđŕäčĺíň_8);}.cls-19{fill:url(#Áĺçűě_ííűé_ăđŕäčĺíň_10);}.cls-20{fill:url(#Áĺçűě_ííűé_ăđŕäčĺíň_8-2);}.cls-21{fill:url(#Áĺçűě_ííűé_ăđŕäčĺíň_10-2);}.cls-22{fill:url(#Áĺçűě_ííűé_ăđŕäčĺíň_9);}.cls-23{fill:url(#Áĺçűě_ííűé_ăđŕäčĺíň_9-2);}.cls-24{fill:url(#Áĺçűě_ííűé_ăđŕäčĺíň_9-3);}.cls-25{fill:url(#Áĺçűě_ííűé_ăđŕäčĺíň_9-4);}.cls-26{fill:url(#Áĺçűě_ííűé_ăđŕäčĺíň_9-5);}.cls-27{fill:url(#Áĺçűě_ííűé_ăđŕäčĺíň_9-6);}.cls-28{fill:url(#Áĺçűě_ííűé_ăđŕäčĺíň_9-7);}.cls-29{fill:url(#Áĺçűě_ííűé_ăđŕäčĺíň_9-8);}.cls-30{fill:#707070;}.cls-31{fill:#b64227;}.cls-32,.cls-35,.cls-36,.cls-38{mix-blend-mode:soft-light;}.cls-33{fill:url(#Áĺçűě_ííűé_ăđŕäčĺíň_136-2);}.cls-34{fill:url(#Áĺçűě_ííűé_ăđŕäčĺíň_136-3);}.cls-38{opacity:0.36;}.cls-39{fill:url(#Áĺçűě_ííűé_ăđŕäčĺíň_8-3);}.cls-40{fill:url(#Áĺçűě_ííűé_ăđŕäčĺíň_8-4);}.cls-41{fill:url(#Áĺçűě_ííűé_ăđŕäčĺíň_8-5);}.cls-42,.cls-43,.cls-44{mix-blend-mode:screen;}.cls-42{fill:url(#Áĺçűě_ííűé_ăđŕäčĺíň_217);}.cls-43{fill:url(#Áĺçűě_ííűé_ăđŕäčĺíň_217-2);}.cls-44{fill:url(#Áĺçűě_ííűé_ăđŕäčĺíň_217-3);}</style><radialGradient id="Áĺçűě_ííűé_ăđŕäčĺíň_14" cx="-177.74" cy="-5595.64" r="111.49" gradientTransform="translate(350.09 12968.23) scale(1.25 2.29)" gradientUnits="userSpaceOnUse"><stop offset="0" stop-color="#e7e7e7"/><stop offset="0.77" stop-color="silver"/><stop offset="0.96" stop-color="#e1e1e1"/></radialGradient><radialGradient id="radial-gradient" cx="105.06" cy="1037.98" r="37.61" gradientTransform="translate(0 -927.38) scale(1 0.91)" gradientUnits="userSpaceOnUse"><stop offset="0.02" stop-color="#858585"/><stop offset="0.7" stop-color="#919191"/><stop offset="0.99" stop-color="#989898"/></radialGradient><linearGradient id="Áĺçűě_ííűé_ăđŕäčĺíň_136" x1="104.05" y1="15.57" x2="104.05" gradientUnits="userSpaceOnUse"><stop offset="0" stop-color="#ffff3c"/><stop offset="1" stop-color="#e0741b"/></linearGradient><radialGradient id="Áĺçűě_ííűé_ăđŕäčĺíň_11" cx="103.94" cy="-4407.65" r="66.44" gradientTransform="translate(0 8444.75) scale(1 1.84)" gradientUnits="userSpaceOnUse"><stop offset="0.02" stop-color="#b4b4b4"/><stop offset="0.65" stop-color="#a8a8a8"/><stop offset="0.99" stop-color="#9f9f9f"/></radialGradient><radialGradient id="Áĺçűě_ííűé_ăđŕäčĺíň_11-2" cx="104.27" cy="153.42" r="70.64" gradientTransform="matrix(1, 0, 0, 1, 0, 0)" xlink:href="#Áĺçűě_ííűé_ăđŕäčĺíň_11"/><radialGradient id="Áĺçűě_ííűé_ăđŕäčĺíň_12" cx="-27.44" cy="-4546.66" r="80.05" gradientTransform="translate(132.57 8444.75) scale(1.1 1.84)" gradientUnits="userSpaceOnUse"><stop offset="0.02" stop-color="#aeaeae"/><stop offset="0.63" stop-color="#a2a2a2"/><stop offset="0.99" stop-color="#989898"/></radialGradient><linearGradient id="Áĺçűě_ííűé_ăđŕäčĺíň_129" x1="104.83" y1="197.36" x2="104.83" y2="88.39" gradientUnits="userSpaceOnUse"><stop offset="0" stop-color="#ffff3c"/><stop offset="1" stop-color="#e17e59"/></linearGradient><radialGradient id="Áĺçűě_ííűé_ăđŕäčĺíň_12-2" cx="105.09" cy="-4352" r="26.1" gradientTransform="translate(0 8444.75) scale(1 1.84)" xlink:href="#Áĺçűě_ííűé_ăđŕäčĺíň_12"/><radialGradient id="Áĺçűě_ííűé_ăđŕäčĺíň_11-3" cx="104.85" cy="61.8" r="48.09" gradientTransform="matrix(1, 0, 0, 1, 0, 0)" xlink:href="#Áĺçűě_ííűé_ăđŕäčĺíň_11"/><linearGradient id="Áĺçűě_ííűé_ăđŕäčĺíň_8" x1="101.18" y1="293.51" x2="101.18" y2="286.94" gradientUnits="userSpaceOnUse"><stop offset="0" stop-color="#8bc4fb"/><stop offset="0.32" stop-color="#818181"/></linearGradient><radialGradient id="Áĺçűě_ííűé_ăđŕäčĺíň_10" cx="101.65" cy="288.95" r="2.59" gradientUnits="userSpaceOnUse"><stop offset="0.02" stop-color="#b4b4b4"/><stop offset="0.65" stop-color="#a8a8a8"/><stop offset="1" stop-color="#9f9f9f"/></radialGradient><linearGradient id="Áĺçűě_ííűé_ăđŕäčĺíň_8-2" x1="101.18" y1="277.29" x2="101.18" y2="270.72" xlink:href="#Áĺçűě_ííűé_ăđŕäčĺíň_8"/><radialGradient id="Áĺçűě_ííűé_ăđŕäčĺíň_10-2" cx="101.65" cy="272.72" r="2.59" xlink:href="#Áĺçűě_ííűé_ăđŕäčĺíň_10"/><radialGradient id="Áĺçűě_ííűé_ăđŕäčĺíň_9" cx="47.51" cy="162.17" r="2.59" gradientUnits="userSpaceOnUse"><stop offset="0" stop-color="#e7e7e7"/><stop offset="1" stop-color="silver"/></radialGradient><radialGradient id="Áĺçűě_ííűé_ăđŕäčĺíň_9-2" cx="53.28" cy="115.63" r="2.59" xlink:href="#Áĺçűě_ííűé_ăđŕäčĺíň_9"/><radialGradient id="Áĺçűě_ííűé_ăđŕäčĺíň_9-3" cx="78.29" cy="198.92" r="2.59" xlink:href="#Áĺçűě_ííűé_ăđŕäčĺíň_9"/><radialGradient id="Áĺçűě_ííűé_ăđŕäčĺíň_9-4" cx="129.21" cy="202.88" r="2.59" xlink:href="#Áĺçűě_ííűé_ăđŕäčĺíň_9"/><radialGradient id="Áĺçűě_ííűé_ăđŕäčĺíň_9-5" cx="163.68" cy="172.19" r="2.59" xlink:href="#Áĺçűě_ííűé_ăđŕäčĺíň_9"/><radialGradient id="Áĺçűě_ííűé_ăđŕäčĺíň_9-6" cx="158.4" cy="113.92" r="2.59" xlink:href="#Áĺçűě_ííűé_ăđŕäčĺíň_9"/><radialGradient id="Áĺçűě_ííűé_ăđŕäčĺíň_9-7" cx="132.49" cy="83.88" r="2.59" xlink:href="#Áĺçűě_ííűé_ăđŕäčĺíň_9"/><radialGradient id="Áĺçűě_ííűé_ăđŕäčĺíň_9-8" cx="88.87" cy="79.17" r="2.59" xlink:href="#Áĺçűě_ííűé_ăđŕäčĺíň_9"/><linearGradient id="Áĺçűě_ííűé_ăđŕäčĺíň_136-2" x1="194.31" y1="133.17" x2="202.52" y2="133.17" xlink:href="#Áĺçűě_ííűé_ăđŕäčĺíň_136"/><linearGradient id="Áĺçűě_ííűé_ăđŕäčĺíň_136-3" x1="8.44" y1="130.93" x2="16.16" y2="130.93" xlink:href="#Áĺçűě_ííűé_ăđŕäčĺíň_136"/><linearGradient id="Áĺçűě_ííűé_ăđŕäčĺíň_8-3" x1="49.8" y1="339.73" x2="49.8" y2="332.13" xlink:href="#Áĺçűě_ííűé_ăđŕäčĺíň_8"/><linearGradient id="Áĺçűě_ííűé_ăđŕäčĺíň_8-4" x1="159.23" y1="331.83" x2="159.23" y2="324.23" xlink:href="#Áĺçűě_ííűé_ăđŕäčĺíň_8"/><linearGradient id="Áĺçűě_ííűé_ăđŕäčĺíň_8-5" x1="107.17" y1="331.23" x2="107.17" y2="323.63" xlink:href="#Áĺçűě_ííűé_ăđŕäčĺíň_8"/><radialGradient id="Áĺçűě_ííűé_ăđŕäčĺíň_217" cx="-837.71" cy="-414.17" r="15.03" gradientTransform="translate(1477.39 450.32) rotate(-21.18) scale(1.47)" gradientUnits="userSpaceOnUse"><stop offset="0" stop-color="#223ceb"/><stop offset="0.05" stop-color="#1f37d6"/><stop offset="0.19" stop-color="#17289e"/><stop offset="0.34" stop-color="#101c6d"/><stop offset="0.48" stop-color="#0a1246"/><stop offset="0.62" stop-color="#060a27"/><stop offset="0.75" stop-color="#030412"/><stop offset="0.88" stop-color="#010104"/><stop offset="1"/></radialGradient><radialGradient id="Áĺçűě_ííűé_ăđŕäčĺíň_217-2" cx="-806.73" cy="-401.74" r="5.79" xlink:href="#Áĺçűě_ííűé_ăđŕäčĺíň_217"/><radialGradient id="Áĺçűě_ííűé_ăđŕäčĺíň_217-3" cx="-878.05" cy="-423.61" r="5.79" xlink:href="#Áĺçűě_ííűé_ăđŕäčĺíň_217"/></defs><title>Zasób 5</title><g class="cls-1"><g id="Warstwa_2" data-name="Warstwa 2"><g id="Warstwa_1-2" data-name="Warstwa 1"><path class="cls-2" d="M177.4,356l31.67-5.84s5.07,58.93-32.94,124.75h-3l2.41-88.23-6.34-.22Z"/><path class="cls-2" d="M32.76,356.19l-32.53-6s-5.08,58.93,32.93,124.75h3l-2.4-88.23,6.33-.22Z"/><path class="cls-3" d="M104.94,13.8c-41,0-105.22,98.87-100,190.83s47.5,227.06,47.5,227.06l52.53.52,52.53-.52s42.3-135.1,47.49-227.06S145.67,13.8,104.94,13.8Z"/><path class="cls-4" d="M52.41,431.69s59.79-5.32,105.06,0C157.47,431.69,98.8,437.5,52.41,431.69Z"/><path class="cls-5" d="M49.85,55.43S108,37,163.21,60.23c0,0-28.51-46.16-58.27-46.43C78.17,13.56,49.85,55.43,49.85,55.43Z"/><path class="cls-6" d="M162.92,60.9C111.6,38.75,50.67,56,50.06,56.14l-.41-1.42c.61-.18,62.05-17.53,113.86,4.83Z"/><path class="cls-7" d="M91.14,17.05l30.72,1.55S106.28,7.48,91.14,17.05Z"/><path class="cls-8" d="M95.41,15.57a65.25,65.25,0,0,1,17.28-.44S109.31.52,104.05,0,95.41,15.57,95.41,15.57Z"/><path class="cls-9" d="M28.11,342.41s88.63-29.08,155.71-8.64c-8.74,38.4-26.35,97.92-26.35,97.92s-40.15-5.64-105.06,0C52.41,431.69,36.09,387.35,28.11,342.41Z"/><path class="cls-10" d="M101.52,80.28c-37,2.88-63.36,47-65,85.49s33.47,62,71,60.93,68.57-26.87,64.28-69C167.85,119.59,142.58,77.08,101.52,80.28Z"/><path class="cls-4" d="M101.52,74.16c-37,2.88-63.36,47-65,85.48s33.47,62,71,60.94,68.57-26.88,64.28-69C167.85,113.47,142.58,71,101.52,74.16Z"/><path class="cls-11" d="M101.52,69.88c-37,2.89-63.36,47-65,85.49s33.47,62,71,60.93,68.57-26.87,64.28-69C167.85,109.2,142.58,66.68,101.52,69.88Z"/><path class="cls-12" d="M104,83.56c-33.15,2-49.78,36.69-51.11,66.73s26.3,48.39,55.78,47.57,53.88-21,50.51-53.88C156.09,114.25,138.61,81.43,104,83.56Z"/><path class="cls-13" d="M139.65,187.07l0,0,0,0c-8.47,6.31-19.36,9.87-31.11,10.21-28,.79-56.89-18.46-55.63-47.05A78.87,78.87,0,0,1,59.44,122C67.23,104.34,82,90.3,104,88.54c32.52-2.6,49.62,29.21,52.52,57.52C158.41,164.25,151.37,178.32,139.65,187.07Z"/><rect class="cls-6" x="106.8" y="220.58" width="0.74" height="106.86"/><path class="cls-6" d="M28.21,342.76l-.2-.71c101.4-29.36,155.41-8.84,155.94-8.63l-.27.69C183.14,333.9,129.34,313.47,28.21,342.76Z"/><path class="cls-6" d="M20.26,307.12l-.41-.62c.31-.2,31.65-20.56,87.3-23.57l0,.74C51.74,286.66,20.56,306.92,20.26,307.12Z"/><polygon class="cls-4" points="119.39 404.32 117.91 358.2 130.52 355.01 129.28 404.32 119.39 404.32"/><path class="cls-14" d="M61.09,432.63s45.63-4.39,90.35-.42l-2.71,20.67-85.12-2.27Z"/><path class="cls-15" d="M62.36,441.71a79,79,0,0,1,35.91-7.92c20.49.43,51.09,14.3,51.09,14.3l2.08-15.88s-48.74-4.75-90.35.42Z"/><path class="cls-16" d="M124.38,101.17s7.81,7.08,14.71,20.49l7.13-4.14s-5.48-13.17-15.68-17.82Z"/><polygon class="cls-16" points="63.18 159.62 69.06 170 63.18 173.47 58.95 164.81 63.18 159.62"/><path class="cls-17" d="M38,74.09s58.14-30,133.77-.11l-8.53-13.75s-43.69-20.49-113.36-4.8Z"/><path class="cls-18" d="M104.47,290.23a3.29,3.29,0,1,1-3.29-3.29A3.28,3.28,0,0,1,104.47,290.23Z"/><path class="cls-19" d="M103.77,290.23a2.59,2.59,0,1,1-2.59-2.59A2.59,2.59,0,0,1,103.77,290.23Z"/><path class="cls-20" d="M104.47,274a3.29,3.29,0,1,1-3.29-3.28A3.29,3.29,0,0,1,104.47,274Z"/><path class="cls-21" d="M103.77,274a2.59,2.59,0,1,1-2.59-2.59A2.58,2.58,0,0,1,103.77,274Z"/><path class="cls-4" d="M50.34,163.45a3.29,3.29,0,1,1-3.29-3.29A3.29,3.29,0,0,1,50.34,163.45Z"/><path class="cls-22" d="M49.64,163.45a2.59,2.59,0,1,1-2.59-2.59A2.59,2.59,0,0,1,49.64,163.45Z"/><path class="cls-4" d="M56.1,116.91a3.29,3.29,0,1,1-3.28-3.29A3.28,3.28,0,0,1,56.1,116.91Z"/><path class="cls-23" d="M55.4,116.91a2.59,2.59,0,1,1-2.58-2.59A2.59,2.59,0,0,1,55.4,116.91Z"/><path class="cls-4" d="M81.11,200.2a3.29,3.29,0,1,1-3.29-3.29A3.29,3.29,0,0,1,81.11,200.2Z"/><path class="cls-24" d="M80.41,200.2a2.59,2.59,0,1,1-2.59-2.59A2.59,2.59,0,0,1,80.41,200.2Z"/><path class="cls-4" d="M132,204.16a3.29,3.29,0,1,1-3.29-3.29A3.28,3.28,0,0,1,132,204.16Z"/><path class="cls-25" d="M131.33,204.16a2.59,2.59,0,1,1-2.59-2.59A2.59,2.59,0,0,1,131.33,204.16Z"/><path class="cls-4" d="M166.5,173.47a3.29,3.29,0,1,1-3.29-3.28A3.29,3.29,0,0,1,166.5,173.47Z"/><path class="cls-26" d="M165.8,173.47a2.59,2.59,0,1,1-2.59-2.59A2.59,2.59,0,0,1,165.8,173.47Z"/><path class="cls-4" d="M161.23,115.2a3.29,3.29,0,1,1-3.29-3.28A3.29,3.29,0,0,1,161.23,115.2Z"/><path class="cls-27" d="M160.53,115.2a2.59,2.59,0,1,1-2.59-2.58A2.58,2.58,0,0,1,160.53,115.2Z"/><path class="cls-4" d="M135.32,85.16A3.29,3.29,0,1,1,132,81.87,3.29,3.29,0,0,1,135.32,85.16Z"/><path class="cls-28" d="M134.62,85.16A2.59,2.59,0,1,1,132,82.57,2.59,2.59,0,0,1,134.62,85.16Z"/><path class="cls-4" d="M91.69,80.45a3.29,3.29,0,1,1-3.29-3.29A3.29,3.29,0,0,1,91.69,80.45Z"/><path class="cls-29" d="M91,80.45a2.59,2.59,0,1,1-2.59-2.59A2.59,2.59,0,0,1,91,80.45Z"/><polygon class="cls-30" points="36.17 474.94 38.59 474.94 36.17 386.62 33.77 386.71 36.17 474.94"/><polygon class="cls-30" points="175.53 386.71 173.13 386.62 171.5 474.94 173.13 474.94 175.53 386.71"/><polygon class="cls-31" points="127.88 336.32 136.54 336.32 127.88 474.94 121.86 474.94 127.88 336.32"/><polygon class="cls-2" points="127.88 336.32 121.86 367 121.86 474.94 127.88 336.32"/><polygon class="cls-15" points="136.27 340.59 157.47 431.69 136.54 430.55 136.27 452.55 129.28 452.55 136.27 340.59"/><path class="cls-16" d="M31.37,100.57S30.52,91,36.56,85.16l4.92.24a161,161,0,0,1-7.66,15.17Z"/><polygon class="cls-32" points="183.81 310.37 192.87 269.14 195.4 269.14 186.8 310.37 183.81 310.37"/><path class="cls-33" d="M194.31,125.89s15.29-3.16,4.14,14.78Z"/><path class="cls-34" d="M16.16,123.84S2,128,12.07,138Z"/><path class="cls-35" d="M67.24,430.19S27.75,308.06,12.3,216.9l-3.86,1.9S27,358.67,54.51,431.51Z"/><polygon class="cls-36" points="194.26 259.78 198.81 234.36 201.21 234.36 196.66 259.78 194.26 259.78"/><path class="cls-36" d="M34.94,301s26.18-11.68,51.12-14.09C86.06,286.94,61.21,292.5,34.94,301Z"/><path class="cls-36" d="M108.38,230.53,109,324.2S110.63,290.23,108.38,230.53Z"/><path class="cls-36" d="M47.05,338.53S109.41,320.2,169.19,332C169.19,332,124.87,321.08,47.05,338.53Z"/><path class="cls-37" d="M61,92.55S69.47,96,74.45,80.11C74.45,80.11,66,86.07,61,92.55Z"/><path class="cls-36" d="M114.89,215.75s20.41-1.07,44.56-23.19C159.45,192.56,145,212.73,114.89,215.75Z"/><path class="cls-36" d="M107.17,197.88s17.82,9.57,30-8C137.17,189.91,127.71,198.36,107.17,197.88Z"/><g class="cls-38"><path class="cls-37" d="M103.7,238c-1.06.72-3.09,1.73-2.75,3.33.16.75.6,1.39.83,2.12a8.66,8.66,0,0,1,.4,1.95,5.73,5.73,0,0,0,1.2,3c.49.53,1,0,1.33-.52a3.7,3.7,0,0,0,.77-1.77,11.9,11.9,0,0,1,.3-2.53c.08-.32.33-.61.4-.95a5.87,5.87,0,0,0,.06-1.39A3.52,3.52,0,0,0,103.7,238Z"/><path class="cls-37" d="M99.4,251.4a1,1,0,0,1,.24-1.1c1.58,0,2.13,3.16.65,3.76-1.71.7-1.92-1.64-1.39-2.66Z"/><path class="cls-37" d="M70.32,271.38c.82-.4,1.51-.94,2.42-.74a3.66,3.66,0,0,1,1.91,1.22,6.75,6.75,0,0,1,1.18,2.58,2.43,2.43,0,0,1,.22,1.35c-.49,1.85-2.61,3.16-4.29,3.7a12.87,12.87,0,0,1-2.9.74,20.6,20.6,0,0,0-2.09.29,4.17,4.17,0,0,1-1.71.18,5,5,0,0,1-1.35-.75,4.2,4.2,0,0,1-1.76-3.5c.09-2.42,3-4.35,5-5.33C68.51,270.31,71.08,269.31,70.32,271.38Z"/><path class="cls-37" d="M77.9,268.09c-.23.69-.43.9.13,1.28a1.68,1.68,0,0,0,1.4.12c.85-.28,1.91-1.56,1.28-2.43-.32-.44-1.07-1.22-1.6-1.27a2.49,2.49,0,0,0-2.22,2.3Z"/><path class="cls-37" d="M109.52,291.74a3.11,3.11,0,0,0-.13,1.1c0,.94,0,1.88,0,2.82,0,1.77-.26,3.54-.26,5.31a23.61,23.61,0,0,0,.41,3.84c.1.64.23,1.33.38,2,.15,0,.18-.37.24-.52.22-.49.35-1,.61-1.5.58-1.06,1.16-2.16,1.66-3.27a3,3,0,0,1,.26-.62c.17-.22.43-.44.62-.66a5.06,5.06,0,0,0,.85-1.29,8.45,8.45,0,0,0,.41-3.64c0-.41-.12-.79-.13-1.2a9.47,9.47,0,0,0-.09-1.3,7.46,7.46,0,0,0-1-2.59c-.55-.94-1.17-2.59-2.38-2.85-.59-.13-.81.52-.9,1s-.11,1.22-.2,1.83C109.73,291,109.45,291.94,109.52,291.74Z"/><path class="cls-37" d="M110.78,283.39c.27-.45.63-1.27,1.3-1.12s.68,1.08.61,1.6c-.18,1.23-1.75-.06-1.65-.86Z"/><path class="cls-37" d="M122.8,291.1a2.32,2.32,0,0,0-.33,1.46,1.36,1.36,0,0,0,1.47,1.08c1.12.05,1.89-.24,2.12-1.39a3,3,0,0,0-.86-2.29,1.47,1.47,0,0,0-.92-.38c-.69-.05-1,.49-1.36,1Z"/><path class="cls-37" d="M148.09,326.39a23.59,23.59,0,0,1,5.25-1.91,44.29,44.29,0,0,1,4.89-.33,47.77,47.77,0,0,0,6.65-1.53,12.12,12.12,0,0,1,5.86-.27,5.93,5.93,0,0,1,3.82,2.77,8.77,8.77,0,0,1,.82,2.83c.06.47.09.89.15,1.35a5,5,0,0,1,.13.82c0,.43-.19.45-.6.44a3.64,3.64,0,0,1-2-.5,10.28,10.28,0,0,0-3.54-1.14c-1.18-.21-2.32-.49-3.52-.64s-2.34-.28-3.51-.44c-1-.14-2-.31-3-.45s-2-.14-3-.22c-.83-.06-1.67,0-2.5-.05a13.44,13.44,0,0,0-1.55-.1,6.05,6.05,0,0,1-1.21-.1c-.4-.06-.79,0-1.18,0A9.21,9.21,0,0,1,148.09,326.39Z"/><path class="cls-37" d="M158.84,319.05c-.26.22-.6.41-.67.73a1.82,1.82,0,0,0,0,.52c.17.75,1.42.79,2,.8a7.06,7.06,0,0,0,4.86-1.74,4,4,0,0,0,1.27-3.28c-.32-1.58-2-2.46-3.47-2.79s-3.26-.38-4.32.7a2.42,2.42,0,0,0-.75,1.4c0,.41.13.82.13,1.24s-.28,1,0,1.59A1.89,1.89,0,0,0,158.84,319.05Z"/><path class="cls-37" d="M169,319.18a.8.8,0,0,1,.2-.89.82.82,0,0,1,.93-.36,1.13,1.13,0,0,1,.77,1.51,1.38,1.38,0,0,1-1.1.63,1.05,1.05,0,0,1-1.06-.76Z"/><path class="cls-37" d="M182,282.51a2.19,2.19,0,0,0-1.31,1,.87.87,0,0,0-.12.89,4.4,4.4,0,0,0,2.32,2,2.57,2.57,0,0,0,2-.15,6.17,6.17,0,0,0,1.31-1.34c.36-.41.68-.83,1-1.27a2.16,2.16,0,0,0,.41-2.51,3,3,0,0,0-2.49-1.33,4.15,4.15,0,0,0-1.86.65C182.67,280.81,182.12,281,182,282.51Z"/><path class="cls-37" d="M178.57,286.3a3.88,3.88,0,0,1,1.45.4c0,.22.27.35.17.61s-.76.27-1.06.26a1.54,1.54,0,0,1-1-.45c-.09-.09-.51-.53-.17-.57Z"/><path class="cls-37" d="M132.91,315.89c-.31.59-.67,1.22-.11,1.86a1.9,1.9,0,0,0,2.13.16c.34-.15.72-.31.77-.7s0-.83,0-1.22c0-.95,1-1.63.12-2.54a2.05,2.05,0,0,0-1.63-.58c-1,.19-1.44,1.19-1.77,2Z"/><path class="cls-37" d="M56.28,350.92a5.84,5.84,0,0,0-2.83,1.55l0,.42a2.7,2.7,0,0,0,.06,2.21C54.67,357.26,56.92,357,59,357s5,.23,4-2.8c-.46-1.38-1.09-3.64-2.37-4.51-.69-.46-1-.25-1.69,0a7.66,7.66,0,0,0-2.59,1.24Z"/><path class="cls-37" d="M81.32,354.34c.33-.6.83-1.74,1.69-1.84.69-.08.93.33,1.44.69,1.11.79,2.16,1.83,1.06,3.25a3,3,0,0,1-2.49.91c-.72-.13-1.94-1-1.7-1.88Z"/><path class="cls-37" d="M186,163.13c-.81,1.66-.89,1.76-.41,3.44a8.15,8.15,0,0,0,1.54,3.67c1.25,1.31,3,1,4.55,1.33a3,3,0,0,0,3-.49,11.45,11.45,0,0,0,2.72-3.23c2.12-3.75,2-9.25.31-13.1-1.12-2.53-2.8-5.42-5.66-6.23a6.88,6.88,0,0,0-6.87,1.72,7.92,7.92,0,0,0-1.64,7l.48,1.71a12,12,0,0,1,.05,2.24C184.18,162,184.63,162.71,186,163.13Z"/><path class="cls-37" d="M181.47,169.58c1.59,1.26,1.36,1,1.6,2.65.1.71.39.86.23,1.53a2.43,2.43,0,0,1-2.23,1.55c-.67-.06-1.71-1.33-2-1.86a1.79,1.79,0,0,1,.12-2Z"/><path class="cls-37" d="M21.76,169.2c-.34,1.38-.79,3,.73,4,1,.64,2.64,0,3.55-.71A9.47,9.47,0,0,0,29,167.3c.23-1.76-1.88-3.62-3.5-3.83-3.27-.4-5,4.79-5.21,7.25Z"/><path class="cls-37" d="M19.48,184.37c-.19-.38-1-1.5-.84-2,.06-.23.33-.27.44-.45a2.52,2.52,0,0,1,1.62-1.38,3.36,3.36,0,0,1,3.73,1.74,2,2,0,0,1-.24,2.66c-.85.84-2.69,1.23-3.57.18Z"/><path class="cls-37" d="M164.78,360.4a11.81,11.81,0,0,0-.48,7.44c.31,1.61.54,3.74,2.27,4.46,4.05,1.68,7.17-7,7.94-9.8a17.85,17.85,0,0,0,.46-7.42c-.26-1.46-1.4-4.36-2.82-5.1-1.83-1-3.9.21-5,1.66-2.57,3.34-1.91,7.63-3.11,11.42Z"/><path class="cls-37" d="M162.7,359.84a9.91,9.91,0,0,0-2.91.64c-.45.29-1.16.75-1.29,1.28a2.24,2.24,0,0,0,.86,2,1.56,1.56,0,0,0,1.44.45c.36-.15.67-.67.9-1a9.18,9.18,0,0,0,1-1.86,4.13,4.13,0,0,0,.39-.94c.1-.53-.25-.71-.38-1.13Z"/><path class="cls-37" d="M160.42,381.08l1.37.64c-.09.53.11,1.16-.41,1.5a2.6,2.6,0,0,1-1.72.11,1.33,1.33,0,0,1-.95-1.3c0-.72.67-1,1.33-1.14Z"/><path class="cls-37" d="M97.44,409.73a1.45,1.45,0,0,0,.25,1.71,2.06,2.06,0,0,0,2.78.28c1.19-.93,2.5-3,2.17-4.61-.22-1-1.52-2.18-2.54-1.57a7.53,7.53,0,0,0-1.62,1.15,4.68,4.68,0,0,0-1,2.85Z"/><path class="cls-37" d="M147.71,74.73c-.47.45-.72.59-.83,1.2a2.62,2.62,0,0,0,.2,2c.78,1.23,2.74,2.06,4.14,2.39a3.78,3.78,0,0,0,3.33-.64,4.83,4.83,0,0,0,2.14-3.38,3.29,3.29,0,0,0-1.39-3.56A9.92,9.92,0,0,0,151.54,71a3.33,3.33,0,0,0-2.93.9C147.8,72.55,146.74,73.78,147.71,74.73Z"/><path class="cls-37" d="M158.33,79.48c0-.4-.05-.86.39-1a2.7,2.7,0,0,1,1.93.76,2.32,2.32,0,0,1,.55,1.51,1.56,1.56,0,0,1-.68.86,1.33,1.33,0,0,1-1.54.12c-.33-.21-1.16-.64-1-1.14Z"/><path class="cls-37" d="M125.9,29.21a2.53,2.53,0,0,0,.37,1.7,7.2,7.2,0,0,0,2.27,2.26,6.62,6.62,0,0,0,4,1.19,2.68,2.68,0,0,0,2.08-2.13,5.53,5.53,0,0,0-.92-3.64,7.14,7.14,0,0,0-5.9-3C125.19,25.81,125.1,29.68,125.9,29.21Z"/><path class="cls-37" d="M137.08,38.32a2.07,2.07,0,0,1-.58-.94c.38-.18.5-.6.91-.75a1.69,1.69,0,0,1,1.25.15,1.6,1.6,0,0,1,.9,1.35c0,.66-.23.8-.77,1.09-.39.2-.47.29-.9.06a5.7,5.7,0,0,1-.81-.58Z"/></g><path class="cls-39" d="M52.55,335.93c0,2.1-1.23,3.8-2.75,3.8s-2.75-1.7-2.75-3.8,1.23-3.8,2.75-3.8S52.55,333.83,52.55,335.93Z"/><path class="cls-37" d="M52,335.93c0,1.65-1,3-2.16,3s-2.17-1.34-2.17-3,1-3,2.17-3S52,334.28,52,335.93Z"/><path class="cls-40" d="M162.27,328c0,2.1-1.36,3.8-3,3.8s-3-1.7-3-3.8,1.36-3.8,3-3.8S162.27,325.94,162.27,328Z"/><path class="cls-37" d="M161.63,328a2.74,2.74,0,0,1-2.39,3c-1.33,0-2.39-1.34-2.39-3s1.06-3,2.39-3A2.74,2.74,0,0,1,161.63,328Z"/><path class="cls-41" d="M111,327.43a3.8,3.8,0,1,1-3.8-3.8A3.8,3.8,0,0,1,111,327.43Z"/><path class="cls-37" d="M110.16,327.43a3,3,0,1,1-3-3A3,3,0,0,1,110.16,327.43Z"/><path class="cls-42" d="M129,319.45a22.1,22.1,0,1,1-28.59-12.62A22.09,22.09,0,0,1,129,319.45Z"/><path class="cls-43" d="M165.41,325a8.52,8.52,0,1,1-11-4.86A8.52,8.52,0,0,1,165.41,325Z"/><path class="cls-44" d="M56,332.85A8.53,8.53,0,1,1,45,328,8.52,8.52,0,0,1,56,332.85Z"/></g></g></g></svg>